<svg width="283" height="237" viewBox="0 0 283 237" fill="none" xmlns="http://www.w3.org/2000/svg">
<path d="M54.9453 29.5144C54.9453 29.5144 20.1816 56.535 9.88255 87.1905C-0.416471 117.846 14.4802 150.026 49.5144 167.836C84.5486 185.647 131.293 170.181 177.781 175.27C224.269 180.359 267.38 165.855 273.133 128.487C278.885 91.1184 245.254 86.2759 224.978 49.9279C204.701 13.5799 138.646 -30.3895 54.9453 29.5144Z" fill="#00B8CC"/>
<path opacity="0.7" d="M54.9453 29.5144C54.9453 29.5144 20.1816 56.535 9.88255 87.1905C-0.416471 117.846 14.4802 150.026 49.5144 167.836C84.5486 185.647 131.293 170.181 177.781 175.27C224.269 180.359 267.38 165.855 273.133 128.487C278.885 91.1184 245.254 86.2759 224.978 49.9279C204.701 13.5799 138.646 -30.3895 54.9453 29.5144Z" fill="white"/>
<path d="M141.073 237C218.985 237 282.145 225.824 282.145 212.037C282.145 198.25 218.985 187.074 141.073 187.074C63.1603 187.074 0 198.25 0 212.037C0 225.824 63.1603 237 141.073 237Z" fill="#00B8CC"/>
<path opacity="0.5" d="M141.073 237C218.985 237 282.145 225.824 282.145 212.037C282.145 198.25 218.985 187.074 141.073 187.074C63.1603 187.074 0 198.25 0 212.037C0 225.824 63.1603 237 141.073 237Z" fill="white"/>
<path d="M194.913 53.5938C192.355 56.7671 190.618 60.518 189.855 64.5168C188.51 71.311 185.199 84.0765 185.616 88.504C186.032 92.9315 187.078 95.4001 191.09 96.121C195.103 96.8419 197.391 93.3393 198.225 90.3536C198.753 88.3889 199.165 86.395 199.46 84.3823L200.286 68.1579C200.286 68.1579 198.824 58.4072 198.129 56.3536C197.435 54.3001 194.913 53.5938 194.913 53.5938Z" fill="#00B8CC" stroke="#263238" stroke-linecap="round" stroke-linejoin="round"/>
<path d="M248.667 50.3456C248.667 50.3456 250.129 50.0251 251.518 55.0789C252.907 60.1327 254.581 67.3856 257.322 76.328C260.063 85.2703 260.596 88.2196 260.384 90.2149C260.172 92.2102 258.594 94.4239 253.075 94.4239C247.556 94.4239 245.034 92.3194 243.573 87.586C242.111 82.8527 242.323 68.2303 242.22 66.337C242.118 64.4436 246.971 49.3989 248.667 50.3456Z" fill="#00B8CC" stroke="#263238" stroke-linecap="round" stroke-linejoin="round"/>
<path d="M210.965 207.419C210.965 207.419 207.376 211.205 205.264 213.63C203.151 216.055 202.413 217.519 205.892 218.99C209.372 220.461 214.766 218.262 216.352 215.837C217.938 213.412 221.315 210.681 221.315 210.681C221.315 210.681 223.106 208.686 220.782 205.846C218.457 203.006 212.018 206.261 210.965 207.419Z" fill="white" stroke="#263238" stroke-linecap="round" stroke-linejoin="round"/>
<path d="M232.507 210.58C232.507 210.58 236.096 211.105 237.996 212.765C239.896 214.425 246.555 218.132 250.985 216.341C255.414 214.549 252.571 211.607 250.144 209.503C248.781 208.298 247.294 207.241 245.707 206.35C245.707 206.35 238.632 205.825 235.474 207.398C232.317 208.971 232.507 210.58 232.507 210.58Z" fill="white" stroke="#263238" stroke-linecap="round" stroke-linejoin="round"/>
<path d="M206.843 161.652C206.843 161.652 208.539 174.279 207.691 178.066C206.843 181.852 204.416 184.066 206.229 187.751C207.571 190.6 208.553 193.604 209.153 196.693C209.365 197.953 208.203 198.266 209.153 199.606C209.845 200.47 210.414 201.426 210.841 202.446C210.841 202.767 209.577 204.551 209.577 204.973C209.577 205.395 210.213 208.024 210.213 208.024C210.213 208.024 213.59 207.296 216.016 208.235C217.774 208.99 219.44 209.943 220.979 211.075C220.979 211.075 223.172 210.231 223.94 208.971C224.354 208.311 224.604 207.562 224.671 206.786C224.773 206.364 225.833 204.15 225.731 202.468C225.628 200.786 224.459 197.21 224.459 195.106C224.459 193.001 226.045 190.686 226.045 187.321C226.045 183.957 224.459 162.388 224.459 162.388L225.921 161.856C225.921 161.856 228.245 174.694 228.245 180.695C228.245 186.695 226.454 194.159 227.616 195.63C228.779 197.101 230.145 198.368 230.145 198.681C230.145 198.994 228.771 201.31 229.093 202.468C229.595 203.989 230.017 205.535 230.357 207.099C230.357 207.733 231.52 210.151 232.47 210.573C233.42 210.995 233.932 210.041 239.545 208.891C245.159 207.74 248.317 208.046 247.783 206.364C247.25 204.682 246.731 202.468 246.095 202.046C245.459 201.623 246.307 201.317 246.095 199.737C245.883 198.157 244.721 196.475 243.668 193.948C242.615 191.421 244.085 188.69 244.509 186.054C244.933 183.418 244.297 179.5 243.244 175.219C242.191 170.937 243.134 160.385 243.134 160.385L243.668 156.285C243.668 156.285 227.507 157.742 217.581 157.647L206.916 157.545C206.916 157.545 206.214 158.288 206.843 161.652Z" fill="#263238" stroke="#263238" stroke-linecap="round" stroke-linejoin="round"/>
<path d="M247.819 117.676C247.819 117.676 249.281 136.828 251.196 146.804C252.298 152.435 252.997 158.136 253.287 163.866H245.605C245.283 163.866 246.131 128.41 246.336 125.271C246.614 122.702 247.111 120.161 247.819 117.676Z" fill="#00B8CC" stroke="#263238" stroke-linecap="round" stroke-linejoin="round"/>
<path d="M216.009 39.7576C216.009 39.7576 207.033 45.7507 202.392 47.8552C197.75 49.9597 195.206 52.6978 194.892 53.6809C194.578 54.664 199.958 69.7742 199.958 69.7742C199.958 69.7742 199.643 119.751 199.643 128.169C199.643 136.587 197.004 161.936 197.319 161.936C197.633 161.936 206.09 167.412 217.698 167.725C229.305 168.038 233.047 166.356 236.702 166.356C240.357 166.356 247.666 166.356 247.791 165.308C247.915 164.259 248.003 141 248.105 130.164C248.207 119.329 248.317 111.646 248.105 109.862C247.893 108.078 244.94 69.5631 244.94 69.5631C244.94 69.5631 247.133 63.1476 248.427 57.9919C249.72 52.8362 249.691 52.2026 248.105 49.8942C246.519 47.5858 234.619 41.2941 232.507 40.4858C229.911 39.5806 227.208 39.0152 224.466 38.8036C222.478 38.6653 216.009 39.7576 216.009 39.7576Z" fill="#00B8CC" stroke="#263238" stroke-linecap="round" stroke-linejoin="round"/>
<path d="M196.179 82.5396C196.179 82.5396 197.553 85.6927 199.241 87.0617C200.93 88.4307 204.84 89.0643 205.681 91.1688C206.522 93.2733 205.681 94.8462 204.731 97.3731C203.781 99.9 204.314 104.109 200.828 104.655C197.341 105.201 196.288 103.927 193.43 101.917C190.572 99.9073 188.789 99.6014 187.1 96.5502C185.412 93.4991 184.908 89.2682 186.369 86.9816" fill="#00B8CC"/>
<path d="M196.179 82.5396C196.179 82.5396 197.553 85.6927 199.241 87.0617C200.93 88.4307 204.84 89.0643 205.681 91.1688C206.522 93.2733 205.681 94.8462 204.731 97.3731C203.781 99.9 204.314 104.109 200.828 104.655C197.341 105.201 196.288 103.927 193.43 101.917C190.572 99.9073 188.789 99.6014 187.1 96.5502C185.412 93.4991 184.908 89.2682 186.369 86.9816" stroke="#263238" stroke-linecap="round" stroke-linejoin="round"/>
<path d="M215.614 35.6138L215.278 44.4542C215.278 44.4542 214.437 45.714 219.503 46.0271C222.759 46.1972 226.023 45.9525 229.217 45.2989L228.377 35.7303C228.377 35.7303 223.092 37.9149 220.029 36.8881C218.593 36.3498 217.117 35.9237 215.614 35.6138Z" fill="white" stroke="#263238" stroke-linecap="round" stroke-linejoin="round"/>
<path d="M213.604 33.4077C213.604 33.4077 212.873 43.6026 212.34 46.6611C211.806 49.7195 211.916 51.6056 213.071 52.3411C214.225 53.0766 220.987 55.7127 224.473 55.5015C227.96 55.2903 233.245 52.1299 233.661 51.1832C234.078 50.2366 230.504 35.3884 230.504 35.3884L229.97 36.022C229.97 36.022 230.92 43.8065 230.606 44.0322C230.292 44.258 218.041 43.3987 215.819 43.304C213.597 43.2094 214.24 43.0929 214.24 43.0929L214.13 34.1505L213.604 33.4077Z" fill="white" stroke="#263238" stroke-linecap="round" stroke-linejoin="round"/>
<path d="M213.268 45.5391C213.268 45.5391 224.81 47.236 231.732 45.9032" stroke="#263238" stroke-width="0.5" stroke-miterlimit="10"/>
<path d="M212.785 48.2046C212.785 48.2046 220.826 51.5911 231.732 48.5614" stroke="#263238" stroke-width="0.5" stroke-miterlimit="10"/>
<path d="M213.633 51.3506C213.633 51.3506 221.286 55.4655 231.732 51.103" stroke="#263238" stroke-width="0.5" stroke-miterlimit="10"/>
<path d="M232.301 22.6739C232.565 19.4407 232.784 16.12 231.98 14.467C230.715 11.8382 226.907 8.78699 221.418 8.99817C215.928 9.20935 211.279 11.3139 211.389 18.0425C211.389 18.0425 211.623 20.0451 211.893 22.4991C211.39 23.5707 211.215 24.7661 211.389 25.9363C211.559 27.0591 211.955 28.1364 212.551 29.104C212.602 29.7302 212.639 30.2691 212.654 30.6696C212.756 33.5096 214.656 36.8739 216.352 38.0318C218.048 39.1896 221.206 40.981 223.216 40.981C225.226 40.981 228.807 39.0877 230.525 36.3496C231.856 34.165 231.987 32.7086 231.987 30.138H232.089C232.392 28.7879 232.57 27.4132 232.623 26.0309C232.666 24.9026 232.558 23.7737 232.301 22.6739Z" fill="white" stroke="#263238" stroke-linecap="round" stroke-linejoin="round"/>
<path d="M212.354 23.3072C212.354 23.3072 212.669 25.9363 213.195 25.827C213.721 25.7178 214.356 21.938 214.356 21.938L212.354 23.3072Z" fill="#263238" stroke="#263238" stroke-linecap="round" stroke-linejoin="round"/>
<path d="M230.292 23.0088C230.292 23.0088 230.292 25.9584 231.022 26.3808C231.753 26.8032 232.286 23.8536 232.286 23.8536C231.688 23.4365 231.008 23.1487 230.292 23.0088Z" fill="#263238" stroke="#263238" stroke-linecap="round" stroke-linejoin="round"/>
<path d="M231.98 14.467C230.716 11.8382 226.907 8.78699 221.418 8.99817C215.929 9.20935 211.28 11.3139 211.389 18.0425C211.389 18.0425 211.623 20.0451 211.894 22.4991C211.561 23.2106 211.37 23.9798 211.331 24.7639C213.385 23.1254 217.23 20.7806 222.054 21.2029C225.808 21.6291 229.416 22.8963 232.609 24.9095C232.575 24.1565 232.473 23.4082 232.302 22.6739C232.565 19.4407 232.821 16.1419 231.98 14.467Z" fill="#00B8CC" stroke="#263238" stroke-linecap="round" stroke-linejoin="round"/>
<path d="M220.679 25.193L220.043 28.9801C220.043 28.9801 218.881 29.0821 219.312 29.8176C219.744 30.5532 221.951 31.398 223.011 31.0848C224.071 30.7717 225.123 29.7157 225.014 29.2933C224.981 29.1669 224.915 29.0516 224.823 28.9593C224.73 28.8671 224.614 28.8013 224.487 28.7689L223.113 24.8726" stroke="#263238" stroke-linecap="round" stroke-linejoin="round"/>
<path d="M219.517 32.9846C221.545 33.4206 223.65 33.348 225.643 32.7734" stroke="#263238" stroke-linecap="round" stroke-linejoin="round"/>
<path d="M218.355 25.0407C218.355 25.5942 218.07 26.0385 217.719 26.0385C217.368 26.0385 217.091 25.5942 217.091 25.0407C217.091 24.4872 217.376 24.043 217.719 24.043C218.063 24.043 218.355 24.4654 218.355 25.0407Z" fill="#263238"/>
<path d="M226.381 24.9899C226.381 25.5434 226.096 25.9877 225.752 25.9877C225.409 25.9877 225.117 25.5434 225.117 24.9899C225.117 24.4364 225.402 23.9922 225.752 23.9922C226.103 23.9922 226.381 24.4656 226.381 24.9899Z" fill="#263238"/>
<path d="M215.929 23.5187C215.929 23.5187 216.66 21.7271 218.991 22.3608" stroke="#263238" stroke-linecap="round" stroke-linejoin="round"/>
<path d="M223.742 22.4625C223.742 22.4625 225.935 20.8821 227.543 23.6205" stroke="#263238" stroke-linecap="round" stroke-linejoin="round"/>
<path d="M203.78 95.6917C203.78 95.6917 210.227 97.1482 211.703 96.8496C213.639 96.4897 215.411 95.5317 216.769 94.1115C218.677 92.2182 220.256 90.638 220.256 92.2182C220.262 92.8418 220.144 93.4604 219.908 94.038C219.672 94.6157 219.323 95.1407 218.881 95.5825C218.15 96.4272 216.769 97.3739 216.455 98.7429C216.14 100.112 216.564 101.161 218.253 101.794C219.941 102.428 225.219 103.367 225.219 104.707C225.219 106.047 224.795 109.236 222.894 110.285C220.994 111.334 216.352 110.598 216.352 110.598C216.352 110.598 220.153 112.703 219.415 113.234C218.677 113.766 216.455 113.023 215.402 112.076C214.35 111.13 213.94 111.02 210.856 108.814C207.771 106.608 205.154 103.971 203.678 103.134C202.878 102.761 202.138 102.27 201.485 101.678C200.637 100.949 200.323 99.493 200.951 97.789C201.166 97.2842 201.483 96.8294 201.883 96.4533C202.283 96.0773 202.757 95.7881 203.276 95.6044L203.78 95.6917Z" fill="white" stroke="#263238" stroke-linecap="round" stroke-linejoin="round"/>
<path d="M253.945 83.6973C253.945 83.6973 246.343 85.1537 245.605 85.6926C244.867 86.2314 245.605 88.4306 245.605 88.4306C245.605 88.4306 239.158 91.4818 236.731 93.164C234.305 94.8461 236.519 98.2177 236.629 98.6328C236.629 98.6328 238.529 104.844 241.694 106.949C244.859 109.053 248.134 108.311 251.306 104.946C254.479 101.582 256.481 96.9361 257.958 95.3704C259.435 93.8048 261.021 92.3192 260.494 88.8166C259.968 85.3139 257.22 84.9207 257.22 84.9207" fill="#00B8CC"/>
<path d="M253.945 83.6973C253.945 83.6973 246.343 85.1537 245.605 85.6926C244.867 86.2314 245.605 88.4306 245.605 88.4306C245.605 88.4306 239.158 91.4818 236.731 93.164C234.305 94.8461 236.519 98.2177 236.629 98.6328C236.629 98.6328 238.529 104.844 241.694 106.949C244.859 109.053 248.134 108.311 251.306 104.946C254.479 101.582 256.481 96.9361 257.958 95.3704C259.435 93.8048 261.021 92.3192 260.494 88.8166C259.968 85.3139 257.22 84.9207 257.22 84.9207" stroke="#263238" stroke-linecap="round" stroke-linejoin="round"/>
<path d="M238.42 97.5842C238.42 97.5842 233.566 98.844 232.192 98.9532C230.818 99.0625 230.606 99.2664 229.765 98.6328C228.925 97.9993 225.007 95.72 223.187 93.5864C221.367 91.4527 220.015 91.0595 220.227 92.2173C220.439 93.3752 220.015 94.2126 221.286 95.0573C222.558 95.9021 223.815 98.2178 223.815 99.1644C223.815 100.111 223.713 100.424 221.074 101.349C218.436 102.274 212.413 103.454 213.034 104.189C213.655 104.925 214.935 105.136 216.309 105.034C217.683 104.932 223.384 104.087 223.801 104.4C223.939 104.54 224.041 104.711 224.101 104.898C224.161 105.084 224.177 105.283 224.146 105.476C224.116 105.67 224.04 105.854 223.926 106.014C223.811 106.173 223.661 106.304 223.487 106.396C222.536 107.029 219.159 107.029 217.149 107.24C215.139 107.451 215.037 107.968 215.885 108.398C217.246 108.904 218.694 109.139 220.146 109.09C221.835 109.09 223.801 108.922 222.96 109.447C222.12 109.971 220.95 110.08 218.838 110.393C216.725 110.706 215.987 109.767 216.309 110.605C216.63 111.442 219.159 111.449 222.324 111.333C225.205 111.186 228.003 110.32 230.46 108.813C232.572 107.546 240.276 105.653 240.81 105.238C241.344 104.823 242.177 102.39 241.651 99.4484C241.124 96.5065 238.42 97.5842 238.42 97.5842Z" fill="white" stroke="#263238" stroke-linecap="round" stroke-linejoin="round"/>
<path d="M246.767 85.2708C248.825 83.5741 251.054 82.095 253.419 80.8574" stroke="#263238" stroke-linecap="round" stroke-linejoin="round"/>
<path d="M217.617 105.093C217.617 105.093 223.626 104.408 224.232 104.321C224.839 104.233 225.95 104.918 225.431 105.69C224.912 106.462 224.656 106.287 222.507 106.717C220.374 107.04 218.218 107.183 216.06 107.146" fill="white"/>
<path d="M217.617 105.093C217.617 105.093 223.626 104.408 224.232 104.321C224.839 104.233 225.95 104.918 225.431 105.69C224.912 106.462 224.656 106.287 222.507 106.717C220.374 107.04 218.218 107.183 216.06 107.146" stroke="#263238" stroke-linecap="round" stroke-linejoin="round"/>
<path d="M218.304 109.199C218.304 109.199 225 108.77 224.832 109.287C224.664 109.804 224.232 110.481 221.827 110.656C219.423 110.831 216.711 110.998 214.438 109.884" fill="white"/>
<path d="M218.304 109.199C218.304 109.199 225 108.77 224.832 109.287C224.664 109.804 224.232 110.481 221.827 110.656C219.423 110.831 216.711 110.998 214.438 109.884" stroke="#263238" stroke-linecap="round" stroke-linejoin="round"/>
<path d="M151.335 202.235C151.335 202.235 152.475 203.364 147.928 206.131C143.382 208.899 139.588 210.158 139.588 211.797C139.588 213.435 144.639 215.067 149.822 213.807C155.004 212.547 157.131 212.176 160.055 211.673C162.979 211.171 163.848 208.651 163.848 205.119C163.848 201.587 156.144 200.75 155.26 200.59C154.375 200.43 151.971 200.852 151.335 202.235Z" fill="white" stroke="#263238" stroke-linecap="round" stroke-linejoin="round"/>
<path d="M162.701 205.126C160.788 207.982 158.446 210.529 155.757 212.678C151.839 215.59 151.335 216.952 153.359 217.709C155.384 218.467 161.188 218.714 165.106 217.207C169.024 215.7 170.917 213.435 172.05 212.423C173.183 211.41 173.819 212.044 173.819 208.017C173.819 203.99 169.521 202.606 165.99 202.861C162.46 203.116 162.701 205.126 162.701 205.126Z" fill="white" stroke="#263238" stroke-linecap="round" stroke-linejoin="round"/>
<path d="M147.3 123.087C147.3 123.087 148.44 145.989 148.821 152.659C149.201 159.329 151.978 184.365 152.475 190.278C152.972 196.191 152.98 197.953 152.98 197.953C152.98 197.953 150.706 199.592 150.706 199.971C150.706 200.349 150.451 203.866 150.451 203.866C152.128 204.787 153.91 205.506 155.757 206.007C157.787 206.463 159.878 206.591 161.948 206.386C161.948 206.386 166.115 207.77 169.652 208.775C173.19 209.78 174.579 209.277 174.579 209.277C174.579 209.277 175.588 204.245 175.836 202.607C176.085 200.968 180.383 183.608 180.383 175.663C180.383 167.718 179.374 164.085 177.861 159.431C176.348 154.778 179.878 138.16 181.143 132.124C181.868 128.756 182.417 125.353 182.788 121.929C182.788 121.929 171.926 127.492 147.3 123.087Z" fill="#263238" stroke="#263238" stroke-linecap="round" stroke-linejoin="round"/>
<path d="M161.444 130.783C161.444 130.783 160.808 147.532 160.808 153.933C160.808 160.334 162.453 168.155 163.206 175.706C163.958 183.258 163.461 195.586 162.577 197.727C161.693 199.868 161.064 200.64 161.188 202.257C161.312 203.873 161.444 206.153 161.444 206.153" stroke="white" stroke-linecap="round" stroke-linejoin="round"/>
<path d="M159.419 33.3642C159.419 33.3642 158.689 31.0992 157.519 31.9804C156.349 32.8617 157.146 34.5003 158.155 36.1389C159.164 37.7776 160.297 38.149 160.428 37.2678C160.56 36.3866 159.419 33.3642 159.419 33.3642Z" fill="white" stroke="#263238" stroke-linecap="round" stroke-linejoin="round"/>
<path d="M159.419 34.3762L158.155 30.7352C158.155 30.7352 152.856 28.5943 154.5 23.3075C156.145 18.0207 168.776 13.2437 172.182 13.2437C175.588 13.2437 182.159 17.7731 183.299 23.0599C184.44 28.3467 180.646 33.1237 180.646 33.1237C180.646 33.1237 179.001 37.7769 177.722 37.5293C176.443 37.2818 177.211 33.6262 175.573 30.7352C173.936 27.8442 172.92 26.3659 171.151 27.0941C169.382 27.8224 162.058 30.007 161.429 30.9901C160.801 31.9731 159.675 35.0025 159.419 34.3762Z" fill="#263238" stroke="#263238" stroke-linecap="round" stroke-linejoin="round"/>
<path d="M185.061 86.2175L185.69 89.4871L177.861 101.568L179.63 104.335C183.344 101.868 186.737 98.9526 189.732 95.655C194.783 90.1206 195.287 89.3633 195.287 87.0986C195.287 84.8339 193.525 80.9307 193.525 80.9307C193.525 80.9307 189.988 86.2175 185.061 86.2175Z" fill="white" stroke="#263238" stroke-linecap="round" stroke-linejoin="round"/>
<path d="M142.242 78.9209C142.242 78.9209 139.713 84.9577 140.224 86.8438C140.736 88.7298 149.442 99.8059 149.442 99.8059L150.955 95.6551C150.955 95.6551 147.673 88.8609 147.673 86.5962C147.673 84.3315 148.813 79.9258 148.813 79.9258L142.242 78.9209Z" stroke="#263238" stroke-linecap="round" stroke-linejoin="round"/>
<path d="M164.602 48.9697C164.602 48.9697 153.74 53.1205 151.715 53.754C149.69 54.3876 148.302 54.759 148.177 55.3852C148.053 56.0115 141.993 71.4932 140.868 73.6341C139.742 75.775 138.214 78.1635 138.214 78.1635C139.686 79.0801 141.203 79.9211 142.761 80.6831C144.35 81.375 145.999 81.921 147.688 82.3143L148.418 91.0018L140.963 123.713C140.963 123.713 155.867 127.864 165.815 127.492C172.149 127.277 178.412 126.088 184.381 123.968C186.281 123.334 189.183 122.205 189.183 122.205L179.681 86.5962L180.412 81.3094L180.916 86.4724C180.916 86.4724 185.967 87.6011 188.869 86.8438C191.771 86.0864 195.448 83.2027 195.448 83.2027L186.099 54.14L168.673 49.3557L164.602 48.9697Z" fill="#00B8CC" stroke="#263238" stroke-linecap="round" stroke-linejoin="round"/>
<path d="M176.874 51.5694L168.768 49.3484L164.602 48.9697L160.852 50.4261C160.779 52.4069 160.684 55.7785 160.684 59.82C160.684 66.3739 161.415 72.1558 163.337 71.0198C165.259 69.8838 174.301 57.6864 175.836 54.2711C176.251 53.3983 176.598 52.4951 176.874 51.5694Z" fill="#00B8CC" stroke="#263238" stroke-linecap="round" stroke-linejoin="round"/>
<path d="M180.514 81.3089C180.258 81.0613 179.125 70.2329 179.125 70.2329" stroke="#263238" stroke-linecap="round" stroke-linejoin="round"/>
<path d="M147.672 82.3148C147.672 82.3148 146.788 78.0402 147.044 76.4017C147.3 74.7633 149.061 65.0781 149.061 65.0781" stroke="#263238" stroke-linecap="round" stroke-linejoin="round"/>
<path d="M151.971 100.439C151.971 100.439 146.16 102.325 146.16 102.704C146.16 103.083 146.028 104.838 146.028 104.838L151.971 102.07V100.439Z" stroke="#263238" stroke-linecap="round" stroke-linejoin="round"/>
<path d="M167.379 101.321L167.123 102.952L179.754 106.222L180.383 104.97L167.379 101.321Z" stroke="#263238" stroke-linecap="round" stroke-linejoin="round"/>
<path d="M171.546 76.2992C171.373 76.2992 171.208 76.2309 171.086 76.1094C170.964 75.9879 170.895 75.823 170.895 75.6511C170.895 73.4665 171.984 68.1943 173.044 63.0968C173.885 59.0407 174.681 55.2031 174.681 54.0015C174.714 53.3394 174.604 52.6779 174.36 52.0613C174.115 51.4448 173.741 50.8872 173.263 50.426C171.75 49.0279 169.06 48.4599 165.274 48.7366C157.373 49.3192 156.795 66.9418 156.788 67.1093C156.784 67.2786 156.714 67.4397 156.592 67.5582C156.471 67.6766 156.307 67.7428 156.137 67.7428C156.052 67.74 155.968 67.7204 155.89 67.6852C155.812 67.65 155.742 67.5999 155.684 67.5376C155.625 67.4754 155.58 67.4023 155.55 67.3226C155.52 67.2428 155.506 67.158 155.509 67.0728C155.509 66.3009 156.13 48.1395 165.201 47.4113C169.367 47.1127 172.386 47.7899 174.17 49.4502C174.777 50.0332 175.255 50.7372 175.571 51.5164C175.887 52.2957 176.035 53.1325 176.004 53.9724C176.004 55.305 175.237 59.0262 174.345 63.3299C173.344 68.1287 172.218 73.5685 172.218 75.622C172.222 75.7114 172.208 75.8007 172.175 75.8842C172.143 75.9677 172.094 76.0437 172.031 76.1073C171.968 76.1709 171.892 76.2208 171.808 76.2539C171.725 76.2869 171.635 76.3023 171.546 76.2992Z" fill="#263238" stroke="#263238" stroke-linecap="round" stroke-linejoin="round"/>
<path d="M163.205 45.0741C163.205 45.0741 163.205 48.7151 163.081 49.4433C162.957 50.1715 163.081 53.3465 163.081 57.6283C163.081 61.9102 163.812 64.7939 164.85 63.789C165.888 62.784 172.554 53.8489 172.934 52.0867C173.157 51.0962 173.285 50.0866 173.314 49.0719L173.819 44.0327C173.819 44.0327 165.99 46.2974 162.701 45.2925" fill="white"/>
<path d="M163.205 45.0741C163.205 45.0741 163.205 48.7151 163.081 49.4433C162.957 50.1715 163.081 53.3465 163.081 57.6283C163.081 61.9102 163.812 64.7939 164.85 63.789C165.888 62.784 172.554 53.8489 172.934 52.0867C173.157 51.0962 173.285 50.0866 173.314 49.0719L173.819 44.0327C173.819 44.0327 165.99 46.2974 162.701 45.2925" stroke="#263238" stroke-linecap="round" stroke-linejoin="round"/>
<path d="M176.216 37.5218C176.874 41.8929 177.043 46.3232 176.721 50.7315C176.216 58.4068 175.303 62.0041 173.066 63.111C170.829 64.2179 173.717 65.4704 177.123 65.5942C180.529 65.718 185.587 65.2155 186.472 55.1517C187.356 45.0879 180.032 38.5413 179.396 37.2815C179.233 36.9889 178.99 36.749 178.694 36.5903C178.399 36.4315 178.064 36.3606 177.729 36.3859C177.394 36.4112 177.074 36.5316 176.806 36.733C176.538 36.9344 176.333 37.2081 176.216 37.5218Z" fill="#263238" stroke="#263238" stroke-linecap="round" stroke-linejoin="round"/>
<path d="M151.591 75.9205H151.54C151.451 75.9153 151.364 75.8919 151.285 75.8518C151.206 75.8116 151.136 75.7556 151.08 75.6871C151.024 75.6187 150.982 75.5395 150.958 75.4543C150.934 75.3691 150.928 75.2799 150.94 75.1923C150.94 74.8355 151.671 66.4102 156.137 66.4102C160.603 66.4102 160.706 74.5151 160.706 74.8646C160.706 75.0365 160.637 75.2014 160.515 75.3229C160.393 75.4445 160.228 75.5127 160.055 75.5127C159.883 75.5127 159.717 75.4445 159.595 75.3229C159.473 75.2014 159.405 75.0365 159.405 74.8646C159.405 74.7918 159.31 67.7136 156.145 67.7136C153.425 67.7136 152.409 73.1825 152.249 75.2943C152.241 75.463 152.168 75.6223 152.046 75.739C151.923 75.8557 151.76 75.9207 151.591 75.9205Z" fill="#263238"/>
<path d="M151.591 74.7695C151.591 74.7695 151.591 81.0612 151.839 82.3138C152.088 83.5663 155.253 86.2169 159.039 87.8554" stroke="#263238" stroke-width="2" stroke-linecap="round" stroke-linejoin="round"/>
<path d="M159.8 73.9834C159.8 73.9834 160.048 80.2751 158.791 83.0423C157.534 85.8095 153.74 86.9455 152.095 87.5717" stroke="#263238" stroke-width="2" stroke-linecap="round" stroke-linejoin="round"/>
<path d="M160.808 88.1033C160.785 87.8187 160.656 87.553 160.445 87.3594C160.234 87.1657 159.958 87.0581 159.672 87.0581C159.385 87.0581 159.109 87.1657 158.898 87.3594C158.688 87.553 158.558 87.8187 158.535 88.1033C158.522 88.2597 158.542 88.417 158.594 88.5652C158.645 88.7135 158.727 88.8495 158.834 88.9648C158.94 89.0801 159.07 89.172 159.214 89.235C159.358 89.2979 159.514 89.3304 159.672 89.3304C159.829 89.3304 159.985 89.2979 160.129 89.235C160.273 89.172 160.403 89.0801 160.509 88.9648C160.616 88.8495 160.698 88.7135 160.749 88.5652C160.801 88.417 160.821 88.2597 160.808 88.1033Z" fill="white" stroke="#263238" stroke-linecap="round" stroke-linejoin="round"/>
<path d="M152.98 87.8553C152.981 87.6303 152.916 87.4099 152.791 87.2222C152.667 87.0344 152.489 86.8876 152.281 86.8005C152.073 86.7134 151.843 86.6899 151.622 86.7329C151.4 86.7759 151.196 86.8835 151.036 87.0421C150.876 87.2007 150.766 87.4031 150.722 87.6237C150.677 87.8443 150.699 88.0731 150.785 88.2811C150.872 88.4892 151.018 88.667 151.205 88.7922C151.393 88.9173 151.614 88.9842 151.84 88.9842C152.141 88.9842 152.43 88.8655 152.643 88.654C152.857 88.4425 152.978 88.1554 152.98 87.8553Z" fill="white" stroke="#263238" stroke-linecap="round" stroke-linejoin="round"/>
<path d="M175.332 78.0394C175.334 77.2668 175.105 76.5111 174.675 75.8681C174.245 75.2251 173.633 74.7237 172.917 74.4274C172.201 74.1311 171.412 74.0532 170.652 74.2036C169.891 74.3539 169.192 74.7258 168.644 75.2721C168.096 75.8184 167.722 76.5146 167.571 77.2724C167.42 78.0302 167.499 78.8156 167.796 79.5291C168.094 80.2427 168.597 80.8522 169.242 81.2805C169.888 81.7088 170.646 81.9367 171.422 81.9353C172.458 81.9333 173.452 81.5223 174.185 80.7921C174.918 80.0619 175.33 79.072 175.332 78.0394Z" fill="white" stroke="#263238" stroke-linecap="round" stroke-linejoin="round"/>
<path d="M173.563 78.0396C173.563 77.6158 173.437 77.2015 173.2 76.8493C172.964 76.497 172.628 76.2226 172.235 76.0607C171.841 75.8989 171.409 75.8569 170.992 75.9401C170.575 76.0233 170.192 76.228 169.892 76.5282C169.591 76.8283 169.387 77.2105 169.305 77.6264C169.223 78.0422 169.267 78.4729 169.431 78.864C169.594 79.2552 169.871 79.5891 170.225 79.8235C170.58 80.0578 170.996 80.1822 171.421 80.1808C171.99 80.1788 172.535 79.9524 172.936 79.5511C173.337 79.1497 173.563 78.6062 173.563 78.0396Z" fill="white" stroke="#263238" stroke-linecap="round" stroke-linejoin="round"/>
<path d="M173.563 24.5601C173.563 24.5601 162.577 28.8346 161.188 29.5628C160.591 29.9228 159.956 30.2181 159.295 30.444C159.295 30.444 159.924 40.0053 160.18 42.5249C160.435 45.0445 164.47 47.433 168.008 47.3092C171.546 47.1854 174.448 45.2921 175.084 44.1634C175.72 43.0347 177.481 39.6339 177.481 39.6339C177.481 39.6339 181.647 38.9057 181.867 35.2283C182.086 31.5508 180.858 32.3155 179.469 33.0874C178.08 33.8593 177.32 34.3472 177.32 34.3472C177.59 33.0123 177.364 31.6252 176.684 30.444C175.588 28.587 173.819 26.3223 173.563 24.5601Z" fill="white" stroke="#263238" stroke-linecap="round" stroke-linejoin="round"/>
<path d="M164.602 36.2622C164.602 36.2622 165.61 37.7698 166.494 37.646" stroke="#263238" stroke-linecap="round" stroke-linejoin="round"/>
<path d="M164.222 38.5269C164.222 38.5269 166.363 40.5442 170.069 38.9056" stroke="#263238" stroke-linecap="round" stroke-linejoin="round"/>
<path d="M169.652 33.2402C169.652 33.2402 172.24 32.1114 173.695 34.1214" stroke="#263238" stroke-width="1.5" stroke-linecap="round" stroke-linejoin="round"/>
<path d="M164.602 32.9925C164.602 32.9925 162.577 31.7326 161.064 32.7376" stroke="#263238" stroke-width="1.5" stroke-linecap="round" stroke-linejoin="round"/>
<path d="M166.085 32.5194C166.087 33.223 165.879 33.9111 165.487 34.4967C165.096 35.0822 164.539 35.5389 163.887 35.8088C163.235 36.0787 162.517 36.1497 161.824 36.0128C161.132 35.8759 160.495 35.5373 159.996 35.0398C159.497 34.5423 159.157 33.9084 159.02 33.2183C158.882 32.5282 158.953 31.813 159.224 31.1633C159.495 30.5135 159.954 29.9586 160.541 29.5686C161.129 29.1786 161.82 28.9712 162.526 28.9727C163.469 28.9746 164.374 29.3489 165.041 30.0136C165.708 30.6783 166.084 31.5793 166.085 32.5194Z" stroke="#263238" stroke-linecap="round" stroke-linejoin="round"/>
<path d="M174.966 33.5175C174.968 34.2207 174.76 34.9085 174.369 35.494C173.978 36.0794 173.421 36.536 172.769 36.8061C172.118 37.0763 171.4 37.1477 170.708 37.0114C170.015 36.8751 169.379 36.5371 168.879 36.0404C168.38 35.5436 168.039 34.9104 167.901 34.2208C167.763 33.5312 167.833 32.8162 168.103 32.1664C168.373 31.5165 168.83 30.961 169.417 30.5702C170.003 30.1793 170.693 29.9707 171.399 29.9707C172.343 29.9726 173.248 30.3467 173.917 31.0112C174.585 31.6757 174.962 32.5767 174.966 33.5175Z" stroke="#263238" stroke-linecap="round" stroke-linejoin="round"/>
<path d="M166.085 32.5197C166.34 32.4337 166.614 32.4173 166.877 32.4724C167.141 32.5275 167.384 32.652 167.583 32.8329" stroke="#263238" stroke-linecap="round" stroke-linejoin="round"/>
<path d="M175.091 34.0773L178.592 33.582" stroke="#263238" stroke-linecap="round" stroke-linejoin="round"/>
<path d="M26.5917 203.154C25.6235 205.202 24.4322 207.139 23.0393 208.928C20.9268 211.513 20.3933 213.356 22.6884 214.958C24.9836 216.56 29.1646 216.312 31.2697 213.727C33.3749 211.142 36.7664 204.013 36.7664 204.013C36.7664 204.013 29.3693 201.799 26.5917 203.154Z" fill="white" stroke="#263238" stroke-linecap="round" stroke-linejoin="round"/>
<path d="M52.3357 204.748C52.3357 204.748 55.9904 209.547 58.1832 212.03C60.3761 214.514 64.5205 215.715 66.7353 215.591C68.95 215.467 72.1297 214.732 69.9807 210.8C67.8317 206.867 63.3437 203.052 63.3437 203.052C63.3437 203.052 58.651 203.052 55.4276 202.68C52.2041 202.309 52.1749 204.013 52.3357 204.748Z" fill="white" stroke="#263238" stroke-linecap="round" stroke-linejoin="round"/>
<path d="M28.6092 114.363C28.6092 114.363 27.1473 131.112 27.6443 142.894C28.1414 154.677 25.9632 178.191 25.2322 183.943C24.5013 189.696 25.8974 199.192 25.9632 201.282C26.0289 203.372 26.102 204.486 26.102 204.486C26.102 204.486 27.1838 203.758 31.1675 204.486C32.9659 204.869 34.7914 205.113 36.6277 205.214C38.2711 202.445 39.6303 199.517 40.6844 196.476C41.8758 192.544 41.2034 188.466 41.1084 186.39C41.0133 184.315 40.6698 182.087 40.9037 181.715C41.1376 181.344 46.0203 146.179 46.2835 138.431C46.5825 133.178 47.3655 127.964 48.6225 122.854C48.6225 122.854 50.9542 133.675 51.1369 137.855C51.3197 142.035 50.7203 176.101 51.02 183.004C51.3197 189.907 50.7861 191.743 49.9967 193.461C49.2072 195.18 49.4923 196.039 50.0478 197.393C50.6033 198.748 52.3503 204.77 52.3503 204.77C52.3503 204.77 61.2605 205.265 62.4666 204.646C63.6726 204.027 64.1404 203.423 64.1185 203.052C64.0966 202.68 68.4092 193.825 67.9998 190.141C67.5905 186.456 67.1227 187.067 66.7061 180.426C66.2894 173.785 69.0159 117.8 69.0085 114.888C69.0012 111.975 68.5115 117.589 50.3402 114.159C32.1689 110.73 29.1282 112.026 28.6092 114.363Z" fill="#00B8CC" stroke="#263238" stroke-linecap="round" stroke-linejoin="round"/>
<path d="M52.8622 199.966C52.8622 199.966 58.5709 195.042 63.3293 193.812Z" fill="white"/>
<path d="M52.8622 199.966C52.8622 199.966 58.5709 195.042 63.3293 193.812" stroke="#263238" stroke-linecap="round" stroke-linejoin="round"/>
<path d="M29.5521 197.62C29.5521 197.62 36.6861 194.175 38.7474 193.315Z" fill="white"/>
<path d="M29.5521 197.62C29.5521 197.62 36.6861 194.175 38.7474 193.315" stroke="#263238" stroke-linecap="round" stroke-linejoin="round"/>
<path d="M41.5251 23.3668C41.5251 23.3668 39.61 19.0627 38.192 20.5411C36.774 22.0195 37.8484 23.9786 39.8001 26.3164C41.7517 28.6542 43.294 27.1758 42.8847 26.1926C42.4753 25.2094 41.5251 23.3668 41.5251 23.3668Z" fill="white" stroke="#263238" stroke-linecap="round" stroke-linejoin="round"/>
<path d="M60.0621 21.029C60.0621 21.029 61.9772 16.8491 63.5415 18.8443C65.1057 20.8396 61.7433 25.7332 60.9174 26.5925C60.0914 27.4517 59.5578 20.9343 59.5578 20.9343L60.0621 21.029Z" fill="white" stroke="#263238" stroke-linecap="round" stroke-linejoin="round"/>
<path d="M18.4859 74.8945C18.4859 74.8945 17.9523 82.5189 17.3018 84.485C15.9737 89.1189 15.3528 93.9254 15.4598 98.7433C15.7156 104.518 17.9889 117.065 18.0327 120.874C18.0766 124.682 16.8851 125.549 18.1643 126.532C19.4435 127.515 22.1626 130.471 23.1494 130.471C24.1361 130.471 25.6419 130.959 25.6053 130.224C25.5688 129.488 25.0864 129.605 24.6697 128.622C24.1378 127.189 23.7031 125.722 23.3686 124.231C23.6688 123.145 24.0325 122.077 24.4577 121.034C24.4577 121.034 25.3349 124.107 25.503 125.097C25.6711 126.087 27.0453 126.444 26.9649 124.602C26.8845 122.76 26.8479 122.017 26.7602 120.051C26.6725 118.084 25.1156 116.366 24.4577 115.376C23.7999 114.385 23.2809 113.781 23.259 113.409C23.2371 113.038 25.386 100.01 25.4518 95.4591C25.5176 90.9078 25.5834 87.2158 25.9123 86.3565C26.2413 85.4972 27.8786 77.7491 27.8786 77.7491L18.4859 74.8945Z" fill="white" stroke="#263238" stroke-linecap="round" stroke-linejoin="round"/>
<path d="M79.534 75.2583C79.534 75.2583 80.0603 82.9263 80.7182 84.9507C82.0303 89.6449 82.6484 94.5046 82.5528 99.3765C82.297 105.137 80.0091 117.48 79.9653 121.288C79.9214 125.097 81.1202 126.058 79.841 126.932C78.5619 127.806 75.8354 130.515 74.8487 130.435C73.8619 130.354 72.3634 130.704 72.3927 129.968C72.4219 129.233 72.9117 129.4 73.3283 128.454C73.8683 127.05 74.3056 125.609 74.6367 124.143C74.3341 123.023 73.968 121.922 73.5403 120.844C73.5403 120.844 72.6631 123.844 72.495 124.813C72.3269 125.781 70.96 126.029 71.0331 124.194C71.1062 122.359 71.1428 121.623 71.2305 119.664C71.3182 117.705 72.8751 116.118 73.5403 115.193C74.2054 114.268 74.7171 113.693 74.739 113.329C74.7609 112.965 72.612 99.7406 72.5462 95.182C72.4804 90.6235 72.4219 86.9315 72.0857 86.043C71.7495 85.1546 70.1194 77.2609 70.1194 77.2609L79.534 75.2583Z" fill="white" stroke="#263238" stroke-linecap="round" stroke-linejoin="round"/>
<path d="M45.4789 37.5085C45.4789 37.5085 38.4619 40.8291 34.2224 42.6715C29.9829 44.5139 24.6543 46.7276 24.7201 47.5942C24.7859 48.4607 20.2028 65.6683 18.7556 69.2365C17.3083 72.8047 15.9561 75.6301 15.9561 75.6301C15.9561 75.6301 21.1385 79.0818 24.5008 79.81C26.6677 80.2672 28.8673 80.5545 31.0793 80.6693L27.081 116.089C27.081 116.089 35.1215 119.286 47.7156 119.41C55.5301 119.467 63.341 119.056 71.1059 118.179C71.1059 118.179 72.29 89.051 72.1658 86.2037C72.08 84.6435 72.1363 83.0787 72.3339 81.5286C74.2523 81.9454 76.2461 81.8627 78.123 81.2883C79.7739 80.6764 81.3915 79.9787 82.9692 79.1983C82.9692 79.1983 76.8365 54.8471 75.8278 51.5265C74.8191 48.2059 75.2869 47.718 74.4098 47.3466C73.5326 46.9752 63.8403 42.7953 60.6753 40.9529C57.5103 39.1106 56.2896 39.1033 53.5193 38.244C50.7491 37.3847 46.9043 36.2778 45.4789 37.5085Z" fill="#00B8CC" stroke="#263238" stroke-linecap="round" stroke-linejoin="round"/>
<path d="M72.3488 81.5289L70.7853 59.6899" stroke="#263238" stroke-linecap="round" stroke-linejoin="round"/>
<path d="M31.3727 92.9686L45.0633 92.5972C45.0633 92.5972 44.4566 109.695 44.0399 111.531C43.6233 113.366 40.8457 114.604 37.2568 114.48C33.6678 114.356 31.4969 112.637 31.0876 111.778" stroke="#263238" stroke-linecap="round" stroke-linejoin="round"/>
<path d="M30.6046 95.1824L45.0407 95.0586" stroke="#263238" stroke-linecap="round" stroke-linejoin="round"/>
<path d="M68.6136 114.487C67.2687 114.858 64.0598 114.858 63.3581 112.892C62.6564 110.926 63.1169 93.3398 63.1169 93.3398L70.1632 93.5802" stroke="#263238" stroke-linecap="round" stroke-linejoin="round"/>
<path d="M63.0585 94.8115L69.7613 95.7947" stroke="#263238" stroke-linecap="round" stroke-linejoin="round"/>
<path d="M31.0797 80.6693C31.0797 80.6693 31.5758 63.8259 31.3788 59.3984" stroke="#263238" stroke-linecap="round" stroke-linejoin="round"/>
<path d="M43.3889 29.2651C43.3889 29.2651 44.456 39.46 44.4999 40.5815C44.5438 41.7029 45.7937 44.7614 46.9778 46.3634C48.1619 47.9655 51.4731 53.1285 52.7888 52.1381C54.1045 51.1477 57.8104 45.6207 58.1686 42.5476C58.5267 39.4746 58.7022 32.2217 58.7022 32.2217C58.7022 32.2217 53.8999 32.4693 50.2598 31.2386C46.6196 30.0079 43.3889 29.2651 43.3889 29.2651Z" fill="white" stroke="#263238" stroke-linecap="round" stroke-linejoin="round"/>
<path d="M38.2721 14.0165L40.9986 22.6312C40.9986 22.6312 42.0219 29.0249 43.8639 31.6027C45.7059 34.1806 52.1601 37.8799 55.0912 37.1371C58.0223 36.3943 61.4797 33.6927 61.3481 30.7434C61.2165 27.7942 60.6172 19.1868 60.6976 15.8662C60.778 12.5456 59.9666 5.78053 57.9492 3.93816C55.9318 2.0958 49.1778 0.981645 44.3317 2.95508C39.4855 4.92852 36.1963 8.60596 38.2721 14.0165Z" fill="#263238" stroke="#263238" stroke-linecap="round" stroke-linejoin="round"/>
<path d="M41.1522 23.3664C41.1522 23.3664 40.911 23.4902 41.547 21.0288C42.1829 18.5675 44.098 17.3368 44.288 16.1134C44.478 14.8901 41.8759 14.5114 42.161 12.669C42.446 10.8267 44.9897 9.4722 50.3914 8.85323C55.7931 8.23425 59.3893 11.4384 59.2139 13.0331C59.0385 14.6279 58.5561 14.8828 59.3455 15.9897C60.1349 17.0965 60.4711 19.1865 60.5296 20.4172C60.5881 21.6478 61.2606 26.068 60.091 27.4225C58.9215 28.777 58.0444 28.5294 56.8822 27.4225C55.72 26.3156 55.2887 24.8447 52.7012 24.8447C50.1136 24.8447 49.2877 25.8277 48.8345 26.8108C48.3813 27.7939 47.9427 28.9954 46.4662 28.9954C44.9897 28.9954 43.9372 27.641 42.8846 26.1627C42.2432 25.2715 41.6644 24.3371 41.1522 23.3664Z" fill="white" stroke="#263238" stroke-linecap="round" stroke-linejoin="round"/>
<path d="M52.2772 17.3374C52.2772 17.3374 54.6674 23.9786 54.5651 24.4738C54.4627 24.969 53.2932 26.44 51.9263 26.3162C50.5595 26.1924 49.8797 24.5976 49.8797 24.5976" stroke="#263238" stroke-linecap="round" stroke-linejoin="round"/>
<path d="M52.9498 16.4561C52.8845 16.2338 52.8704 15.9997 52.9087 15.7712C52.9469 15.5427 53.0366 15.3258 53.1708 15.1367C53.3051 14.9476 53.4805 14.7912 53.684 14.6792C53.8875 14.5671 54.1138 14.5024 54.3459 14.4898C55.1097 14.4529 55.8728 14.5765 56.5855 14.8525C57.2983 15.1285 57.9448 15.5508 58.4831 16.092" stroke="#263238" stroke-width="2" stroke-linecap="round" stroke-linejoin="round"/>
<path d="M49.3536 15.7276C49.0009 15.4663 48.5943 15.2863 48.1633 15.2006C47.7322 15.115 47.2874 15.1258 46.8611 15.2324C45.3992 15.6038 43.6376 17.8178 43.6596 18.1892" stroke="#263238" stroke-width="2" stroke-linecap="round" stroke-linejoin="round"/>
<path d="M48.8777 19.3111C48.8777 19.9229 48.6219 20.4181 48.242 20.4181C47.8621 20.4181 47.5114 19.9229 47.5114 19.3111C47.5114 18.6993 47.7671 18.2041 48.1397 18.2041C48.5123 18.2041 48.8484 18.6993 48.8777 19.3111Z" fill="#263238"/>
<path d="M56.0193 18.939C56.0193 19.5508 55.7636 20.046 55.391 20.046C55.0184 20.046 54.6604 19.5508 54.6604 18.939C54.6604 18.3273 54.9161 17.832 55.2887 17.832C55.6613 17.832 55.9901 18.3273 56.0193 18.939Z" fill="#263238"/>
<path d="M49.6749 29.025C49.6749 29.025 52.0651 30.132 55.6979 28.5298" stroke="white" stroke-width="2" stroke-linecap="round" stroke-linejoin="round"/>
<path d="M40.8817 39.7593C40.8817 39.7593 44.5364 52.299 48.4616 60.5423C52.3868 68.7856 55.5006 74.5603 55.5006 74.5603C55.5006 74.5603 61.414 54.7603 61.3847 48.3448C61.3555 41.9293 61.3189 41.2157 61.3189 41.2157" stroke="#263238" stroke-linecap="round" stroke-linejoin="round"/>
<path d="M59.8791 87.0632H52.3431L51.7949 74.5234H59.3236L59.8791 87.0632Z" fill="white" stroke="#263238" stroke-linecap="round" stroke-linejoin="round"/>
<path d="M115.241 208.563C115.241 208.563 119.188 211.76 122.024 212.62C124.86 213.479 126.344 213.974 125.73 215.328C125.116 216.683 123.135 217.171 117.339 217.295C111.542 217.418 110.424 216.188 108.202 215.569C105.98 214.95 102.895 215.569 101.908 214.345C100.921 213.122 101.287 211.265 101.287 209.299C101.287 207.333 109.81 206.473 112.032 207.209C113.147 207.544 114.223 207.999 115.241 208.563Z" fill="white" stroke="#263238" stroke-linecap="round" stroke-linejoin="round"/>
<path d="M104.006 211.024C104.006 211.024 107.712 214.957 110.796 216.675C113.881 218.394 115.606 219.632 114.868 220.491C114.13 221.35 111.783 222.457 105.607 221.846C99.4303 221.234 98.2023 219.872 95.2419 217.782C92.2816 215.692 90.922 215.94 89.9353 214.833C88.9485 213.726 88.9485 211.265 88.9485 211.265L104.006 211.024Z" fill="white" stroke="#263238" stroke-linecap="round" stroke-linejoin="round"/>
<path d="M122.521 120.021C122.521 120.021 120.328 149.288 119.436 154.574C118.545 159.861 117.704 162.818 117.828 166.502C117.953 170.187 119.064 180.768 116.841 187.045C114.619 193.322 114.649 200.939 114.868 203.153C115.087 205.367 115.855 208.316 115.73 208.811C115.606 209.306 112.032 211.265 109.437 211.76C107.806 212.059 106.154 212.222 104.496 212.248C101.985 213.132 99.3759 213.711 96.7259 213.974C93.02 214.222 87.9545 213.115 87.9545 213.115C87.9545 213.115 87.9545 204.012 87.4575 198.107C86.9604 192.201 85.2646 182.741 87.3332 175.605C89.4018 168.469 88.9413 164.682 88.7951 162.323C88.6489 159.963 88.7951 149.411 88.6708 149.04C88.5466 148.669 87.8083 117.931 87.8083 117.931C87.8083 117.931 101.258 119.897 110.27 119.038C119.283 118.179 121.629 118.179 121.629 118.179C121.629 118.179 123.632 115.965 122.521 120.021Z" fill="#263238" stroke="#263238" stroke-linecap="round" stroke-linejoin="round"/>
<path d="M105.117 210.53C105.11 208.539 104.865 206.557 104.386 204.624C103.655 202.17 103.516 193.439 103.889 189.871C104.262 186.302 106.082 177.331 106.082 172.284C106.082 167.238 106.579 159.497 106.579 159.497" stroke="white" stroke-linecap="round" stroke-linejoin="round"/>
<path d="M130.664 156.788L116.6 156.664C115.986 156.664 115.986 147.321 115.986 147.321L130.664 156.788Z" fill="white" stroke="#263238" stroke-linecap="round" stroke-linejoin="round"/>
<path d="M100.921 121.746C100.921 121.746 114.992 122.606 122.894 121.251L120.174 55.0936C120.174 55.0936 118.325 52.0206 113.384 50.2947C108.443 48.5689 102.522 51.0229 100.424 53.3678C98.3265 55.7126 99.8103 121.499 99.8103 121.499L100.921 121.746Z" fill="#00B8CC" stroke="#263238" stroke-linecap="round" stroke-linejoin="round"/>
<path d="M101.535 50.2947C101.535 50.2947 87.5889 57.3073 85.4911 58.538C83.3932 59.7687 83.2982 64.1889 83.2982 66.2861C83.2982 68.3834 83.9122 161.463 83.9122 161.463C89.1912 161.806 94.4906 161.267 99.591 159.868C104.621 158.557 109.354 156.303 113.537 153.227L111.191 103.177L108.56 59.2735C108.56 59.2735 106.966 47.0979 101.535 50.2947Z" fill="white" stroke="#263238" stroke-linecap="round" stroke-linejoin="round"/>
<path d="M105.731 45.7432C105.731 45.7432 102.522 46.1145 101.163 47.9278C100.366 48.9976 99.7805 50.2085 99.4375 51.496L98.2022 62.5647L102.398 61.5817L100.3 66.4971C100.3 66.4971 102.398 72.6504 104.744 77.8134C107.091 82.9764 110.548 93.5499 110.548 93.5499L108.94 60.4748C108.94 60.4748 108.94 50.8843 108.209 48.8235C107.478 46.7627 106.718 45.7432 105.731 45.7432Z" fill="white" stroke="#263238" stroke-linecap="round" stroke-linejoin="round"/>
<path d="M113.757 52.5085L116.227 152.732L130.663 156.788L128.566 80.428C128.566 80.428 128.938 60.7664 127.703 58.0429C126.468 55.3194 115.365 49.8069 114.254 49.9525C113.143 50.0982 113.757 52.5085 113.757 52.5085Z" fill="white" stroke="#263238" stroke-linecap="round" stroke-linejoin="round"/>
<path d="M113.757 47.4697C114.656 47.688 115.496 48.0979 116.221 48.6712C116.945 49.2445 117.536 49.9675 117.953 50.7903C119.188 53.492 122.397 61.8591 122.397 61.8591L118.325 62.347L122.645 65.42L114.992 94.0749L114.13 63.0606L113.399 50.2733C113.399 50.2733 112.522 48.2052 113.757 47.4697Z" fill="white" stroke="#263238" stroke-linecap="round" stroke-linejoin="round"/>
<path d="M104.744 41.5635C104.744 41.5635 105.241 45.1317 104.496 47.0979C103.75 49.064 106.842 55.2174 108.077 59.0259C109.313 62.8344 110.548 65.9147 111.286 65.5433C112.024 65.1719 114.619 50.7899 114.495 48.9402C114.371 47.0906 115.606 41.5635 115.606 41.5635C115.606 41.5635 108.816 43.5296 104.744 41.5635Z" fill="white" stroke="#263238" stroke-linecap="round" stroke-linejoin="round"/>
<path d="M96.0756 37.8131C99.9631 37.8131 103.115 34.5333 103.115 30.4874C103.115 26.4415 99.9631 23.1616 96.0756 23.1616C92.188 23.1616 89.0366 26.4415 89.0366 30.4874C89.0366 34.5333 92.188 37.8131 96.0756 37.8131Z" fill="#263238" stroke="#263238" stroke-linecap="round" stroke-linejoin="round"/>
<path d="M99.6861 33.9319C99.6861 33.9319 98.4508 30.7348 96.967 31.9656C95.4831 33.1964 96.967 35.8983 98.078 37.5005C99.189 39.1028 101.287 38.3599 101.046 36.7722C100.846 35.7244 100.378 34.7459 99.6861 33.9319Z" fill="white" stroke="#263238" stroke-linecap="round" stroke-linejoin="round"/>
<path d="M118.793 31.9439C118.793 31.9439 119.414 28.8705 120.255 30.9607C120.627 31.7795 120.798 32.6746 120.755 33.5723C120.712 34.4701 120.455 35.3447 120.006 36.1243C119.276 37.3551 119.393 37.2313 119.144 36.1243C118.95 34.7383 118.833 33.3428 118.793 31.9439Z" fill="white" stroke="#263238" stroke-linecap="round" stroke-linejoin="round"/>
<path d="M97.9536 28.012C97.9536 28.012 100.3 39.321 101.784 42.0299C103.268 44.7389 108.201 49.312 112.646 47.4405C117.09 45.569 119.56 42.1537 119.56 37.9738C119.56 33.7939 120.174 28.5072 119.436 23.9486C119.063 21.8729 117.991 19.986 116.396 18.5997C114.801 17.2134 112.78 16.4107 110.665 16.3243C106.71 16.2005 100.541 18.4142 99.3059 22.3538C98.6655 24.1898 98.2124 26.0855 97.9536 28.012Z" fill="white" stroke="#263238" stroke-linecap="round" stroke-linejoin="round"/>
<path d="M98.0781 32.1914C98.0781 32.1914 104.993 29.4825 109.437 26.1618C113.881 22.8412 115.241 20.3871 115.241 20.3871C115.241 20.3871 117.339 26.038 118.201 27.8877C119.064 29.7373 119.802 31.82 119.802 31.82C119.802 31.82 121.161 29.4825 121.161 24.5379C121.161 19.5934 119.802 15.6829 114.583 13.0978C109.364 10.5127 100.885 12.1147 97.0402 15.8067C93.1954 19.4987 93.9556 25.521 94.9424 27.8586C95.7147 29.4806 96.7773 30.9489 98.0781 32.1914Z" fill="#263238" stroke="#263238" stroke-linecap="round" stroke-linejoin="round"/>
<path d="M113.384 27.6401C113.384 27.6401 112.653 27.7639 112.653 29.9777C112.653 32.1914 113.384 35.8762 113.267 36.3713C113.15 36.8665 111.805 38.3375 110.928 37.4782" stroke="#263238" stroke-linecap="round" stroke-linejoin="round"/>
<path d="M107.829 39.692C107.829 39.692 111.038 41.0466 115.138 38.585" stroke="#263238" stroke-linecap="round" stroke-linejoin="round"/>
<path d="M113.881 27.3781C113.881 27.3781 116.483 26.3876 118.201 27.8733" stroke="#263238" stroke-linecap="round" stroke-linejoin="round"/>
<path d="M109.561 27.8877C108.432 27.5533 107.238 27.4905 106.08 27.7044C104.921 27.9184 103.829 28.403 102.895 29.1185" stroke="#263238" stroke-linecap="round" stroke-linejoin="round"/>
<path d="M107.829 31.4494C107.829 32.1777 107.529 32.804 107.156 32.804C106.784 32.804 106.477 32.1995 106.477 31.4494C106.477 30.6992 106.776 30.1021 107.156 30.1021C107.536 30.1021 107.829 30.7065 107.829 31.4494Z" fill="#263238"/>
<path d="M115.869 30.9615C115.869 31.6898 115.562 32.3162 115.189 32.3162C114.817 32.3162 114.51 31.7117 114.51 30.9615C114.51 30.2114 114.817 29.6069 115.189 29.6069C115.562 29.6069 115.869 30.2114 115.869 30.9615Z" fill="#263238"/>
<path d="M123.756 80.7917L121.563 77.2235C120.942 76.2404 118.106 76.6118 116.747 76.6118C116.04 76.6851 115.36 76.9205 114.76 77.2995C114.16 77.6785 113.657 78.1909 113.289 78.7964C112.799 79.7795 110.577 81.3815 111.44 82.3646C112.302 83.3477 114.649 82.7287 115.022 82.9763C115.394 83.2239 118.479 85.3138 119.59 85.6852C120.181 85.9013 120.813 85.9834 121.439 85.9255L123.756 80.7917Z" stroke="#263238" stroke-linecap="round" stroke-linejoin="round"/>
<path d="M127.089 57.3071C128.331 57.878 129.442 58.6957 130.354 59.7101C131.267 60.7244 131.962 61.914 132.396 63.2056C133.756 67.5093 138.317 96.1642 137.33 98.8877C136.343 101.611 133.88 103.679 129.56 102.208C125.24 100.737 118.596 93.7175 118.596 93.7175L123.778 80.8064L127.85 82.8963L126.987 71.3397" fill="white"/>
<path d="M127.089 57.3071C128.331 57.878 129.442 58.6957 130.354 59.7101C131.267 60.7244 131.962 61.914 132.396 63.2056C133.756 67.5093 138.317 96.1642 137.33 98.8877C136.343 101.611 133.88 103.679 129.56 102.208C125.24 100.737 118.596 93.7175 118.596 93.7175L123.778 80.8064L127.85 82.8963L126.987 71.3397" stroke="#263238" stroke-linecap="round" stroke-linejoin="round"/>
<path d="M127.828 82.8823C127.828 82.8823 134.37 86.6986 134.991 88.0532" stroke="#263238" stroke-linecap="round" stroke-linejoin="round"/>
<path d="M119.553 65.667H95.7318V98.8732H119.553V65.667Z" fill="#263238" stroke="#263238" stroke-linecap="round" stroke-linejoin="round"/>
<path d="M106.477 88.7882C106.477 88.7882 111.038 86.3268 112.397 84.9724C113.757 83.6179 114.006 83.516 114.744 83.516C116.56 83.5155 118.375 83.3914 120.175 83.1446C120.906 82.897 120.547 84.601 120.175 84.9869C119.802 85.3729 117.463 85.8535 117.463 85.8535C117.463 85.8535 121.41 85.4821 121.534 86.7128C121.623 87.0657 121.611 87.4361 121.502 87.7831C121.392 88.1301 121.188 88.4401 120.913 88.6789L120.547 89.0503C120.547 89.0503 120.913 91.6282 120.547 92.8589C120.182 94.0895 119.436 94.4609 117.828 94.7012C115.682 94.8378 113.527 94.7156 111.411 94.3371C110.175 94.0895 105.98 94.9488 105.98 94.9488L106.477 88.7882Z" fill="white" stroke="#263238" stroke-linecap="round" stroke-linejoin="round"/>
<path d="M90.0596 56.3242C90.0596 56.3242 82.7501 57.919 81.5368 58.6545C80.3234 59.39 76.2301 88.6639 75.3676 93.6084C74.5051 98.5529 83.0206 99.5142 85.6008 100.497C88.1811 101.48 107.098 102.929 107.098 102.929L107.346 87.6808L94.2625 84.3602L94.1383 63.3296" fill="white"/>
<path d="M90.0596 56.3242C90.0596 56.3242 82.7501 57.919 81.5368 58.6545C80.3234 59.39 76.2301 88.6639 75.3676 93.6084C74.5051 98.5529 83.0206 99.5142 85.6008 100.497C88.1811 101.48 107.098 102.929 107.098 102.929L107.346 87.6808L94.2625 84.3602L94.1383 63.3296" stroke="#263238" stroke-linecap="round" stroke-linejoin="round"/>
<path d="M94.2551 84.3603C94.2551 84.3603 89.6867 82.2701 86.7263 83.3771C83.766 84.4841 81.2954 90.1429 81.2954 90.1429" stroke="#263238" stroke-linecap="round" stroke-linejoin="round"/>
<path d="M89.1895 82.8819C89.1895 82.8819 84.8696 82.6342 82.7718 83.5009C81.4815 84.0447 80.3391 84.8858 79.4387 85.9552" stroke="#263238" stroke-linecap="round" stroke-linejoin="round"/>
<path d="M112.646 64.5601H104.254V67.2693H112.646V64.5601Z" fill="white" stroke="#263238" stroke-linecap="round" stroke-linejoin="round"/>
</svg>
