<svg width="506" height="300" viewBox="0 0 506 300" fill="none" xmlns="http://www.w3.org/2000/svg">
<path fill-rule="evenodd" clip-rule="evenodd" d="M246.942 0.526281C317.358 -2.70681 390.236 8.538 437.996 45.9075C489.725 86.3824 522.18 144.624 497.667 196.705C474.825 245.234 395.086 259.099 328.82 277.861C271.41 294.115 212.541 308.6 154.319 293.915C86.7997 276.884 18.0091 245.926 2.79068 195.625C-12.321 145.677 36.6606 100.14 84.1998 62.1518C127.355 27.6666 182.578 3.48152 246.942 0.526281Z" fill="#00B8CC"/>
<path opacity="0.7" fill-rule="evenodd" clip-rule="evenodd" d="M246.942 0.526281C317.358 -2.70681 390.236 8.538 437.996 45.9075C489.725 86.3824 522.18 144.624 497.667 196.705C474.825 245.234 395.086 259.099 328.82 277.861C271.41 294.115 212.541 308.6 154.319 293.915C86.7997 276.884 18.0091 245.926 2.79068 195.625C-12.321 145.677 36.6606 100.14 84.1998 62.1518C127.355 27.6666 182.578 3.48152 246.942 0.526281Z" fill="white"/>
<path d="M277.207 109.592C277.533 110.079 287.363 112.036 292.463 119.429C295.43 123.676 297.919 128.236 299.885 133.026C299.885 133.026 308.412 138.086 312.783 142.257C317.154 146.427 322.365 151.965 326.385 154.871C330.404 157.777 338.675 163.29 340.757 169.742C340.757 169.742 328.356 203.612 324.851 211.099C321.345 218.586 312.698 234.474 312.698 234.474L297.271 299.829H207.787L204.735 277.411C204.735 277.411 177.31 272.044 165.851 262.028C165.851 262.028 164.771 237.243 169.562 215.133C174.353 193.023 190.646 147.051 201.684 133.009C201.684 133.009 219.314 124.599 234.869 121.899C234.869 121.899 244.965 113.942 251.573 113.096C258.181 112.25 277.207 109.592 277.207 109.592Z" fill="white"/>
<path d="M205.944 287.513C213.889 289.025 220.814 290.333 228.904 290.239C236.995 290.145 245.257 288.333 251.873 283.709C253.151 282.649 254.6 281.811 256.158 281.231C259.672 280.248 263.152 282.564 266.64 283.641C271.062 285.009 275.913 284.359 280.25 282.718C284.587 281.077 288.486 278.522 292.351 275.975C291.78 283.838 291.594 291.715 291.794 299.606L297.305 299.828L311.421 237.892C311.421 237.892 287.278 265.856 275.51 274.206L252.936 268.411C252.936 268.411 250.81 270.172 246.337 271.061C246.337 271.061 244.288 278.915 232.769 278.932C221.251 278.949 204.735 277.411 204.735 277.411L205.944 287.513Z" fill="#00B8CC"/>
<path opacity="0.5" d="M205.944 287.513C213.889 289.025 220.814 290.333 228.904 290.239C236.995 290.145 245.257 288.333 251.873 283.709C253.151 282.649 254.6 281.811 256.158 281.231C259.672 280.248 263.152 282.564 266.64 283.641C271.062 285.009 275.913 284.359 280.25 282.718C284.587 281.077 288.486 278.522 292.351 275.975C291.78 283.838 291.594 291.715 291.794 299.606L297.305 299.828L311.421 237.892C311.421 237.892 287.278 265.856 275.51 274.206L252.936 268.411C252.936 268.411 250.81 270.172 246.337 271.061C246.337 271.061 244.288 278.915 232.769 278.932C221.251 278.949 204.735 277.411 204.735 277.411L205.944 287.513Z" fill="white"/>
<path d="M182.812 171.947C182.812 171.947 172.33 222.688 172.862 240.114C172.862 240.114 187.106 236.132 197.048 240.114C197.048 240.114 180.13 238.234 172.845 245.969C165.56 253.703 187.98 274.027 232.838 269.899C232.838 269.899 241.786 272.694 246.328 271.053C246.328 271.053 245.111 279.138 232.761 278.924C220.462 278.437 184.483 278.138 165.843 262.036C165.851 262.045 163.503 215.398 182.812 171.947Z" fill="#00B8CC"/>
<path opacity="0.6" d="M182.812 171.947C182.812 171.947 172.33 222.688 172.862 240.114C172.862 240.114 187.106 236.132 197.048 240.114C197.048 240.114 180.13 238.234 172.845 245.969C165.56 253.703 187.98 274.027 232.838 269.899C232.838 269.899 241.786 272.694 246.328 271.053C246.328 271.053 245.111 279.138 232.761 278.924C220.462 278.437 184.483 278.138 165.843 262.036C165.851 262.045 163.503 215.398 182.812 171.947Z" fill="white"/>
<path d="M204.247 181.673C204.247 181.673 207.341 204.142 212.337 208.842C217.334 213.543 240.62 212.004 249.842 217.073C249.842 217.073 258.524 202.073 274.225 192.689L252.936 226.115L234.535 221.782L212.072 218.363L210.186 222.688H206.81C206.81 222.688 206.432 198.706 204.247 181.673Z" fill="#00B8CC"/>
<path opacity="0.5" d="M204.247 181.673C204.247 181.673 207.341 204.142 212.337 208.842C217.334 213.543 240.62 212.004 249.842 217.073C249.842 217.073 258.524 202.073 274.225 192.689L252.936 226.115L234.535 221.782L212.072 218.363L210.186 222.688H206.81C206.81 222.688 206.432 198.706 204.247 181.673Z" fill="white"/>
<path d="M292.257 135.906C301.882 141.555 302.962 147.922 304.941 152.469C299.936 153.461 294.76 154.52 290.629 157.503C285.486 161.229 282.701 167.4 280.541 173.391C278.498 179.061 276.781 184.842 275.399 190.706C280.051 182.326 286.663 175.19 294.674 169.904C299.293 166.861 305.001 164.409 310.272 166.127C305.85 167.998 300.845 170.528 299.911 175.229C299.727 176.009 299.759 176.824 300.005 177.587C300.793 179.801 303.553 180.399 305.644 181.476C309.724 183.57 311.849 188.313 312.029 192.911C312.209 197.509 310.795 201.954 309.398 206.304C308.17 210.115 306.941 213.927 305.713 217.739C304.144 222.61 302.55 227.55 299.713 231.824C296.877 236.097 292.617 239.678 287.552 240.515C285.434 240.923 283.242 240.675 281.27 239.806C279.774 238.995 278.384 238.005 277.13 236.858C271.054 231.964 263.751 228.819 256.013 227.764C265.971 234.328 270.685 246.25 274.816 257.42C272.919 254.109 270.186 251.351 266.889 249.421C266.043 248.834 265.039 248.518 264.009 248.515C261.301 248.729 260.444 252.173 258.815 254.327C256.861 256.891 253.287 257.805 250.082 257.395C246.876 256.985 243.928 255.489 241.049 253.976L204.615 235.242L202.044 242.934C202.044 242.934 231.064 266.01 275.528 274.172C275.528 274.172 304.41 251.412 314.643 231.234C324.876 211.056 340.775 169.699 340.775 169.699C340.775 169.699 334.955 158.708 324.979 152.973C324.979 152.973 317.531 149.461 315.963 145.119C314.395 140.778 300.399 133.282 300.399 133.282C300.399 133.282 302.216 137.914 292.257 135.906Z" fill="#00B8CC"/>
<path opacity="0.6" d="M292.257 135.906C301.882 141.555 302.962 147.922 304.941 152.469C299.936 153.461 294.76 154.52 290.629 157.503C285.486 161.229 282.701 167.4 280.541 173.391C278.498 179.061 276.781 184.842 275.399 190.706C280.051 182.326 286.663 175.19 294.674 169.904C299.293 166.861 305.001 164.409 310.272 166.127C305.85 167.998 300.845 170.528 299.911 175.229C299.727 176.009 299.759 176.824 300.005 177.587C300.793 179.801 303.553 180.399 305.644 181.476C309.724 183.57 311.849 188.313 312.029 192.911C312.209 197.509 310.795 201.954 309.398 206.304C308.17 210.115 306.941 213.927 305.713 217.739C304.144 222.61 302.55 227.55 299.713 231.824C296.877 236.097 292.617 239.678 287.552 240.515C285.434 240.923 283.242 240.675 281.27 239.806C279.774 238.995 278.384 238.005 277.13 236.858C271.054 231.964 263.751 228.819 256.013 227.764C265.971 234.328 270.685 246.25 274.816 257.42C272.919 254.109 270.186 251.351 266.889 249.421C266.043 248.834 265.039 248.518 264.009 248.515C261.301 248.729 260.444 252.173 258.815 254.327C256.861 256.891 253.287 257.805 250.082 257.395C246.876 256.985 243.928 255.489 241.049 253.976L204.615 235.242L202.044 242.934C202.044 242.934 231.064 266.01 275.528 274.172C275.528 274.172 304.41 251.412 314.643 231.234C324.876 211.056 340.775 169.699 340.775 169.699C340.775 169.699 334.955 158.708 324.979 152.973C324.979 152.973 317.531 149.461 315.963 145.119C314.395 140.778 300.399 133.282 300.399 133.282C300.399 133.282 302.216 137.914 292.257 135.906Z" fill="white"/>
<path d="M289.198 57.2352C289.198 57.2352 291.143 34.6126 281.364 32.4503C271.585 30.288 266.092 21.3398 266.092 21.3398L231.398 30.9974L226.016 51.7996L229.444 62.329C229.444 62.329 230.164 72.0976 230.301 76.9264C230.438 81.7552 230.301 85.4729 233.969 91.3358C237.638 97.1987 241.049 103.019 248.976 108.087V121.411C248.976 121.411 244.074 135.675 246.782 144.427C246.782 144.427 248.402 146.136 252.876 143.572C257.35 141.008 276.488 128.257 283.164 114.941L285.238 81.0886C285.238 81.0886 290.749 81.9432 293.123 76.935C296.611 72.0378 296.474 66.3287 295.12 61.6794C293.766 57.0301 287.938 60.0385 287.938 60.0385L289.198 57.2352Z" fill="#F5F5F5"/>
<path d="M249.353 90.4045C250.334 89.3393 251.543 88.508 252.89 87.9724C254.238 87.4368 255.688 87.2107 257.135 87.3107C257.135 87.3107 261.309 80.7384 265.706 81.9434C265.706 81.9434 267.06 88.9089 261.789 91.6523C254.933 95.2162 249.353 90.4045 249.353 90.4045Z" fill="#A1A1A1"/>
<path d="M236.463 28.1172C236.463 28.1172 228.158 38.9969 228.638 50.3381C229.118 61.6794 230.772 69.7217 230.293 78.4733C229.813 87.2249 239.069 101.882 248.556 107.788C255.644 112.206 264.532 111.454 271.431 106.933C279.144 101.805 283.387 92.5922 284.938 83.7465C285.092 82.8918 285.212 82.0372 285.298 81.1142" stroke="#263238" stroke-linecap="round" stroke-linejoin="round"/>
<path d="M248.556 107.797C248.556 107.797 249.902 120.053 248.556 124.249C247.074 128.856 245.282 139.582 246.842 144.427C248.402 149.273 277.585 128.907 283.224 114.933C283.224 114.933 284.004 87.7811 285.949 80.9951" stroke="#263238" stroke-linecap="round" stroke-linejoin="round"/>
<path d="M247.751 90.1051C247.751 90.1051 261.026 93.8485 266.46 80.1826" stroke="#263238" stroke-linecap="round" stroke-linejoin="round"/>
<path d="M248.822 110.746C248.822 110.746 251.65 119.489 257.752 120.01C263.855 120.531 279.119 108.336 284.321 93.9689V86.7812C284.321 86.7812 280.036 105.584 267.489 109.002C254.941 112.421 249.071 108.071 249.071 108.071L248.822 110.746Z" fill="#263238"/>
<path d="M265.697 81.9437C259.801 81.5335 257.127 87.3109 257.127 87.3109C255.674 87.1341 254.199 87.3248 252.839 87.8655C251.479 88.4061 250.278 89.2794 249.345 90.4048C250.798 91.7042 252.584 92.576 254.504 92.923C256.424 93.2701 258.403 93.0788 260.221 92.3705C266.923 90.0458 265.697 81.9437 265.697 81.9437Z" stroke="#263238" stroke-linecap="round" stroke-linejoin="round"/>
<path d="M250.913 56.167C250.986 58.8785 250.866 61.5917 250.553 64.2862C250.236 66.7049 249.113 69.021 248.179 71.2943C247.322 73.3626 245.891 76.5419 247.082 78.7213C248.436 81.1912 252.936 78.7213 252.936 78.7213" stroke="#263238" stroke-linecap="round" stroke-linejoin="round"/>
<path d="M255.704 78.2087C257.221 78.4139 259.372 78.2087 259.801 75.585" stroke="#263238" stroke-linecap="round" stroke-linejoin="round"/>
<path d="M260.606 52.9027C262.073 51.5077 264.022 50.7295 266.049 50.7295C268.075 50.7295 270.024 51.5077 271.491 52.9027" stroke="#263238" stroke-width="2" stroke-linecap="round" stroke-linejoin="round"/>
<path d="M243.311 55.0388C243.311 55.0388 239.292 49.9109 234.029 55.0388" stroke="#263238" stroke-width="2" stroke-linecap="round" stroke-linejoin="round"/>
<path d="M282.144 68.0043C282.144 68.0043 286.729 57.022 292.711 59.3809C296.834 61.0133 297.082 68.1069 294.897 73.0553C292.711 78.0037 291.614 83.0462 284.329 80.2258" stroke="#263238" stroke-linecap="round" stroke-linejoin="round"/>
<path d="M282.958 66.3204C282.958 66.3204 278.553 64.765 277.739 57.6286C276.925 50.4923 281.313 43.3474 279.684 38.2195C278.056 33.0916 265.226 35.6555 262.303 26.7159C262.303 26.7159 252.67 33.8778 234.021 32.3395C234.021 32.3395 230.087 39.0229 229.401 43.1081C228.483 49.4956 228.506 55.9826 229.47 62.3634C229.47 62.5856 229.547 62.7993 229.59 63.0215C230.927 69.9784 224.268 53.5519 224.448 46.5352C224.628 39.5185 220.385 30.6045 225.913 23.9639C231.441 17.3232 251.71 13.4346 255.704 10.3151C259.698 7.19561 267.463 15.5028 276.436 18.5625C285.409 21.6221 292.848 25.2715 291.717 37.9631C290.586 50.6547 291.777 52.3554 291.829 59.0388C291.829 59.0559 287.68 57.5004 282.958 66.3204Z" fill="#263238"/>
<path d="M266.066 62.1497C266.066 63.8591 265.406 65.2778 264.583 65.2778C263.76 65.2778 263.109 63.8761 263.109 62.1497C263.109 60.4234 263.769 59.0303 264.583 59.0303C265.397 59.0303 266.066 60.4404 266.066 62.1497Z" fill="#263238"/>
<path d="M243.311 62.1497C243.311 63.8591 242.651 65.2778 241.837 65.2778C241.023 65.2778 240.363 63.8761 240.363 62.1497C240.363 60.4234 241.023 59.0303 241.837 59.0303C242.651 59.0303 243.311 60.4404 243.311 62.1497Z" fill="#263238"/>
<path d="M260.606 66.3203C260.606 66.3203 263.666 69.5594 267.54 70.021" stroke="#263238" stroke-linecap="round" stroke-linejoin="round"/>
<path d="M239.763 70.021C239.763 70.021 245.36 69.6278 246.619 66.3203" stroke="#263238" stroke-linecap="round" stroke-linejoin="round"/>
<path d="M252.773 146.504C256.938 143.863 262.449 144.854 267.009 146.726C269.511 147.76 271.894 149.059 274.388 150.144C275.621 150.688 276.893 151.139 278.193 151.495C281.321 152.307 280.198 148.435 280.018 146.7C279.761 144.213 279.581 141.717 279.281 139.248C279.158 138.736 279.219 138.198 279.453 137.726C279.76 137.346 280.19 137.083 280.67 136.983C286.164 135.273 292.086 136.025 297.811 136.128C298.331 136.189 298.857 136.091 299.319 135.846C300.176 135.29 300.082 134.034 299.851 133.043C297.871 124.599 290.886 116.198 283.292 111.976" stroke="#263238" stroke-linecap="round" stroke-linejoin="round"/>
<path d="M249.036 113.343C245.257 114.915 241.374 116.548 238.117 118.958C236.936 119.817 235.847 120.797 234.869 121.881C234.081 122.628 233.586 123.631 233.472 124.71C233.493 125.211 233.627 125.702 233.862 126.146C234.098 126.589 234.431 126.975 234.835 127.274C235.41 127.746 236.044 128.142 236.721 128.453C238.297 129.197 240.149 129.923 240.817 131.504C240.98 131.835 241.039 132.207 240.989 132.572C240.904 132.893 240.738 133.187 240.509 133.427C239.206 135.008 236.909 136.23 237.08 138.273C237.192 139.854 238.795 140.837 240.217 141.538C241.64 142.239 243.303 142.965 243.791 144.478" stroke="#263238" stroke-linecap="round" stroke-linejoin="round"/>
<path d="M226.659 33.2027C227.216 29.7841 230.798 27.5791 234.244 27.0236C237.689 26.4681 241.228 27.0236 244.7 26.7245C247.603 26.4384 250.41 25.5343 252.933 24.0731C255.455 22.612 257.633 20.6279 259.321 18.2549" stroke="white" stroke-linecap="round" stroke-linejoin="round"/>
<path d="M230.558 23.596C236.781 19.9296 245.522 23.7413 251.59 19.827C253.307 18.5804 254.802 17.055 256.013 15.3145" stroke="white" stroke-linecap="round" stroke-linejoin="round"/>
<path d="M309.929 163.854C287.646 168.289 279.333 184.639 279.333 184.639L252.936 226.098" stroke="#263238" stroke-linecap="round" stroke-linejoin="round"/>
<path d="M291.092 159.375C292.94 157.667 295.035 156.244 297.305 155.153" stroke="#263238" stroke-linecap="round" stroke-linejoin="round"/>
<path d="M275.51 190.672C275.51 190.672 278.322 175.699 286.395 164.665" stroke="#263238" stroke-linecap="round" stroke-linejoin="round"/>
<path d="M206.81 222.62C206.81 222.62 205.653 176.75 201.667 169.742" stroke="#263238" stroke-linecap="round" stroke-linejoin="round"/>
<path d="M299.885 133.026C299.885 133.026 312.741 140.718 318.449 147.949C324.156 155.179 337.646 159.982 340.732 169.742C340.732 169.742 322.965 225.568 304.35 245.746C285.735 265.925 275.485 274.206 275.485 274.206C275.485 274.206 230.704 266.446 201.659 242.123L212.046 218.321C212.046 218.321 241.331 222.013 252.91 226.115C264.489 230.217 275.485 255.062 275.485 255.062" stroke="#263238" stroke-linecap="round" stroke-linejoin="round"/>
<path d="M252.936 226.114C252.936 226.114 273.436 230.088 280.096 239.396" stroke="#263238" stroke-linecap="round" stroke-linejoin="round"/>
<path d="M311.926 235.687L297.305 299.828H207.787L204.735 277.411" stroke="#263238" stroke-linecap="round" stroke-linejoin="round"/>
<path d="M246.337 271.06C241.391 281.162 234.869 278.932 234.869 278.932C184.432 280.838 165.851 262.044 165.851 262.044C165.851 262.044 163.28 235.609 173.196 199.936C183.112 164.263 201.684 133.026 201.684 133.026C209.921 127.564 228.296 123.3 233.481 122.171L234.869 121.881" stroke="#263238" stroke-linecap="round" stroke-linejoin="round"/>
<path d="M234.895 278.932C234.895 278.932 232.23 278.496 232.907 260.873" stroke="#263238" stroke-linecap="round" stroke-linejoin="round"/>
<path d="M203.047 243.25C203.047 243.25 190.449 238.823 174.842 249.592" stroke="#263238" stroke-linecap="round" stroke-linejoin="round"/>
<path d="M177.67 239.396C177.67 239.396 194.177 234.499 201.667 242.345" stroke="#263238" stroke-linecap="round" stroke-linejoin="round"/>
<path d="M199.885 241.9L202.027 242.969L210.186 222.645C210.186 222.645 201.736 221.269 188.349 237.892C192.529 237.94 196.579 239.348 199.885 241.9Z" fill="#F5F5F5" stroke="#263238" stroke-miterlimit="10"/>
<path d="M232.881 260.873V269.907C232.881 269.907 244.425 273.325 252.97 268.411L232.881 260.873Z" fill="#F5F5F5" stroke="#263238" stroke-miterlimit="10"/>
<path d="M295.454 136.034C295.462 136.201 295.445 136.368 295.402 136.53C295.042 137.94 286.241 171.075 258.069 185.817C257.824 185.948 257.55 186.016 257.272 186.014C256.889 186.014 256.517 185.886 256.216 185.65C255.915 185.414 255.701 185.085 255.609 184.714C255.517 184.343 255.553 183.952 255.71 183.604C255.867 183.256 256.136 182.97 256.475 182.792C282.187 169.348 291.246 138.709 292.034 135.889L295.454 136.034Z" fill="#263238"/>
<path d="M234.835 127.249C230.381 137.392 227.979 148.313 227.764 159.384C227.764 160.281 227.764 161.196 227.764 162.127C227.764 162.358 227.764 162.589 227.764 162.819C227.509 162.828 227.254 162.854 227.002 162.896C226.074 163.042 225.175 163.331 224.336 163.751C224.336 162.495 224.336 161.273 224.336 160.067C224.705 140.889 230.447 127.839 233.507 122.198L234.895 121.907C234.107 122.655 233.612 123.658 233.498 124.736C233.524 125.227 233.656 125.706 233.887 126.14C234.118 126.574 234.442 126.953 234.835 127.249Z" fill="#263238"/>
<path d="M268.586 178.109C270.591 180.886 268.946 185.501 264.9 188.416C260.855 191.33 255.953 191.433 253.939 188.655C251.925 185.877 253.57 181.262 257.615 178.348C261.661 175.434 266.606 175.331 268.586 178.109Z" fill="white" stroke="#263238" stroke-linecap="round" stroke-linejoin="round"/>
<path d="M263.597 176.459C265.02 178.425 263.855 181.69 261.026 183.749C258.198 185.809 254.693 185.886 253.313 183.92C251.933 181.955 253.056 178.69 255.884 176.63C258.712 174.571 262.175 174.502 263.597 176.459Z" fill="white" stroke="#263238" stroke-linecap="round" stroke-linejoin="round"/>
<path d="M240.946 211.149C240.581 211.391 240.137 211.485 239.705 211.41C239.273 211.336 238.886 211.099 238.623 210.749C238.361 210.398 238.243 209.961 238.294 209.527C238.345 209.093 238.561 208.695 238.897 208.414C239.043 208.295 244.794 203.415 242.274 186.98C242.06 185.587 241.786 184.099 241.417 182.535C240.329 177.553 238.649 171.246 235.212 166.613C234.394 165.391 233.275 164.4 231.961 163.736C230.648 163.071 229.185 162.755 227.713 162.819C227.457 162.827 227.202 162.853 226.95 162.896C226.023 163.042 225.124 163.33 224.285 163.75C221.724 165.069 219.781 167.332 218.868 170.058L218.56 170.912C216.616 176.153 215.027 181.518 213.803 186.971C212.432 193.68 211.969 200.714 214.403 205.628C215.055 206.977 215.984 208.173 217.13 209.14C218.276 210.108 219.612 210.824 221.054 211.243C221.441 211.37 221.77 211.63 221.982 211.977C222.194 212.324 222.275 212.734 222.211 213.135C222.147 213.537 221.942 213.902 221.633 214.166C221.323 214.43 220.93 214.575 220.522 214.576C220.342 214.576 220.162 214.547 219.991 214.491C218.117 213.93 216.38 212.987 214.89 211.722C213.4 210.456 212.189 208.897 211.335 207.141C208.592 201.611 208.952 194.082 210.341 186.971C211.571 181.123 213.239 175.375 215.329 169.775L215.637 168.921C216.311 166.887 217.439 165.032 218.938 163.497C220.436 161.961 222.264 160.785 224.285 160.058C224.984 159.816 225.704 159.639 226.436 159.528C226.873 159.468 227.293 159.426 227.739 159.4C229.745 159.345 231.733 159.793 233.52 160.702C235.308 161.611 236.839 162.953 237.972 164.605C241.794 169.733 243.611 176.51 244.768 181.826C245.171 183.655 245.48 185.373 245.711 186.997C248.419 205.423 241.28 210.91 240.946 211.149Z" fill="#263238" stroke="#263238" stroke-miterlimit="10"/>
<path d="M219.322 214.278C219.322 214.278 225.536 216.842 227.113 214.278C228.69 211.714 227.413 210.509 225.262 210.304C223.118 210.194 220.969 210.194 218.825 210.304L219.322 214.278Z" fill="#263238" stroke="#263238" stroke-miterlimit="10"/>
<path d="M222.176 213.423C222.064 213.766 221.846 214.064 221.554 214.276C221.262 214.488 220.909 214.602 220.548 214.602C220.367 214.602 220.188 214.573 220.017 214.517C218.142 213.956 216.405 213.013 214.915 211.748C213.425 210.482 212.215 208.923 211.36 207.167C208.618 201.637 208.978 194.108 210.366 186.997H213.794C212.423 193.706 211.96 200.74 214.394 205.654C215.046 207.003 215.976 208.199 217.121 209.166C218.267 210.134 219.604 210.85 221.045 211.269C221.262 211.335 221.463 211.444 221.638 211.588C221.812 211.733 221.956 211.91 222.062 212.111C222.167 212.311 222.231 212.53 222.251 212.755C222.271 212.981 222.245 213.207 222.176 213.423Z" fill="white" stroke="#263238" stroke-linecap="round" stroke-linejoin="round"/>
<path d="M235.221 209.296C234.962 209.602 234.772 209.958 234.661 210.343C234.55 210.727 234.522 211.13 234.578 211.526C234.749 212.112 235.121 212.619 235.628 212.959C236.135 213.3 236.746 213.452 237.355 213.389C238.572 213.228 239.685 212.618 240.474 211.68C241.331 210.723 244.305 204.458 241.554 205.535C239.557 206.287 236.558 207.561 235.221 209.296Z" fill="#263238" stroke="#263238" stroke-miterlimit="10"/>
<path d="M240.946 211.15C240.581 211.392 240.137 211.485 239.705 211.411C239.273 211.336 238.886 211.1 238.623 210.749C238.361 210.399 238.243 209.962 238.294 209.528C238.345 209.094 238.561 208.696 238.897 208.415C239.043 208.296 244.794 203.415 242.274 186.98H245.702C248.419 205.424 241.28 210.911 240.946 211.15Z" fill="white" stroke="#263238" stroke-linecap="round" stroke-linejoin="round"/>
<path opacity="0.2" d="M256.321 60.0897C256.321 60.0897 267.111 54.5002 277.027 60.0897C277.027 60.0897 277.19 68.3371 273.445 71.73C272.117 72.9351 266.032 73.1402 263.726 72.9351C254.367 72.089 256.321 60.0897 256.321 60.0897Z" fill="white"/>
<path opacity="0.2" d="M249.55 60.0897C249.55 60.0897 238.76 54.5002 228.853 60.0897C228.853 60.0897 228.69 68.3371 232.427 71.73C233.755 72.9351 239.849 73.1402 242.146 72.9351C251.505 72.089 249.55 60.0897 249.55 60.0897Z" fill="white"/>
<path d="M256.321 60.0897C256.321 60.0897 267.111 54.5002 277.027 60.0897C277.027 60.0897 277.19 68.3371 273.445 71.73C272.117 72.9351 266.032 73.1402 263.726 72.9351C254.367 72.089 256.321 60.0897 256.321 60.0897Z" stroke="#263238" stroke-miterlimit="10"/>
<path d="M249.55 60.0897C249.55 60.0897 238.76 54.5002 228.853 60.0897C228.853 60.0897 228.69 68.3371 232.427 71.73C233.755 72.9351 239.849 73.1402 242.146 72.9351C251.505 72.089 249.55 60.0897 249.55 60.0897Z" stroke="#263238" stroke-miterlimit="10"/>
<path d="M249.551 60.09C249.551 60.09 251.967 58.3209 256.321 60.09" stroke="#263238" stroke-miterlimit="10"/>
<path d="M277.027 60.0898L281.536 62.1752" stroke="#263238" stroke-miterlimit="10"/>
</svg>
