<svg width="18" height="18" viewBox="0 0 18 18" fill="none" xmlns="http://www.w3.org/2000/svg">
<path d="M5.04 12.48C5.23096 12.4243 5.43622 12.4467 5.61062 12.5424C5.78503 12.638 5.9143 12.799 5.97 12.99C6.0257 13.181 6.00325 13.3862 5.90761 13.5606C5.81197 13.735 5.65096 13.8643 5.46 13.92C5.085 14.0295 4.815 14.145 4.64175 14.25C4.82025 14.3572 5.10225 14.4772 5.49375 14.589C6.36 14.8365 7.59975 15 9 15C10.4002 15 11.64 14.8365 12.5062 14.589C12.8985 14.4772 13.1798 14.3572 13.3583 14.25C13.1858 14.145 12.9158 14.0295 12.5408 13.92C12.3528 13.8619 12.1952 13.7322 12.102 13.5589C12.0088 13.3857 11.9873 13.1827 12.0423 12.9939C12.0973 12.805 12.2243 12.6452 12.396 12.5491C12.5677 12.453 12.7702 12.4282 12.96 12.48C13.461 12.6262 13.92 12.8137 14.2725 13.0545C14.5988 13.2787 15 13.6695 15 14.25C15 14.8372 14.589 15.231 14.2575 15.4552C13.899 15.6967 13.4303 15.885 12.918 16.0312C11.8845 16.3275 10.5 16.5 9 16.5C7.5 16.5 6.1155 16.3275 5.082 16.0312C4.56975 15.885 4.101 15.6967 3.7425 15.4552C3.411 15.2302 3 14.8372 3 14.25C3 13.6695 3.40125 13.2787 3.7275 13.0545C4.08 12.8137 4.539 12.6262 5.04 12.48ZM9 1.5C10.4918 1.5 11.9226 2.09263 12.9775 3.14752C14.0324 4.20242 14.625 5.63316 14.625 7.125C14.625 9.051 13.575 10.617 12.4875 11.73C12.0552 12.1679 11.5906 12.5728 11.0977 12.9412C10.6522 13.2757 9.63375 13.9027 9.63375 13.9027C9.44058 14.0125 9.2222 14.0703 9 14.0703C8.7778 14.0703 8.55942 14.0125 8.36625 13.9027C7.86058 13.61 7.3718 13.289 6.90225 12.9412C6.40916 12.5731 5.94458 12.1682 5.5125 11.73C4.425 10.617 3.375 9.051 3.375 7.125C3.375 5.63316 3.96763 4.20242 5.02252 3.14752C6.07742 2.09263 7.50816 1.5 9 1.5ZM9 3C7.90598 3 6.85677 3.4346 6.08318 4.20818C5.3096 4.98177 4.875 6.03098 4.875 7.125C4.875 8.487 5.622 9.696 6.585 10.68C7.3095 11.421 8.1075 11.985 8.66025 12.3315L9 12.537L9.33975 12.3315C9.89175 11.985 10.6905 11.421 11.415 10.6807C12.378 9.696 13.125 8.487 13.125 7.125C13.125 6.03098 12.6904 4.98177 11.9168 4.20818C11.1432 3.4346 10.094 3 9 3ZM9 4.875C9.29547 4.875 9.58806 4.9332 9.86104 5.04627C10.134 5.15934 10.3821 5.32508 10.591 5.53401C10.7999 5.74294 10.9657 5.99098 11.0787 6.26396C11.1918 6.53694 11.25 6.82953 11.25 7.125C11.25 7.42047 11.1918 7.71305 11.0787 7.98604C10.9657 8.25902 10.7999 8.50706 10.591 8.71599C10.3821 8.92492 10.134 9.09066 9.86104 9.20373C9.58806 9.3168 9.29547 9.375 9 9.375C8.40326 9.375 7.83097 9.13795 7.40901 8.71599C6.98705 8.29403 6.75 7.72174 6.75 7.125C6.75 6.52826 6.98705 5.95597 7.40901 5.53401C7.83097 5.11205 8.40326 4.875 9 4.875ZM9 6.375C8.80109 6.375 8.61032 6.45402 8.46967 6.59467C8.32902 6.73532 8.25 6.92609 8.25 7.125C8.25 7.32391 8.32902 7.51468 8.46967 7.65533C8.61032 7.79598 8.80109 7.875 9 7.875C9.19891 7.875 9.38968 7.79598 9.53033 7.65533C9.67098 7.51468 9.75 7.32391 9.75 7.125C9.75 6.92609 9.67098 6.73532 9.53033 6.59467C9.38968 6.45402 9.19891 6.375 9 6.375Z" fill="white"/>
</svg>
