<svg width="424" height="250" viewBox="0 0 424 250" fill="none" xmlns="http://www.w3.org/2000/svg">
<path d="M417.865 154.215C409.228 127.787 393.726 104.124 372.943 85.6458C343.719 59.5925 290.249 16.8487 240.997 3.93602C168.542 -15.0528 105.208 39.1884 79.4471 70.1367C53.6863 101.085 6.45334 135.25 1.62648 165.092C-3.20037 194.935 2.1589 237.802 25.24 248.656H388.611C388.611 248.656 441.648 227.585 417.865 154.215Z" fill="#00B8CC"/>
<path opacity="0.7" d="M417.865 154.215C409.228 127.787 393.726 104.124 372.943 85.6458C343.719 59.5925 290.249 16.8487 240.997 3.93602C168.542 -15.0528 105.208 39.1884 79.4471 70.1367C53.6863 101.085 6.45334 135.25 1.62648 165.092C-3.20037 194.935 2.1589 237.802 25.24 248.656H388.611C388.611 248.656 441.648 227.585 417.865 154.215Z" fill="white"/>
<path d="M320.205 176.783H313.845V184.468H320.205V176.783Z" fill="#263238" stroke="#263238" stroke-miterlimit="10"/>
<path d="M330.279 156.97H303.243V177.105H330.279V156.97Z" fill="white" stroke="#263238" stroke-miterlimit="10"/>
<path d="M328.46 158.327H305.069V175.749H328.46V158.327Z" fill="#263238" stroke="#263238" stroke-miterlimit="10"/>
<path d="M292.028 185.93H289.722V249.288H292.028V185.93Z" fill="#263238" stroke="#263238" stroke-miterlimit="10"/>
<path d="M368.976 185.93H366.671V249.288H368.976V185.93Z" fill="#263238" stroke="#263238" stroke-miterlimit="10"/>
<path d="M337.64 185.93H289.728V198.643H337.64V234.358H368.976V198.643V185.93H337.64Z" fill="white" stroke="#263238" stroke-miterlimit="10"/>
<path d="M371.153 184.549H287.101V186.321H371.153V184.549Z" fill="white" stroke="#263238" stroke-miterlimit="10"/>
<path d="M366.595 188.579H339.822V200.691H366.595V188.579Z" fill="white" stroke="#263238" stroke-miterlimit="10"/>
<path d="M326.57 188.579H299.797V195.913H326.57V188.579Z" fill="white" stroke="#263238" stroke-miterlimit="10"/>
<path d="M366.595 204.38H339.822V216.491H366.595V204.38Z" fill="white" stroke="#263238" stroke-miterlimit="10"/>
<path d="M366.595 220.177H339.822V232.288H366.595V220.177Z" fill="white" stroke="#263238" stroke-miterlimit="10"/>
<path d="M57.7933 99.4239C57.7933 99.4239 54.7626 96.7338 50.5091 117.588C46.2557 138.443 48.3795 170.806 57.3194 184.841C66.2593 198.877 85.4029 209.099 85.4029 209.099L98.6022 192.076C98.6022 192.076 72.6717 183.526 66.2359 158.414C59.8001 133.302 63.6791 117.559 68.3656 116.705C73.052 115.851 79.9032 127.7 79.9032 127.7L60.5022 90.3535L57.7933 99.4239Z" fill="white" stroke="#263238" stroke-miterlimit="10"/>
<path d="M61.5557 117.131C61.5557 116.374 61.3309 115.633 60.9098 115.003C60.4887 114.373 59.8901 113.882 59.1899 113.592C58.4896 113.302 57.719 113.227 56.9756 113.374C56.2322 113.522 55.5493 113.887 55.0133 114.423C54.4774 114.958 54.1124 115.641 53.9645 116.384C53.8166 117.127 53.8925 117.897 54.1826 118.597C54.4726 119.297 54.9638 119.895 55.5941 120.316C56.2243 120.737 56.9653 120.962 57.7233 120.962C58.2265 120.962 58.7249 120.863 59.1899 120.67C59.6548 120.478 60.0773 120.196 60.4332 119.84C60.7891 119.484 61.0714 119.062 61.264 118.597C61.4566 118.132 61.5557 117.634 61.5557 117.131Z" fill="#263238" stroke="#263238" stroke-miterlimit="10"/>
<path d="M60.1514 117.132C60.1526 116.655 60.012 116.188 59.7476 115.791C59.4831 115.394 59.1067 115.084 58.666 114.901C58.2253 114.718 57.7401 114.67 57.2719 114.763C56.8038 114.856 56.3737 115.085 56.0362 115.423C55.6987 115.76 55.469 116.19 55.3762 116.658C55.2834 117.126 55.3316 117.61 55.5148 118.051C55.698 118.491 56.0078 118.868 56.4052 119.132C56.8025 119.396 57.2694 119.537 57.7466 119.536C58.0624 119.536 58.3751 119.473 58.6669 119.353C58.9587 119.232 59.2238 119.055 59.4471 118.832C59.6704 118.608 59.8475 118.343 59.9684 118.052C60.0892 117.76 60.1514 117.448 60.1514 117.132Z" fill="white" stroke="#263238" stroke-miterlimit="10"/>
<path d="M70.4835 67.4873L54.3472 76.1308L55.9679 83.0316L75.3338 72.6512L70.4835 67.4873Z" fill="white" stroke="#263238" stroke-miterlimit="10"/>
<path d="M45.1315 20.225L28.9967 28.8721L54.3482 76.1287L70.4829 67.4817L45.1315 20.225Z" fill="#263238" stroke="#263238" stroke-miterlimit="10"/>
<path d="M45.1286 20.2191L28.9938 28.8662L30.5919 31.8452L46.7267 23.1981L45.1286 20.2191Z" fill="white" stroke="#263238" stroke-miterlimit="10"/>
<path d="M75.2192 72.7101L55.9709 83.0264L84.9263 137.004L104.175 126.688L75.2192 72.7101Z" fill="white" stroke="#263238" stroke-miterlimit="10"/>
<path d="M99.1738 117.372L79.9254 127.688L84.9214 137.002L104.17 126.685L99.1738 117.372Z" fill="#263238" stroke="#263238" stroke-miterlimit="10"/>
<path d="M112.184 127.217L106.182 130.434L115.035 146.937L121.037 143.72L112.184 127.217Z" fill="white" stroke="#263238" stroke-miterlimit="10"/>
<path d="M103.386 130.76L96.876 132.76L102.378 150.66L108.889 148.66L103.386 130.76Z" fill="white" stroke="#263238" stroke-miterlimit="10"/>
<path d="M127.258 138.826L132.527 134.513L120.656 120.026L115.387 124.339L127.258 138.826Z" fill="white" stroke="#263238" stroke-miterlimit="10"/>
<path d="M122.563 116.83L92.543 132.919L95.3603 138.171L125.38 122.082L122.563 116.83Z" fill="white" stroke="#263238" stroke-miterlimit="10"/>
<path d="M141.217 152.39L93.3775 178.03L95.4041 181.808L143.244 156.168L141.217 152.39Z" fill="#263238" stroke="#263238" stroke-miterlimit="10"/>
<path d="M154.693 189.836L120.221 204.789L116.675 195.461L151.148 180.508L154.693 189.836Z" fill="#263238" stroke="#263238" stroke-miterlimit="10"/>
<path d="M108.613 175.473L98.1042 181.105L101.322 187.105L111.831 181.472L108.613 175.473Z" fill="white" stroke="#263238" stroke-miterlimit="10"/>
<path d="M71.0125 105.104C75.905 101.058 76.5901 93.8141 72.5427 88.9239C68.4953 84.0336 61.2482 83.3489 56.3557 87.3945C51.4632 91.4401 50.7781 98.684 54.8255 103.574C58.8729 108.465 66.12 109.149 71.0125 105.104Z" fill="#263238" stroke="#263238" stroke-miterlimit="10"/>
<path d="M70.0387 98.3127C71.1815 94.8056 69.2633 91.0365 65.7545 89.8942C62.2456 88.7519 58.4747 90.669 57.332 94.1761C56.1892 97.6833 58.1073 101.452 61.6162 102.595C65.125 103.737 68.8959 101.82 70.0387 98.3127Z" fill="white" stroke="#263238" stroke-miterlimit="10"/>
<path d="M108.554 200.245L127.013 192.239C127.43 192.057 127.88 191.962 128.334 191.957C128.789 191.953 129.24 192.039 129.661 192.212C130.082 192.385 130.463 192.641 130.783 192.964C131.103 193.287 131.355 193.67 131.524 194.092C131.84 194.88 131.849 195.758 131.551 196.552C131.252 197.346 130.666 198 129.909 198.385L110.192 208.42L108.554 200.245Z" fill="white" stroke="#263238" stroke-miterlimit="10"/>
<path d="M101.598 189.484H102.51C104.026 189.484 105.51 189.917 106.788 190.732C108.065 191.548 109.082 192.712 109.719 194.087L116.154 207.918C116.406 208.459 116.51 209.058 116.454 209.652C116.399 210.247 116.187 210.816 115.839 211.302C115.492 211.788 115.022 212.173 114.477 212.418C113.932 212.663 113.332 212.758 112.738 212.696L110.573 212.467L101.598 189.484Z" fill="white" stroke="#263238" stroke-miterlimit="10"/>
<path d="M96.5076 185.338L66.2359 229.913H125.867L110.543 212.462L101.223 185.976C101.063 185.509 100.776 185.096 100.394 184.783C100.013 184.47 99.5514 184.269 99.0621 184.203C98.5729 184.137 98.0748 184.208 97.6237 184.408C97.1726 184.609 96.7861 184.931 96.5076 185.338Z" fill="white" stroke="#263238" stroke-miterlimit="10"/>
<path d="M97.3445 199.268C99.4611 199.268 101.177 197.553 101.177 195.438C101.177 193.322 99.4611 191.607 97.3445 191.607C95.2279 191.607 93.5121 193.322 93.5121 195.438C93.5121 197.553 95.2279 199.268 97.3445 199.268Z" fill="white" stroke="#263238" stroke-miterlimit="10"/>
<path d="M60.3325 228.445H177.628C178.284 228.445 178.914 228.706 179.378 229.17C179.842 229.634 180.103 230.263 180.103 230.919V249.288H57.8577V230.919C57.8577 230.263 58.1184 229.634 58.5825 229.17C59.0467 228.706 59.6762 228.445 60.3325 228.445Z" fill="white" stroke="#263238" stroke-miterlimit="10"/>
<path d="M184.099 136.313V159.735H159.391V189.397H134.684V219.906H109.976V249.287H134.684H159.391H167.167H184.099H191.875H216.582H241.29V136.313H184.099Z" fill="white" stroke="#263238" stroke-miterlimit="10"/>
<path d="M241.284 136.313H219.783V249.287H241.284V136.313Z" fill="white" stroke="#263238" stroke-miterlimit="10"/>
<path d="M208.889 19.7901C208.889 19.7901 209.608 20.5094 210.644 17.9597C211.679 15.4099 209.924 12.866 208.731 12.2285C207.537 11.5911 208.409 12.942 205.144 11.825C201.879 10.708 200.282 9.43896 196.86 11.1115C193.437 12.7841 191.922 15.9713 191.284 19.5503C190.646 23.1294 191.12 24.4101 189.131 24.3283C187.141 24.2464 182.595 25.2055 183.473 29.2699C184.351 33.3344 186.983 34.1238 185.702 35.0011C184.421 35.8783 179.413 36.9953 180.437 41.3755C181.46 45.7557 182.982 44.399 185.293 45.592C187.604 46.785 187.446 48.6973 190.394 49.3348C193.343 49.9722 193.179 50.2939 196.292 48.4634C199.405 46.633 198.761 39.779 199.475 37.1532C200.189 34.5274 201.786 34.2291 202.342 30.9425C202.897 27.6558 202.026 25.7669 203.061 24.7318C204.097 23.6967 206.408 21.8604 206.964 20.989C207.457 20.3895 208.133 19.9683 208.889 19.7901Z" fill="#263238" stroke="#263238" stroke-miterlimit="10"/>
<path d="M212.505 96.7331C212.505 96.7331 210.1 117.435 209.755 118.81C209.41 120.184 208.637 123.88 208.38 124.482C208.123 125.085 208.725 125.769 208.637 126.547C208.55 127.325 208.21 128.781 208.21 128.781C208.21 128.781 202.634 129.833 202.201 129.833C201.768 129.833 201.002 128.547 200.739 128.026C200.31 126.72 200.051 125.364 199.966 123.991C200.054 123.406 202.032 96.5811 202.032 96.5811L212.505 96.7331Z" fill="white" stroke="#263238" stroke-miterlimit="10"/>
<path d="M207.876 128.179L210.281 131.185C210.281 131.185 215.266 133.676 215.266 134.191C215.249 134.597 215.192 135 215.096 135.395H200.469C200.469 135.395 200.042 133.161 200.469 132.044C200.897 130.927 201.417 129.296 201.417 129.296L207.876 128.179Z" fill="white" stroke="#263238" stroke-miterlimit="10"/>
<path d="M205.554 96.4998C205.554 96.4998 204.694 108.266 204.612 111.535C204.53 114.804 203.149 125.021 202.974 125.454C202.798 125.887 203.407 126.483 203.407 126.998C203.407 127.512 203.149 129.144 203.149 129.144C203.149 129.144 196.871 131.121 196.614 131.039C196.356 130.957 195.754 129.401 195.584 128.202C195.489 127.289 195.489 126.368 195.584 125.454C195.584 125.454 194.554 109.126 194.636 107.067C194.718 105.009 194.121 95.8975 194.121 95.8975L205.554 96.4998Z" fill="white" stroke="#263238" stroke-miterlimit="10"/>
<path d="M203.144 129.121L206.408 132.045C206.408 132.045 209.919 133.419 210.106 134.104C210.194 134.571 210.133 135.054 209.931 135.484H196.274L196.614 131.016L203.144 129.121Z" fill="white" stroke="#263238" stroke-miterlimit="10"/>
<path d="M198.825 32.5912C198.825 32.5912 195.947 33.252 193.647 34.0708C191.348 34.8895 188.879 35.8837 188.715 36.8662C188.551 37.8487 191.506 61.1125 191.506 61.1125C191.506 61.1125 189.453 68.2589 189.453 73.2707C189.453 78.2825 192.085 99.4702 192.085 99.4702H215.488C215.488 99.4702 216.799 80.2592 215.98 72.452C215.161 64.6447 214.499 59.9604 214.499 59.9604L214.336 48.2057C214.336 48.2057 220.42 56.7556 220.83 56.9194C221.24 57.0831 231.601 48.1472 231.601 48.1472L230.858 45.8489L221.901 47.8197C221.901 47.8197 214.336 35.0825 213.926 34.2579C213.517 33.4333 203.728 32.2871 203.728 32.2871L198.825 32.5912Z" fill="white" stroke="#263238" stroke-miterlimit="10"/>
<path d="M207.525 50.7148C207.525 50.7148 208.449 62.4111 207.987 70.3002C207.525 78.1893 207.338 99.4238 207.338 99.4238" fill="white"/>
<path d="M207.525 50.7148C207.525 50.7148 208.449 62.4111 207.987 70.3002C207.525 78.1893 207.338 99.4238 207.338 99.4238" stroke="#263238" stroke-miterlimit="10"/>
<path d="M196.198 33.5512L199.171 40.3233C199.171 40.3233 200.651 40.4169 200.926 40.4169C201.201 40.4169 200.341 42.3643 200.341 42.3643L207.116 49.885L210.37 39.8613L208.328 38.8379L210.083 36.9841L207.666 32.715L203.717 32.2646L198.539 32.8495L196.198 33.5512Z" fill="white" stroke="#263238" stroke-miterlimit="10"/>
<path d="M205.94 32.6501C205.94 32.6501 205.32 36.8665 205.238 37.194C205.156 37.5215 205.981 43.8667 205.981 43.8667C205.981 43.8667 201.125 36.539 200.218 34.9776C199.797 34.1765 199.241 33.4543 198.574 32.843C198.574 32.843 198.164 28.1646 198.164 27.9072C198.265 27.406 198.559 26.9648 198.983 26.6791C199.393 26.5154 200.3 26.6791 201.616 27.4979C202.933 28.3166 205.94 32.6501 205.94 32.6501Z" fill="white" stroke="#263238" stroke-miterlimit="10"/>
<path d="M206.327 16.79C206.327 16.79 205.39 20.2989 204.226 21.4685C203.062 22.6382 199.452 24.147 199.452 24.147C199.452 24.147 198.866 25.0768 198.521 25.1938L195.959 26.0067C195.959 26.0067 195.022 27.4044 196.421 28.2231C197.819 29.0418 198.638 28.3401 198.638 28.3401C199.29 28.9794 199.878 29.6805 200.394 30.4337C200.862 31.2466 206.338 34.1589 207.503 33.3577C208.667 32.5566 209.843 28.9307 209.948 27.65C210.054 26.3692 209.246 20.5504 208.778 19.0357C208.31 17.5211 206.327 16.79 206.327 16.79Z" fill="white" stroke="#263238" stroke-miterlimit="10"/>
<path d="M207.695 27.4926C208.244 27.3617 208.76 27.1188 209.21 26.7791C209.526 26.3815 207.771 24.3054 207.771 23.5919C207.777 23.1689 207.919 22.759 208.175 22.4223C208.175 22.4223 208.649 21.7849 209.129 22.0246" stroke="#263238" stroke-miterlimit="10"/>
<path d="M208.409 29.2461C208.409 29.2461 207.455 29.7198 206.975 29.5619" stroke="#263238" stroke-miterlimit="10"/>
<path d="M205.542 24.2111C205.542 24.7199 205.296 25.1293 204.957 25.1293C204.618 25.1293 204.401 24.7199 204.401 24.2111C204.401 23.7023 204.647 23.293 204.957 23.293C205.267 23.293 205.542 23.7082 205.542 24.2111Z" fill="#263238"/>
<path d="M209.351 23.6035C209.421 24.0713 209.269 24.4807 209.006 24.5216C208.742 24.5626 208.485 24.2117 208.421 23.7438C208.356 23.276 208.508 22.8608 208.766 22.8257C209.023 22.7906 209.281 23.1356 209.351 23.6035Z" fill="#263238"/>
<path d="M203.313 22.7377C203.313 22.7377 204.904 21.8605 206.18 22.0243" stroke="#263238" stroke-miterlimit="10"/>
<path d="M195.619 38.5105C195.619 38.2648 206.39 50.5927 206.39 50.5927L222.094 44.5925L223.902 48.3704C223.902 48.3704 203.758 59.3005 202.441 59.0724C201.125 58.8443 190.605 47.0779 190.605 47.0779" fill="white"/>
<path d="M195.619 38.5105C195.619 38.2648 206.39 50.5927 206.39 50.5927L222.094 44.5925L223.902 48.3704C223.902 48.3704 203.758 59.3005 202.441 59.0724C201.125 58.8443 190.605 47.0779 190.605 47.0779" stroke="#263238" stroke-miterlimit="10"/>
<path d="M233.111 77.1541C231.045 77.1541 229.065 76.3341 227.604 74.8743C226.144 73.4146 225.323 71.4347 225.323 69.3703V15.2109H240.892V69.3703C240.893 70.3922 240.692 71.4043 240.301 72.3486C239.911 73.293 239.338 74.1511 238.615 74.874C237.892 75.5968 237.034 76.1703 236.09 76.5615C235.145 76.9528 234.133 77.1541 233.111 77.1541Z" fill="white" stroke="#263238" stroke-miterlimit="10"/>
<path d="M226.891 26.6553V67.902C226.891 69.5507 227.547 71.1319 228.713 72.2978C229.879 73.4636 231.461 74.1185 233.111 74.1185C234.761 74.1185 236.343 73.4636 237.509 72.2978C238.675 71.1319 239.331 69.5507 239.331 67.902V26.6553H226.891Z" fill="#00B8CC" stroke="#263238" stroke-miterlimit="10"/>
<path d="M242.115 16.2757H224.106C223.916 16.2764 223.728 16.2397 223.552 16.1674C223.376 16.0952 223.216 15.9889 223.081 15.8547C222.946 15.7205 222.839 15.561 222.766 15.3853C222.693 15.2097 222.655 15.0214 222.655 14.8312C222.655 14.4465 222.808 14.0776 223.08 13.8057C223.352 13.5337 223.722 13.3809 224.106 13.3809H242.115C242.305 13.3809 242.494 13.4184 242.67 13.4913C242.846 13.5641 243.006 13.671 243.141 13.8057C243.276 13.9403 243.383 14.1002 243.455 14.2762C243.528 14.4521 243.566 14.6407 243.566 14.8312C243.566 15.0214 243.528 15.2097 243.455 15.3853C243.382 15.561 243.275 15.7205 243.141 15.8547C243.006 15.9889 242.846 16.0952 242.67 16.1674C242.494 16.2397 242.305 16.2764 242.115 16.2757Z" fill="white" stroke="#263238" stroke-miterlimit="10"/>
<path d="M222.094 44.5924C222.094 44.5924 222.749 42.7853 222.831 42.2941C222.913 41.8028 225.054 39.7443 225.382 39.4168C225.71 39.0893 226.201 38.2472 226.371 38.5922C226.476 39.4379 226.503 40.2913 226.453 41.142L230.911 40.3583C230.982 40.3459 231.055 40.3482 231.125 40.365C231.195 40.3819 231.261 40.4129 231.319 40.4562C231.376 40.4995 231.424 40.5542 231.46 40.6168C231.496 40.6795 231.518 40.7487 231.526 40.8203C231.545 40.9474 231.516 41.077 231.446 41.1848C231.376 41.2925 231.269 41.3709 231.145 41.4052L228.46 42.1128L228.746 42.5105L232.52 42.066C232.586 42.0579 232.653 42.0633 232.717 42.0817C232.781 42.1002 232.84 42.1315 232.892 42.1736C232.943 42.2156 232.985 42.2677 233.016 42.3266C233.047 42.3855 233.065 42.4501 233.07 42.5163C233.078 42.6358 233.042 42.7541 232.969 42.8489C232.895 42.9436 232.79 43.0084 232.672 43.0309L228.928 43.7795V44.1421L231.935 43.9608C232.014 43.9514 232.094 43.96 232.17 43.9861C232.245 44.0122 232.313 44.055 232.37 44.1113C232.426 44.1676 232.469 44.2359 232.495 44.3111C232.521 44.3864 232.53 44.4665 232.52 44.5456C232.509 44.668 232.455 44.7824 232.367 44.8682C232.279 44.954 232.163 45.0056 232.04 45.0134L228.776 45.3059L228.811 45.8088C228.898 46.1187 231.151 45.9024 231.426 46.1012C231.426 46.1012 231.906 46.7913 230.642 46.7913L225.043 47.5457L223.954 48.1305L222.094 44.5924Z" fill="white" stroke="#263238" stroke-miterlimit="10"/>
<path d="M359.013 169.864C359.013 169.864 363.998 178.373 367.491 178.373C370.984 178.373 369.187 164.174 369.187 163.642C369.187 163.109 367.918 151.46 367.918 151.46L365.162 167.46H360.604L359.013 169.864Z" fill="white" stroke="#263238" stroke-linecap="round" stroke-linejoin="round"/>
<path d="M369.134 203.467C369.134 203.467 371.978 227.953 372.387 229.579C372.797 231.205 373.704 235.574 374.014 236.281C374.324 236.989 373.604 237.807 373.704 238.72C373.803 239.632 374.213 241.363 374.213 241.363C374.213 241.363 380.818 242.58 381.327 242.58C381.836 242.58 382.755 241.059 383.082 240.445C383.589 238.9 383.896 237.296 383.995 235.673C383.896 234.959 381.555 203.263 381.555 203.263L369.134 203.467Z" fill="#263238" stroke="#263238" stroke-miterlimit="10"/>
<path d="M374.622 240.649L371.773 244.205C371.773 244.205 365.881 247.129 365.881 247.761C365.902 248.24 365.97 248.716 366.086 249.182H383.346C383.346 249.182 383.855 246.544 383.346 245.223C382.837 243.901 382.228 241.971 382.228 241.971L374.622 240.649Z" fill="white" stroke="#263238" stroke-miterlimit="10"/>
<path d="M377.366 203.164C377.366 203.164 378.384 217.082 378.484 220.942C378.583 224.802 380.21 236.89 380.415 237.399C380.619 237.907 379.906 238.621 379.906 239.229C379.906 239.837 380.21 241.767 380.21 241.767C380.21 241.767 387.629 244.106 387.933 244.001C388.238 243.896 388.951 242.071 389.156 240.65C389.271 239.569 389.271 238.479 389.156 237.399C389.156 237.399 390.373 218.1 390.274 215.661C390.174 213.222 390.859 202.45 390.859 202.45L377.366 203.164Z" fill="#263238" stroke="#263238" stroke-miterlimit="10"/>
<path d="M380.21 241.767L376.348 245.223C376.348 245.223 372.183 246.849 371.978 247.662C371.872 248.211 371.943 248.781 372.182 249.287H388.342L387.933 244.024L380.21 241.767Z" fill="white" stroke="#263238" stroke-miterlimit="10"/>
<path d="M378.08 144.858C378.08 144.858 368.134 150.372 367.906 151.431C367.677 152.489 366.314 179.087 366.314 179.087L364.623 204.941H395.79L395.047 177.917C395.047 177.917 396.744 151.109 396.428 150.372C396.112 149.635 386.142 143.904 386.142 143.904L378.08 144.858Z" fill="white" stroke="#263238" stroke-linecap="round" stroke-linejoin="round"/>
<path d="M375.155 146.659L374.201 149.413L375.155 149.84L373.985 151.214C373.985 151.214 375.465 159.987 375.465 160.332C375.465 160.677 384.587 150.688 384.587 150.688L384.054 149.413L386.067 148.355L387.553 144.542L386.172 143.904L378.08 144.858L375.155 146.659Z" fill="white" stroke="#263238" stroke-linecap="round" stroke-linejoin="round"/>
<path d="M377.355 150.887C377.355 150.887 375.658 158.302 375.441 160.32C375.225 162.337 375.231 204.502 375.231 204.502" fill="white"/>
<path d="M377.355 150.887C377.355 150.887 375.658 158.302 375.441 160.32C375.225 162.337 375.231 204.502 375.231 204.502" stroke="#263238" stroke-linecap="round" stroke-linejoin="round"/>
<path d="M380.848 124.623C380.848 124.623 375.336 124.196 374.593 125.576C373.85 126.956 374.277 129.6 374.277 129.6C374.277 129.6 373.639 130.875 373.429 131.401C373.218 131.927 373.534 133.945 373.534 133.945C373.534 133.945 371.837 135.851 372.054 136.383C372.224 136.899 372.559 137.345 373.008 137.653C373.323 137.758 372.686 143.161 373.429 143.378C374.172 143.594 377.46 143.056 377.46 143.056C377.46 143.056 376.91 151.004 377.355 150.887C377.799 150.77 386.131 143.869 386.131 143.869L385.604 140.799C385.604 140.799 389.629 133.781 389.208 130.734C388.787 127.687 385.411 124.833 380.848 124.623Z" fill="white" stroke="#263238" stroke-linecap="round" stroke-linejoin="round"/>
<path d="M380.848 124.623C380.848 124.623 375.336 124.196 374.593 125.576C373.85 126.956 374.277 129.6 374.277 129.6C374.277 129.6 381.064 130.237 380.848 130.658C380.631 131.079 378.624 132.144 379.262 132.57C379.771 132.889 380.3 133.172 380.848 133.418C380.848 133.418 379.742 136.015 380.216 136.062C381.169 136.173 382.228 133.418 382.65 133.307C383.071 133.196 384.773 133.945 384.452 135.43C384.13 136.916 381.38 138.395 381.38 138.395C381.38 138.395 381.485 139.033 382.971 139.881C383.783 140.37 384.684 140.694 385.622 140.834C385.622 140.834 389.647 133.816 389.226 130.769C388.805 127.722 385.411 124.833 380.848 124.623Z" fill="#263238" stroke="#263238" stroke-linecap="round" stroke-linejoin="round"/>
<path d="M375.154 134.477C375.154 134.945 374.99 135.325 374.786 135.325C374.581 135.325 374.412 134.945 374.412 134.477C374.412 134.009 374.581 133.629 374.786 133.629C374.99 133.629 375.154 134.009 375.154 134.477Z" fill="#263238"/>
<path d="M374.172 132.676C374.468 132.499 374.822 132.445 375.158 132.523C375.494 132.602 375.786 132.807 375.974 133.097" stroke="#263238" stroke-linecap="round" stroke-linejoin="round"/>
<path d="M377.46 143.056L379.789 142.319L377.243 146.132L377.46 143.056Z" fill="#263238" stroke="#263238" stroke-linecap="round" stroke-linejoin="round"/>
<path d="M342.473 145.623L390.174 187.425C390.582 187.779 390.916 188.21 391.156 188.693C391.397 189.177 391.54 189.703 391.576 190.242C391.612 190.78 391.542 191.321 391.369 191.832C391.195 192.343 390.922 192.815 390.566 193.221C390.194 193.652 389.737 194.002 389.223 194.247C388.708 194.492 388.149 194.627 387.579 194.643C387.01 194.66 386.444 194.557 385.916 194.343C385.389 194.128 384.912 193.806 384.516 193.396L339.933 147.746L342.473 145.623Z" fill="#263238" stroke="#263238" stroke-linecap="round" stroke-linejoin="round"/>
<path d="M384.136 183.216L380.42 185.654L379.151 188.731C379.151 188.731 379.467 189.789 380.104 189.684C380.742 189.579 381.275 189.467 381.275 189.467C381.275 189.467 382.544 190.637 383.182 190.637C383.82 190.637 384.563 190.105 384.984 189.894C385.405 189.684 387.529 185.76 387.529 185.76L384.136 183.216Z" fill="white" stroke="#263238" stroke-linecap="round" stroke-linejoin="round"/>
<path d="M387.74 155.987L391.981 171.355L384.136 183.221L387.529 185.765C387.529 185.765 399.611 172.625 400.038 171.993C400.465 171.361 396.434 150.355 396.434 150.355C396.434 150.355 393.783 147.916 391.753 148.016" fill="white"/>
<path d="M387.74 155.987L391.981 171.355L384.136 183.221L387.529 185.765C387.529 185.765 399.611 172.625 400.038 171.993C400.465 171.361 396.434 150.355 396.434 150.355C396.434 150.355 393.783 147.916 391.753 148.016" stroke="#263238" stroke-linecap="round" stroke-linejoin="round"/>
<path d="M357.743 164.338L356.257 166.677C356.257 166.677 359.329 170.7 360.394 170.49C361.458 170.279 362.933 168.689 362.933 167.946C362.933 167.203 359.545 164.133 359.013 163.922C358.48 163.712 358.375 163.612 357.743 164.338Z" fill="white" stroke="#263238" stroke-linecap="round" stroke-linejoin="round"/>
<path d="M325.833 102.897C320.842 102.896 315.963 104.375 311.812 107.145C307.662 109.916 304.426 113.855 302.516 118.464C300.605 123.073 300.104 128.144 301.077 133.038C302.05 137.931 304.453 142.426 307.982 145.954C311.511 149.482 316.007 151.884 320.902 152.858C325.797 153.832 330.871 153.333 335.483 151.424C340.094 149.515 344.035 146.282 346.808 142.134C349.581 137.986 351.061 133.109 351.061 128.12C351.062 124.808 350.41 121.529 349.143 118.468C347.875 115.408 346.017 112.628 343.674 110.285C341.332 107.943 338.55 106.085 335.489 104.818C332.428 103.55 329.147 102.897 325.833 102.897ZM325.833 150.992C321.307 150.992 316.883 149.651 313.12 147.138C309.357 144.625 306.425 141.052 304.693 136.873C302.961 132.694 302.508 128.095 303.391 123.658C304.273 119.222 306.453 115.146 309.653 111.947C312.853 108.749 316.93 106.57 321.369 105.688C325.808 104.805 330.409 105.258 334.59 106.989C338.771 108.721 342.345 111.652 344.859 115.413C347.373 119.175 348.715 123.597 348.715 128.12C348.715 131.124 348.123 134.098 346.974 136.873C345.824 139.648 344.138 142.169 342.013 144.293C339.888 146.417 337.366 148.102 334.59 149.251C331.814 150.401 328.838 150.992 325.833 150.992Z" fill="#263238" stroke="#263238" stroke-linecap="round" stroke-linejoin="round"/>
<path d="M336.148 111.119C333.039 109.232 329.471 108.234 325.833 108.236C325.517 108.236 325.207 108.236 324.897 108.236L327.483 114.786C330.55 114.822 333.566 115.569 336.295 116.968L336.148 111.119Z" fill="white"/>
<path d="M324.523 114.997L321.913 108.617C319.03 109.193 316.31 110.4 313.949 112.153C311.588 113.905 309.646 116.159 308.261 118.751C306.876 121.344 306.083 124.212 305.94 127.147C305.797 130.083 306.307 133.014 307.433 135.729C307.433 135.384 307.433 135.039 307.433 134.688C307.431 129.899 309.159 125.27 312.299 121.653C315.439 118.035 319.779 115.672 324.523 114.997Z" fill="white"/>
<path d="M41.2594 120.232C41.2594 120.232 42.5992 123.741 42.7338 124.385C42.8683 125.028 42.997 126.8 42.997 126.8C43.6419 127.464 44.2291 128.182 44.7523 128.946C44.8868 129.344 43.4124 131.086 43.4124 131.086C43.4124 131.086 43.2779 136.449 42.7455 136.853C42.213 137.256 39.235 136.987 39.235 136.987L38.4276 140.496L29.71 137.946L29.9792 134.864C29.9792 134.864 28.2239 128.835 28.1011 128.431C27.9782 128.028 28.2356 126.554 31.4535 123.069C34.6714 119.583 41.2594 120.232 41.2594 120.232Z" fill="white" stroke="#263238" stroke-miterlimit="10"/>
<path d="M37.6378 123.045C37.6378 123.045 40.8557 122.378 41.2594 120.232C41.6631 118.086 40.3175 118.086 37.3687 118.355C34.4199 118.624 26.5039 122.232 26.106 124.653C25.7082 127.074 29.4585 134.437 29.9909 134.841C30.5233 135.244 34.8178 135.513 35.0869 134.841C35.356 134.168 33.0742 131.49 33.4779 129.747C33.8816 128.004 35.6252 127.87 36.1634 128.677C36.7017 129.484 37.2341 130.431 37.2341 130.431C37.2341 130.431 38.9893 129.759 38.7085 129.226C38.4277 128.694 37.6378 127.747 37.5032 127.08C37.3687 126.413 38.5739 126.273 38.7085 125.068C38.8431 123.864 37.6378 123.045 37.6378 123.045Z" fill="#263238" stroke="#263238" stroke-miterlimit="10"/>
<path d="M28.7914 137.121L26.9133 139.934C26.9133 139.934 37.9127 142.08 38.9834 142.612C40.0541 143.145 41.9088 144.227 41.9088 144.227L38.3983 140.472L28.7914 137.121Z" fill="white" stroke="#263238" stroke-miterlimit="10"/>
<path d="M58.6305 164.649L63.5395 148.549C63.5766 148.431 63.587 148.306 63.57 148.184C63.5531 148.061 63.5092 147.944 63.4415 147.84C63.3738 147.737 63.2839 147.65 63.1785 147.585C63.073 147.521 62.9545 147.48 62.8315 147.467L55.1199 146.566C54.9254 146.546 54.7299 146.593 54.5659 146.699C54.4019 146.806 54.2794 146.965 54.2188 147.151L49.4737 162.356C49.4389 162.465 49.4266 162.579 49.4374 162.693C49.4483 162.806 49.4821 162.916 49.5368 163.016C49.5915 163.117 49.666 163.204 49.7557 163.275C49.8454 163.345 49.9485 163.397 50.0588 163.426L57.6007 165.181C57.8079 165.239 58.0295 165.217 58.2207 165.118C58.4119 165.019 58.5584 164.851 58.6305 164.649Z" fill="#263238" stroke="#263238" stroke-miterlimit="10"/>
<path d="M46.2326 157.718C46.2326 157.718 47.4965 156.098 47.7949 155.794C48.0933 155.49 51.4635 153.876 51.7619 153.636C52.0603 153.396 52.54 153.934 52.0018 154.835C51.3795 155.836 50.6976 156.799 49.9598 157.718C49.7199 157.958 52.4815 157.841 53.0842 157.601C53.6868 157.361 53.564 157.899 53.2012 158.379C52.8385 158.859 51.2821 159.098 50.8023 159.163C50.3225 159.227 49.4215 160.332 48.1576 160.917C46.8938 161.502 46.6539 161.578 46.297 161.578C45.7051 161.727 45.132 161.943 44.5885 162.221L43.5061 160.063L46.2326 157.718Z" fill="white" stroke="#263238" stroke-miterlimit="10"/>
<path d="M30.8334 243.317C31.1844 244.116 31.8059 244.766 32.5887 245.153C33.7588 245.609 37.8543 246.873 38.3282 247.68C38.6033 248.168 38.6867 248.741 38.5622 249.288H24.4035C24.4035 249.288 23.3679 246.645 25.088 243.083L30.8334 243.317Z" fill="white" stroke="#263238" stroke-miterlimit="10"/>
<path d="M27.5045 198.076L27.9609 210.942C27.9609 210.942 26.1237 218.632 25.8955 220.702C25.6673 222.773 25.0881 243.089 25.0881 243.089L30.8338 243.323L33.8236 227.591C33.8236 227.591 37.1529 213.556 37.3811 210.48C37.6093 207.404 37.9662 197.965 37.9662 197.965L27.5045 198.076Z" fill="#00B8CC" stroke="#263238" stroke-miterlimit="10"/>
<path d="M29.5696 196.468C29.5696 196.468 30.1547 201.731 30.26 206.573C30.3653 211.416 29.3414 220.808 30.7164 226.55C32.0914 232.293 33.5892 240.329 33.5892 241.019V243.083H40.8269C41.0734 242.346 41.1533 241.563 41.061 240.791C40.944 239.294 40.7158 237.112 40.7158 237.112C40.7158 237.112 41.0785 216.79 41.5174 214.047C41.9562 211.304 42.3248 197.398 42.3248 197.398L29.5696 196.468Z" fill="#00B8CC" stroke="#263238" stroke-miterlimit="10"/>
<path d="M40.8264 243.083C41.7353 243.892 42.7393 244.587 43.8161 245.153C44.9862 245.609 49.0817 246.873 49.5615 247.68C49.833 248.169 49.9142 248.742 49.7897 249.288H32.8869C32.8869 249.288 31.8572 246.645 33.5773 243.083H40.8264Z" fill="white" stroke="#263238" stroke-miterlimit="10"/>
<path d="M26.9075 139.934C26.9075 139.934 24.2278 147.174 23.555 148.647C22.9611 149.948 22.6863 151.371 22.7535 152.799C22.888 153.606 24.2278 174.513 24.2278 174.513C24.2278 174.513 22.4726 195.157 23.555 199.076H48.0988L45.1735 169.449C45.1735 169.449 43.4182 150.823 43.4182 148.542C43.3374 147.003 42.8266 145.518 41.9439 144.255L39.0185 142.641L26.9075 139.934Z" fill="white" stroke="#263238" stroke-miterlimit="10"/>
<path d="M33.0742 148.782C33.0742 148.782 30.9328 152.133 31.5998 154.01C32.2668 155.888 40.8557 173.847 41.6631 173.982C42.4705 174.116 57.0564 165.139 57.0564 165.139L56.2548 161.923L46.2267 163.677L40.3174 146.209" fill="white"/>
<path d="M33.0742 148.782C33.0742 148.782 30.9328 152.133 31.5998 154.01C32.2668 155.888 40.8557 173.847 41.6631 173.982C42.4705 174.116 57.0564 165.139 57.0564 165.139L56.2548 161.923L46.2267 163.677L40.3174 146.209" stroke="#263238" stroke-miterlimit="10"/>
<path d="M56.249 161.923C56.249 161.923 57.5889 158.999 57.7703 158.619C57.9516 158.239 58.9405 158.14 59.3325 156.941C59.7245 155.742 60.4149 155.438 60.5905 155.976C60.766 156.514 59.4202 158.859 59.4202 158.859L62.5447 157.537C62.5447 157.537 63.1298 157.602 62.8431 158.198C62.5685 158.688 62.2471 159.15 61.8835 159.578C61.8835 159.578 61.6436 162.222 60.6841 163.187C59.7245 164.151 56.957 164.684 56.957 164.684L56.249 161.923Z" fill="white" stroke="#263238" stroke-miterlimit="10"/>
<path d="M410.704 249.288H419.387" stroke="#263238" stroke-miterlimit="10"/>
<path d="M3.56302 249.288L403.104 249.288" stroke="#263238" stroke-miterlimit="10"/>
</svg>
