<svg width="520" height="250" viewBox="0 0 520 250" fill="none" xmlns="http://www.w3.org/2000/svg">
<path d="M494.568 140.902C489.272 168.432 468.832 200.422 427.952 215.145C366.21 237.367 339.15 244.945 272.425 249.081C245.786 250.732 217.198 249.239 199.257 249.081C181.315 248.923 158.23 247.56 149.558 246.783C72.9633 239.904 43.1286 248.602 24.2594 209.126C-0.701395 157.197 48.9585 123.203 81.9241 102.719C114.89 82.2361 138.975 18.4168 257.254 3.23534C275.298 0.87459 293.725 -0.200694 312.17 0.0307623C354.248 0.649406 400.152 9.15575 431.909 26.8737C434.299 28.21 436.622 29.5895 438.877 31.0124C483.019 58.8514 501.777 103.369 494.568 140.902Z" fill="#00B8CC"/>
<path opacity="0.7" d="M494.568 140.902C489.272 168.432 468.832 200.422 427.952 215.145C366.21 237.367 339.15 244.945 272.425 249.081C245.786 250.732 217.198 249.239 199.257 249.081C181.315 248.923 158.23 247.56 149.558 246.783C72.9633 239.904 43.1286 248.602 24.2594 209.126C-0.701395 157.197 48.9585 123.203 81.9241 102.719C114.89 82.2361 138.975 18.4168 257.254 3.23534C275.298 0.87459 293.725 -0.200694 312.17 0.0307623C354.248 0.649406 400.152 9.15575 431.909 26.8737C434.299 28.21 436.622 29.5895 438.877 31.0124C483.019 58.8514 501.777 103.369 494.568 140.902Z" fill="white"/>
<path d="M499.757 197.982H1.00881C0.848071 197.982 0.693914 197.918 0.580254 197.804C0.466594 197.691 0.40274 197.537 0.40274 197.377C0.40274 197.216 0.466594 197.062 0.580254 196.949C0.693914 196.835 0.848071 196.771 1.00881 196.771H499.757C499.917 196.771 500.071 196.835 500.185 196.949C500.299 197.062 500.363 197.216 500.363 197.377C500.36 197.536 500.295 197.688 500.182 197.801C500.069 197.914 499.916 197.978 499.757 197.982Z" fill="#263238"/>
<path d="M518.872 197.982H510.387C510.227 197.978 510.075 197.914 509.962 197.801C509.849 197.688 509.784 197.536 509.781 197.377C509.781 197.216 509.845 197.062 509.958 196.949C510.072 196.835 510.226 196.771 510.387 196.771H518.872C519.033 196.771 519.187 196.835 519.301 196.949C519.414 197.062 519.478 197.216 519.478 197.377C519.475 197.536 519.41 197.688 519.297 197.801C519.184 197.914 519.032 197.978 518.872 197.982Z" fill="#263238"/>
<path d="M250.504 134.35L247.522 134.991L245.377 132.244L251.316 130.973L250.504 134.35Z" fill="white"/>
<path d="M247.522 135.597C247.431 135.596 247.342 135.574 247.26 135.535C247.178 135.495 247.106 135.438 247.049 135.367L244.904 132.619C244.838 132.539 244.795 132.443 244.778 132.341C244.761 132.24 244.771 132.135 244.807 132.038C244.844 131.942 244.904 131.856 244.983 131.788C245.061 131.721 245.155 131.674 245.255 131.651L251.195 130.44C251.294 130.416 251.399 130.419 251.497 130.448C251.595 130.478 251.683 130.534 251.752 130.61C251.824 130.681 251.876 130.77 251.904 130.868C251.931 130.965 251.934 131.068 251.91 131.167L251.086 134.556C251.062 134.667 251.005 134.769 250.923 134.849C250.841 134.929 250.738 134.982 250.625 135.004L247.655 135.645L247.522 135.597ZM246.455 132.668L247.765 134.362L249.995 133.878L250.504 131.796L246.455 132.668Z" fill="#263238"/>
<path d="M248.257 116.771L242.32 118.049L245.346 132.071L251.283 130.793L248.257 116.771Z" fill="white"/>
<path d="M245.34 132.68C245.224 132.684 245.109 132.65 245.013 132.583C244.947 132.539 244.891 132.482 244.847 132.415C244.803 132.349 244.773 132.274 244.758 132.196L241.74 118.167C241.722 118.09 241.72 118.01 241.734 117.932C241.748 117.854 241.777 117.78 241.82 117.713C241.863 117.647 241.918 117.589 241.984 117.545C242.049 117.5 242.123 117.469 242.201 117.453L248.14 116.17C248.299 116.143 248.462 116.173 248.601 116.255C248.737 116.345 248.832 116.483 248.868 116.642L251.886 130.659C251.904 130.737 251.906 130.817 251.892 130.896C251.879 130.975 251.85 131.05 251.807 131.118C251.764 131.185 251.708 131.244 251.643 131.29C251.577 131.336 251.503 131.368 251.425 131.385L245.486 132.596L245.34 132.68ZM243.037 118.518L245.813 131.361L250.565 130.332L247.801 117.501L243.037 118.518Z" fill="#263238"/>
<path d="M240.14 134.459L237.413 133.103L237.473 129.617L242.904 132.341L240.14 134.459Z" fill="white"/>
<path d="M240.128 135.065C240.036 135.062 239.945 135.041 239.861 135.004L237.146 133.637C237.044 133.587 236.958 133.509 236.898 133.413C236.838 133.316 236.806 133.205 236.807 133.092L236.867 129.606C236.868 129.503 236.895 129.402 236.946 129.313C236.997 129.224 237.07 129.15 237.158 129.097C237.247 129.046 237.347 129.02 237.449 129.02C237.551 129.02 237.652 129.046 237.74 129.097L243.17 131.821C243.261 131.867 243.339 131.936 243.396 132.021C243.454 132.106 243.489 132.203 243.498 132.305C243.511 132.406 243.496 132.509 243.456 132.603C243.415 132.697 243.35 132.778 243.267 132.838L240.504 134.968C240.39 135.035 240.26 135.069 240.128 135.065ZM238.031 132.729L240.067 133.745L241.764 132.45L238.055 130.586L238.031 132.729Z" fill="#263238"/>
<path d="M249.429 119.347L244.001 116.627L237.558 129.447L242.986 132.167L249.429 119.347Z" fill="white"/>
<path d="M242.977 132.789C242.889 132.808 242.798 132.808 242.71 132.789L237.28 130.066C237.137 129.993 237.028 129.868 236.976 129.717C236.924 129.565 236.933 129.4 237.001 129.255L243.449 116.424C243.526 116.285 243.651 116.177 243.801 116.122C243.948 116.061 244.114 116.061 244.261 116.122L249.692 118.845C249.764 118.88 249.828 118.929 249.88 118.988C249.933 119.048 249.973 119.118 249.998 119.194C250.023 119.27 250.032 119.35 250.025 119.429C250.018 119.508 249.996 119.586 249.959 119.656L243.546 132.45C243.47 132.593 243.345 132.705 243.195 132.765L242.977 132.789ZM238.358 129.158L242.71 131.337L248.613 119.596L244.261 117.417L238.358 129.158Z" fill="#263238"/>
<path d="M231.692 130.67L228.976 129.314L229.025 125.828L234.455 128.552L231.692 130.67Z" fill="white"/>
<path d="M231.692 131.276C231.604 131.295 231.513 131.295 231.425 131.276L228.698 129.909C228.597 129.858 228.513 129.78 228.455 129.684C228.397 129.587 228.368 129.476 228.37 129.364V125.878C228.371 125.775 228.398 125.674 228.449 125.585C228.5 125.496 228.573 125.422 228.661 125.369C228.751 125.322 228.851 125.297 228.952 125.297C229.054 125.297 229.154 125.322 229.243 125.369L234.686 128.093C234.776 128.141 234.854 128.211 234.911 128.296C234.968 128.381 235.003 128.479 235.013 128.581C235.022 128.683 235.006 128.786 234.966 128.881C234.926 128.975 234.863 129.058 234.783 129.122L232.007 131.24C231.907 131.282 231.798 131.294 231.692 131.276ZM229.582 128.94L231.619 129.957L233.316 128.662L229.619 126.81L229.582 128.94Z" fill="#263238"/>
<path d="M240.991 115.57L235.563 112.85L229.12 125.669L234.548 128.39L240.991 115.57Z" fill="white"/>
<path d="M234.54 128.999C234.449 129.023 234.353 129.023 234.261 128.999L228.831 126.276C228.759 126.241 228.695 126.192 228.642 126.132C228.59 126.072 228.55 126.003 228.525 125.927C228.5 125.851 228.491 125.771 228.498 125.692C228.504 125.612 228.527 125.535 228.564 125.465L235.061 112.586C235.135 112.443 235.261 112.335 235.413 112.283C235.561 112.229 235.725 112.229 235.873 112.283L241.316 115.007C241.457 115.084 241.564 115.212 241.613 115.365C241.663 115.518 241.652 115.685 241.583 115.83L235.061 128.672C235.027 128.744 234.978 128.808 234.917 128.86C234.857 128.912 234.786 128.951 234.71 128.975L234.54 128.999ZM229.922 125.368L234.261 127.547L240.164 115.806L235.813 113.627L229.922 125.368Z" fill="#263238"/>
<path d="M236.419 159.092H191.121V170.107H236.419V159.092Z" fill="#263238"/>
<path d="M236.419 170.7H191.121C190.96 170.7 190.806 170.636 190.693 170.522C190.579 170.409 190.515 170.255 190.515 170.094V159.092C190.515 158.931 190.579 158.777 190.693 158.664C190.806 158.55 190.96 158.486 191.121 158.486H236.419C236.58 158.486 236.734 158.55 236.847 158.664C236.961 158.777 237.025 158.931 237.025 159.092V170.094C237.025 170.255 236.961 170.409 236.847 170.522C236.734 170.636 236.58 170.7 236.419 170.7ZM191.727 169.489H235.813V159.697H191.727V169.489Z" fill="#263238"/>
<path d="M201.958 183.965H265.777C268.391 183.965 270.897 185.002 272.745 186.847C274.593 188.693 275.632 191.196 275.632 193.806V203.017H201.958V183.965Z" fill="white"/>
<path d="M275.644 203.612H201.958C201.797 203.612 201.643 203.548 201.529 203.435C201.416 203.321 201.352 203.167 201.352 203.007V183.967C201.352 183.806 201.416 183.652 201.529 183.539C201.643 183.425 201.797 183.361 201.958 183.361H265.789C267.165 183.36 268.527 183.629 269.798 184.153C271.069 184.677 272.225 185.446 273.198 186.416C274.172 187.386 274.945 188.538 275.472 189.806C276 191.074 276.273 192.434 276.274 193.807V203.019C276.273 203.099 276.255 203.179 276.222 203.252C276.19 203.326 276.143 203.392 276.084 203.448C276.025 203.503 275.956 203.546 275.88 203.574C275.805 203.602 275.725 203.615 275.644 203.612ZM202.564 202.402H275.062V193.807C275.059 191.359 274.083 189.012 272.35 187.28C270.616 185.549 268.265 184.575 265.813 184.572H202.564V202.402Z" fill="#263238"/>
<path d="M275.062 194.048H220.855C220.694 194.048 220.54 193.984 220.426 193.871C220.313 193.757 220.249 193.603 220.249 193.443C220.252 193.283 220.317 193.131 220.43 193.019C220.543 192.906 220.695 192.841 220.855 192.838H275.062C275.223 192.838 275.377 192.902 275.491 193.015C275.604 193.129 275.668 193.282 275.668 193.443C275.668 193.603 275.604 193.757 275.491 193.871C275.377 193.984 275.223 194.048 275.062 194.048Z" fill="#263238"/>
<path d="M220.697 159.092H191.121V203.019H220.697V159.092Z" fill="#263238"/>
<path d="M220.697 203.611H191.121C190.96 203.611 190.806 203.548 190.693 203.434C190.579 203.321 190.515 203.167 190.515 203.006V159.092C190.515 158.931 190.579 158.777 190.693 158.664C190.806 158.55 190.96 158.486 191.121 158.486H220.697C220.858 158.486 221.012 158.55 221.126 158.664C221.24 158.777 221.303 158.931 221.303 159.092V203.018C221.3 203.177 221.235 203.328 221.122 203.438C221.008 203.549 220.856 203.611 220.697 203.611ZM191.727 202.401H220.091V159.697H191.727V202.401Z" fill="#263238"/>
<path d="M319.657 72.4967L262.189 95.3256L259.789 89.2976L317.269 66.4688L319.657 72.4967Z" fill="#263238"/>
<path d="M262.189 95.8822C262.109 95.9004 262.026 95.9004 261.947 95.8822C261.872 95.8504 261.805 95.8041 261.749 95.7458C261.692 95.6876 261.648 95.6188 261.619 95.5433L259.195 89.4911C259.166 89.4172 259.151 89.3382 259.152 89.2586C259.153 89.1791 259.17 89.1005 259.201 89.0274C259.233 88.9544 259.279 88.8882 259.336 88.8328C259.393 88.7773 259.46 88.7337 259.534 88.7043L317.014 65.8755C317.162 65.8149 317.327 65.8149 317.475 65.8755C317.547 65.9048 317.613 65.9491 317.667 66.0054C317.722 66.0617 317.763 66.1288 317.79 66.2023L320.214 72.2545C320.271 72.404 320.267 72.5695 320.203 72.7162C320.14 72.863 320.022 72.9795 319.875 73.0413L262.407 95.8822C262.335 95.8992 262.261 95.8992 262.189 95.8822ZM260.577 89.5758L262.528 94.4902L318.869 72.1577L316.929 67.3159L260.577 89.5758Z" fill="#263238"/>
<path d="M298.202 72.9899L295.237 74.1621L298.379 82.0855L301.344 80.9133L298.202 72.9899Z" fill="white"/>
<path d="M298.384 82.7127C298.304 82.7308 298.221 82.7308 298.141 82.7127C297.994 82.6502 297.876 82.533 297.814 82.3858L294.674 74.4575C294.618 74.308 294.622 74.1425 294.685 73.9957C294.749 73.849 294.866 73.7325 295.014 73.6707L297.984 72.4603C298.058 72.4272 298.139 72.4102 298.22 72.4102C298.301 72.4102 298.382 72.4272 298.456 72.4603C298.601 72.5232 298.714 72.6407 298.771 72.7871L301.911 80.7154C301.94 80.7894 301.955 80.8683 301.954 80.9479C301.953 81.0275 301.936 81.106 301.905 81.1791C301.873 81.2522 301.827 81.3184 301.77 81.3738C301.713 81.4292 301.646 81.4729 301.571 81.5022L298.602 82.7127C298.53 82.7242 298.456 82.7242 298.384 82.7127ZM296.032 74.5301L298.723 81.357L300.565 80.6307L297.874 73.8281L296.032 74.5301Z" fill="#263238"/>
<path d="M283.656 76.5308L258.659 86.4141L263.313 98.1524L288.31 88.2691L283.656 76.5308Z" fill="#263238"/>
<path d="M263.316 98.7872C263.194 98.789 263.075 98.7527 262.975 98.6832C262.875 98.6137 262.799 98.5146 262.759 98.3998L258.092 86.6586C258.061 86.5849 258.045 86.5056 258.045 86.4255C258.045 86.3455 258.062 86.2663 258.093 86.1928C258.125 86.1193 258.171 86.053 258.23 85.9978C258.288 85.9426 258.356 85.8998 258.431 85.8718L283.426 75.9946C283.573 75.9341 283.739 75.9341 283.886 75.9946C284.032 76.0658 284.148 76.1857 284.214 76.3335L288.868 88.0748C288.901 88.147 288.918 88.2254 288.918 88.3048C288.918 88.3841 288.901 88.4625 288.868 88.5348C288.806 88.6819 288.688 88.7991 288.541 88.8616L263.534 98.7387C263.467 98.7721 263.392 98.7887 263.316 98.7872ZM259.45 86.7796L263.656 97.3952L287.523 87.9537L283.317 77.3382L259.45 86.7796Z" fill="#263238"/>
<path d="M272.214 100.616L263.959 112.72L230.952 113.822L191.073 183.313C191.073 183.313 178.697 164.358 178.697 155.291V155.025C178.743 147.823 180.946 140.8 185.024 134.859L220.782 82.5078H262.589L272.214 100.616Z" fill="white"/>
<path d="M191.073 183.893C190.972 183.89 190.873 183.864 190.784 183.815C190.696 183.767 190.62 183.698 190.564 183.614C190.054 182.84 178.091 164.405 178.091 155.266V154.999C178.129 147.675 180.372 140.531 184.527 134.495L220.285 82.1433C220.34 82.062 220.414 81.9952 220.501 81.9489C220.587 81.9025 220.684 81.8778 220.782 81.877H262.589C262.699 81.8803 262.806 81.9123 262.899 81.9696C262.993 82.0269 263.07 82.1076 263.122 82.2038L272.747 100.36C272.806 100.455 272.837 100.564 272.837 100.675C272.837 100.786 272.806 100.895 272.747 100.99L264.504 113.094C264.453 113.176 264.381 113.243 264.296 113.29C264.211 113.337 264.116 113.361 264.019 113.36L231.292 114.45L191.582 183.651C191.528 183.739 191.454 183.813 191.365 183.865C191.276 183.918 191.176 183.948 191.073 183.953V183.893ZM221.097 83.0874L185.521 135.136C181.502 140.985 179.335 147.906 179.303 154.999V155.266C179.303 162.988 188.685 178.361 191.048 182.113L230.431 113.494C230.484 113.405 230.558 113.33 230.647 113.277C230.736 113.225 230.837 113.195 230.94 113.191L263.668 112.102L271.547 100.578L262.262 83.0874H221.097Z" fill="#263238"/>
<path d="M272.213 101.22H209.182C209.021 101.22 208.867 101.156 208.753 101.043C208.64 100.929 208.576 100.775 208.576 100.615C208.576 100.454 208.64 100.3 208.753 100.187C208.867 100.074 209.021 100.01 209.182 100.01H272.213C272.374 100.01 272.528 100.074 272.642 100.187C272.756 100.3 272.819 100.454 272.819 100.615C272.819 100.775 272.756 100.929 272.642 101.043C272.528 101.156 272.374 101.22 272.213 101.22Z" fill="#263238"/>
<path d="M253.51 75.8496H232.879V82.4465H253.51V75.8496Z" fill="#263238"/>
<path d="M253.51 83.0394H232.904C232.743 83.0394 232.589 82.9756 232.475 82.8621C232.361 82.7486 232.298 82.5947 232.298 82.4341V75.8494C232.298 75.6888 232.361 75.5349 232.475 75.4214C232.589 75.3079 232.743 75.2441 232.904 75.2441H253.51C253.671 75.2441 253.825 75.3079 253.939 75.4214C254.052 75.5349 254.116 75.6888 254.116 75.8494V82.4341C254.116 82.5947 254.052 82.7486 253.939 82.8621C253.825 82.9756 253.671 83.0394 253.51 83.0394ZM233.485 81.8289H252.88V76.5151H233.485V81.8289Z" fill="#263238"/>
<path d="M191.255 158.583C190.327 158.581 189.417 158.334 188.617 157.867C187.816 157.4 187.154 156.73 186.697 155.925C186.24 155.119 186.005 154.207 186.015 153.281C186.026 152.356 186.282 151.449 186.757 150.654L207.364 116.169C207.705 115.555 208.167 115.015 208.721 114.583C209.275 114.15 209.911 113.833 210.59 113.651C211.269 113.468 211.978 113.424 212.675 113.52C213.372 113.617 214.042 113.852 214.646 114.213C215.249 114.573 215.775 115.051 216.19 115.618C216.605 116.185 216.902 116.829 217.063 117.513C217.224 118.197 217.245 118.906 217.126 119.599C217.007 120.291 216.75 120.952 216.37 121.543L195.764 156.029C195.296 156.806 194.635 157.45 193.845 157.897C193.055 158.345 192.163 158.581 191.255 158.583Z" fill="#263238"/>
<path d="M191.254 159.189C190.221 159.184 189.207 158.907 188.315 158.385C187.424 157.863 186.686 157.115 186.177 156.217C185.667 155.319 185.404 154.303 185.415 153.271C185.425 152.239 185.709 151.228 186.236 150.34L206.843 115.867C207.217 115.171 207.728 114.558 208.346 114.065C208.964 113.572 209.675 113.209 210.437 112.998C211.199 112.787 211.997 112.732 212.781 112.837C213.564 112.942 214.319 113.205 214.998 113.609C215.678 114.014 216.268 114.551 216.734 115.19C217.2 115.828 217.531 116.554 217.708 117.324C217.885 118.094 217.904 118.892 217.763 119.669C217.623 120.446 217.326 121.187 216.891 121.847L196.285 156.332C195.764 157.201 195.027 157.921 194.146 158.421C193.265 158.922 192.268 159.186 191.254 159.189ZM211.861 114.221C211.061 114.221 210.275 114.427 209.578 114.819C208.882 115.211 208.298 115.777 207.885 116.46L187.279 150.946C186.651 152.001 186.467 153.262 186.767 154.452C187.066 155.643 187.826 156.667 188.879 157.3C189.936 157.93 191.201 158.113 192.394 157.811C193.588 157.51 194.612 156.747 195.242 155.691L215.849 121.205C216.477 120.15 216.661 118.889 216.361 117.698C216.061 116.508 215.302 115.484 214.249 114.85C213.527 114.435 212.707 114.217 211.873 114.221H211.861Z" fill="#263238"/>
<path d="M263.959 112.695L256.419 126.083L229.97 115.516L237.485 103.012L263.959 112.695Z" fill="#263238"/>
<path d="M256.419 126.688C256.347 126.7 256.273 126.7 256.201 126.688L229.74 116.121C229.659 116.085 229.587 116.033 229.526 115.969C229.466 115.904 229.419 115.828 229.388 115.746C229.362 115.664 229.353 115.577 229.364 115.491C229.374 115.405 229.403 115.323 229.449 115.25L236.964 102.734C237.036 102.612 237.148 102.519 237.281 102.473C237.414 102.426 237.56 102.429 237.692 102.479L264.165 112.163C264.248 112.193 264.324 112.241 264.387 112.304C264.45 112.367 264.498 112.443 264.528 112.526C264.565 112.606 264.583 112.693 264.583 112.78C264.583 112.868 264.565 112.955 264.528 113.034L256.989 126.422C256.927 126.514 256.842 126.588 256.741 126.635C256.641 126.682 256.529 126.7 256.419 126.688ZM230.855 115.25L256.153 125.357L263.086 113.047L237.752 103.775L230.855 115.25Z" fill="#263238"/>
<path d="M267.632 145.498H225.582V148.742H267.632V145.498Z" fill="#263238"/>
<path d="M267.632 149.359H225.582C225.422 149.359 225.268 149.295 225.154 149.181C225.04 149.068 224.976 148.914 224.976 148.753V145.51C224.976 145.349 225.04 145.195 225.154 145.082C225.268 144.968 225.422 144.904 225.582 144.904H267.632C267.792 144.904 267.946 144.968 268.06 145.082C268.174 145.195 268.238 145.349 268.238 145.51V148.766C268.234 148.924 268.169 149.075 268.056 149.186C267.943 149.297 267.79 149.359 267.632 149.359ZM226.188 148.148H267.026V146.103H226.188V148.148Z" fill="#263238"/>
<path d="M252.759 148.887H225.582V158.619H252.759V148.887Z" fill="white"/>
<path d="M252.759 159.224H225.582C225.422 159.224 225.268 159.16 225.154 159.047C225.04 158.933 224.976 158.779 224.976 158.619V148.935C224.976 148.775 225.04 148.621 225.154 148.507C225.268 148.394 225.422 148.33 225.582 148.33H252.759C252.919 148.33 253.074 148.394 253.187 148.507C253.301 148.621 253.365 148.775 253.365 148.935V158.619C253.365 158.779 253.301 158.933 253.187 159.047C253.074 159.16 252.919 159.224 252.759 159.224ZM226.188 158.014H252.153V149.541H226.188V158.014Z" fill="#263238"/>
<path d="M212.843 182.464C218.225 182.464 222.588 178.107 222.588 172.732C222.588 167.357 218.225 163 212.843 163C207.46 163 203.097 167.357 203.097 172.732C203.097 178.107 207.46 182.464 212.843 182.464Z" fill="white"/>
<path d="M212.843 183.034C210.795 183.034 208.794 182.427 207.092 181.292C205.389 180.156 204.063 178.541 203.279 176.652C202.496 174.764 202.291 172.685 202.69 170.68C203.089 168.675 204.075 166.833 205.523 165.387C206.971 163.941 208.815 162.957 210.823 162.558C212.831 162.159 214.913 162.364 216.804 163.146C218.696 163.929 220.312 165.254 221.45 166.954C222.587 168.653 223.194 170.652 223.194 172.697C223.191 175.437 222.1 178.065 220.159 180.002C218.218 181.94 215.587 183.03 212.843 183.034ZM212.843 163.582C211.035 163.582 209.267 164.118 207.764 165.121C206.261 166.124 205.089 167.55 204.398 169.219C203.706 170.887 203.526 172.723 203.88 174.494C204.233 176.264 205.105 177.891 206.384 179.166C207.664 180.442 209.293 181.311 211.067 181.661C212.841 182.012 214.679 181.83 216.349 181.137C218.018 180.444 219.445 179.273 220.448 177.77C221.451 176.268 221.985 174.502 221.982 172.697C221.954 170.294 220.978 167.999 219.268 166.309C217.557 164.619 215.249 163.67 212.843 163.667V163.582Z" fill="#263238"/>
<path d="M233.849 164.26C233.849 163.41 233.597 162.579 233.124 161.873C232.651 161.166 231.979 160.615 231.193 160.29C230.406 159.965 229.541 159.88 228.707 160.045C227.872 160.211 227.105 160.621 226.503 161.221C225.901 161.822 225.492 162.588 225.326 163.422C225.16 164.255 225.245 165.119 225.57 165.904C225.896 166.69 226.448 167.361 227.155 167.833C227.863 168.305 228.695 168.557 229.546 168.557C230.111 168.557 230.671 168.446 231.193 168.23C231.715 168.014 232.189 167.697 232.589 167.298C232.988 166.899 233.305 166.426 233.522 165.904C233.738 165.383 233.849 164.824 233.849 164.26Z" fill="white"/>
<path d="M229.498 169.162C228.541 169.15 227.61 168.856 226.82 168.316C226.031 167.777 225.419 167.017 225.061 166.131C224.704 165.246 224.616 164.274 224.81 163.339C225.004 162.404 225.471 161.547 226.151 160.875C226.831 160.204 227.695 159.749 228.634 159.567C229.573 159.385 230.545 159.485 231.427 159.853C232.31 160.221 233.063 160.841 233.594 161.636C234.124 162.431 234.407 163.365 234.407 164.32C234.391 165.61 233.866 166.841 232.948 167.747C232.029 168.654 230.789 169.162 229.498 169.162ZM229.498 160.568C228.766 160.568 228.052 160.784 227.444 161.19C226.836 161.595 226.362 162.172 226.082 162.847C225.802 163.521 225.729 164.263 225.872 164.98C226.014 165.696 226.366 166.354 226.883 166.87C227.4 167.386 228.059 167.738 228.776 167.88C229.493 168.023 230.237 167.95 230.912 167.67C231.588 167.391 232.165 166.918 232.571 166.31C232.978 165.703 233.195 164.99 233.195 164.259C233.191 163.281 232.801 162.344 232.108 161.652C231.416 160.961 230.477 160.571 229.498 160.568Z" fill="#263238"/>
<path d="M83.6162 182.176H75.8342V187.248H83.6162V182.176Z" fill="white"/>
<path d="M83.6162 187.876H75.8343C75.6745 187.873 75.5221 187.808 75.4091 187.695C75.2961 187.582 75.2313 187.43 75.2282 187.271V182.199C75.2282 182.038 75.292 181.885 75.4057 181.771C75.5194 181.658 75.6735 181.594 75.8343 181.594H83.6162C83.7769 181.594 83.9311 181.658 84.0448 181.771C84.1584 181.885 84.2223 182.038 84.2223 182.199V187.271C84.2223 187.431 84.1584 187.585 84.0448 187.699C83.9311 187.812 83.7769 187.876 83.6162 187.876ZM76.4403 186.665H83.0101V182.804H76.4403V186.665Z" fill="#263238"/>
<path d="M171.921 203.201H41.4702L54.5129 183.846H158.878L171.921 203.201Z" fill="white"/>
<path d="M171.921 203.806H41.47C41.3613 203.805 41.2547 203.775 41.161 203.72C41.0674 203.665 40.99 203.586 40.9367 203.491C40.8776 203.397 40.8462 203.288 40.8462 203.177C40.8462 203.065 40.8776 202.956 40.9367 202.862L53.9793 183.495C54.0336 183.413 54.1074 183.345 54.1942 183.299C54.2809 183.253 54.3779 183.228 54.4763 183.229H158.842C158.94 183.228 159.037 183.253 159.124 183.299C159.211 183.345 159.284 183.413 159.339 183.495L172.381 202.862C172.44 202.956 172.472 203.065 172.472 203.177C172.472 203.288 172.44 203.397 172.381 203.491C172.335 203.576 172.269 203.649 172.189 203.703C172.109 203.758 172.017 203.793 171.921 203.806ZM42.6095 202.596H170.818L158.587 184.439H54.84L42.6095 202.596Z" fill="#263238"/>
<path d="M155.496 171.051H58.234V183.518H155.496V171.051Z" fill="white"/>
<path d="M155.484 184.123H58.2219C58.0621 184.12 57.9097 184.055 57.7967 183.943C57.6837 183.83 57.6189 183.678 57.6158 183.518V171.051C57.6158 170.89 57.6796 170.736 57.7933 170.623C57.907 170.509 58.0611 170.445 58.2219 170.445H155.484C155.645 170.445 155.799 170.509 155.913 170.623C156.026 170.736 156.09 170.89 156.09 171.051V183.518C156.09 183.679 156.026 183.832 155.913 183.946C155.799 184.059 155.645 184.123 155.484 184.123ZM58.8279 182.913H154.878V171.656H58.8279V182.913Z" fill="#263238"/>
<path d="M72.4767 179.162H65.0826V183.641H72.4767V179.162Z" fill="#263238"/>
<path d="M72.4767 184.246H65.0826C64.9219 184.246 64.7677 184.182 64.654 184.068C64.5404 183.955 64.4765 183.801 64.4765 183.64V179.162C64.4796 179.002 64.5445 178.85 64.6575 178.737C64.7705 178.624 64.9228 178.56 65.0826 178.557H72.4767C72.6374 178.557 72.7916 178.62 72.9052 178.734C73.0189 178.847 73.0827 179.001 73.0827 179.162V183.64C73.0827 183.801 73.0189 183.955 72.9052 184.068C72.7916 184.182 72.6374 184.246 72.4767 184.246ZM65.6887 183.035H71.8706V179.767H65.6887V183.035Z" fill="#263238"/>
<path d="M148.26 179.162H140.866V183.641H148.26V179.162Z" fill="#263238"/>
<path d="M148.26 184.246H140.866C140.705 184.246 140.551 184.182 140.437 184.068C140.323 183.955 140.26 183.801 140.26 183.64V179.162C140.263 179.002 140.328 178.85 140.441 178.737C140.554 178.624 140.706 178.56 140.866 178.557H148.26C148.42 178.557 148.575 178.62 148.688 178.734C148.802 178.847 148.866 179.001 148.866 179.162V183.64C148.866 183.801 148.802 183.955 148.688 184.068C148.575 184.182 148.42 184.246 148.26 184.246ZM141.472 183.035H147.654V179.767H141.472V183.035Z" fill="#263238"/>
<path d="M114.514 160.701H106.962V165.628H114.514V160.701Z" fill="white"/>
<path d="M114.526 166.222H106.962C106.801 166.222 106.647 166.159 106.534 166.045C106.42 165.932 106.356 165.778 106.356 165.617V160.703C106.356 160.542 106.42 160.388 106.534 160.275C106.647 160.161 106.801 160.098 106.962 160.098H114.526C114.687 160.098 114.841 160.161 114.954 160.275C115.068 160.388 115.132 160.542 115.132 160.703V165.617C115.132 165.778 115.068 165.932 114.954 166.045C114.841 166.159 114.687 166.222 114.526 166.222ZM107.568 165.012H113.92V161.308H107.568V165.012Z" fill="#263238"/>
<path d="M134.369 164.624L113.18 125.273V106.777H103.326V125.309L82.1374 164.66C81.8608 165.323 81.7517 166.042 81.8196 166.756C81.8876 167.471 82.1306 168.157 82.5271 168.755C82.9236 169.353 83.4615 169.845 84.0933 170.186C84.7251 170.528 85.4313 170.708 86.1496 170.713H130.356C131.079 170.711 131.791 170.53 132.427 170.187C133.063 169.843 133.604 169.348 134.001 168.745C134.398 168.142 134.64 167.45 134.704 166.731C134.768 166.012 134.653 165.288 134.369 164.624Z" fill="white"/>
<path d="M130.356 171.33H86.1497C85.3243 171.329 84.512 171.124 83.7858 170.732C83.0596 170.34 82.4423 169.775 81.9892 169.086C81.5361 168.397 81.2615 167.607 81.19 166.785C81.1186 165.964 81.2525 165.138 81.5799 164.382L102.72 125.115V106.777C102.72 106.617 102.783 106.463 102.897 106.349C103.011 106.236 103.165 106.172 103.326 106.172H113.18C113.341 106.172 113.495 106.236 113.609 106.349C113.723 106.463 113.786 106.617 113.786 106.777V125.152L134.902 164.37C135.229 165.126 135.363 165.952 135.292 166.773C135.22 167.594 134.946 168.385 134.493 169.074C134.04 169.763 133.422 170.328 132.696 170.72C131.97 171.112 131.158 171.317 130.332 171.318L130.356 171.33ZM103.932 107.346V125.273C103.931 125.374 103.906 125.473 103.859 125.563L82.6708 164.878C82.4343 165.45 82.3424 166.072 82.4031 166.688C82.4638 167.305 82.6753 167.896 83.0189 168.412C83.3626 168.927 83.8279 169.35 84.3738 169.644C84.9198 169.937 85.5296 170.092 86.1497 170.095H130.356C130.98 170.095 131.593 169.941 132.142 169.646C132.691 169.351 133.158 168.925 133.501 168.405C133.845 167.886 134.054 167.29 134.11 166.67C134.166 166.05 134.068 165.426 133.823 164.854L112.635 125.563C112.588 125.473 112.563 125.374 112.562 125.273V107.346H103.932Z" fill="#263238"/>
<path d="M123.229 151.031H93.2406L86.9011 162.809C86.6658 163.351 86.5691 163.942 86.6199 164.531C86.6707 165.119 86.8673 165.685 87.192 166.179C87.5166 166.672 87.9592 167.078 88.4798 167.358C89.0003 167.638 89.5825 167.784 90.1739 167.784H126.235C126.821 167.769 127.395 167.613 127.907 167.329C128.419 167.045 128.855 166.641 129.178 166.153C129.501 165.664 129.7 165.105 129.76 164.523C129.819 163.94 129.737 163.352 129.52 162.809L123.229 151.031Z" fill="#00B8CC"/>
<path d="M126.284 168.389H90.2224C89.5303 168.39 88.8487 168.219 88.2394 167.891C87.63 167.563 87.1119 167.089 86.7319 166.511C86.3518 165.933 86.1218 165.27 86.0624 164.582C86.0031 163.893 86.1164 163.201 86.392 162.567L92.7558 150.741C92.8071 150.644 92.884 150.564 92.9781 150.508C93.0722 150.453 93.1798 150.424 93.2891 150.426H123.229C123.338 150.427 123.444 150.456 123.538 150.512C123.632 150.567 123.709 150.646 123.762 150.741L130.102 162.518C130.384 163.154 130.504 163.85 130.449 164.543C130.394 165.236 130.166 165.904 129.787 166.487C129.408 167.07 128.889 167.55 128.277 167.882C127.665 168.214 126.98 168.388 126.284 168.389ZM93.6528 151.636L87.483 163.099C87.2976 163.548 87.226 164.036 87.2744 164.519C87.3229 165.003 87.49 165.466 87.7609 165.87C88.0318 166.273 88.3982 166.604 88.8276 166.832C89.2569 167.06 89.736 167.179 90.2224 167.178H126.284C126.774 167.177 127.257 167.055 127.688 166.823C128.12 166.59 128.487 166.255 128.757 165.846C129.028 165.437 129.192 164.968 129.236 164.48C129.281 163.992 129.203 163.501 129.011 163.051L122.865 151.636H93.6528Z" fill="#263238"/>
<path d="M337.221 197.328L264.08 206.455L305.875 216.889L369.44 208.186L337.221 197.328Z" fill="white"/>
<path d="M305.875 217.495H305.729L263.935 207.061C263.799 207.026 263.68 206.945 263.596 206.833C263.512 206.721 263.469 206.584 263.474 206.444C263.484 206.302 263.542 206.168 263.639 206.065C263.737 205.961 263.866 205.894 264.007 205.875L337.136 196.748C337.228 196.73 337.323 196.73 337.415 196.748L369.621 207.642C369.701 207.649 369.778 207.672 369.849 207.709C369.92 207.746 369.983 207.797 370.034 207.858C370.085 207.919 370.124 207.99 370.147 208.066C370.171 208.142 370.18 208.222 370.173 208.302C370.166 208.381 370.143 208.459 370.106 208.529C370.069 208.6 370.018 208.663 369.957 208.714C369.895 208.765 369.824 208.804 369.748 208.827C369.672 208.851 369.592 208.86 369.512 208.853L305.96 217.544L305.875 217.495ZM267.377 206.601L305.911 216.285L366.797 207.957L337.16 197.959L267.377 206.601Z" fill="#263238"/>
<path d="M369.476 47.6697C369.476 47.6697 382.627 43.179 391.476 46.6772C402.216 50.9137 411.961 63.8896 413.961 76.6234C415.961 89.3572 415.173 94.78 415.173 94.78L385.44 85.5443C385.44 85.5443 381.937 64.8337 377.185 59.5925C374.976 56.9739 372.461 54.6291 369.694 52.6083L369.476 47.6697Z" fill="#263238"/>
<path d="M415.21 95.4463H415.04L385.294 86.1985C385.187 86.1639 385.092 86.1003 385.019 86.0148C384.947 85.9293 384.899 85.8253 384.882 85.7144C384.882 85.5207 381.355 65.1369 376.773 60.0652C374.593 57.4943 372.12 55.1868 369.403 53.1899C369.322 53.1368 369.254 53.0652 369.206 52.9811C369.157 52.897 369.129 52.8026 369.124 52.7057L368.87 47.7187C368.863 47.5867 368.899 47.4561 368.974 47.3469C369.048 47.2376 369.156 47.1556 369.282 47.1135C369.827 46.9319 382.737 42.5865 391.694 46.1209C402.688 50.4664 412.519 63.5391 414.567 76.5392C416.555 89.2125 415.852 94.6958 415.78 94.9379C415.767 95.0247 415.736 95.1077 415.688 95.181C415.64 95.2542 415.576 95.3159 415.501 95.3615C415.413 95.4139 415.312 95.4431 415.21 95.4463ZM386.009 85.1334L414.677 94.0422C414.852 88.2385 414.413 82.4325 413.367 76.7208C411.38 64.108 401.876 51.4348 391.246 47.2346C383.597 44.2085 372.433 47.3798 370.106 48.1061L370.324 52.3305C373.01 54.3741 375.475 56.6904 377.682 59.2421C382.191 64.2291 385.5 82.2404 386.009 85.1334Z" fill="#263238"/>
<path d="M328.59 95.314C328.59 95.314 315.063 117.271 314.141 119.777C313.22 122.283 314.457 138.272 313.838 139.846C313.22 141.42 305.984 153.96 305.353 154.892C304.723 155.824 296.868 166.5 294.99 172.77C293.111 179.04 292.165 195.345 292.165 195.345L312.263 200.985C312.263 200.985 323.887 185.939 325.451 183.434C327.014 180.928 329.536 166.815 330.166 165.87C330.796 164.926 333.621 159.286 333.621 159.286L349.318 181.546L353.088 194.715L353.403 200.053H422.798C422.798 200.053 417.464 103.787 417.149 99.3932C416.834 94.9993 416.834 89.7097 414.943 88.0998C413.052 86.4899 388.276 74.3008 376.955 72.7394C365.633 71.1779 332.99 87.1678 328.59 95.314Z" fill="white"/>
<path d="M312.263 201.589H312.105L292.032 195.924C291.898 195.889 291.78 195.808 291.698 195.695C291.616 195.583 291.576 195.446 291.584 195.307C291.584 194.641 292.553 178.857 294.432 172.599C295.571 168.823 298.941 162.916 304.444 155.169L304.881 154.564C305.487 153.644 312.699 141.116 313.293 139.615C313.475 136.931 313.475 134.238 313.293 131.553C313.123 125.404 313.051 120.95 313.572 119.558C314.517 117.04 327.39 96.0997 328.117 95.0103C332.469 86.9851 365.391 70.511 377.088 72.133C388.215 73.6824 413.27 85.8836 415.38 87.6387C417.186 89.1397 417.44 93.3157 417.671 97.3222C417.671 98.0001 417.755 98.6779 417.804 99.3195C418.107 103.665 423.404 199.023 423.452 199.992C423.458 200.074 423.446 200.157 423.417 200.234C423.388 200.312 423.342 200.382 423.283 200.439C423.228 200.501 423.161 200.55 423.085 200.583C423.01 200.616 422.929 200.633 422.846 200.633H353.403C353.248 200.633 353.099 200.575 352.987 200.469C352.874 200.363 352.806 200.218 352.797 200.064L352.482 194.799L348.76 181.823L333.705 160.471C332.869 162.117 331.16 165.482 330.663 166.22C330.457 166.583 329.851 169.295 329.318 171.692C328.275 176.352 326.978 182.15 325.972 183.796C324.396 186.302 313.22 200.742 312.748 201.408C312.684 201.47 312.608 201.518 312.524 201.55C312.441 201.581 312.352 201.594 312.263 201.589ZM292.796 194.896L312.032 200.294C313.729 198.091 323.523 185.357 324.942 183.106C325.839 181.666 327.16 175.747 328.13 171.413C328.461 169.41 328.972 167.442 329.657 165.53C330.154 164.792 332.287 160.58 333.075 159.018C333.12 158.923 333.19 158.841 333.277 158.781C333.365 158.722 333.467 158.687 333.572 158.679C333.677 158.674 333.781 158.694 333.877 158.739C333.972 158.783 334.054 158.85 334.118 158.934L349.815 181.193C349.855 181.252 349.884 181.318 349.9 181.387L353.669 194.557C353.675 194.597 353.675 194.638 353.669 194.678L353.948 199.447H422.131C421.671 191.046 416.81 103.58 416.519 99.4405C416.519 98.7748 416.434 98.0969 416.386 97.4191C416.18 93.7878 415.937 89.7328 414.531 88.5708C412.931 87.2393 388.276 74.917 376.846 73.3314C365.415 71.7457 333.318 87.7961 329.099 95.6034C324.433 103.181 315.426 118.021 314.699 119.957C314.226 121.168 314.384 126.917 314.505 131.493C314.638 136.431 314.699 139.264 314.384 140.039C313.741 141.648 306.493 154.237 305.899 155.205L305.45 155.847C300.02 163.521 296.711 169.271 295.608 172.914C293.911 178.47 292.977 192.148 292.796 194.896Z" fill="#263238"/>
<path d="M312.493 54.6552C312.493 54.6552 301.002 45.4317 300.505 43.9307C300.008 42.4298 317.741 24.2127 323.996 22.2155C330.251 20.2182 347.233 14.4808 358.482 22.9659C366.021 28.655 368.724 46.9205 369.73 50.9149C370.736 54.9094 364.639 64.4961 362.773 66.3843C358.288 70.9114 359.476 67.9095 359.476 67.9095C359.476 67.9095 360.979 66.3964 356.978 65.8881C352.978 65.3797 340.736 61.1552 339.233 59.8964C337.73 58.6375 314.493 47.1747 314.493 47.1747L312.493 54.6552Z" fill="#263238"/>
<path d="M359.585 69.4946C359.416 69.4964 359.25 69.4456 359.112 69.3493C358.494 68.9499 358.76 68.0541 358.906 67.6789C358.94 67.6079 358.985 67.5426 359.039 67.4852C359.102 67.4193 359.141 67.3339 359.148 67.2431C359.148 67.2431 358.942 66.7469 356.906 66.4927C353.027 66.0085 340.542 61.772 338.845 60.3679C337.815 59.5084 324.202 52.6453 314.893 48.0456L313.087 54.8119C313.06 54.91 313.01 54.9999 312.94 55.0738C312.87 55.1477 312.783 55.2033 312.687 55.2356C312.59 55.2664 312.488 55.2726 312.388 55.2536C312.289 55.2346 312.195 55.1909 312.117 55.1267C309.39 52.9358 300.444 45.661 299.923 44.1238C299.852 43.7819 299.917 43.4259 300.105 43.1312C301.778 39.8267 317.681 23.5948 323.814 21.646L324.263 21.4886C330.651 19.443 347.609 14.0081 358.845 22.4812C365.488 27.4924 368.385 41.5455 369.754 48.2998C369.973 49.3529 370.154 50.2123 370.288 50.7207C371.403 55.1388 365.015 64.907 363.173 66.759C361.124 68.8651 360.203 69.4946 359.585 69.4946ZM314.493 46.5689C314.585 46.5701 314.676 46.5907 314.76 46.6294C317.184 47.8398 338.118 58.177 339.621 59.4358C341.124 60.6947 353.209 64.8102 357.063 65.2943C358.979 65.5364 360.009 66.0206 360.288 66.8437C360.346 67.0157 360.369 67.1979 360.354 67.379C360.34 67.5601 360.288 67.7363 360.203 67.8968C360.96 67.3038 361.673 66.6565 362.336 65.9601C364.094 64.1928 370.07 54.7514 369.136 51.0596C369.003 50.4907 368.821 49.6192 368.591 48.5419C367.379 42.4897 364.397 28.1823 358.118 23.4495C347.39 15.3517 330.857 20.6534 324.639 22.6506L324.178 22.7959C318.178 24.7084 301.85 41.5092 301.147 43.8091C301.741 44.8379 307.026 49.4255 312.19 53.6015L313.947 47.0167C313.973 46.9304 314.017 46.8503 314.075 46.7816C314.134 46.7128 314.206 46.6569 314.287 46.6173C314.352 46.5879 314.422 46.5714 314.493 46.5689Z" fill="#263238"/>
<path d="M340.239 94.8414L339.487 108.568L346.239 111.618L341.984 115.867L355.73 128.346L374.724 109.875L369.233 106.631L384.724 103.883C384.724 103.883 383.512 78.4642 382.47 74.9418C381.427 71.4195 379.73 68.696 378.979 68.1997C378.227 67.7034 371.476 67.4492 371.476 67.4492C371.476 67.4492 347.233 81.6113 340.239 94.8414Z" fill="white"/>
<path d="M355.73 128.891C355.656 128.892 355.583 128.879 355.514 128.852C355.446 128.825 355.383 128.785 355.33 128.733L341.584 116.254C341.462 116.141 341.388 115.985 341.378 115.818C341.376 115.737 341.392 115.656 341.423 115.581C341.454 115.506 341.501 115.438 341.56 115.382L345.197 111.751L339.306 109.124C339.193 109.072 339.099 108.988 339.034 108.883C338.97 108.777 338.937 108.655 338.942 108.531L339.693 94.8049C339.693 94.7188 339.719 94.6346 339.766 94.5628C346.76 81.3328 370.239 67.449 371.282 66.868C371.381 66.8106 371.494 66.7813 371.609 66.7833C373.694 66.8559 378.615 67.098 379.427 67.6306C380.24 68.1632 382.215 71.3709 383.161 74.7117C384.106 78.0525 385.391 102.758 385.44 103.762C385.443 103.908 385.395 104.051 385.305 104.166C385.214 104.281 385.086 104.361 384.943 104.392L371.052 106.812L375.149 109.233C375.227 109.282 375.294 109.348 375.344 109.425C375.394 109.502 375.427 109.59 375.44 109.681C375.451 109.774 375.44 109.869 375.409 109.957C375.377 110.045 375.325 110.125 375.258 110.19L356.154 128.721C356.039 128.829 355.888 128.889 355.73 128.891ZM342.869 115.782L355.718 127.45L373.743 109.935L368.894 107.091C368.788 107.027 368.704 106.933 368.652 106.821C368.6 106.709 368.583 106.583 368.603 106.461C368.628 106.34 368.688 106.229 368.777 106.143C368.866 106.057 368.978 105.999 369.1 105.977L384.155 103.326C383.961 99.6951 382.846 78.1493 381.949 75.0385C381.382 72.6835 380.269 70.4944 378.7 68.6474C376.388 68.2318 374.044 68.0171 371.694 68.0058C369.645 69.2163 347.524 82.6521 340.893 95.0107L340.178 108.18L346.542 111.013C346.632 111.051 346.711 111.111 346.773 111.187C346.834 111.263 346.875 111.353 346.894 111.448C346.912 111.546 346.907 111.647 346.877 111.742C346.847 111.837 346.795 111.923 346.724 111.993L342.869 115.782Z" fill="#263238"/>
<path d="M311.002 44.9234C311.002 44.9234 308.747 63.201 309.244 64.6414C310.217 66.779 311.301 68.8638 312.493 70.8873C312.493 70.8873 310.747 83.8632 311.996 84.6137C313.244 85.3641 318.493 85.3641 318.493 85.3641C318.493 85.3641 323.499 97.5895 325.766 99.0905C328.033 100.591 340.312 94.8419 340.312 94.8419L355.306 118.058C355.306 118.058 359.051 112.563 364.3 97.8316C367.354 89.3332 369.642 80.5792 371.136 71.6741L360.991 66.6023L355.985 64.1088L347.984 58.3593C347.979 58.6409 347.915 58.9184 347.798 59.1744C347.68 59.4303 347.51 59.6592 347.3 59.8467C347.089 60.0342 346.842 60.1763 346.574 60.264C346.306 60.3517 346.023 60.3832 345.742 60.3565C343.487 60.3565 339.984 56.1078 339.984 56.1078C339.984 56.1078 331.499 49.3778 327.742 47.3806C325.748 46.3488 323.828 45.18 321.996 43.8824L336.99 30.6523L322.239 40.929L311.002 44.9234Z" fill="white"/>
<path d="M355.233 118.663C355.134 118.658 355.038 118.63 354.952 118.581C354.866 118.533 354.792 118.466 354.736 118.384L340.021 95.6159C337.124 96.9474 327.669 101.099 325.402 99.5862C323.136 98.0731 319.051 88.2807 318.129 85.9566C316.687 85.9566 312.905 85.8356 311.717 85.1335C310.529 84.4315 310.735 79.7471 311.911 71.0077C310.72 69.0168 309.651 66.9553 308.711 64.8345C308.19 63.2851 310.057 47.8884 310.432 44.8502C310.446 44.7385 310.491 44.6329 310.562 44.5452C310.632 44.4576 310.726 44.3913 310.832 44.3539L321.996 40.3958L336.675 30.2039C336.738 30.1546 336.81 30.1182 336.887 30.0967C336.964 30.0752 337.044 30.069 337.124 30.0786C337.203 30.0881 337.28 30.1132 337.349 30.1524C337.419 30.1915 337.48 30.244 337.53 30.3068C337.579 30.3696 337.616 30.4414 337.637 30.5183C337.659 30.5952 337.665 30.6755 337.655 30.7548C337.646 30.834 337.621 30.9106 337.581 30.9801C337.542 31.0497 337.49 31.1109 337.427 31.1601L322.966 43.8334C324.599 44.9288 326.29 45.9349 328.033 46.8474C331.778 48.8567 340.021 55.3205 340.36 55.6473L340.457 55.732C341.742 57.2935 344.312 59.7628 345.742 59.7628C347.172 59.7628 347.378 58.5523 347.378 58.3708C347.38 58.2591 347.411 58.1499 347.468 58.0542C347.526 57.9584 347.608 57.8797 347.706 57.8261C347.801 57.7696 347.91 57.7398 348.021 57.7398C348.132 57.7398 348.241 57.7696 348.336 57.8261L356.336 63.5635L371.415 71.0804C371.529 71.1376 371.622 71.2292 371.681 71.3422C371.74 71.4552 371.761 71.5838 371.742 71.7098C370.194 80.6731 367.857 89.4828 364.76 98.0368C359.548 112.671 355.851 118.166 355.694 118.396C355.642 118.473 355.574 118.537 355.494 118.583C355.414 118.629 355.325 118.656 355.233 118.663ZM340.239 94.236C340.34 94.2373 340.439 94.2633 340.528 94.3119C340.617 94.3604 340.692 94.43 340.748 94.5144L355.221 116.92C356.433 114.935 359.585 109.052 363.706 97.6374C366.7 89.3163 368.979 80.7558 370.518 72.0487L355.766 64.6893L348.409 59.4238C348.193 59.928 347.824 60.352 347.354 60.6364C346.885 60.9207 346.338 61.0512 345.79 61.0095C343.366 61.0095 340.142 57.233 339.609 56.5914C339.075 55.9499 331.014 49.8251 327.487 47.961C325.463 46.9171 323.514 45.7319 321.657 44.4144C321.583 44.3618 321.523 44.2929 321.481 44.213C321.439 44.1332 321.416 44.0447 321.414 43.9545C321.408 43.8632 321.423 43.7719 321.459 43.6877C321.495 43.6036 321.55 43.5291 321.62 43.4703L328.808 37.1397L322.59 41.4125L322.445 41.4852L311.535 45.3465C310.687 52.3065 309.499 63.3457 309.814 64.4351C310.768 66.5335 311.836 68.5782 313.014 70.5599C313.075 70.6749 313.101 70.8056 313.087 70.9351C312.311 76.6484 311.875 83.3179 312.372 84.1289C313.099 84.5525 316.517 84.7341 318.432 84.7341C318.552 84.7331 318.67 84.7684 318.769 84.8353C318.869 84.9023 318.946 84.9978 318.99 85.1093C320.978 89.9511 324.481 97.5284 326.02 98.5573C327.56 99.5862 334.966 96.5964 339.924 94.2723C340.024 94.2346 340.132 94.2221 340.239 94.236Z" fill="#263238"/>
<path d="M323.135 88.1834H322.857C322.777 88.1771 322.7 88.1551 322.628 88.1188C322.557 88.0826 322.494 88.0327 322.442 87.972C322.391 87.9113 322.351 87.8411 322.327 87.7652C322.302 87.6894 322.293 87.6094 322.299 87.53C322.305 87.4505 322.327 87.3731 322.364 87.3021C322.4 87.2312 322.45 87.168 322.511 87.1164C322.572 87.0647 322.642 87.0254 322.718 87.0009C322.794 86.9764 322.874 86.967 322.954 86.9734C324.643 86.9655 326.297 86.4878 327.73 85.5939C327.797 85.5525 327.872 85.5249 327.95 85.5128C328.028 85.5008 328.108 85.5044 328.185 85.5236C328.262 85.5427 328.334 85.577 328.397 85.6244C328.461 85.6718 328.514 85.7314 328.554 85.7996C328.596 85.8678 328.623 85.9437 328.636 86.0227C328.648 86.1017 328.644 86.1824 328.625 86.26C328.606 86.3376 328.572 86.4107 328.524 86.475C328.476 86.5393 328.416 86.5935 328.348 86.6346C326.779 87.6037 324.98 88.1383 323.135 88.1834Z" fill="#263238"/>
<path d="M317.996 62.6066C317.738 62.606 317.488 62.5234 317.28 62.3708C317.073 62.2181 316.919 62.0035 316.842 61.7579C316.765 61.5123 316.769 61.2486 316.852 61.0051C316.935 60.7616 317.094 60.5509 317.305 60.4036C318.73 59.4851 320.358 58.9269 322.047 58.7772C323.737 58.6274 325.437 58.8907 327.002 59.5442C327.294 59.6763 327.522 59.9186 327.636 60.218C327.749 60.5175 327.74 60.8497 327.608 61.1419C327.544 61.2875 327.452 61.4189 327.336 61.5287C327.221 61.6384 327.085 61.7245 326.936 61.7818C326.788 61.8391 326.629 61.8667 326.47 61.8628C326.311 61.8589 326.154 61.8237 326.008 61.7593C324.832 61.2803 323.559 61.0886 322.294 61.2002C321.029 61.3118 319.809 61.7234 318.735 62.4008C318.518 62.5476 318.258 62.6198 317.996 62.6066Z" fill="#263238"/>
<path d="M307.875 69.8813C307.799 69.8984 307.72 69.8984 307.644 69.8813C306.275 69.3003 306.214 67.5209 306.432 66.5768C306.454 66.4542 306.513 66.3415 306.602 66.2546C306.692 66.1677 306.806 66.111 306.929 66.0926L330.82 62.3039L347.257 55.8402C347.407 55.7851 347.572 55.791 347.717 55.8567C347.862 55.9224 347.976 56.0426 348.033 56.1912C348.064 56.2641 348.08 56.3425 348.079 56.4217C348.079 56.5009 348.062 56.5792 348.031 56.6517C347.999 56.7242 347.952 56.7895 347.895 56.8436C347.837 56.8976 347.768 56.9392 347.693 56.9659L331.196 63.4538C331.157 63.4647 331.115 63.4647 331.075 63.4538L307.535 67.0852C307.535 67.5814 307.535 68.4045 308.105 68.6345C308.179 68.6648 308.247 68.7098 308.303 68.7668C308.36 68.8239 308.404 68.8919 308.434 68.9666C308.463 69.0413 308.477 69.1211 308.475 69.2014C308.473 69.2816 308.454 69.3606 308.42 69.4334C308.389 69.5565 308.319 69.6665 308.221 69.7471C308.123 69.8277 308.002 69.8747 307.875 69.8813Z" fill="#263238"/>
<path d="M322.917 76.8057C322.512 76.8037 322.107 76.7754 321.705 76.721C320.299 76.5273 318.554 73.7433 315.863 67.4248L315.741 67.1222C315.68 66.976 315.679 66.8117 315.738 66.6646C315.797 66.5175 315.911 66.3993 316.057 66.3355C316.205 66.274 316.371 66.2724 316.52 66.3312C316.67 66.3899 316.79 66.5043 316.857 66.6502L316.978 66.9528C320.299 74.7359 321.572 75.4864 321.826 75.5227C323.118 75.6905 324.43 75.5912 325.681 75.231C326.932 74.8707 328.096 74.2572 329.099 73.4286C330.954 71.7582 330.675 65.3066 330.396 62.9704C330.379 62.8103 330.425 62.6498 330.525 62.5232C330.625 62.3965 330.77 62.3138 330.93 62.2926C331.09 62.2754 331.251 62.3215 331.378 62.421C331.504 62.5205 331.587 62.6655 331.608 62.8252C331.705 63.7572 332.566 71.9398 329.911 74.3243C327.958 75.9705 325.473 76.8523 322.917 76.8057Z" fill="#263238"/>
<path d="M344.99 62.644C344.99 62.644 348.481 53.1663 350.481 52.9605C352.481 52.7547 356.979 55.9624 356.482 60.9494C355.985 65.9364 354.239 68.442 352.736 69.4225C351.233 70.4029 346.99 69.9187 346.99 69.9187" fill="white"/>
<path d="M349.269 70.6202C348.484 70.6184 347.699 70.574 346.918 70.487C346.838 70.4781 346.761 70.4533 346.691 70.4143C346.62 70.3752 346.559 70.3226 346.509 70.2595C346.459 70.1965 346.423 70.1242 346.401 70.0469C346.38 69.9695 346.374 69.8888 346.384 69.8092C346.392 69.7304 346.415 69.654 346.453 69.5845C346.491 69.5151 346.543 69.4541 346.605 69.4054C346.668 69.3567 346.74 69.3212 346.816 69.3011C346.893 69.281 346.973 69.2768 347.051 69.2887C348.615 69.4703 351.439 69.5187 352.397 68.8771C353.354 68.2356 355.33 66.3715 355.875 60.8398C355.981 59.7834 355.842 58.7169 355.47 57.7223C355.098 56.7277 354.503 55.8315 353.73 55.1024C352.921 54.1846 351.787 53.6162 350.566 53.5167C349.584 53.6377 347.184 58.4432 345.56 62.8613C345.532 62.9363 345.489 63.005 345.434 63.0634C345.379 63.1217 345.313 63.1686 345.24 63.2013C345.166 63.2339 345.087 63.2517 345.007 63.2536C344.927 63.2555 344.847 63.2415 344.772 63.2123C344.623 63.1553 344.503 63.042 344.437 62.897C344.371 62.752 344.366 62.587 344.421 62.4376C345.269 60.1378 348.215 52.5847 350.409 52.3184C351.198 52.3325 351.976 52.5097 352.694 52.8389C353.412 53.168 354.053 53.642 354.578 54.2309C355.477 55.092 356.169 56.1444 356.603 57.3096C357.037 58.4748 357.203 59.7229 357.088 60.9609C356.506 66.7952 354.324 69.0587 353.075 69.8939C351.889 70.4562 350.579 70.7062 349.269 70.6202Z" fill="#263238"/>
<path d="M340.239 94.8406L346.99 90.0957L348.069 97.2736L340.239 94.8406Z" fill="#263238"/>
<path d="M348.069 97.8796C348.009 97.8914 347.948 97.8914 347.888 97.8796L340.057 95.4588C339.949 95.4268 339.852 95.3639 339.779 95.2779C339.706 95.192 339.659 95.0865 339.645 94.9746C339.627 94.863 339.64 94.7488 339.683 94.6442C339.726 94.5396 339.797 94.4487 339.887 94.3815L346.639 89.6366C346.728 89.5867 346.828 89.5605 346.93 89.5605C347.032 89.5605 347.132 89.5867 347.221 89.6366C347.316 89.6792 347.399 89.7446 347.462 89.8269C347.526 89.9093 347.568 90.0061 347.584 90.1086L348.663 97.2865C348.68 97.3874 348.67 97.4909 348.634 97.5865C348.597 97.6821 348.537 97.7666 348.457 97.8312C348.337 97.8906 348.2 97.9077 348.069 97.8796ZM341.597 94.672L347.318 96.4513L346.578 91.1617L341.597 94.672Z" fill="#263238"/>
<path d="M325.476 67.2432C325.658 68.4537 325.148 69.5915 324.348 69.6641C323.548 69.7367 322.736 68.8652 322.554 67.6185C322.372 66.3717 322.881 65.2702 323.693 65.1976C324.506 65.125 325.294 65.9965 325.476 67.2432Z" fill="#263238"/>
<path d="M376.882 188.299L354.094 189.848C354.094 189.848 336.166 187.197 334.615 187.863C333.063 188.529 327.342 194.266 325.984 196.034C324.532 198.512 323.271 201.098 322.214 203.768C322.214 203.768 327.536 206.649 329.305 206.649C331.075 206.649 336.578 207.085 337.269 207.085C337.96 207.085 346.348 202.243 346.348 202.243C346.348 202.243 340.59 207.775 341.027 208.441C341.655 208.906 342.389 209.209 343.163 209.323C343.937 209.437 344.727 209.358 345.463 209.094C347.003 208.441 353.645 204.458 353.645 204.458C353.645 204.458 362.506 206.673 365.379 206.225C368.252 205.778 375.343 200.04 375.343 200.04L379.985 199.822C379.985 199.822 381.1 191.615 376.882 188.299Z" fill="#00B8CC"/>
<path d="M343.936 209.953C343.317 209.997 342.696 209.913 342.111 209.704C341.527 209.496 340.993 209.168 340.542 208.743C340.324 208.428 340.009 207.944 342.784 204.954C341.052 206.058 339.208 206.975 337.281 207.69C337.027 207.69 336.227 207.69 334.857 207.544C332.978 207.423 330.408 207.254 329.33 207.254C327.451 207.254 322.517 204.603 321.96 204.3C321.827 204.23 321.725 204.114 321.673 203.973C321.622 203.832 321.625 203.677 321.681 203.538C322.755 200.82 324.04 198.189 325.523 195.67C326.736 194.036 332.615 188.068 334.396 187.306C335.972 186.628 349.815 188.601 354.142 189.243L376.882 187.693C377.031 187.686 377.177 187.734 377.294 187.826C381.718 191.312 380.664 199.519 380.615 199.87C380.598 200.011 380.531 200.14 380.427 200.235C380.322 200.331 380.187 200.386 380.046 200.391L375.597 200.609C374.506 201.48 368.324 206.37 365.5 206.794C362.676 207.218 355.269 205.438 353.779 205.075C352.566 205.777 347.16 209.021 345.73 209.626C345.161 209.858 344.55 209.97 343.936 209.953ZM341.73 208.198C342.268 208.486 342.859 208.662 343.467 208.716C344.076 208.77 344.688 208.701 345.269 208.513C346.76 207.883 353.318 203.949 353.391 203.913C353.457 203.872 353.53 203.844 353.607 203.831C353.685 203.819 353.763 203.822 353.839 203.84C353.924 203.84 362.615 206.019 365.33 205.608C367.561 205.257 373.064 201.117 375.027 199.555C375.126 199.472 375.25 199.425 375.379 199.422L379.512 199.229C379.658 197.474 379.888 191.615 376.761 188.928L354.203 190.465H354.069C345.584 189.255 335.948 188.044 334.918 188.444C333.56 189.025 327.911 194.593 326.542 196.42C325.198 198.69 324.035 201.062 323.063 203.514C325.172 204.627 328.275 206.068 329.378 206.068C330.481 206.068 333.015 206.225 334.99 206.358C336.202 206.443 337.099 206.503 337.342 206.503C337.912 206.358 342.833 203.623 346.118 201.662C346.246 201.587 346.396 201.562 346.542 201.591C346.687 201.62 346.816 201.701 346.906 201.819C346.996 201.937 347.039 202.085 347.025 202.233C347.012 202.38 346.943 202.518 346.833 202.618C344.969 204.322 343.261 206.19 341.73 208.198Z" fill="#263238"/>
<path d="M330.82 207.242C330.727 207.241 330.634 207.219 330.55 207.177C330.466 207.135 330.393 207.075 330.336 207C330.238 206.873 330.194 206.713 330.215 206.554C330.235 206.395 330.318 206.251 330.445 206.153C334.869 202.679 345.281 194.545 346.409 194.327L350.833 193.443L351.075 194.654L346.651 195.537C345.693 195.876 336.663 202.8 331.184 207.133C331.078 207.208 330.95 207.246 330.82 207.242Z" fill="#263238"/>
<path d="M325.548 205.705C325.393 205.704 325.246 205.644 325.136 205.536C325.079 205.48 325.034 205.413 325.003 205.339C324.972 205.265 324.956 205.186 324.956 205.106C324.956 205.026 324.972 204.947 325.003 204.873C325.034 204.8 325.079 204.733 325.136 204.676C326.348 203.466 336.76 192.657 338.336 191.749C339.43 191.149 340.595 190.686 341.803 190.369C341.88 190.349 341.96 190.344 342.039 190.355C342.118 190.367 342.194 190.393 342.263 190.434C342.331 190.474 342.391 190.528 342.439 190.591C342.487 190.655 342.522 190.728 342.542 190.805C342.579 190.96 342.554 191.124 342.473 191.262C342.392 191.4 342.26 191.5 342.106 191.543C341.002 191.819 339.936 192.225 338.93 192.754C337.851 193.371 330.614 200.694 326.008 205.463C325.957 205.538 325.888 205.599 325.808 205.641C325.728 205.683 325.638 205.705 325.548 205.705Z" fill="#263238"/>
<path d="M346.36 202.824C346.237 202.822 346.117 202.784 346.016 202.712C345.915 202.641 345.839 202.541 345.797 202.425C345.754 202.309 345.749 202.183 345.78 202.064C345.811 201.945 345.878 201.838 345.972 201.758L351.948 196.917C352.034 196.843 352.139 196.797 352.251 196.783L355.342 196.348C355.503 196.325 355.666 196.367 355.796 196.465C355.925 196.563 356.011 196.708 356.033 196.868C356.056 197.029 356.013 197.192 355.916 197.321C355.818 197.45 355.673 197.536 355.512 197.558L352.578 197.97L346.736 202.727C346.627 202.804 346.493 202.838 346.36 202.824Z" fill="#263238"/>
<path d="M399.913 106.607C399.913 106.607 393.319 136.081 394.882 141.093C396.446 146.104 408.07 171.826 408.07 171.826C408.07 171.826 402.737 174.961 402.737 176.22C402.737 177.478 403.052 179.984 403.052 179.984L374.13 187.876C374.13 187.876 376.639 189.45 378.518 196.349C379.631 200.215 380.041 204.249 379.73 208.26C379.73 208.26 413.331 204.81 426.834 201.36C430.952 200.415 434.734 198.369 437.777 195.441C440.82 192.514 443.008 188.815 444.107 184.741C444.725 182.55 444.725 176.595 444.725 175.336C444.725 174.077 421.852 95.9434 419.028 91.2348C416.204 86.5262 403.016 82.7617 403.016 82.7617" fill="white"/>
<path d="M379.779 208.805C379.615 208.804 379.458 208.739 379.342 208.623C379.278 208.559 379.229 208.481 379.2 208.395C379.17 208.309 379.161 208.217 379.173 208.127C379.465 204.192 379.055 200.237 377.961 196.446C376.179 189.946 373.839 188.348 373.827 188.336C373.726 188.274 373.645 188.185 373.594 188.077C373.544 187.97 373.526 187.851 373.542 187.733C373.559 187.616 373.61 187.506 373.689 187.418C373.767 187.329 373.87 187.265 373.985 187.235L402.337 179.536C402.24 178.725 402.082 177.115 402.082 176.22C402.082 174.924 405.137 172.867 407.258 171.584C405.585 167.952 395.719 145.947 394.264 141.323C392.664 136.215 399.003 107.733 399.27 106.523C399.305 106.362 399.403 106.222 399.542 106.134C399.681 106.045 399.849 106.015 400.009 106.051C400.17 106.086 400.31 106.183 400.399 106.322C400.488 106.46 400.518 106.628 400.482 106.789C398.216 116.92 394.24 137.122 395.44 140.972C396.979 145.886 408.482 171.366 408.604 171.632C408.663 171.767 408.671 171.919 408.627 172.059C408.582 172.199 408.488 172.319 408.361 172.395C405.731 173.944 403.428 175.723 403.319 176.28C403.319 177.491 403.622 179.911 403.622 179.911C403.641 180.055 403.608 180.2 403.527 180.321C403.447 180.441 403.325 180.528 403.185 180.565L375.306 188.118C377.156 190.47 378.449 193.209 379.088 196.131C380.134 199.834 380.584 203.678 380.421 207.521C385.391 207.001 414.495 203.89 426.701 200.719C430.719 199.805 434.411 197.814 437.38 194.96C440.349 192.106 442.482 188.498 443.55 184.523C444.078 181.471 444.281 178.371 444.156 175.275C443.707 171.838 421.016 95.7376 418.495 91.5495C415.828 87.1072 402.967 83.3911 402.834 83.3548C402.673 83.3099 402.537 83.203 402.455 83.0577C402.373 82.9124 402.352 82.7406 402.397 82.5801C402.442 82.4196 402.549 82.2835 402.695 82.2018C402.84 82.1201 403.012 82.0994 403.173 82.1444C403.719 82.3017 416.616 86.0299 419.537 90.8837C422.664 96.0765 445.368 174.815 445.368 175.227C445.472 178.432 445.257 181.639 444.725 184.802C443.602 188.981 441.36 192.775 438.24 195.778C435.12 198.78 431.24 200.878 427.016 201.845C413.622 205.258 380.167 208.72 379.827 208.756L379.779 208.805Z" fill="#263238"/>
<path d="M429.392 169.61H429.331C427.841 169.462 426.343 169.413 424.846 169.465C424.767 169.468 424.689 169.455 424.614 169.428C424.54 169.4 424.473 169.358 424.415 169.304C424.357 169.25 424.311 169.185 424.279 169.113C424.247 169.041 424.23 168.963 424.228 168.884C424.225 168.805 424.237 168.726 424.265 168.652C424.293 168.578 424.335 168.511 424.389 168.453C424.443 168.396 424.508 168.35 424.581 168.318C424.653 168.285 424.731 168.268 424.81 168.267C426.359 168.206 427.91 168.25 429.452 168.4C429.613 168.408 429.764 168.479 429.872 168.598C429.98 168.718 430.036 168.875 430.028 169.035C430.02 169.196 429.949 169.346 429.829 169.454C429.71 169.562 429.553 169.618 429.392 169.61Z" fill="#263238"/>
<path d="M410.822 172.14C410.696 172.144 410.573 172.107 410.471 172.035C410.368 171.963 410.291 171.86 410.252 171.741C410.197 171.592 410.203 171.427 410.269 171.282C410.334 171.137 410.455 171.023 410.604 170.966C413.926 169.84 417.354 169.05 420.834 168.606C420.993 168.592 421.15 168.64 421.274 168.739C421.398 168.838 421.48 168.981 421.501 169.138C421.513 169.217 421.508 169.297 421.488 169.373C421.468 169.45 421.433 169.521 421.384 169.584C421.335 169.646 421.274 169.698 421.205 169.736C421.135 169.774 421.058 169.797 420.98 169.804C417.594 170.237 414.26 171.007 411.028 172.104L410.822 172.14Z" fill="#263238"/>
<path d="M420.919 183.094C420.835 183.112 420.748 183.112 420.664 183.094C410.386 178.567 405.731 179.657 405.682 179.669C405.522 179.711 405.351 179.687 405.208 179.603C405.065 179.519 404.961 179.382 404.919 179.221C404.877 179.06 404.901 178.89 404.985 178.747C405.069 178.604 405.207 178.5 405.367 178.458C405.573 178.398 410.41 177.248 421.125 181.932C421.271 181.998 421.385 182.12 421.442 182.269C421.499 182.419 421.494 182.585 421.428 182.731C421.386 182.833 421.315 182.921 421.225 182.985C421.135 183.049 421.029 183.087 420.919 183.094Z" fill="#263238"/>
<path d="M333.609 159.889C333.499 159.889 333.391 159.858 333.297 159.8C333.203 159.742 333.126 159.66 333.075 159.563C332.99 159.393 332.251 157.747 332.251 150.726C332.251 143.706 333.342 119.993 333.354 119.763C333.354 119.603 333.418 119.449 333.532 119.335C333.645 119.222 333.8 119.158 333.96 119.158C334.121 119.158 334.275 119.222 334.389 119.335C334.503 119.449 334.567 119.603 334.567 119.763C334.567 120.006 333.463 143.706 333.463 150.678C333.463 157.36 334.13 158.909 334.167 158.969C334.233 159.116 334.241 159.283 334.186 159.434C334.132 159.586 334.02 159.71 333.876 159.78C333.796 159.836 333.705 159.873 333.609 159.889Z" fill="#263238"/>
<path d="M333.245 126.362C333.142 126.36 333.042 126.333 332.953 126.282C332.864 126.231 332.789 126.159 332.736 126.071C332.736 125.999 328.554 119.281 326.226 117.381C326.164 117.331 326.112 117.27 326.074 117.2C326.036 117.13 326.012 117.054 326.004 116.975C325.997 116.896 326.005 116.816 326.028 116.74C326.052 116.664 326.09 116.594 326.142 116.533C326.191 116.471 326.252 116.419 326.322 116.381C326.392 116.343 326.469 116.319 326.548 116.312C326.627 116.304 326.707 116.312 326.783 116.335C326.859 116.359 326.929 116.397 326.99 116.448C329.475 118.482 333.596 125.152 333.766 125.442C333.848 125.577 333.873 125.739 333.837 125.893C333.801 126.047 333.706 126.18 333.572 126.265C333.473 126.325 333.36 126.358 333.245 126.362Z" fill="#263238"/>
<path d="M329.972 157.517C329.888 157.535 329.801 157.535 329.717 157.517C321.705 153.729 314.723 144.021 314.432 143.609C314.386 143.545 314.353 143.473 314.336 143.396C314.318 143.319 314.316 143.239 314.329 143.161C314.343 143.083 314.372 143.009 314.414 142.943C314.457 142.876 314.513 142.819 314.578 142.774C314.709 142.682 314.871 142.645 315.029 142.67C315.187 142.694 315.33 142.78 315.426 142.907C315.487 143.004 322.505 152.772 330.239 156.416C330.362 156.476 330.462 156.576 330.521 156.699C330.581 156.823 330.596 156.963 330.565 157.097C330.534 157.231 330.458 157.35 330.351 157.435C330.243 157.52 330.109 157.566 329.972 157.566V157.517Z" fill="#263238"/>
<path d="M326.433 167.297C326.279 167.294 326.132 167.233 326.02 167.128C322.166 163.496 316.784 161.584 312.953 160.615C312.799 160.573 312.667 160.472 312.586 160.334C312.505 160.196 312.48 160.033 312.517 159.877C312.537 159.8 312.572 159.727 312.62 159.664C312.667 159.6 312.728 159.546 312.796 159.506C312.865 159.465 312.941 159.439 313.02 159.428C313.099 159.417 313.179 159.421 313.257 159.441C318.293 160.523 322.973 162.864 326.857 166.244C326.914 166.3 326.959 166.367 326.989 166.441C327.02 166.515 327.036 166.594 327.036 166.674C327.036 166.754 327.02 166.833 326.989 166.906C326.959 166.98 326.914 167.047 326.857 167.103C326.745 167.22 326.594 167.289 326.433 167.297Z" fill="#263238"/>
<path d="M309.184 159.768H309.087C307.786 159.545 306.476 159.387 305.159 159.296C305.08 159.293 305.003 159.275 304.931 159.241C304.859 159.208 304.795 159.16 304.742 159.102C304.689 159.043 304.648 158.974 304.622 158.9C304.596 158.825 304.585 158.746 304.59 158.667C304.593 158.588 304.612 158.51 304.645 158.437C304.678 158.365 304.726 158.3 304.784 158.246C304.843 158.192 304.911 158.151 304.986 158.123C305.061 158.096 305.14 158.083 305.22 158.086C305.281 158.086 306.869 158.171 309.281 158.57C309.441 158.583 309.59 158.659 309.695 158.782C309.8 158.904 309.851 159.063 309.838 159.224C309.825 159.384 309.749 159.533 309.626 159.638C309.504 159.742 309.344 159.793 309.184 159.781V159.768Z" fill="#263238"/>
<path d="M326.433 164.369C326.329 164.372 326.227 164.346 326.138 164.294C326.048 164.243 325.974 164.169 325.923 164.079C322.942 159.237 315.172 155.061 315.087 155.025C315.016 154.987 314.953 154.936 314.902 154.875C314.851 154.813 314.813 154.742 314.789 154.666C314.765 154.589 314.757 154.509 314.764 154.429C314.772 154.35 314.795 154.272 314.832 154.202C314.87 154.131 314.921 154.068 314.982 154.017C315.044 153.966 315.115 153.928 315.192 153.904C315.268 153.88 315.349 153.872 315.428 153.88C315.508 153.887 315.586 153.91 315.657 153.947C315.984 154.129 323.802 158.293 326.954 163.449C326.996 163.518 327.023 163.593 327.036 163.673C327.048 163.752 327.044 163.832 327.025 163.91C327.006 163.988 326.972 164.061 326.924 164.125C326.876 164.189 326.816 164.244 326.748 164.285C326.653 164.342 326.544 164.372 326.433 164.369Z" fill="#263238"/>
<path d="M377.779 179.184C377.687 179.183 377.596 179.161 377.514 179.119C377.432 179.077 377.361 179.017 377.306 178.942C376.371 177.594 375.56 176.164 374.882 174.669C374.847 174.598 374.826 174.52 374.821 174.441C374.816 174.361 374.827 174.282 374.853 174.206C374.879 174.131 374.919 174.061 374.972 174.002C375.025 173.942 375.089 173.893 375.161 173.858C375.307 173.792 375.474 173.785 375.626 173.839C375.778 173.893 375.902 174.004 375.973 174.149C376.608 175.562 377.363 176.918 378.227 178.204C378.325 178.331 378.369 178.491 378.348 178.65C378.328 178.809 378.245 178.953 378.118 179.051C378.021 179.129 377.903 179.175 377.779 179.184Z" fill="#263238"/>
<path d="M373.961 171.777C373.844 171.775 373.731 171.742 373.632 171.68C373.534 171.618 373.454 171.53 373.403 171.426C371.5 167.165 369.767 162.711 369.694 162.662C369.655 162.581 369.635 162.492 369.635 162.402C369.635 162.312 369.655 162.223 369.694 162.142C369.741 162.061 369.806 161.991 369.883 161.939C369.961 161.886 370.05 161.852 370.142 161.839C378.155 160.762 396.143 153.124 396.325 153.039C396.471 152.984 396.633 152.987 396.778 153.049C396.922 153.11 397.036 153.225 397.097 153.369C397.159 153.513 397.161 153.675 397.106 153.821C397.05 153.967 396.939 154.086 396.797 154.153C396.07 154.468 379.524 161.488 371.076 162.929C371.645 164.345 373.027 167.698 374.482 170.93C374.547 171.076 374.552 171.242 374.496 171.391C374.439 171.541 374.325 171.662 374.179 171.728C374.11 171.757 374.036 171.774 373.961 171.777Z" fill="#263238"/>
<path d="M357.646 172.333C357.532 172.335 357.42 172.304 357.323 172.244C357.226 172.183 357.149 172.097 357.1 171.994C357.1 171.994 356.361 170.505 355.415 168.363C355.372 168.289 355.346 168.207 355.337 168.123C355.328 168.038 355.337 167.953 355.364 167.872C355.39 167.791 355.434 167.717 355.491 167.654C355.548 167.591 355.618 167.54 355.696 167.506C355.774 167.472 355.858 167.455 355.943 167.455C356.029 167.456 356.113 167.474 356.19 167.509C356.268 167.544 356.337 167.595 356.394 167.659C356.45 167.723 356.493 167.798 356.518 167.879C357.452 169.973 358.179 171.425 358.191 171.437C358.226 171.509 358.247 171.587 358.252 171.666C358.257 171.746 358.246 171.825 358.221 171.901C358.195 171.976 358.154 172.045 358.101 172.105C358.048 172.165 357.984 172.213 357.912 172.248C357.832 172.299 357.74 172.328 357.646 172.333Z" fill="#263238"/>
<path d="M354.712 165.785C354.592 165.786 354.474 165.751 354.375 165.684C354.275 165.617 354.198 165.522 354.154 165.41C352.903 162.494 351.945 159.461 351.294 156.356C350.178 150.134 353.585 132.571 353.718 131.82C353.75 131.66 353.845 131.519 353.981 131.428C354.117 131.337 354.284 131.304 354.445 131.336C354.606 131.368 354.747 131.463 354.838 131.599C354.929 131.735 354.962 131.902 354.93 132.062C354.93 132.244 351.427 150.146 352.506 156.15C353.146 159.173 354.084 162.124 355.306 164.962C355.335 165.036 355.35 165.115 355.349 165.195C355.348 165.274 355.331 165.353 355.299 165.426C355.268 165.499 355.222 165.565 355.165 165.621C355.108 165.676 355.04 165.72 354.966 165.749C354.885 165.777 354.798 165.789 354.712 165.785Z" fill="#263238"/>
<path d="M313.16 183.276C313.16 183.276 312.457 194.69 312.275 196.796C312.093 198.902 309.851 201.88 309.851 201.88C309.934 202.468 309.899 203.066 309.747 203.64C309.595 204.214 309.329 204.751 308.966 205.221C307.753 206.807 303.693 209.615 302.469 208.562C301.244 207.509 296.493 206.274 295.959 206.274C295.426 206.274 292.614 207.327 292.796 203.986C292.977 200.645 297.547 188.009 298.772 187.306C299.996 186.604 305.099 185.382 306.505 184.147C307.911 182.913 312.457 181.17 313.16 183.276Z" fill="#00B8CC"/>
<path d="M303.159 209.396C302.751 209.41 302.351 209.277 302.032 209.021C300.965 208.101 296.468 206.903 295.911 206.878H295.68C295.222 207.019 294.737 207.054 294.262 206.981C293.788 206.907 293.336 206.728 292.941 206.455C292.626 206.12 292.392 205.719 292.255 205.281C292.119 204.842 292.084 204.379 292.153 203.925C292.323 200.608 296.856 187.657 298.432 186.749C299.335 186.323 300.272 185.971 301.232 185.696C302.931 185.235 304.562 184.551 306.081 183.662C307.196 182.694 310.396 181.241 312.323 181.762C312.647 181.836 312.946 181.991 313.192 182.214C313.439 182.436 313.623 182.718 313.729 183.033C313.748 183.108 313.748 183.187 313.729 183.263C313.729 183.372 313.026 194.701 312.857 196.795C312.446 198.689 311.618 200.467 310.432 202C310.547 203.27 310.179 204.536 309.402 205.547C308.323 206.939 305.329 209.178 303.426 209.336L303.159 209.396ZM295.887 205.668C296.553 205.668 301.438 206.951 302.784 208.089C302.935 208.172 303.112 208.198 303.281 208.161C304.784 208.004 307.511 206.007 308.42 204.833C308.729 204.433 308.956 203.975 309.087 203.487C309.218 202.999 309.251 202.489 309.184 201.988C309.167 201.904 309.169 201.818 309.187 201.735C309.206 201.651 309.242 201.573 309.293 201.504C309.293 201.504 311.475 198.635 311.632 196.735C311.79 194.835 312.42 184.631 312.505 183.36C312.451 183.254 312.374 183.163 312.279 183.092C312.185 183.02 312.076 182.971 311.96 182.948C310.614 182.585 307.862 183.698 306.832 184.594C305.207 185.611 303.437 186.378 301.584 186.87C300.701 187.125 299.838 187.444 299.002 187.826C297.923 188.673 293.499 200.741 293.329 204.01C293.285 204.283 293.296 204.562 293.363 204.83C293.429 205.098 293.55 205.351 293.717 205.571C294.141 205.946 294.929 205.801 295.426 205.716C295.59 205.687 295.756 205.671 295.923 205.668H295.887Z" fill="#263238"/>
<path d="M297.159 181.522C297.159 181.522 292.408 184.33 292.226 185.734C292.044 187.138 297.329 195.914 298.917 196.628C299.847 196.855 300.83 196.707 301.652 196.215C302.473 195.724 303.067 194.928 303.305 194.001C303.487 192.246 299.669 181.534 299.087 181.183C298.505 180.832 298.093 181.691 297.159 181.522Z" fill="#00B8CC"/>
<path d="M299.778 197.39C299.395 197.394 299.015 197.32 298.662 197.172C296.941 196.41 291.39 187.368 291.632 185.661C291.874 183.954 295.668 181.691 296.844 181.001C296.906 180.96 296.976 180.933 297.049 180.92C297.122 180.907 297.197 180.91 297.268 180.928C297.521 180.94 297.771 180.872 297.984 180.735C298.191 180.584 298.438 180.497 298.694 180.484C298.95 180.471 299.204 180.533 299.426 180.662C300.347 181.279 304.081 192.403 303.911 194.049C303.809 194.629 303.572 195.177 303.221 195.65C302.87 196.123 302.413 196.507 301.887 196.773C301.251 197.162 300.523 197.375 299.778 197.39ZM297.293 182.139C295.171 183.422 292.917 185.165 292.832 185.77C292.771 186.981 297.681 195.454 299.159 196.035C299.516 196.138 299.891 196.161 300.258 196.102C300.625 196.043 300.974 195.905 301.281 195.696C301.635 195.516 301.947 195.262 302.194 194.951C302.441 194.639 302.617 194.278 302.711 193.892C302.856 192.403 299.535 182.998 298.735 181.667L298.529 181.776C298.156 182.003 297.729 182.128 297.293 182.139Z" fill="#263238"/>
<path d="M293.244 188.711C293.244 188.711 287.971 195.562 288.153 197.499C288.335 199.435 289.729 201.009 290.577 201.009C291.426 201.009 299.717 203.987 300.602 203.987C301.487 203.987 303.766 203.285 303.584 201.711C303.402 200.137 298.844 196.615 298.844 196.615L293.244 188.711Z" fill="#00B8CC"/>
<path d="M300.675 204.592C298.903 204.228 297.164 203.722 295.474 203.079C293.608 202.462 291.062 201.638 290.626 201.614C289.414 201.614 287.777 199.799 287.571 197.547C287.377 195.489 291.887 189.522 292.796 188.348C292.85 188.27 292.923 188.208 293.007 188.166C293.092 188.123 293.186 188.103 293.28 188.106C293.375 188.111 293.467 188.137 293.55 188.181C293.634 188.225 293.707 188.286 293.765 188.36L299.341 196.191C300.287 196.918 304.056 199.944 304.19 201.638C304.226 201.941 304.194 202.247 304.098 202.536C304.001 202.825 303.842 203.088 303.632 203.309C302.833 204.078 301.783 204.534 300.675 204.592ZM293.244 189.74C291.183 192.5 288.662 196.361 288.771 197.438C288.917 199.157 290.153 200.404 290.626 200.404C292.398 200.771 294.137 201.281 295.826 201.929C297.681 202.534 300.238 203.369 300.675 203.381C301.466 203.34 302.219 203.028 302.808 202.498C302.899 202.401 302.969 202.287 303.013 202.162C303.057 202.037 303.074 201.904 303.062 201.772C302.966 200.961 300.638 198.709 298.541 197.099C298.495 197.061 298.454 197.016 298.42 196.966L293.244 189.74Z" fill="#263238"/>
<path d="M288.711 199.072L286.783 203.817C286.783 203.817 288.711 207.86 289.596 208.029C293.079 207.879 296.547 207.474 299.972 206.819C301.026 206.468 302.081 205.766 302.081 204.882C302.081 204.882 298.917 203.478 298.032 203.127C297.147 202.776 290.65 201.021 290.65 201.021L288.711 199.072Z" fill="#00B8CC"/>
<path d="M289.887 208.646C289.75 208.662 289.611 208.662 289.474 208.646C288.505 208.453 287.171 206.068 286.238 204.107C286.205 204.028 286.188 203.944 286.188 203.859C286.188 203.774 286.205 203.689 286.238 203.611L288.177 198.866C288.216 198.773 288.276 198.691 288.354 198.628C288.431 198.564 288.524 198.521 288.622 198.501C288.721 198.482 288.822 198.488 288.918 198.518C289.014 198.547 289.101 198.601 289.171 198.672L290.99 200.488C292.008 200.766 297.45 202.243 298.262 202.57C299.075 202.897 302.19 204.289 302.323 204.337C302.431 204.386 302.522 204.464 302.586 204.562C302.651 204.661 302.686 204.776 302.687 204.894C302.687 206.104 301.378 206.988 300.153 207.399C296.763 208.042 293.333 208.458 289.887 208.646ZM287.462 203.804C288.028 205.134 288.81 206.361 289.777 207.436C293.142 207.252 296.491 206.848 299.802 206.225C300.421 206.061 300.973 205.705 301.378 205.209C300.469 204.809 298.493 203.998 297.838 203.671C297.184 203.344 292.311 202.074 290.565 201.589C290.463 201.564 290.37 201.509 290.299 201.432L289.002 200.149L287.462 203.804Z" fill="#263238"/>
<path d="M289.608 208.028C289.608 208.028 293.474 210.316 294.347 210.316C295.22 210.316 301.62 209.432 302.444 208.561C303.268 207.689 304.372 206.455 303.85 205.922C303.315 205.493 302.724 205.139 302.093 204.869L299.984 206.806L289.608 208.028Z" fill="#00B8CC"/>
<path d="M294.335 210.874C293.402 210.874 290.493 209.215 289.28 208.453C289.172 208.389 289.086 208.293 289.036 208.177C288.986 208.062 288.974 207.934 289.002 207.811C289.028 207.687 289.092 207.573 289.185 207.487C289.279 207.4 289.397 207.344 289.523 207.327L299.705 206.117L301.669 204.313C301.753 204.234 301.859 204.182 301.973 204.163C302.088 204.143 302.205 204.158 302.311 204.204C303.02 204.505 303.678 204.913 304.263 205.414C305.305 206.455 303.523 208.235 302.856 208.901C301.729 210.123 294.881 210.874 294.335 210.874ZM291.499 208.453C292.394 208.995 293.35 209.429 294.347 209.748C295.45 209.748 301.365 208.792 301.996 208.162C303.39 206.782 303.378 206.334 303.366 206.322C302.991 206.04 302.584 205.804 302.153 205.62L300.335 207.279C300.25 207.37 300.133 207.427 300.008 207.436L291.499 208.453Z" fill="#263238"/>
<path d="M293.281 166.063L304.711 196.614L307.002 199.253L307.172 195.743L295.571 165.01L293.281 166.063Z" fill="white"/>
<path d="M307.002 199.859C306.915 199.858 306.829 199.839 306.75 199.804C306.671 199.768 306.6 199.717 306.541 199.653L304.262 197.014L304.141 196.833L292.723 166.281C292.665 166.14 292.665 165.981 292.721 165.839C292.778 165.697 292.887 165.582 293.026 165.519L295.317 164.465C295.394 164.433 295.476 164.416 295.559 164.416C295.643 164.416 295.725 164.433 295.802 164.465C295.88 164.497 295.95 164.545 296.008 164.605C296.067 164.666 296.112 164.738 296.141 164.816L307.79 195.525C307.814 195.604 307.814 195.689 307.79 195.767L307.62 199.278C307.613 199.399 307.57 199.515 307.496 199.612C307.423 199.709 307.323 199.782 307.208 199.822C307.142 199.848 307.072 199.86 307.002 199.859ZM305.244 196.348L306.456 197.765L306.553 195.888L295.22 165.882L294.008 166.426L305.244 196.348Z" fill="#263238"/>
<path d="M305.899 178.493C305.899 178.493 304.129 188.334 304.917 189.315C305.705 190.295 308.663 192.474 309.838 191.736C311.014 190.997 313.584 181.689 313.584 180.515C313.584 179.341 309.644 177.9 305.899 178.493Z" fill="#00B8CC"/>
<path d="M309.208 192.463C307.45 192.463 305.075 190.49 304.444 189.703C303.608 188.662 304.626 182.162 305.305 178.386C305.325 178.262 305.384 178.149 305.473 178.061C305.563 177.974 305.678 177.918 305.802 177.902C308.99 177.393 312.311 178.24 313.56 179.306C313.751 179.445 313.907 179.627 314.017 179.837C314.126 180.047 314.185 180.279 314.19 180.516C314.19 181.63 311.669 191.241 310.178 192.233C309.885 192.404 309.547 192.484 309.208 192.463ZM306.42 179.039C305.656 183.361 305.062 188.275 305.402 188.977C306.25 190.018 308.82 191.628 309.499 191.18C310.408 190.478 312.978 181.763 312.978 180.468C312.857 179.935 309.935 178.616 306.42 179.039Z" fill="#263238"/>
<path d="M351.427 101.172C351.33 101.174 351.233 101.151 351.147 101.107C351.06 101.063 350.986 100.998 350.93 100.918C350.009 99.7391 348.947 98.678 347.766 97.7586C347.638 97.6622 347.553 97.5189 347.53 97.36C347.507 97.2011 347.549 97.0397 347.645 96.9112C347.743 96.7855 347.887 96.7026 348.045 96.68C348.203 96.6575 348.364 96.697 348.493 96.7902C349.776 97.78 350.925 98.9314 351.912 100.216C352.004 100.347 352.041 100.508 352.017 100.666C351.992 100.824 351.906 100.967 351.778 101.063C351.675 101.133 351.552 101.171 351.427 101.172Z" fill="#263238"/>
</svg>
