<svg width="400" height="280" viewBox="0 0 400 280" fill="none" xmlns="http://www.w3.org/2000/svg">
<g clip-path="url(#clip0_174_433)">
<path d="M382.007 95.2515C382.007 95.2515 357.81 34.932 307.655 10.9996C257.499 -12.9327 227.864 6.20573 192.017 30.1474C156.169 54.089 73.7216 36.8495 39.6603 56.9561C5.59902 77.0626 -10.5211 125.886 7.40273 180.481C25.3265 235.076 71.9266 276.219 61.1741 303.028C50.4216 329.837 151.682 428.424 235.933 392.037C320.185 355.649 297.8 315.446 336.305 297.257C374.81 279.068 401.726 230.235 399.914 170.884C398.101 111.532 382.007 95.2515 382.007 95.2515Z" fill="#00B8CC"/>
<path opacity="0.8" d="M382.007 95.2515C382.007 95.2515 357.81 34.932 307.655 10.9996C257.499 -12.9327 227.864 6.20573 192.017 30.1474C156.169 54.089 73.7216 36.8495 39.6603 56.9561C5.59902 77.0626 -10.5211 125.886 7.40273 180.481C25.3265 235.076 71.9266 276.219 61.1741 303.028C50.4216 329.837 151.682 428.424 235.933 392.037C320.185 355.649 297.8 315.446 336.305 297.257C374.81 279.068 401.726 230.235 399.914 170.884C398.101 111.532 382.007 95.2515 382.007 95.2515Z" fill="white"/>
<path d="M137.273 336.324L137.647 246.774C137.647 246.774 122.265 248.961 119.691 249.346C117.117 249.731 115.933 246.662 108.562 239.096C101.191 231.53 102.314 210.721 111.885 203.913C121.455 197.105 142.421 172.121 143.895 170.605C145.369 169.089 155.676 170.605 159.724 171.363C163.772 172.121 171.132 176.332 173.017 176.668C174.902 177.003 188.484 179.314 188.484 179.314L238.535 188.768C242.583 189.526 260.612 200.496 265.034 201.192C269.457 201.888 274.605 209.143 275.342 212.547C276.079 215.951 283.063 276.492 286.012 280.653C288.96 284.815 298.893 337.392 298.893 337.392" fill="white"/>
<path d="M137.273 336.324L137.647 246.774C137.647 246.774 122.265 248.961 119.691 249.346C117.117 249.731 115.933 246.662 108.562 239.096C101.191 231.53 102.314 210.721 111.885 203.913C121.455 197.105 142.421 172.121 143.895 170.605C145.369 169.089 155.676 170.605 159.724 171.363C163.772 172.121 171.131 176.332 173.017 176.668C174.902 177.003 188.484 179.314 188.484 179.314L238.535 188.768C242.583 189.526 260.612 200.496 265.034 201.192C269.457 201.888 274.605 209.143 275.342 212.547C276.079 215.951 283.063 276.492 286.012 280.653C288.96 284.815 298.893 337.392 298.893 337.392" stroke="#263238" stroke-linecap="round" stroke-linejoin="round"/>
<path d="M221.509 208.932H226.064L239.308 214.461L224.409 200.832L221.509 208.932Z" fill="#263238" stroke="#263238" stroke-linecap="round" stroke-linejoin="round"/>
<path d="M192.931 210.212L210.742 207.653L204.531 198.285L192.931 210.212Z" fill="#263238" stroke="#263238" stroke-linecap="round" stroke-linejoin="round"/>
<path d="M148.124 188.246C148.124 188.246 150.118 215.938 147.121 227.741C144.124 239.543 141.635 242.649 141.635 242.649" stroke="#263238" stroke-linecap="round" stroke-linejoin="round"/>
<path d="M146.106 252.7C145.659 254.29 145.188 255.88 144.68 257.483L146.106 252.7Z" fill="white"/>
<path d="M146.106 252.7C145.659 254.29 145.188 255.88 144.68 257.483" stroke="#263238" stroke-linecap="round" stroke-linejoin="round"/>
<path d="M152.619 207.23C152.326 220.99 150.547 234.673 147.314 248.029L152.619 207.23Z" fill="white"/>
<path d="M152.619 207.23C152.326 220.99 150.547 234.673 147.314 248.029" stroke="#263238" stroke-linecap="round" stroke-linejoin="round"/>
<path d="M269.59 331.23C269.59 331.23 262.412 298.444 263.137 295.04C263.862 291.636 266.086 230.338 266.086 230.338" stroke="#263238" stroke-linecap="round" stroke-linejoin="round"/>
<path d="M177.524 196.297C178.184 198.177 178.893 200.19 179.65 202.335" stroke="#263238" stroke-linecap="round" stroke-linejoin="round"/>
<path d="M170.769 178.109C170.769 178.109 172.763 183.079 176.255 192.844" stroke="#263238" stroke-linecap="round" stroke-linejoin="round"/>
<path d="M185.753 232.313C186.138 234.413 186.417 236.532 186.587 238.661" stroke="#263238" stroke-linecap="round" stroke-linejoin="round"/>
<path d="M172.968 195.937C177.965 206.024 181.922 216.621 184.774 227.555" stroke="#263238" stroke-linecap="round" stroke-linejoin="round"/>
<path d="M216.542 217.405C216.542 217.405 220.82 258.328 220.82 264.006C220.82 269.683 223.998 333.106 223.998 333.106" stroke="#263238" stroke-linecap="round" stroke-linejoin="round"/>
<path d="M260.938 275.162L235.913 272.69V232.512L260.938 234.972V275.162Z" fill="white" stroke="#263238" stroke-linecap="round" stroke-linejoin="round"/>
<path d="M250.993 236.202L244.746 235.817V223.331L250.993 223.716V236.202Z" fill="#00B8CC" stroke="#263238" stroke-linecap="round" stroke-linejoin="round"/>
<path d="M196.604 169.686C196.604 169.686 193.801 169.363 193.184 170.332C192.568 171.301 185.39 179.612 185.39 179.612C186.093 183.842 186.404 188.131 186.321 192.421C186.321 200.745 190.067 213.541 190.067 213.541L205.316 203.316L215.286 200.434C217.241 200.085 219.24 200.085 221.195 200.434C221.195 200.434 243.006 219.331 244.25 218.685C245.495 218.038 240.516 196.906 237.085 187.625C233.653 178.345 223.998 173.214 223.998 173.214C223.998 173.214 201.897 169.052 196.604 169.686Z" fill="white" stroke="#263238" stroke-linecap="round" stroke-linejoin="round"/>
<path d="M192.556 130.613C186.977 131.576 181.664 133.762 176.98 137.024C170.128 142.143 176.05 160.082 184.46 164.567C192.87 169.052 198.779 167.76 202.211 159.759C205.643 151.758 204.084 135.421 201.897 132.862C199.71 130.303 192.556 130.613 192.556 130.613Z" fill="#263238"/>
<path d="M200.036 137.98L196.918 172.891C199.299 180.983 202.214 188.899 205.643 196.583C208.7 203.822 212.337 210.786 216.518 217.405C216.518 217.405 223.986 203.316 225.859 198.508C227.395 194.011 228.65 189.417 229.617 184.755L234.317 163.921C234.317 163.921 225.859 161.685 215.624 153.671C209.743 149.212 204.497 143.931 200.036 137.98Z" fill="white" stroke="#263238" stroke-linecap="round" stroke-linejoin="round"/>
<path d="M234.317 163.921C234.317 163.921 225.859 161.685 215.624 153.672C212.959 151.596 210.409 149.369 207.987 147V161.3C207.987 161.3 215.829 175.426 223.696 179.463C225.802 180.512 228.073 181.168 230.402 181.401L234.317 163.921Z" fill="#263238"/>
<path d="M255.79 132.576C255.79 132.576 258.28 130.017 258.594 135.459C258.908 140.9 255.476 145.398 253.289 147.311C251.102 149.224 250.183 149.87 250.183 149.87L255.79 132.576Z" fill="white" stroke="#263238" stroke-linecap="round" stroke-linejoin="round"/>
<path d="M234.318 82.2357C226.157 81.0388 217.866 83.17 211.213 88.1742C200.145 96.585 199.13 116.885 199.13 116.885C199.13 116.885 195.287 113.419 192.87 117.867C190.453 122.314 190.453 133.707 192.399 134.701C194.344 135.694 196.725 136.676 196.725 136.676C196.725 136.676 199.613 151.522 202.501 155.982C205.389 160.442 215.986 171.822 222.246 171.822C228.505 171.822 239.091 168.356 243.9 161.883C248.194 155.826 251.601 149.154 254.014 142.08C255.935 136.639 259.307 110.412 259.307 110.412C259.307 110.412 260.745 98.5355 251.609 90.1247C242.474 81.7139 234.318 82.2357 234.318 82.2357Z" fill="white" stroke="#263238" stroke-linecap="round" stroke-linejoin="round"/>
<path d="M202.525 155.983C205.413 160.43 216.011 171.823 222.27 171.823C228.529 171.823 239.115 168.356 243.924 161.884C248.218 155.826 251.626 149.154 254.038 142.081C254.704 139.823 255.229 137.524 255.609 135.198C254.401 133.955 245.833 125.582 234.922 123.209C223.08 120.65 201.583 118.737 201.583 118.737L199.166 116.848L196.967 137.62C197.655 141.049 200.084 152.218 202.525 155.983Z" fill="#00B8CC" stroke="#263238" stroke-linecap="round" stroke-linejoin="round"/>
<path d="M239.272 124.849C239.272 124.849 241.145 115.245 242.075 112.686C243.006 110.127 249.241 107.878 253.917 114.922" stroke="#263238" stroke-linecap="round" stroke-linejoin="round"/>
<path d="M228.686 106.276C228.686 106.276 222.463 98.2749 212.494 105.319" stroke="#263238" stroke-linecap="round" stroke-linejoin="round"/>
<path d="M219.285 113.271C218.947 114.513 217.992 115.395 217.171 115.159C216.349 114.923 215.962 113.705 216.289 112.426C216.615 111.146 217.581 110.289 218.403 110.525C219.225 110.761 219.624 111.991 219.285 113.271Z" fill="#263238"/>
<path d="M246.691 120.079C246.353 121.321 245.398 122.203 244.577 121.967C243.755 121.731 243.368 120.514 243.694 119.234C244.021 117.954 244.987 117.11 245.809 117.346C246.631 117.582 247.042 118.799 246.691 120.079Z" fill="#263238"/>
<path d="M199.154 116.886C199.654 117.048 200.192 117.04 200.687 116.86C201.182 116.681 201.606 116.341 201.897 115.892C202.839 114.289 200.966 108.524 207.818 101.48C214.669 94.4361 222.463 93.467 226.197 90.299C229.931 87.131 230.559 85.5035 228.07 82.2982C225.581 79.0929 221.835 73.6017 208.132 81.6646C194.429 89.7275 189.438 94.7839 191.626 101.828C192.803 105.82 194.59 109.594 196.918 113.009L199.154 116.886Z" fill="#263238"/>
<path d="M224.952 79.701C224.952 79.701 227.756 86.4222 232.734 88.9815C237.713 91.5407 244.262 92.5098 252.068 97.3177C259.875 102.126 258.304 116.525 258.304 116.525C258.304 116.525 268.889 121.966 273.251 113.965C277.613 105.965 281.71 92.5098 264.527 82.5833C247.344 72.6568 234.607 60.8047 224.952 79.701Z" fill="#263238"/>
<path d="M176.315 61.1899V106.797C176.312 108.05 175.826 109.251 174.963 110.136C174.1 111.021 172.93 111.518 171.712 111.518C170.495 111.515 169.329 111.016 168.468 110.132C167.608 109.247 167.123 108.048 167.12 106.797V61.1899H176.315Z" fill="white" stroke="#263238" stroke-linecap="round" stroke-linejoin="round"/>
<path d="M176.315 85.3667V106.76C176.312 108.013 175.826 109.214 174.963 110.099C174.1 110.984 172.93 111.481 171.712 111.481C170.495 111.478 169.329 110.979 168.468 110.095C167.608 109.21 167.123 108.011 167.12 106.76V85.3667H176.315Z" fill="#00B8CC" stroke="#263238" stroke-linecap="round" stroke-linejoin="round"/>
<path d="M177.753 58.917H165.609V62.7062H177.753V58.917Z" fill="white" stroke="#263238" stroke-linecap="round" stroke-linejoin="round"/>
<path d="M147.943 152.006C147.943 152.006 147.943 150.876 142.795 147.037C137.647 143.198 118.132 142.875 114.084 147.795C110.036 152.715 124.391 166.331 128.44 168.232C132.488 170.132 139.847 166.716 142.058 164.07C144.269 161.424 147.943 152.006 147.943 152.006Z" fill="white" stroke="#263238" stroke-linecap="round" stroke-linejoin="round"/>
<path d="M121.443 123.246L117.818 151.622C117.818 151.622 124.814 161.461 131.11 161.846C137.406 162.231 142.892 156.169 142.892 156.169L144.366 127.793C144.366 127.793 129.914 127.408 121.443 123.246Z" fill="white" stroke="#263238" stroke-linecap="round" stroke-linejoin="round"/>
<path d="M125.491 104.325C125.491 104.325 126.228 85.7889 126.965 78.2353C127.702 70.6818 129.914 65.3645 131.013 65.3645C132.113 65.3645 145.743 55.5498 145.743 55.5498C145.743 55.5498 167.82 57.0655 170.032 57.0655C172.243 57.0655 176.654 58.5812 176.291 60.7926L175.917 63.0537C176.107 64.2883 176.107 65.5461 175.917 66.7808C175.615 67.5446 175.103 68.2011 174.442 68.6691C174.634 69.2722 174.587 69.9287 174.311 70.4962C174.035 71.0637 173.553 71.4965 172.968 71.7005C170.769 72.8311 161.561 77.7508 161.561 77.7508C159.31 82.5431 157.345 87.472 155.676 92.5101C154.202 97.8149 148.317 103.48 148.317 103.48C148.317 103.48 148.68 108.785 148.68 112.177C148.443 115.146 147.825 118.07 146.843 120.873C147.028 122.89 147.028 124.919 146.843 126.936C146.481 128.066 145.369 129.582 144.269 129.582C143.17 129.582 135.061 131.098 130.977 130.34C126.893 129.582 121.044 124.662 121.044 124.662L122.881 117.096V111.034C122.917 108.872 125.491 104.325 125.491 104.325Z" fill="#00B8CC" stroke="#263238" stroke-linecap="round" stroke-linejoin="round"/>
<path d="M138.01 103.567C138.01 103.567 145.743 100.549 146.469 95.6288C147.194 90.709 150.879 78.2357 150.879 78.2357L161.549 77.8506" stroke="#263238" stroke-linecap="round" stroke-linejoin="round"/>
<path d="M142.058 72.9427C142.058 72.9427 151.628 69.5386 154.202 69.5386C156.776 69.5386 174.442 68.7808 174.442 68.7808" stroke="#263238" stroke-linecap="round" stroke-linejoin="round"/>
<path d="M141.695 64.2463C146.149 63.1011 150.712 62.4678 155.302 62.3579C161.936 62.3579 175.917 63.1033 175.917 63.1033" stroke="#263238" stroke-linecap="round" stroke-linejoin="round"/>
<path d="M125.129 119.084C125.129 119.084 129.962 124.377 140.221 123.246" stroke="#263238" stroke-linecap="round" stroke-linejoin="round"/>
<path d="M146.106 117.568C146.106 117.568 144.269 118.711 135.799 118.711" stroke="#263238" stroke-linecap="round" stroke-linejoin="round"/>
<path d="M117.77 151.622L114.084 147.895C114.084 147.895 93.8438 226.598 93.4813 232.276C93.1187 237.953 101.577 247.408 106.363 249.669C111.148 251.93 126.965 250.041 132.125 247.395C137.285 244.749 140.584 234.152 143.532 224.312C146.481 214.473 143.158 197.067 143.895 191.775C144.632 186.482 147.943 152.019 147.943 152.019L142.795 156.181C142.795 156.181 128.44 155.784 117.77 151.622Z" fill="white" stroke="#263238" stroke-linecap="round" stroke-linejoin="round"/>
</g>
<defs>
<clipPath id="clip0_174_433">
<rect width="400" height="280" fill="white"/>
</clipPath>
</defs>
</svg>
