<svg width="80" height="40" viewBox="0 0 80 40" fill="none" xmlns="http://www.w3.org/2000/svg">
<g clip-path="url(#clip0_281_10300)">
<path fill-rule="evenodd" clip-rule="evenodd" d="M39.9999 21.1783L44.7141 25.8925C44.8713 26.0443 45.0818 26.1283 45.3003 26.1264C45.5188 26.1245 45.7278 26.0368 45.8823 25.8823C46.0368 25.7278 46.1244 25.5188 46.1263 25.3003C46.1282 25.0818 46.0442 24.8713 45.8924 24.7141L41.1783 20L45.8924 15.2858C46.0442 15.1286 46.1282 14.9181 46.1263 14.6996C46.1244 14.4811 46.0368 14.2721 45.8823 14.1176C45.7278 13.9631 45.5188 13.8755 45.3003 13.8736C45.0818 13.8717 44.8713 13.9557 44.7141 14.1075L39.9999 18.8216L35.2858 14.1075C35.1279 13.9594 34.9186 13.8786 34.7022 13.8821C34.4858 13.8856 34.2793 13.9732 34.1263 14.1263C33.9733 14.2794 33.8859 14.486 33.8825 14.7024C33.8791 14.9188 33.9601 15.128 34.1083 15.2858L38.8216 20L34.1074 24.7141C34.0278 24.791 33.9644 24.883 33.9207 24.9846C33.877 25.0863 33.854 25.1956 33.8531 25.3063C33.8521 25.4169 33.8732 25.5267 33.9151 25.6291C33.957 25.7315 34.0189 25.8245 34.0971 25.9028C34.1753 25.981 34.2684 26.0429 34.3708 26.0848C34.4732 26.1267 34.583 26.1478 34.6936 26.1468C34.8043 26.1459 34.9136 26.1229 35.0153 26.0792C35.1169 26.0355 35.2089 25.9721 35.2858 25.8925L39.9999 21.1783Z" fill="#E80055"/>
</g>
<rect x="1" y="1" width="78" height="38" rx="19" stroke="#E80055" stroke-width="2"/>
<defs>
<clipPath id="clip0_281_10300">
<rect width="20" height="20" fill="white" transform="translate(30 10)"/>
</clipPath>
</defs>
</svg>
