<svg width="20" height="20" viewBox="0 0 20 20" fill="none" xmlns="http://www.w3.org/2000/svg">
<path d="M8.72002 2.73478C8.86916 2.55586 9.05414 2.41019 9.26304 2.30717C9.47193 2.20414 9.7001 2.14604 9.93283 2.13662C10.1656 2.1272 10.3977 2.16666 10.6142 2.25246C10.8308 2.33827 11.0269 2.4685 11.19 2.63478L11.28 2.73478L14.5567 6.66644H17.0442C17.2191 6.66607 17.3921 6.70265 17.5518 6.77377C17.7116 6.8449 17.8545 6.94897 17.9713 7.07918C18.088 7.20938 18.176 7.36278 18.2293 7.52932C18.2827 7.69587 18.3002 7.8718 18.2809 8.04561L18.2042 8.68394L18.1209 9.30061L18.0525 9.76228L17.9734 10.2581L17.8834 10.7789L17.7817 11.3189L17.6684 11.8698C17.6084 12.1473 17.5442 12.4256 17.475 12.7014C17.2906 13.4334 17.059 14.1527 16.7817 14.8548L16.5975 15.3048L16.4192 15.7114L16.2509 16.0731L16.1725 16.2348L15.965 16.6431C15.6984 17.1514 15.195 17.4514 14.6625 17.4948L14.5292 17.4998H5.46252C5.17117 17.502 4.88468 17.4251 4.63369 17.2771C4.38269 17.1292 4.17662 16.9158 4.03752 16.6598L3.84419 16.2848L3.69419 15.9764C3.66748 15.9197 3.64109 15.8627 3.61502 15.8056L3.44836 15.4314C3.06789 14.5477 2.75912 13.6347 2.52502 12.7014C2.47981 12.5202 2.43647 12.3386 2.39502 12.1564L2.27669 11.6164L2.17086 11.0881L2.07752 10.5773L1.99419 10.0881L1.92169 9.62644L1.86002 9.19894L1.78502 8.62978L1.73002 8.16644C1.72522 8.12395 1.7205 8.08145 1.71586 8.03894C1.69839 7.87519 1.71372 7.70959 1.76094 7.55182C1.80817 7.39405 1.88635 7.24727 1.99093 7.12004C2.0955 6.99282 2.22437 6.8877 2.37001 6.81082C2.51565 6.73394 2.67515 6.68684 2.83919 6.67228L2.95252 6.66644H5.44336L8.72002 2.73478ZM16.5692 8.33311H3.42752L3.47919 8.73644L3.54252 9.19311L3.61919 9.69644L3.70919 10.2364C3.74252 10.4214 3.77669 10.6114 3.81419 10.8048L3.93336 11.3939C3.99669 11.6923 4.06669 11.9956 4.14169 12.2973C4.35328 13.1396 4.63195 13.9636 4.97502 14.7614L5.13836 15.1289L5.29002 15.4489L5.42586 15.7181L5.48586 15.8331H14.5084L14.6367 15.5806L14.7842 15.2764L14.9459 14.9239C15.2517 14.2364 15.6017 13.3256 15.8584 12.2973C15.9625 11.8806 16.055 11.4573 16.1375 11.0414L16.2542 10.4264L16.3542 9.83561L16.3984 9.55311L16.4775 9.02228L16.5417 8.54728L16.5692 8.33311ZM8.32169 10.6964L8.73836 13.1964C8.76745 13.4111 8.71178 13.6287 8.58314 13.8031C8.45451 13.9774 8.26303 14.0948 8.0493 14.1304C7.83557 14.1659 7.6164 14.1168 7.43825 13.9935C7.26011 13.8702 7.137 13.6823 7.09502 13.4698L6.67836 10.9698C6.65675 10.8603 6.65733 10.7477 6.68007 10.6385C6.7028 10.5293 6.74724 10.4257 6.81073 10.334C6.87422 10.2423 6.95548 10.1643 7.04969 10.1045C7.1439 10.0448 7.24914 10.0046 7.35918 9.9863C7.46921 9.968 7.5818 9.97197 7.69027 9.99799C7.79875 10.024 7.90089 10.0715 7.99065 10.1378C8.08041 10.204 8.15597 10.2876 8.21283 10.3835C8.26969 10.4795 8.30671 10.5859 8.32169 10.6964ZM12.54 9.99978L12.6367 10.0106C12.8384 10.0439 13.0208 10.1502 13.1493 10.3092C13.2777 10.4682 13.3432 10.6689 13.3334 10.8731L13.3225 10.9698L12.9059 13.4698C12.8705 13.679 12.7567 13.8669 12.5875 13.9951C12.4184 14.1233 12.2067 14.1821 11.9957 14.1596C11.7846 14.1371 11.5902 14.0349 11.4519 13.8738C11.3137 13.7128 11.242 13.5051 11.2517 13.2931L11.2625 13.1964L11.6792 10.6964C11.7124 10.495 11.8185 10.3129 11.9771 10.1844C12.1358 10.056 12.3361 9.99031 12.54 9.99978ZM10 3.80144L7.61252 6.66644H12.3875L10 3.80144Z" fill="#E80055"/>
</svg>
