<svg width="473" height="280" viewBox="0 0 473 280" fill="none" xmlns="http://www.w3.org/2000/svg">
<g clip-path="url(#clip0_174_4631)">
<path d="M439.176 90.6635C439.176 90.6635 353.976 9.73349 247.603 1.16854C153.703 -6.43853 66.5429 23.1927 54.4093 87.2096C50.0857 110.038 42.3923 135.257 28.7222 156.065C13.3883 179.403 -12.7757 198.834 7.26323 243.7C27.3022 288.566 111.93 329.084 173.445 329C234.961 328.916 292.746 292.02 340.422 258.467C388.098 224.913 539.921 193.359 439.176 90.6635Z" fill="#00B8CC"/>
<path opacity="0.7" d="M439.176 90.6635C439.176 90.6635 353.976 9.73349 247.603 1.16854C153.703 -6.43853 66.5429 23.1927 54.4093 87.2096C50.0857 110.038 42.3923 135.257 28.7222 156.065C13.3883 179.403 -12.7757 198.834 7.26323 243.7C27.3022 288.566 111.93 329.084 173.445 329C234.961 328.916 292.746 292.02 340.422 258.467C388.098 224.913 539.921 193.359 439.176 90.6635Z" fill="white"/>
<path d="M469 270.186H9" stroke="#263238" stroke-linecap="round" stroke-linejoin="round"/>
<path d="M469 279.551H9" stroke="#263238" stroke-linecap="round" stroke-linejoin="round"/>
<path d="M443.8 166.894H346.267C344.728 166.892 343.24 167.43 342.076 168.409C340.912 169.388 340.15 170.742 339.929 172.222L325.339 269.198H441.322L450.178 173.652C450.255 172.793 450.147 171.928 449.862 171.111C449.576 170.294 449.119 169.544 448.519 168.909C447.919 168.273 447.19 167.766 446.378 167.419C445.565 167.072 444.688 166.893 443.8 166.894Z" fill="#263238" stroke="#263238" stroke-linecap="round" stroke-linejoin="round"/>
<path d="M311.727 151.064C311.727 151.064 285.338 163.798 276.28 167.314C267.222 170.831 264.995 172.408 264.189 174.563C263.383 176.718 228.138 230.564 224.118 235.462C220.098 240.36 211.422 250.929 212.632 258.168C213.841 265.407 223.513 271.686 232.783 271.49C242.053 271.294 247.897 269.531 248.904 266.984C249.912 264.437 275.494 219.965 275.494 219.965L283.555 269.501H386.479C386.479 269.501 394.54 201.755 394.54 191.764C394.54 181.773 396.555 170.028 392.323 167.481C388.091 164.934 370.57 159.067 357.673 154.952C344.776 150.838 340.755 150.055 337.743 150.055C334.73 150.055 311.727 151.064 311.727 151.064Z" fill="white" stroke="#263238" stroke-linecap="round" stroke-linejoin="round"/>
<path d="M308.936 151.416C308.936 151.416 305.51 157.685 305.309 162.779C305.107 167.873 304.301 177.266 301.278 182.948C298.256 188.629 296.039 191.764 297.651 191.166C299.263 190.569 308.523 180.597 309.53 178.432C310.538 176.267 312.15 180.391 312.15 180.391C312.15 180.391 309.127 188.806 308.724 189.981C308.321 191.156 321.41 207.407 321.41 207.407C321.41 207.407 332.695 198.797 335.314 196.838C337.934 194.879 337.128 193.312 337.329 190.765C337.531 188.218 338.337 184.505 339.738 182.35C341.138 180.195 345.189 188.639 348 192.557C350.811 196.475 353.642 197.847 353.239 194.908C352.836 191.97 351.426 186.288 350.418 176.297C349.41 166.305 349.612 154.365 346.992 150.642C344.372 146.92 330.629 146.185 321.611 145.558C319.147 145.291 316.655 145.698 314.416 146.733C312.176 147.768 310.279 149.39 308.936 151.416Z" fill="white" stroke="#263238" stroke-linecap="round" stroke-linejoin="round"/>
<path d="M268.25 184.77L275.504 219.995L266.134 196.574" stroke="#263238" stroke-linecap="round" stroke-linejoin="round"/>
<path d="M309.944 160.859C309.944 160.859 312.765 176.13 315.384 187.875C316.825 194.56 318.847 201.114 321.43 207.466C321.43 207.466 334.73 185.73 338.559 174.377C340.733 168.113 342.417 161.698 343.597 155.188H309.944V160.859Z" stroke="#263238" stroke-linecap="round" stroke-linejoin="round"/>
<path d="M324.644 166.11L317.4 174.926L322.437 184.33L317.48 195.996C318.573 199.876 319.892 203.693 321.43 207.427C321.43 207.427 325.581 200.649 329.904 192.734L326.266 184.574L330.7 174.779L324.644 166.11Z" fill="#00B8CC" stroke="#263238" stroke-linecap="round" stroke-linejoin="round"/>
<path d="M309.944 155.177V160.859C309.944 160.859 311.888 171.399 314.044 181.694L324.241 171.232L334.992 182.81C336.337 180.062 337.524 177.243 338.549 174.367C340.723 168.103 342.407 161.688 343.587 155.177H309.944Z" fill="white" stroke="#263238" stroke-linecap="round" stroke-linejoin="round"/>
<path d="M222.133 241.26C222.133 241.26 240.944 234.58 251.091 250.831" stroke="#263238" stroke-linecap="round" stroke-linejoin="round"/>
<path d="M251.423 245.816C251.423 245.816 240.914 248.128 235.302 256.836C229.69 265.544 241.106 266.514 244.26 266.514C247.413 266.514 250.396 264.457 250.567 263.389C250.738 262.321 254.869 251.997 254.708 249.587C254.689 248.687 254.353 247.821 253.754 247.135C253.156 246.448 252.333 245.982 251.423 245.816Z" fill="white" stroke="#263238" stroke-linecap="round" stroke-linejoin="round"/>
<path d="M246.587 249.42C246.587 249.42 240.773 254.318 241.166 256.277C241.559 258.236 250.184 265.778 251.847 264.691C252.146 264.543 252.413 264.338 252.632 264.09C252.851 263.841 253.017 263.553 253.12 263.242C253.224 262.93 253.264 262.602 253.237 262.276C253.211 261.95 253.118 261.632 252.965 261.341C252.491 260.606 246.587 249.42 246.587 249.42Z" fill="white" stroke="#263238" stroke-linecap="round" stroke-linejoin="round"/>
<path d="M241.196 256.228C241.196 256.228 237.781 259.764 238.899 261.38C240.018 262.997 247.826 267.121 249.852 265.877C251.877 264.633 250.567 263.359 250.567 263.359L241.196 256.228Z" fill="white" stroke="#263238" stroke-linecap="round" stroke-linejoin="round"/>
<path d="M261.207 249.235L254.214 248.06L255.857 257.845L263 258.061L261.207 249.235Z" fill="white" stroke="#263238" stroke-linecap="round" stroke-linejoin="round"/>
<path d="M248.622 233.846L256.814 261.753L260.794 265.27V260.303L252.129 232.876C252.058 232.648 251.941 232.436 251.783 232.253C251.626 232.07 251.433 231.92 251.214 231.812C250.996 231.704 250.757 231.64 250.512 231.624C250.268 231.609 250.022 231.641 249.791 231.72C249.357 231.866 248.995 232.166 248.778 232.56C248.561 232.954 248.506 233.413 248.622 233.846Z" fill="#263238" stroke="#263238" stroke-linecap="round" stroke-linejoin="round"/>
<path d="M251.423 245.816C251.423 245.816 246.587 248.568 247.071 250.654C247.554 252.741 252.773 262.497 254.658 262.625C256.542 262.752 257.68 261.645 257.408 259.529C257.136 257.413 255.393 249.734 254.214 248.059C253.035 246.384 252.904 245.718 251.423 245.816Z" fill="white" stroke="#263238" stroke-linecap="round" stroke-linejoin="round"/>
<path d="M261.207 249.234C261.207 249.234 266.356 249.861 267.252 251.389C268.149 252.917 264.552 259.01 263.403 260.401C262.255 261.792 260.199 261.733 260.139 258.207C260.236 255.192 260.593 252.191 261.207 249.234Z" fill="white" stroke="#263238" stroke-linecap="round" stroke-linejoin="round"/>
<path d="M233.357 261.018H289.852C291.431 261.021 292.944 261.631 294.06 262.717C295.176 263.802 295.805 265.273 295.807 266.807C295.807 268.106 295.276 269.352 294.332 270.27C293.387 271.189 292.105 271.705 290.769 271.705H234.143C232.914 271.705 231.735 271.23 230.866 270.385C229.997 269.54 229.508 268.394 229.508 267.199V264.75C229.508 264.259 229.608 263.773 229.802 263.32C229.995 262.866 230.279 262.454 230.636 262.108C230.994 261.761 231.418 261.486 231.885 261.299C232.352 261.112 232.852 261.017 233.357 261.018Z" fill="white" stroke="#263238" stroke-linecap="round" stroke-linejoin="round"/>
<path d="M333.894 248.392C333.894 248.392 319.193 246.825 315.566 245.649C311.939 244.474 306.095 243.494 304.079 245.061C302.064 246.629 292.2 257.795 291.989 259.157C291.777 260.519 289.772 265.034 290.779 266.21C291.624 267.029 292.662 267.634 293.802 267.973C293.802 267.973 306.901 271.499 308.301 271.695C309.702 271.891 323.203 271.304 323.203 271.304L330.256 268.757L340.121 268.561C340.121 268.561 340.322 271.695 340.524 264.055C340.725 256.414 333.894 248.392 333.894 248.392Z" fill="white" stroke="#263238" stroke-linecap="round" stroke-linejoin="round"/>
<path d="M293.832 267.983C293.832 267.983 294.034 263.477 295.042 261.518C296.049 259.559 307.525 249.577 307.525 249.577" stroke="#263238" stroke-linecap="round" stroke-linejoin="round"/>
<path d="M297.621 269.139C297.621 269.139 299.636 264.241 300.442 263.849C301.248 263.457 310.709 257.58 310.709 257.58" stroke="#263238" stroke-linecap="round" stroke-linejoin="round"/>
<path d="M304.503 270.51C304.503 270.51 304.906 268.551 305.913 268.159C306.921 267.767 315.384 264.045 315.384 264.045" stroke="#263238" stroke-linecap="round" stroke-linejoin="round"/>
<path d="M313.571 271.49L317.4 270.51L316.997 268.747L312.966 269.727" stroke="#263238" stroke-linecap="round" stroke-linejoin="round"/>
<path d="M380.031 185.328C380.031 185.328 369.36 207.065 369.955 214.715C370.549 222.365 373.189 235.07 373.189 235.07C373.189 235.07 356.272 241.525 350.428 243.886C344.584 246.247 333.894 248.392 333.894 248.392L339.324 269.148L338.528 271.304H397.129C397.129 271.304 401.563 270.52 402.369 269.54C403.175 268.561 403.981 268.169 404.384 265.034C404.787 261.9 407.407 234.492 406.802 226.832C406.197 219.172 397.935 179.451 396.928 175.337C395.92 171.223 394.117 168.48 392.303 167.5C390.489 166.521 382.63 165.747 382.63 165.747" fill="white"/>
<path d="M380.031 185.328C380.031 185.328 369.36 207.065 369.955 214.715C370.549 222.365 373.189 235.07 373.189 235.07C373.189 235.07 356.272 241.525 350.428 243.886C344.584 246.247 333.894 248.392 333.894 248.392L339.324 269.148L338.528 271.304H397.129C397.129 271.304 401.563 270.52 402.369 269.54C403.175 268.561 403.981 268.169 404.384 265.034C404.787 261.9 407.407 234.492 406.802 226.832C406.197 219.172 397.935 179.451 396.928 175.337C395.92 171.223 394.117 168.48 392.303 167.5C390.489 166.521 382.63 165.747 382.63 165.747" stroke="#263238" stroke-linecap="round" stroke-linejoin="round"/>
<path d="M374.6 235.462C374.6 235.462 390.106 236.246 397.774 240.938" stroke="#263238" stroke-linecap="round" stroke-linejoin="round"/>
<path d="M377.411 233.502C377.411 233.502 388.293 232.915 394.137 234.678" stroke="#263238" stroke-linecap="round" stroke-linejoin="round"/>
<path d="M374.398 184.721C374.398 184.721 368.957 197.064 368.756 201.765C368.554 206.467 368.151 209.21 368.151 209.21" stroke="#263238" stroke-linecap="round" stroke-linejoin="round"/>
<path d="M349.622 152.043C349.622 152.043 361.904 169.048 352.03 216.469" stroke="#263238" stroke-width="2" stroke-linecap="round" stroke-linejoin="round"/>
<path d="M357.874 217.84C357.874 216.677 357.519 215.541 356.855 214.574C356.191 213.608 355.247 212.855 354.142 212.41C353.037 211.965 351.822 211.849 350.649 212.075C349.476 212.302 348.399 212.862 347.554 213.684C346.708 214.506 346.133 215.553 345.899 216.693C345.666 217.833 345.786 219.015 346.243 220.089C346.701 221.163 347.476 222.081 348.47 222.727C349.464 223.372 350.633 223.717 351.829 223.717C353.432 223.717 354.97 223.098 356.103 221.996C357.237 220.893 357.874 219.398 357.874 217.84Z" fill="white" stroke="#263238" stroke-linecap="round" stroke-linejoin="round"/>
<path d="M307.697 153.806C307.697 153.806 301.46 157.724 300.452 173.583" stroke="#263238" stroke-width="2" stroke-linecap="round" stroke-linejoin="round"/>
<path d="M309.117 197.612C307.596 208.309 305.52 219.799 305.087 222.316C304.079 227.704 297.5 229.584 293.268 227.821" stroke="#263238" stroke-width="2" stroke-linecap="round" stroke-linejoin="round"/>
<path d="M293.339 198.317C291.958 192.322 291.112 187.121 291.414 184.741C292.825 173.779 300.482 173.583 300.482 173.583C300.482 173.583 309.551 174.759 310.145 184.163C310.208 188.666 309.87 193.165 309.137 197.612" stroke="#263238" stroke-width="2" stroke-linecap="round" stroke-linejoin="round"/>
<path d="M310.347 227.038C310.347 227.038 306.115 229.389 303.294 227.821C301.389 226.764 296.24 210.816 293.339 198.317" stroke="#263238" stroke-width="2" stroke-linecap="round" stroke-linejoin="round"/>
<path d="M311.821 224.914L310.156 225.612C309.353 225.949 308.983 226.853 309.329 227.633L309.349 227.678C309.695 228.458 310.626 228.818 311.428 228.482L313.094 227.784C313.896 227.448 314.266 226.543 313.92 225.763L313.9 225.718C313.554 224.938 312.623 224.578 311.821 224.914Z" stroke="#263238" stroke-linecap="round" stroke-linejoin="round"/>
<path d="M293.79 225.977L292.236 225.069C291.487 224.632 290.515 224.868 290.065 225.596L290.039 225.638C289.589 226.366 289.832 227.311 290.581 227.748L292.136 228.656C292.884 229.093 293.856 228.857 294.306 228.129L294.332 228.087C294.782 227.359 294.539 226.414 293.79 225.977Z" stroke="#263238" stroke-linecap="round" stroke-linejoin="round"/>
<path d="M300.482 106.425C300.482 106.425 297.258 113.86 297.863 118.562C298.467 123.263 304.916 128.357 304.916 128.357C304.916 128.357 307.132 107.404 307.132 106.621C307.132 105.837 303.092 104.074 300.482 106.425Z" fill="#263238" stroke="#263238" stroke-linecap="round" stroke-linejoin="round"/>
<path d="M298.165 133.059L302.447 130.15" stroke="#263238" stroke-width="2" stroke-linecap="round" stroke-linejoin="round"/>
<path d="M302.89 107.797C302.89 107.797 302.084 128.554 302.487 132.462C302.89 136.371 304.503 148.909 305.913 152.827C307.324 156.745 311.959 169.274 315.586 170.645C319.213 172.016 326.458 172.996 328.876 171.429C331.294 169.861 340.151 163.994 342.569 158.313C344.003 155 344.952 151.508 345.39 147.939C347.401 146.896 349.138 145.417 350.465 143.616C351.793 141.816 352.677 139.742 353.048 137.556C354.257 130.111 351.033 127.966 351.033 127.966L351.234 115.036C351.234 115.036 349.017 106.034 343.173 101.136C337.329 96.2383 330.488 95.8465 323.435 99.5688C316.382 103.291 302.89 107.797 302.89 107.797Z" fill="white" stroke="#263238" stroke-linecap="round" stroke-linejoin="round"/>
<path d="M340.755 106.621C340.755 106.621 340.957 101.527 335.929 103.291C330.901 105.054 329.682 108.384 322.226 111.323C314.77 114.262 304.906 110.931 301.49 108.972C298.074 107.013 295.646 104.27 300.281 99.1766C304.916 94.0829 315.787 88.999 327.485 88.999C339.183 88.999 348.232 98.3929 352.06 102.311C355.889 106.229 356.494 111.127 355.083 114.644C353.672 118.16 351.053 127.966 351.053 127.966C351.053 127.966 349.441 127.77 348.836 130.111C348.231 132.452 348.433 135.009 345.813 135.204C343.194 135.4 343.395 128.553 343.395 128.553C343.395 128.553 336.957 126.594 336.151 122.088C335.345 117.582 340.755 110.931 340.755 106.621Z" fill="#263238" stroke="#263238" stroke-linecap="round" stroke-linejoin="round"/>
<path d="M316.765 136.253L298.135 133.06L299.213 141.18C299.279 141.685 299.511 142.156 299.874 142.523C300.237 142.89 300.712 143.133 301.228 143.218L312.553 144.951C313.176 145.049 313.813 144.907 314.33 144.556C314.848 144.205 315.204 143.673 315.324 143.071L316.765 136.253Z" stroke="#263238" stroke-width="2" stroke-linecap="round" stroke-linejoin="round"/>
<path d="M320.16 136.596L341.763 135.988L339.647 143.59C339.465 144.101 339.117 144.542 338.656 144.846C338.194 145.15 337.644 145.3 337.088 145.274L323.989 145.451C323.31 145.496 322.637 145.303 322.093 144.905C321.549 144.507 321.171 143.933 321.027 143.286L320.16 136.596Z" stroke="#263238" stroke-width="2" stroke-linecap="round" stroke-linejoin="round"/>
<path d="M316.795 136.253L320.16 136.595" stroke="#263238" stroke-width="2" stroke-linecap="round" stroke-linejoin="round"/>
<path d="M341.763 135.988L348.816 130.11" stroke="#263238" stroke-width="2" stroke-linecap="round" stroke-linejoin="round"/>
<path d="M323.032 134.225C323.032 134.225 329.077 129.729 334.72 132.462" stroke="#263238" stroke-width="2" stroke-linecap="round" stroke-linejoin="round"/>
<path d="M313.974 133.246C313.974 133.246 309.339 128.348 304.1 131.679" stroke="#263238" stroke-width="2" stroke-linecap="round" stroke-linejoin="round"/>
<path d="M315.183 150.28C315.183 150.28 314.175 154.394 315.183 155.178C316.898 156.098 318.878 156.442 320.815 156.157" stroke="#263238" stroke-linecap="round" stroke-linejoin="round"/>
<path d="M312.16 158.273C312.16 158.273 316.19 161.212 320.019 161.408C323.848 161.603 328.271 158.861 328.271 158.861" stroke="#263238" stroke-linecap="round" stroke-linejoin="round"/>
<path d="M327.062 138.339C327.062 138.339 329.48 141.082 333.511 138.144" stroke="#263238" stroke-linecap="round" stroke-linejoin="round"/>
<path d="M307.223 137.134C307.223 137.134 309.238 140.171 313.631 137.791" stroke="#263238" stroke-linecap="round" stroke-linejoin="round"/>
<path d="M182.253 106.601C182.253 106.601 183.533 125.262 182.566 126.819L179.734 131.482C179.734 131.482 181.014 144.862 178.455 146.41C176.472 147.443 174.296 148.079 172.057 148.281C172.057 148.281 169.497 158.233 168.53 159.477C167.563 160.721 161.81 164.767 159.895 165.355C157.981 165.942 151.895 166.334 137.497 157.89C123.098 149.447 117.657 146.694 117.98 142.032C118.302 137.369 118.987 132.079 118.987 132.079C118.987 132.079 120.59 109.677 123.471 102.84C126.353 96.0024 162.827 92.2605 170.827 94.1315C178.828 96.0024 182.253 106.601 182.253 106.601Z" fill="white" stroke="#263238" stroke-linecap="round" stroke-linejoin="round"/>
<path d="M145.134 137.389L147.381 138.947C147.381 138.947 145.457 146.411 146.373 149.839" stroke="#263238" stroke-linecap="round" stroke-linejoin="round"/>
<path d="M177.125 131.139C176.802 132.569 176.026 133.607 175.402 133.47C174.777 133.333 174.525 132.079 174.858 130.649C175.19 129.219 175.956 128.181 176.581 128.318C177.205 128.455 177.457 129.719 177.125 131.139Z" fill="#263238"/>
<path d="M173.86 125.429C173.86 125.429 177.346 122.04 180.258 125.243" stroke="#263238" stroke-linecap="round" stroke-linejoin="round"/>
<path d="M169.457 104.113C169.457 104.113 173.608 111.578 173.296 113.135C172.984 114.693 159.855 118.425 159.855 118.425C159.855 118.425 158.575 125.889 156.651 126.819L154.736 127.75C153.201 125.724 151.913 123.531 150.897 121.216C148.661 116.554 145.457 115.339 141.94 119.972C138.424 124.606 141.295 135.528 143.22 136.458L145.134 137.389C145.134 137.389 143.532 138.946 137.456 139.887C131.381 140.827 126.897 142.061 122.423 140.817C117.95 139.573 111.541 127.75 109.325 112.508C107.108 97.2664 114.121 84.209 123.431 80.183C132.741 76.1571 153.829 79.8696 155.421 80.8001C157.013 81.7307 167.905 76.7644 174.303 79.8696C180.702 82.9747 180.349 86.4032 181.981 88.5778C183.613 90.7524 191.896 87.9607 192.541 95.7383C193.186 103.516 189.981 108.179 185.82 108.796C181.659 109.413 169.457 104.113 169.457 104.113Z" fill="#263238" stroke="#263238" stroke-linecap="round" stroke-linejoin="round"/>
<path d="M93.6972 152.944C93.6972 152.944 63.0365 168.842 57.1926 171.986C51.3486 175.131 50.472 177.952 50.1395 180.802C49.807 183.653 50.1395 279.59 50.1395 279.59H215.755C215.755 279.59 190.636 206.271 189.81 198.082C188.984 189.893 187.19 175.366 184.853 173.662C182.515 171.957 149.507 157.763 149.507 157.763C149.507 157.763 141.618 149.535 122.937 149.535C104.257 149.535 93.6972 152.944 93.6972 152.944Z" fill="#00B8CC" stroke="#263238" stroke-linecap="round" stroke-linejoin="round"/>
<path d="M112.68 211.355C113.546 211.688 114.423 211.992 115.3 212.276" stroke="#263238" stroke-linecap="round" stroke-linejoin="round"/>
<path d="M79.9841 185.024C79.9841 185.024 92.075 201.422 108.589 209.513" stroke="#263238" stroke-linecap="round" stroke-linejoin="round"/>
<path d="M90.483 204.038C90.483 204.038 97.1935 210.571 111.209 214.264" stroke="#263238" stroke-linecap="round" stroke-linejoin="round"/>
<path d="M173.689 180.509C169.024 185.661 162.454 193.899 160.278 201.481" stroke="#263238" stroke-linecap="round" stroke-linejoin="round"/>
<path d="M178.666 175.366C178.666 175.366 177.739 176.238 176.288 177.737" stroke="#263238" stroke-linecap="round" stroke-linejoin="round"/>
<path d="M162.021 192.4C162.021 192.4 157.638 200.629 156.772 205.742" stroke="#263238" stroke-linecap="round" stroke-linejoin="round"/>
<path d="M91.944 154.355C91.944 154.355 108.881 153.787 124.942 154.071C141.003 154.355 151.522 159.184 151.522 159.184C151.522 159.184 141.88 147.831 137.507 145.274C133.134 142.718 119.693 138.418 108.599 141.866C101.765 144.097 95.9001 148.496 91.944 154.355Z" fill="#00B8CC" stroke="#263238" stroke-linecap="round" stroke-linejoin="round"/>
<path d="M43.7817 279.483L28.3456 221.944C28.1958 221.245 28.2081 220.523 28.3817 219.829C28.5553 219.136 28.8858 218.489 29.349 217.935C29.8123 217.382 30.3968 216.935 31.0598 216.629C31.7229 216.323 32.4479 216.164 33.182 216.165H155.996C157.124 216.166 158.218 216.541 159.098 217.228C159.977 217.916 160.589 218.874 160.832 219.946L174.465 279.541" fill="#263238"/>
<path d="M43.7817 279.483L28.3456 221.944C28.1958 221.245 28.2081 220.523 28.3817 219.829C28.5553 219.136 28.8858 218.489 29.349 217.935C29.8123 217.382 30.3968 216.935 31.0598 216.629C31.7229 216.323 32.4479 216.164 33.182 216.165H155.996C157.124 216.166 158.218 216.541 159.098 217.228C159.977 217.916 160.589 218.874 160.832 219.946L174.465 279.541" stroke="#263238" stroke-linecap="round" stroke-linejoin="round"/>
</g>
<defs>
<clipPath id="clip0_174_4631">
<rect width="473" height="280" fill="white"/>
</clipPath>
</defs>
</svg>
