<svg width="16" height="18" viewBox="0 0 16 18" fill="none" xmlns="http://www.w3.org/2000/svg">
<path d="M9.9 0.666016C10.2498 0.666106 10.5907 0.776254 10.8744 0.980855C11.1581 1.18546 11.3703 1.47414 11.4808 1.80602L11.9333 3.16602H14.6667C14.8877 3.16602 15.0996 3.25381 15.2559 3.41009C15.4122 3.56637 15.5 3.77834 15.5 3.99935C15.5 4.22036 15.4122 4.43232 15.2559 4.5886C15.0996 4.74488 14.8877 4.83268 14.6667 4.83268L14.6642 4.89185L13.9417 15.011C13.8966 15.6415 13.6143 16.2315 13.1517 16.6623C12.6891 17.0931 12.0805 17.3326 11.4483 17.3327H4.55167C3.91955 17.3326 3.31092 17.0931 2.84831 16.6623C2.38569 16.2315 2.10342 15.6415 2.05833 15.011L1.33583 4.89102C1.33433 4.87161 1.33349 4.85215 1.33333 4.83268C1.11232 4.83268 0.900358 4.74488 0.744078 4.5886C0.587797 4.43232 0.5 4.22036 0.5 3.99935C0.5 3.77834 0.587797 3.56637 0.744078 3.41009C0.900358 3.25381 1.11232 3.16602 1.33333 3.16602H4.06667L4.51917 1.80602C4.62975 1.47401 4.84203 1.18523 5.12592 0.980612C5.4098 0.775998 5.75089 0.665931 6.10083 0.666016H9.9ZM12.9975 4.83268H3.0025L3.72083 14.8918C3.73579 15.102 3.82981 15.2987 3.98397 15.4424C4.13812 15.586 4.34096 15.6659 4.55167 15.666H11.4483C11.659 15.6659 11.8619 15.586 12.016 15.4424C12.1702 15.2987 12.2642 15.102 12.2792 14.8918L12.9975 4.83268ZM6.33333 7.33268C6.53744 7.33271 6.73445 7.40765 6.88698 7.54328C7.03951 7.67891 7.13695 7.86581 7.16083 8.06852L7.16667 8.16602V12.3327C7.16643 12.5451 7.0851 12.7494 6.93929 12.9038C6.79349 13.0583 6.59421 13.1512 6.38217 13.1637C6.17014 13.1761 5.96135 13.1071 5.79847 12.9708C5.6356 12.8345 5.53092 12.6411 5.50583 12.4302L5.5 12.3327V8.16602C5.5 7.945 5.5878 7.73304 5.74408 7.57676C5.90036 7.42048 6.11232 7.33268 6.33333 7.33268ZM9.66667 7.33268C9.88768 7.33268 10.0996 7.42048 10.2559 7.57676C10.4122 7.73304 10.5 7.945 10.5 8.16602V12.3327C10.5 12.5537 10.4122 12.7657 10.2559 12.9219C10.0996 13.0782 9.88768 13.166 9.66667 13.166C9.44565 13.166 9.23369 13.0782 9.07741 12.9219C8.92113 12.7657 8.83333 12.5537 8.83333 12.3327V8.16602C8.83333 7.945 8.92113 7.73304 9.07741 7.57676C9.23369 7.42048 9.44565 7.33268 9.66667 7.33268ZM9.9 2.33268H6.1L5.8225 3.16602H10.1775L9.9 2.33268Z" fill="#E80055"/>
</svg>
