<svg width="240" height="260" viewBox="0 0 240 260" fill="none" xmlns="http://www.w3.org/2000/svg">
<path d="M192.981 25.7808C150.768 -12.025 73.9736 -11.4167 47.3231 48.8794C40.9635 63.2684 34.5091 77.8734 24.3337 89.3345C15.6896 99.0674 5.94322 108.76 1.98779 122.308C-6.79595 152.439 15.3255 175.225 33.2322 192.582C50.236 209.068 59.8528 233.901 78.0737 248.563C89.3364 257.63 103.223 261.201 116.845 259.649C130.811 258.062 141.286 248.182 153.601 241.57C162.938 236.55 172.779 235.356 182.471 231.905C190.756 228.938 198.891 223.008 205.655 216.789C220.439 203.19 231.093 184.105 236.301 163.349C248.795 113.331 228.465 57.5662 192.981 25.7808Z" fill="#00B8CC"/>
<path opacity="0.7" d="M192.981 25.7808C150.768 -12.025 73.9736 -11.4167 47.3231 48.8794C40.9635 63.2684 34.5091 77.8734 24.3337 89.3345C15.6896 99.0674 5.94322 108.76 1.98779 122.308C-6.79595 152.439 15.3255 175.225 33.2322 192.582C50.236 209.068 59.8528 233.901 78.0737 248.563C89.3364 257.63 103.223 261.201 116.845 259.649C130.811 258.062 141.286 248.182 153.601 241.57C162.938 236.55 172.779 235.356 182.471 231.905C190.756 228.938 198.891 223.008 205.655 216.789C220.439 203.19 231.093 184.105 236.301 163.349C248.795 113.331 228.465 57.5662 192.981 25.7808Z" fill="white"/>
<path d="M70.3414 218.386L72.0132 180.469C72.0132 180.469 65.5934 200.121 62.2498 205.1C58.9061 210.079 56.3984 212.021 51.6588 211.191C46.9192 210.361 38 195.963 38 188.785C38 181.606 45.5232 163.324 47.195 159.175C48.8668 155.026 57.7944 119.872 58.8978 117.931C60.0012 115.989 96.2547 105.142 96.2547 105.142L98.7624 99.8809C98.7624 99.8809 135.843 95.7316 138.351 96.0138C140.859 96.2959 140.583 100.437 140.583 100.437C140.583 100.437 145.105 104.321 145.665 105.151C146.225 105.98 166.789 115.997 173.2 118.213C179.612 120.428 180.172 122.636 180.448 123.748C180.723 124.86 197.458 162.221 203.594 168.561C209.73 174.901 194.115 187.1 188.815 189.307C183.515 191.515 176.276 190.411 173.769 186.544C171.261 182.677 165.167 177.698 165.167 177.698L166.195 219" fill="white"/>
<path d="M70.3414 218.386L72.0132 180.469C72.0132 180.469 65.5934 200.121 62.2498 205.1C58.9061 210.079 56.3984 212.021 51.6588 211.191C46.9192 210.361 38 195.963 38 188.785C38 181.606 45.5232 163.324 47.195 159.175C48.8668 155.026 57.7944 119.872 58.8978 117.931C60.0012 115.989 96.2547 105.142 96.2547 105.142L98.7624 99.8809C98.7624 99.8809 135.843 95.7316 138.351 96.0138C140.859 96.2959 140.583 100.437 140.583 100.437C140.583 100.437 145.105 104.321 145.665 105.151C146.225 105.98 166.789 115.997 173.2 118.213C179.612 120.428 180.172 122.636 180.448 123.748C180.723 124.86 197.458 162.221 203.594 168.561C209.73 174.901 194.115 187.1 188.815 189.307C183.515 191.515 176.276 190.411 173.769 186.544C171.261 182.677 165.167 177.698 165.167 177.698L166.195 219" stroke="#263238" stroke-linecap="round" stroke-linejoin="round"/>
<path d="M72.285 180.941L71.8603 153.173" stroke="#263238" stroke-linecap="round" stroke-linejoin="round"/>
<path d="M69.9114 167.157L70.5527 171.746" stroke="#263238" stroke-linecap="round" stroke-linejoin="round"/>
<path d="M67.2961 148.609L69.3033 162.826" stroke="#263238" stroke-linecap="round" stroke-linejoin="round"/>
<path d="M162.058 160.736C161.844 161.996 161.733 163.272 161.725 164.55" stroke="#263238" stroke-linecap="round" stroke-linejoin="round"/>
<path d="M169.504 140.664C166.707 145.899 164.474 151.415 162.841 157.121" stroke="#263238" stroke-linecap="round" stroke-linejoin="round"/>
<path d="M161.167 149.551C161.167 149.551 158.943 157.046 159.226 163.16" stroke="#263238" stroke-linecap="round" stroke-linejoin="round"/>
<path d="M129.977 114.771C129.294 115.437 128.577 116.095 127.836 116.719" stroke="#263238" stroke-linecap="round" stroke-linejoin="round"/>
<path d="M140.054 101.995C137.8 105.713 135.192 109.205 132.267 112.422" stroke="#263238" stroke-linecap="round" stroke-linejoin="round"/>
<path d="M115.668 212.747L115.61 219.268" stroke="#263238" stroke-linecap="round" stroke-linejoin="round"/>
<path d="M116.318 137.216L115.702 208.749" stroke="#263238" stroke-linecap="round" stroke-linejoin="round"/>
<path d="M115.335 113.38L116.443 118.66L116.351 133.218" stroke="#263238" stroke-linecap="round" stroke-linejoin="round"/>
<path d="M59.2259 187.329L53.396 177.334L53.1128 188.728C53.1128 188.728 57.2854 189.827 59.2259 187.329Z" fill="white" stroke="#263238" stroke-linecap="round" stroke-linejoin="round"/>
<path d="M70.336 140.272L66.1551 144.345L36.4473 112.697L40.6282 108.624L70.336 140.272Z" fill="#263238" stroke="#263238" stroke-linecap="round" stroke-linejoin="round"/>
<path d="M40.1845 106.562L34.4106 112.189L36.0672 113.889L41.8411 108.262L40.1845 106.562Z" fill="white" stroke="#263238" stroke-linecap="round" stroke-linejoin="round"/>
<path d="M69.8154 140.778L66.6959 143.818L69.2185 146.407L72.3381 143.367L69.8154 140.778Z" fill="white" stroke="#263238" stroke-linecap="round" stroke-linejoin="round"/>
<path d="M68.4788 139.515C68.3418 139.653 68.1789 139.762 67.9995 139.837C67.8202 139.911 67.6278 139.95 67.4336 139.95C67.2393 139.95 67.0469 139.911 66.8676 139.837C66.6882 139.762 66.5253 139.653 66.3883 139.515L43.7598 115.146C43.622 115.009 43.5127 114.846 43.4381 114.666C43.3635 114.487 43.3251 114.295 43.3251 114.1C43.3251 113.906 43.3635 113.714 43.4381 113.534C43.5127 113.355 43.622 113.192 43.7598 113.055C43.8967 112.917 44.0596 112.808 44.239 112.734C44.4184 112.659 44.6107 112.621 44.805 112.621C44.9993 112.621 45.1916 112.659 45.371 112.734C45.5504 112.808 45.7132 112.917 45.8502 113.055L68.4788 137.416C68.6168 137.554 68.7263 137.717 68.801 137.897C68.8757 138.078 68.9141 138.271 68.9141 138.466C68.9141 138.66 68.8757 138.854 68.801 139.034C68.7263 139.214 68.6168 139.377 68.4788 139.515Z" fill="white" stroke="#263238" stroke-linecap="round" stroke-linejoin="round"/>
<path d="M70.1982 145.438L71.3378 144.328L87.3574 160.778C87.4238 160.846 87.4761 160.927 87.5114 161.015C87.5466 161.104 87.5641 161.198 87.5628 161.293C87.5616 161.388 87.5416 161.482 87.504 161.57C87.4664 161.657 87.412 161.736 87.3438 161.803L87.2484 161.896C87.1091 162.031 86.9217 162.106 86.7273 162.103C86.5329 162.101 86.3476 162.021 86.212 161.882L70.1982 145.438Z" fill="white" stroke="#263238" stroke-linecap="round" stroke-linejoin="round"/>
<path d="M42.5607 151.216L38.6713 139.273L40.895 126.214C40.895 126.214 47.0081 119.277 47.841 118.993C48.6738 118.71 56.1695 118.719 56.1695 118.719C56.1695 118.719 57.5603 118.16 57.5603 119.551C57.586 119.918 57.5238 120.285 57.379 120.623C57.2341 120.96 57.0108 121.258 56.7275 121.492C56.7275 121.492 59.784 121.775 60.6169 121.775C61.4497 121.775 62.2826 122.333 62.2826 123.716C62.2826 125.098 60.0589 125.664 59.226 125.939C58.3932 126.214 55.3366 127.33 55.3366 127.33L50.6144 132.61H55.8946C56.9295 132.69 57.9536 132.874 58.9512 133.16C59.5009 133.993 59.784 137.05 59.784 137.05C60.7113 138.55 61.1909 140.283 61.1666 142.047C61.1666 145.095 61.9994 146.769 61.1666 147.044C60.3337 147.319 58.3932 148.709 58.3932 147.319C58.381 146.388 58.289 145.46 58.1183 144.545L55.0618 145.095L53.9458 147.319C53.9458 147.319 56.4443 152.874 56.4443 155.097C56.4443 157.321 55.3366 164.817 55.3366 164.817L54.2289 185.93C51.7167 185.771 49.2615 185.111 47.0081 183.989C42.8438 182.04 38.3964 174.828 38.3964 174.828L43.3935 157.604L42.5607 151.216Z" fill="#00B8CC" stroke="#263238" stroke-linecap="round" stroke-linejoin="round"/>
<path d="M46.7249 171.213C44.3846 170.83 42.2275 169.031 40.5951 167.24L38.3964 174.828C38.3964 174.828 42.8355 182.048 46.9998 183.989C49.2563 185.11 51.7141 185.77 54.2289 185.929L55.0618 169.939C52.8297 170.797 49.5983 171.696 46.7249 171.213Z" fill="#D1D1D1" stroke="#263238" stroke-linecap="round" stroke-linejoin="round"/>
<path d="M50.3393 142.055C50.3393 142.055 50.889 140.664 51.7218 140.389C52.5547 140.114 60.0503 138.174 60.0503 138.174" stroke="#263238" stroke-linecap="round" stroke-linejoin="round"/>
<path d="M47.0079 137.049L47.8408 134.276L50.6142 132.602" stroke="#263238" stroke-linecap="round" stroke-linejoin="round"/>
<path d="M43.6683 132.052C43.6683 132.052 47.2828 125.664 48.3905 124.557C49.4982 123.449 55.8862 122.058 56.7191 121.5" stroke="#263238" stroke-linecap="round" stroke-linejoin="round"/>
<path d="M54.2288 185.938L59.2259 187.329C59.2259 187.329 60.6168 207.051 60.6168 209.549C60.6168 212.048 54.7868 215.104 48.3905 215.662C41.9942 216.22 32 211.215 32 206.776C32 202.337 38.6212 172.071 38.6212 172.071C38.6212 172.071 43.3934 184.547 54.2288 185.938Z" fill="white" stroke="#263238" stroke-linecap="round" stroke-linejoin="round"/>
<path d="M130.06 173.437C127.682 173.382 125.332 172.914 123.114 172.054C120.525 171.001 117.822 170.255 115.06 169.831C113.395 169.547 110.338 170.938 108.114 169.547C105.891 168.157 103.95 167.049 107.556 165.658C111.163 164.267 117.001 165.941 119.216 166.216C121.432 166.491 125.604 165.658 125.604 165.658L130.06 173.437Z" fill="#00B8CC" stroke="#263238" stroke-linecap="round" stroke-linejoin="round"/>
<path d="M93.3896 176.218C104.893 176.218 114.219 172.799 114.219 168.581C114.219 164.363 104.893 160.944 93.3896 160.944C81.8857 160.944 72.56 164.363 72.56 168.581C72.56 172.799 81.8857 176.218 93.3896 176.218Z" fill="#263238" stroke="#263238" stroke-linecap="round" stroke-linejoin="round"/>
<path d="M93.3893 175.111C104.13 175.111 112.836 172.187 112.836 168.581C112.836 164.975 104.13 162.052 93.3893 162.052C82.649 162.052 73.9423 164.975 73.9423 168.581C73.9423 172.187 82.649 175.111 93.3893 175.111Z" fill="white" stroke="#263238" stroke-linecap="round" stroke-linejoin="round"/>
<path d="M155.337 193.442C155.337 193.442 154.621 180.866 154.621 178.909C154.621 176.951 163.74 180.216 163.74 180.216C163.74 180.216 158.985 192.326 155.337 193.442Z" fill="white" stroke="#263238" stroke-linecap="round" stroke-linejoin="round"/>
<path d="M160.092 168.165C160.092 168.165 150.098 165.383 147.317 164.275C144.535 163.168 130.926 157.054 128.427 155.38C125.929 153.706 118.7 153.165 118.7 153.165C118.7 153.165 112.312 150.383 111.479 150.383C110.646 150.383 98.703 155.106 96.2045 156.213C93.7059 157.321 93.9808 159.828 95.0885 160.661C96.1962 161.494 107.04 156.496 107.04 156.496L103.983 164.825C103.983 164.825 100.094 167.882 101.485 169.822C102.876 171.763 107.048 168.431 108.431 167.598C109.813 166.765 117.875 162.876 117.875 162.876C117.875 162.876 110.654 170.93 109.264 173.153C107.873 175.377 111.212 175.377 112.32 174.819C113.428 174.261 121.207 168.431 121.207 168.431C121.207 168.431 132.6 176.21 135.657 176.21C138.713 176.21 143.71 174.261 143.71 174.261L160.925 183.997C160.925 183.997 163.699 179.275 163.982 175.935C164.265 172.595 164.257 168.44 164.257 168.44L160.092 168.165Z" fill="#00B8CC" stroke="#263238" stroke-linecap="round" stroke-linejoin="round"/>
<path d="M103.95 164.825L110.338 159.27L115.61 156.771" stroke="#263238" stroke-linecap="round" stroke-linejoin="round"/>
<path d="M107.007 156.497L108.389 153.44" stroke="#263238" stroke-linecap="round" stroke-linejoin="round"/>
<path d="M112.836 158.437L113.944 155.105" stroke="#263238" stroke-linecap="round" stroke-linejoin="round"/>
<path d="M121.165 168.44L128.669 166.491" stroke="#263238" stroke-linecap="round" stroke-linejoin="round"/>
<path d="M117.834 162.884L121.723 160.661" stroke="#263238" stroke-linecap="round" stroke-linejoin="round"/>
<path d="M157.119 167.332C158.115 170.19 158.279 173.271 157.594 176.219C157.182 177.904 156.537 179.524 155.679 181.032L160.925 183.997C160.925 183.997 163.699 179.275 163.982 175.935C164.265 172.596 164.257 168.44 164.257 168.44L160.093 168.165L157.119 167.332Z" fill="#D1D1D1" stroke="#263238" stroke-linecap="round" stroke-linejoin="round"/>
<path d="M191.741 158.162C191.741 158.162 184.245 160.103 181.18 161.777C178.115 163.451 165.906 165.108 164.798 165.658C163.69 166.207 157.136 167.323 157.136 167.323C157.136 167.323 160.351 173.986 158.685 179.267C157.019 184.547 155.354 193.425 155.354 193.425C155.354 193.425 169.512 197.314 181.738 194.258C193.965 191.201 202.018 182.315 204.225 181.199C206.432 180.083 207.557 175.369 207.557 173.145C207.557 170.921 200.336 162.868 198.67 162.318" fill="white"/>
<path d="M191.741 158.162C191.741 158.162 184.245 160.103 181.18 161.777C178.115 163.451 165.906 165.108 164.798 165.658C163.69 166.207 157.136 167.323 157.136 167.323C157.136 167.323 160.351 173.986 158.685 179.267C157.019 184.547 155.354 193.425 155.354 193.425C155.354 193.425 169.512 197.314 181.738 194.258C193.965 191.201 202.018 182.315 204.225 181.199C206.432 180.083 207.557 175.369 207.557 173.145C207.557 170.921 200.336 162.868 198.67 162.318" stroke="#263238" stroke-linecap="round" stroke-linejoin="round"/>
<path d="M112.004 41.1633C112.004 41.1633 103.95 43.6618 99.2277 48.1093C94.5054 52.5567 94.5054 69.7634 94.5054 71.9954C94.5054 74.2275 93.6726 87.5531 94.2223 91.4425C94.7719 95.3319 105.882 111.714 113.378 111.997C120.874 112.28 132.533 103.386 134.482 100.604C136.831 97.2761 138.877 93.7446 140.595 90.0517C141.703 87.2699 143.094 77.2757 143.377 74.2275C143.528 71.6367 143.528 69.0394 143.377 66.4487C143.377 66.4487 145.043 58.395 141.986 53.123C138.93 47.8511 130.326 41.4631 123.372 40.3471C116.418 39.2311 112.004 41.1633 112.004 41.1633Z" fill="white" stroke="#263238" stroke-linecap="round" stroke-linejoin="round"/>
<path d="M94.5055 67.8309C94.5055 67.8309 100.335 62.8338 113.395 62.5506C121.225 62.4139 128.867 64.9621 135.049 69.7715C135.049 69.7715 136.998 68.3806 136.44 75.8846C135.882 83.3886 135.049 85.046 128.944 87.2697C122.839 89.4934 109.222 91.1591 103.392 89.4934C97.5621 87.8277 94.4805 81.448 94.2307 79.4992C93.9808 77.5503 94.5055 67.8309 94.5055 67.8309Z" fill="#D1D1D1" stroke="#263238" stroke-linecap="round" stroke-linejoin="round"/>
<path d="M94.5056 65.3327C101.912 68.2788 109.864 69.6022 117.825 69.2138C131.434 68.6641 142.295 64.6914 143.685 64.4165C145.076 64.1417 143.969 66.5903 143.969 66.5903L136.156 70.6046C136.156 70.6046 136.156 78.1003 134.491 80.5988C132.825 83.0974 129.219 84.7631 125.329 84.7631C121.44 84.7631 117.834 82.5477 115.602 80.5988C114.677 79.766 112.553 80.0408 111.712 81.1568C110.871 82.2729 109.772 83.9302 106.157 83.6554C102.543 83.3806 98.3866 82.5394 96.7126 80.324C95.0386 78.1086 94.4972 71.9955 94.4972 71.9955C94.4972 71.9955 94.2224 66.4404 94.5056 65.3327Z" fill="white" stroke="#263238" stroke-linecap="round" stroke-linejoin="round"/>
<path d="M105.274 107.658C106.119 109.98 107.592 112.022 109.53 113.555C112.803 116.17 114.769 117.152 118.367 116.17C121.965 115.187 133.425 109.299 129.493 109.948C127.167 110.342 124.871 110.899 122.622 111.614C122.622 111.614 129.827 107.683 134.407 103.427C135.707 102.265 136.622 100.735 137.031 99.041C137.44 97.3465 137.324 95.5677 136.698 93.9409C136.698 93.9409 104.949 103.735 102.626 102.419C100.302 101.103 105.274 107.658 105.274 107.658Z" fill="#263238"/>
<path d="M143.436 74.219C143.519 73.2695 143.552 72.1535 143.552 71.0708C142.819 71.962 139.596 75.868 137.88 77.8252C135.932 80.0489 131.484 83.6552 113.986 82.8223C96.4877 81.9895 94.264 79.4909 94.264 79.4909C94.0891 84.0133 93.9642 89.2353 94.264 91.434C94.822 95.3234 105.924 111.706 113.42 111.989C120.915 112.272 132.575 103.377 134.524 100.595C136.873 97.2676 138.919 93.736 140.637 90.0431L138.413 93.3745L139.246 79.7658L143.436 74.219Z" fill="#00B8CC" stroke="#263238" stroke-linecap="round" stroke-linejoin="round"/>
<path d="M111.171 74.769C111.171 74.769 107.839 70.6048 100.893 71.7208" stroke="#263238" stroke-linecap="round" stroke-linejoin="round"/>
<path d="M119.783 74.7687C119.783 74.7687 124.222 72.2701 131.726 73.3861" stroke="#263238" stroke-linecap="round" stroke-linejoin="round"/>
<path d="M101.726 76.9927C101.726 76.9927 104.225 81.1569 109.222 78.6584" stroke="#263238" stroke-linecap="round" stroke-linejoin="round"/>
<path d="M120.89 78.9414C120.89 78.9414 123.672 83.3805 130.335 78.9414" stroke="#263238" stroke-linecap="round" stroke-linejoin="round"/>
<path d="M43.5554 219.566L214 219" stroke="#263238" stroke-linecap="round" stroke-linejoin="round"/>
<path d="M30 219.611L40.4589 219.576" stroke="#263238" stroke-linecap="round" stroke-linejoin="round"/>
<path d="M149.769 215.469L144.041 193.225V187.145H135.934V193.225L130.206 215.469C130.117 215.82 130.109 216.187 130.184 216.541C130.259 216.896 130.414 217.229 130.638 217.514C130.862 217.799 131.148 218.028 131.475 218.185C131.802 218.341 132.16 218.421 132.523 218.416H147.487C147.847 218.416 148.202 218.334 148.525 218.175C148.848 218.017 149.13 217.787 149.351 217.502C149.571 217.218 149.723 216.886 149.796 216.534C149.868 216.181 149.859 215.817 149.769 215.469Z" fill="white" stroke="#263238" stroke-miterlimit="10"/>
<path d="M145.084 204.228H134.897L131.892 215.903C131.865 215.994 131.861 216.09 131.88 216.183C131.899 216.276 131.941 216.363 132.002 216.436C132.057 216.514 132.131 216.577 132.217 216.619C132.303 216.662 132.398 216.682 132.494 216.679H147.487C147.582 216.681 147.676 216.66 147.761 216.618C147.845 216.575 147.919 216.513 147.974 216.436C148.035 216.363 148.078 216.277 148.098 216.184C148.118 216.091 148.115 215.994 148.089 215.903L145.084 204.228Z" fill="#00B8CC"/>
<path d="M161.276 197.372V184.539H153.747V197.372C151.357 198.255 149.354 199.951 148.088 202.162C146.822 204.374 146.374 206.96 146.823 209.469C147.271 211.977 148.588 214.248 150.542 215.883C152.496 217.519 154.963 218.415 157.511 218.415C160.059 218.415 162.527 217.519 164.481 215.883C166.435 214.248 167.751 211.977 168.2 209.469C168.649 206.96 168.201 204.374 166.935 202.162C165.669 199.951 163.666 198.255 161.276 197.372Z" fill="white" stroke="#263238" stroke-miterlimit="10"/>
<path d="M148.217 204.807C147.949 205.699 147.812 206.626 147.811 207.558C147.811 210.131 148.833 212.598 150.652 214.417C152.472 216.236 154.939 217.258 157.511 217.258C160.084 217.258 162.551 216.236 164.37 214.417C166.189 212.598 167.211 210.131 167.211 207.558C167.213 206.626 167.078 205.7 166.812 204.807H148.217Z" fill="#00B8CC"/>
<path d="M172.087 204.535V181H167.119V204.535C165.542 205.118 164.22 206.237 163.386 207.696C162.551 209.155 162.255 210.861 162.551 212.516C162.848 214.171 163.716 215.668 165.005 216.747C166.295 217.826 167.922 218.417 169.603 218.417C171.284 218.417 172.912 217.826 174.201 216.747C175.49 215.668 176.358 214.171 176.655 212.516C176.951 210.861 176.655 209.155 175.821 207.696C174.986 206.237 173.664 205.118 172.087 204.535Z" fill="white" stroke="#263238" stroke-miterlimit="10"/>
<path d="M163.465 209.435C163.206 210.314 163.139 211.238 163.268 212.145C163.398 213.052 163.72 213.921 164.214 214.693C164.709 215.464 165.363 216.121 166.132 216.618C166.902 217.115 167.77 217.441 168.676 217.574C169.583 217.706 170.508 217.643 171.388 217.387C172.268 217.132 173.082 216.69 173.777 216.093C174.472 215.495 175.03 214.755 175.414 213.923C175.798 213.091 175.998 212.187 176.003 211.27C176.003 210.656 175.914 210.046 175.736 209.458L163.465 209.435Z" fill="#00B8CC"/>
</svg>
