<svg width="240" height="260" viewBox="0 0 240 260" fill="none" xmlns="http://www.w3.org/2000/svg">
<path d="M239.63 126.956C240.453 115.951 239.902 104.888 237.989 94.0129C236.173 84.2493 233.026 74.7668 228.631 65.8182C206.561 20.8218 154.215 -8.01921 103.38 1.98311C75.3065 7.49703 40.956 26.6728 32.0589 54.9659C25.7675 74.9635 28.4597 96.8647 18.4324 115.865C8.13881 135.441 -2.27719 152.777 0.436586 175.844C3.31592 200.554 20.4984 222.14 41.863 235.696C68.3889 252.554 103.366 261.854 134.945 259.69C196.987 255.448 235.613 186.436 239.63 126.956Z" fill="#00B8CC"/>
<path opacity="0.7" d="M239.63 126.956C240.453 115.951 239.902 104.888 237.989 94.0129C236.173 84.2493 233.026 74.7668 228.631 65.8182C206.561 20.8218 154.215 -8.01921 103.38 1.98311C75.3065 7.49703 40.956 26.6728 32.0589 54.9659C25.7675 74.9635 28.4597 96.8647 18.4324 115.865C8.13881 135.441 -2.27719 152.777 0.436586 175.844C3.31592 200.554 20.4984 222.14 41.863 235.696C68.3889 252.554 103.366 261.854 134.945 259.69C196.987 255.448 235.613 186.436 239.63 126.956Z" fill="white"/>
<path opacity="0.2" d="M120.474 211C170.18 211 210.474 170.706 210.474 121C210.474 71.2944 170.18 31 120.474 31C70.7685 31 30.4741 71.2944 30.4741 121C30.4741 170.706 70.7685 211 120.474 211Z" fill="#263238"/>
<path d="M120.474 203.937C166.28 203.937 203.412 166.805 203.412 121C203.412 75.1948 166.28 38.0625 120.474 38.0625C74.6694 38.0625 37.537 75.1948 37.537 121C37.537 166.805 74.6694 203.937 120.474 203.937Z" fill="#00B8CC" stroke="#263238" stroke-miterlimit="10"/>
<g opacity="0.2">
<path d="M120.474 123.713C120.112 123.715 119.754 123.645 119.42 123.506C119.086 123.367 118.783 123.162 118.53 122.903L66.3621 69.3259C65.8857 68.8057 65.6307 68.1204 65.6511 67.4153C65.6714 66.7102 65.9656 66.0407 66.4711 65.5488C66.9767 65.0569 67.654 64.7813 68.3594 64.7803C69.0648 64.7793 69.7428 65.053 70.2498 65.5435L122.426 119.08C122.799 119.462 123.051 119.946 123.15 120.471C123.25 120.996 123.192 121.538 122.984 122.03C122.777 122.522 122.429 122.942 121.983 123.237C121.538 123.532 121.016 123.689 120.482 123.689L120.474 123.713Z" fill="#263238"/>
</g>
<path opacity="0.2" d="M97.0753 139.369C96.4915 139.372 95.9225 139.186 95.4526 138.84C94.9827 138.494 94.637 138.005 94.467 137.447C94.2969 136.888 94.3114 136.29 94.5085 135.74C94.7055 135.191 95.0745 134.719 95.5607 134.396L118.968 118.74C119.566 118.361 120.289 118.231 120.982 118.378C121.674 118.525 122.282 118.937 122.676 119.526C123.069 120.115 123.216 120.834 123.087 121.53C122.957 122.226 122.56 122.844 121.981 123.252L98.5818 138.908C98.1361 139.207 97.612 139.367 97.0753 139.369Z" fill="#263238"/>
<path d="M123.836 121C123.837 120.335 123.641 119.684 123.273 119.131C122.905 118.577 122.38 118.145 121.766 117.889C121.152 117.633 120.476 117.566 119.824 117.694C119.171 117.823 118.571 118.143 118.101 118.612C117.63 119.082 117.309 119.681 117.178 120.333C117.048 120.986 117.114 121.662 117.368 122.277C117.622 122.891 118.053 123.417 118.606 123.786C119.159 124.156 119.809 124.353 120.474 124.353C121.364 124.353 122.218 124 122.848 123.372C123.478 122.743 123.833 121.89 123.836 121Z" fill="#263238" stroke="#263238" stroke-miterlimit="10" stroke-linecap="round"/>
<path d="M120.539 45.4814V56.691" stroke="#263238" stroke-width="2" stroke-miterlimit="10" stroke-linecap="round"/>
<path d="M120.539 184.434V195.644" stroke="#263238" stroke-width="2" stroke-miterlimit="10" stroke-linecap="round"/>
<path d="M195.62 120.562H184.402" stroke="#263238" stroke-width="2" stroke-miterlimit="10" stroke-linecap="round"/>
<path d="M56.6677 120.562H45.4582" stroke="#263238" stroke-width="2" stroke-miterlimit="10" stroke-linecap="round"/>
<path d="M159.91 56.6343L154.03 66.1834" stroke="#263238" stroke-width="2" stroke-miterlimit="10" stroke-linecap="round"/>
<path d="M87.04 174.942L81.1599 184.491" stroke="#263238" stroke-width="2" stroke-miterlimit="10" stroke-linecap="round"/>
<path d="M186.589 84.8687L176.724 90.198" stroke="#263238" stroke-width="2" stroke-miterlimit="10" stroke-linecap="round"/>
<path d="M64.3455 150.927L54.4805 156.257" stroke="#263238" stroke-width="2" stroke-miterlimit="10" stroke-linecap="round"/>
<path d="M184.467 159.941L174.918 154.053" stroke="#263238" stroke-width="2" stroke-miterlimit="10" stroke-linecap="round"/>
<path d="M66.1599 87.072L56.6107 81.1919" stroke="#263238" stroke-width="2" stroke-miterlimit="10" stroke-linecap="round"/>
<path d="M156.233 186.621L150.903 176.748" stroke="#263238" stroke-width="2" stroke-miterlimit="10" stroke-linecap="round"/>
<path d="M90.1745 64.3772L84.8451 54.5122" stroke="#263238" stroke-width="2" stroke-miterlimit="10" stroke-linecap="round"/>
<path d="M120.18 235.942C155.835 235.942 184.74 232.526 184.74 228.312C184.74 224.099 155.835 220.683 120.18 220.683C84.5241 220.683 55.6196 224.099 55.6196 228.312C55.6196 232.526 84.5241 235.942 120.18 235.942Z" fill="#00B8CC"/>
<path opacity="0.5" d="M120.18 235.942C155.835 235.942 184.74 232.526 184.74 228.312C184.74 224.099 155.835 220.683 120.18 220.683C84.5241 220.683 55.6196 224.099 55.6196 228.312C55.6196 232.526 84.5241 235.942 120.18 235.942Z" fill="white"/>
<path d="M135.944 114.792C135.855 112.994 135.944 110.224 136.017 108.628C136.232 107.338 136.341 106.032 136.341 104.724C136.341 87.3593 129.643 85.9014 121.365 85.9014C113.088 85.9014 106.39 88.6876 106.39 104.724C106.39 105.145 106.39 105.534 106.43 105.98C106.503 106.676 107.183 113.334 106.56 115.845C105.896 118.493 100.591 119.028 97.5452 125.386C94.4998 131.744 101.125 141.026 122.726 142.216C144.327 143.407 146.571 128.974 146.571 124.074C146.571 119.174 136.082 117.44 135.944 114.792Z" fill="#263238"/>
<path d="M105.863 106.045L106.398 105.988V105.915L105.863 106.045Z" fill="#263238"/>
<path d="M108.908 129.897C108.908 129.897 100.169 130.375 97.0672 132.116C93.9652 133.858 93.382 144.136 93.382 144.136L84.084 164.092C84.084 164.092 59.0812 146.655 56.9511 144.913C54.821 143.172 54.2378 141.811 52.0915 140.45C49.9452 139.09 49.1838 139.098 46.4705 139.098C43.7573 139.098 43.3685 139.487 43.5629 140.256C43.7573 141.025 44.7292 141.228 45.4986 141.228C46.3493 141.296 47.1939 141.426 48.0256 141.617L40.2664 144.719C38.3307 145.488 38.7195 142.386 36.9781 142.386C35.2367 142.386 35.423 146.849 38.3307 148.979C41.2384 151.109 43.1903 150.526 45.4986 150.332C47.8069 150.137 53.2578 149.368 53.2578 149.368C53.2578 149.368 68.1768 162.545 73.6034 167.389C79.03 172.232 86.3923 176.881 89.1056 174.946C91.8188 173.01 102.065 154.017 102.065 154.017L108.649 136.579C108.649 136.579 110.488 132.918 108.908 129.897Z" fill="white"/>
<mask id="mask0_316_4812" style="mask-type:luminance" maskUnits="userSpaceOnUse" x="35" y="129" width="75" height="47">
<path d="M108.909 129.897C108.909 129.897 100.17 130.375 97.0676 132.117C93.9656 133.858 93.3824 144.136 93.3824 144.136L84.0844 164.093C84.0844 164.093 59.0816 146.655 56.9515 144.914C54.8214 143.172 54.2382 141.812 52.0919 140.451C49.9456 139.09 49.1842 139.098 46.4709 139.098C43.7577 139.098 43.3689 139.487 43.5633 140.257C43.7577 141.026 44.7296 141.228 45.499 141.228C46.3497 141.296 47.1943 141.426 48.026 141.617L40.2668 144.719C38.3311 145.489 38.7199 142.387 36.9785 142.387C35.2371 142.387 35.4234 146.849 38.3311 148.98C41.2388 151.11 43.1907 150.527 45.499 150.332C47.8073 150.138 53.2582 149.368 53.2582 149.368C53.2582 149.368 68.1772 162.546 73.6038 167.389C79.0304 172.233 86.3927 176.882 89.106 174.946C91.8192 173.01 102.065 154.017 102.065 154.017L108.65 136.579C108.65 136.579 110.488 132.919 108.909 129.897Z" fill="white"/>
</mask>
<g mask="url(#mask0_316_4812)">
<path opacity="0.1" d="M108.909 129.897C108.909 129.897 100.17 130.375 97.0676 132.117C93.9656 133.858 93.3824 144.136 93.3824 144.136L84.0844 164.093C84.0844 164.093 59.0816 146.655 56.9515 144.914C54.8214 143.172 54.2382 141.812 52.0919 140.451C49.9456 139.09 49.1842 139.098 46.4709 139.098C43.7577 139.098 43.3689 139.487 43.5633 140.257C43.7577 141.026 44.7296 141.228 45.499 141.228C46.3497 141.296 47.1943 141.426 48.026 141.617L40.2668 144.719C38.3311 145.489 38.7199 142.387 36.9785 142.387C35.2371 142.387 35.4234 146.849 38.3311 148.98C41.2388 151.11 43.1907 150.527 45.499 150.332C47.8073 150.138 53.2582 149.368 53.2582 149.368C53.2582 149.368 68.1772 162.546 73.6038 167.389C79.0304 172.233 86.3927 176.882 89.106 174.946C91.8192 173.01 102.065 154.017 102.065 154.017L108.65 136.579C108.65 136.579 110.488 132.919 108.909 129.897Z" fill="black"/>
</g>
<path d="M108.908 129.897C108.908 129.897 100.169 130.375 97.0672 132.116C93.9652 133.858 93.382 144.136 93.382 144.136L84.084 164.092C84.084 164.092 59.0812 146.655 56.9511 144.913C54.821 143.172 54.2378 141.811 52.0915 140.45C49.9452 139.09 49.1838 139.098 46.4705 139.098C43.7573 139.098 43.3685 139.487 43.5629 140.256C43.7573 141.025 44.7292 141.228 45.4986 141.228C46.3493 141.296 47.1939 141.426 48.0256 141.617L40.2664 144.719C38.3307 145.488 38.7195 142.386 36.9781 142.386C35.2367 142.386 35.423 146.849 38.3307 148.979C41.2384 151.109 43.1903 150.526 45.4986 150.332C47.8069 150.137 53.2578 149.368 53.2578 149.368C53.2578 149.368 68.1768 162.545 73.6034 167.389C79.03 172.232 86.3923 176.881 89.1056 174.946C91.8188 173.01 102.065 154.017 102.065 154.017L108.649 136.579C108.649 136.579 110.488 132.918 108.908 129.897Z" stroke="#263238" stroke-miterlimit="10" stroke-linecap="round"/>
<path d="M38.8894 149.409C38.8894 149.409 35.1151 146.347 37.1481 143.35C37.6502 142.605 38.7679 143.731 39.0919 145.78C39.4159 147.829 40.4364 148.623 40.9629 148.769" fill="white"/>
<mask id="mask1_316_4812" style="mask-type:luminance" maskUnits="userSpaceOnUse" x="36" y="143" width="5" height="7">
<path d="M38.8894 149.409C38.8894 149.409 35.1151 146.347 37.1481 143.35C37.6502 142.605 38.7679 143.731 39.0919 145.78C39.4159 147.829 40.4364 148.623 40.9629 148.769" fill="white"/>
</mask>
<g mask="url(#mask1_316_4812)">
<path opacity="0.1" d="M38.8894 149.409C38.8894 149.409 35.1151 146.347 37.1481 143.35C37.6502 142.605 38.7679 143.731 39.0919 145.78C39.4159 147.829 40.4364 148.623 40.9629 148.769" fill="black"/>
</g>
<path d="M38.8894 149.409C38.8894 149.409 35.1151 146.347 37.1481 143.35C37.6502 142.605 38.7679 143.731 39.0919 145.78C39.4159 147.829 40.4364 148.623 40.9629 148.769" stroke="#263238" stroke-miterlimit="10" stroke-linecap="round"/>
<path d="M41.7081 148.736C40.8091 148.736 40.8577 146.306 39.1649 145.148C37.8204 144.2 37.9905 146.063 38.3064 147.578C38.43 148.199 38.738 148.769 39.1903 149.212C39.6425 149.656 40.218 149.953 40.8415 150.064C41.4216 150.21 42.0252 150.234 42.6153 150.137" fill="white"/>
<mask id="mask2_316_4812" style="mask-type:luminance" maskUnits="userSpaceOnUse" x="38" y="144" width="5" height="7">
<path d="M41.7081 148.736C40.8091 148.736 40.8577 146.306 39.1649 145.148C37.8204 144.2 37.9905 146.063 38.3064 147.578C38.43 148.199 38.738 148.769 39.1903 149.212C39.6425 149.656 40.218 149.953 40.8415 150.064C41.4216 150.21 42.0252 150.234 42.6153 150.137" fill="white"/>
</mask>
<g mask="url(#mask2_316_4812)">
<path opacity="0.1" d="M41.7081 148.736C40.8091 148.736 40.8577 146.306 39.1649 145.148C37.8204 144.2 37.9905 146.063 38.3064 147.578C38.43 148.199 38.738 148.769 39.1903 149.212C39.6425 149.656 40.218 149.953 40.8415 150.064C41.4216 150.21 42.0252 150.234 42.6153 150.137" fill="black"/>
</g>
<path d="M41.7081 148.736C40.8091 148.736 40.8577 146.306 39.1649 145.148C37.8204 144.2 37.9905 146.063 38.3064 147.578C38.43 148.199 38.738 148.769 39.1903 149.212C39.6425 149.656 40.218 149.953 40.8415 150.064C41.4216 150.21 42.0252 150.234 42.6153 150.137" stroke="#263238" stroke-miterlimit="10" stroke-linecap="round"/>
<path d="M53.0797 144.776C53.0797 144.776 51.8081 143.877 49.3378 144.703C46.8675 145.529 43.9517 149.117 43.2795 148.817C42.6506 148.457 42.1731 147.882 41.935 147.197C41.5543 146.452 40.8173 145.375 40.3151 146.242C39.1974 148.137 42.2427 150.291 42.2427 150.291C42.2427 150.291 42.6639 150.648 45.0208 150.364C47.3777 150.081 52.699 149.336 52.699 149.336" fill="white"/>
<mask id="mask3_316_4812" style="mask-type:luminance" maskUnits="userSpaceOnUse" x="40" y="144" width="14" height="7">
<path d="M53.0797 144.776C53.0797 144.776 51.8081 143.877 49.3378 144.703C46.8675 145.529 43.9517 149.117 43.2795 148.817C42.6506 148.457 42.1731 147.882 41.935 147.197C41.5543 146.452 40.8173 145.375 40.3151 146.242C39.1974 148.137 42.2427 150.291 42.2427 150.291C42.2427 150.291 42.6639 150.648 45.0208 150.364C47.3777 150.081 52.699 149.336 52.699 149.336" fill="white"/>
</mask>
<g mask="url(#mask3_316_4812)">
<path opacity="0.1" d="M53.0797 144.776C53.0797 144.776 51.8081 143.877 49.3378 144.703C46.8675 145.529 43.9517 149.117 43.2795 148.817C42.6506 148.457 42.1731 147.882 41.935 147.197C41.5543 146.452 40.8173 145.375 40.3151 146.242C39.1974 148.137 42.2427 150.291 42.2427 150.291C42.2427 150.291 42.6639 150.648 45.0208 150.364C47.3777 150.081 52.699 149.336 52.699 149.336" fill="black"/>
</g>
<path d="M53.0797 144.776C53.0797 144.776 51.8081 143.877 49.3378 144.703C46.8675 145.529 43.9517 149.117 43.2795 148.817C42.6506 148.457 42.1731 147.882 41.935 147.197C41.5543 146.452 40.8173 145.375 40.3151 146.242C39.1974 148.137 42.2427 150.291 42.2427 150.291C42.2427 150.291 42.6639 150.648 45.0208 150.364C47.3777 150.081 52.699 149.336 52.699 149.336" stroke="#263238" stroke-miterlimit="10" stroke-linecap="round"/>
<path d="M102.21 149.862L99.3838 141.771" stroke="#263238" stroke-miterlimit="10" stroke-linecap="round"/>
<path d="M131.595 129.719C131.595 129.719 140.804 130.375 143.906 132.149C147.008 133.922 147.591 144.168 147.591 144.168L156.889 164.125C156.889 164.125 181.892 146.687 184.022 144.946C186.152 143.204 186.735 141.843 188.881 140.483C191.028 139.122 191.789 139.13 194.502 139.13C197.216 139.13 197.604 139.519 197.41 140.288C197.216 141.058 196.244 141.26 195.466 141.26C194.618 141.329 193.776 141.459 192.947 141.649L200.698 144.751C202.642 145.521 202.253 142.419 203.995 142.419C205.736 142.419 205.55 146.881 202.642 149.011C199.735 151.142 197.783 150.558 195.466 150.364C193.15 150.17 187.715 149.4 187.715 149.4C187.715 149.4 172.796 162.578 167.37 167.421C161.943 172.265 154.581 176.914 151.867 174.978C149.154 173.042 138.908 154.049 138.908 154.049L132.324 136.611C132.324 136.611 130.023 132.74 131.595 129.719Z" fill="white"/>
<mask id="mask4_316_4812" style="mask-type:luminance" maskUnits="userSpaceOnUse" x="131" y="129" width="75" height="47">
<path d="M131.595 129.719C131.595 129.719 140.804 130.375 143.906 132.149C147.008 133.922 147.591 144.168 147.591 144.168L156.889 164.125C156.889 164.125 181.892 146.687 184.022 144.946C186.152 143.204 186.735 141.843 188.881 140.483C191.028 139.122 191.789 139.13 194.502 139.13C197.216 139.13 197.604 139.519 197.41 140.288C197.216 141.058 196.244 141.26 195.466 141.26C194.618 141.329 193.776 141.459 192.947 141.649L200.698 144.751C202.642 145.521 202.253 142.419 203.995 142.419C205.736 142.419 205.55 146.881 202.642 149.011C199.735 151.142 197.783 150.558 195.466 150.364C193.15 150.17 187.715 149.4 187.715 149.4C187.715 149.4 172.796 162.578 167.37 167.421C161.943 172.265 154.581 176.914 151.867 174.978C149.154 173.042 138.908 154.049 138.908 154.049L132.324 136.611C132.324 136.611 130.023 132.74 131.595 129.719Z" fill="white"/>
</mask>
<g mask="url(#mask4_316_4812)">
<path opacity="0.1" d="M131.595 129.719C131.595 129.719 140.804 130.375 143.906 132.149C147.008 133.922 147.591 144.168 147.591 144.168L156.889 164.125C156.889 164.125 181.892 146.687 184.022 144.946C186.152 143.204 186.735 141.843 188.881 140.483C191.028 139.122 191.789 139.13 194.502 139.13C197.216 139.13 197.604 139.519 197.41 140.288C197.216 141.058 196.244 141.26 195.466 141.26C194.618 141.329 193.776 141.459 192.947 141.649L200.698 144.751C202.642 145.521 202.253 142.419 203.995 142.419C205.736 142.419 205.55 146.881 202.642 149.011C199.735 151.142 197.783 150.558 195.466 150.364C193.15 150.17 187.715 149.4 187.715 149.4C187.715 149.4 172.796 162.578 167.37 167.421C161.943 172.265 154.581 176.914 151.867 174.978C149.154 173.042 138.908 154.049 138.908 154.049L132.324 136.611C132.324 136.611 130.023 132.74 131.595 129.719Z" fill="black"/>
</g>
<path d="M131.595 129.719C131.595 129.719 140.804 130.375 143.906 132.149C147.008 133.922 147.591 144.168 147.591 144.168L156.889 164.125C156.889 164.125 181.892 146.687 184.022 144.946C186.152 143.204 186.735 141.843 188.881 140.483C191.028 139.122 191.789 139.13 194.502 139.13C197.216 139.13 197.604 139.519 197.41 140.288C197.216 141.058 196.244 141.26 195.466 141.26C194.618 141.329 193.776 141.459 192.947 141.649L200.698 144.751C202.642 145.521 202.253 142.419 203.995 142.419C205.736 142.419 205.55 146.881 202.642 149.011C199.735 151.142 197.783 150.558 195.466 150.364C193.15 150.17 187.715 149.4 187.715 149.4C187.715 149.4 172.796 162.578 167.37 167.421C161.943 172.265 154.581 176.914 151.867 174.978C149.154 173.042 138.908 154.049 138.908 154.049L132.324 136.611C132.324 136.611 130.023 132.74 131.595 129.719Z" stroke="#263238" stroke-miterlimit="10" stroke-linecap="round"/>
<path d="M138.909 148.169L141.16 141.584" stroke="#263238" stroke-miterlimit="10" stroke-linecap="round"/>
<path d="M203.015 148.307C203.015 148.307 204.635 143.731 203.825 143.35C203.015 142.969 202.205 143.731 201.881 145.78C201.557 147.829 200.537 148.623 200.01 148.768" fill="white"/>
<mask id="mask5_316_4812" style="mask-type:luminance" maskUnits="userSpaceOnUse" x="200" y="143" width="5" height="6">
<path d="M203.015 148.307C203.015 148.307 204.635 143.731 203.825 143.35C203.015 142.97 202.205 143.731 201.881 145.78C201.557 147.829 200.537 148.623 200.01 148.769" fill="white"/>
</mask>
<g mask="url(#mask5_316_4812)">
<path opacity="0.1" d="M204.125 147.319C204.125 147.319 204.651 143.731 203.825 143.35C202.999 142.97 202.205 143.731 201.881 145.78C201.557 147.829 200.537 148.623 200.01 148.769" fill="black"/>
</g>
<path d="M203.015 148.307C203.015 148.307 204.635 143.731 203.825 143.35C203.015 142.969 202.205 143.731 201.881 145.78C201.557 147.829 200.537 148.623 200.01 148.768" stroke="#263238" stroke-miterlimit="10" stroke-linecap="round"/>
<path d="M201.784 149.125C201.784 149.125 203.825 143.35 201.46 144.881C199.719 146.007 200.164 148.736 199.265 148.736" fill="white"/>
<mask id="mask6_316_4812" style="mask-type:luminance" maskUnits="userSpaceOnUse" x="199" y="144" width="4" height="6">
<path d="M201.784 149.125C201.784 149.125 203.825 143.351 201.46 144.881C199.719 146.007 200.164 148.737 199.265 148.737" fill="white"/>
</mask>
<g mask="url(#mask6_316_4812)">
<path opacity="0.1" d="M202.254 149.19C202.254 149.19 203.825 143.35 201.444 144.881C199.703 146.007 200.148 148.736 199.249 148.736" fill="black"/>
</g>
<path d="M201.784 149.125C201.784 149.125 203.825 143.35 201.46 144.881C199.719 146.007 200.164 148.736 199.265 148.736" stroke="#263238" stroke-miterlimit="10" stroke-linecap="round"/>
<path d="M187.877 144.776C187.877 144.776 189.149 143.877 191.619 144.703C194.089 145.529 197.005 149.117 197.677 148.817C198.306 148.457 198.784 147.882 199.022 147.197C199.394 146.452 200.075 146.007 200.52 146.898C200.966 147.789 199.621 150.421 199.621 150.421C199.621 150.421 198.811 150.996 196.827 150.534C194.587 149.995 192.31 149.619 190.015 149.408" fill="white"/>
<mask id="mask7_316_4812" style="mask-type:luminance" maskUnits="userSpaceOnUse" x="187" y="144" width="14" height="7">
<path d="M187.877 144.776C187.877 144.776 189.149 143.877 191.619 144.703C194.089 145.529 197.005 149.117 197.677 148.817C198.306 148.457 198.784 147.882 199.022 147.197C199.394 146.452 200.075 146.007 200.52 146.898C200.966 147.789 199.621 150.421 199.621 150.421C199.621 150.421 198.811 150.996 196.827 150.534C194.587 149.995 192.31 149.619 190.015 149.408" fill="white"/>
</mask>
<g mask="url(#mask7_316_4812)">
<path opacity="0.1" d="M187.877 144.776C187.877 144.776 189.149 143.877 191.619 144.703C194.089 145.529 197.005 149.117 197.677 148.817C198.306 148.457 198.784 147.882 199.022 147.197C199.394 146.452 200.075 146.007 200.52 146.898C200.966 147.789 199.621 150.421 199.621 150.421C199.621 150.421 198.811 150.996 196.827 150.534C194.843 150.073 189.481 148.647 188.258 148.647" fill="black"/>
</g>
<path d="M187.877 144.776C187.877 144.776 189.149 143.877 191.619 144.703C194.089 145.529 197.005 149.117 197.677 148.817C198.306 148.457 198.784 147.882 199.022 147.197C199.394 146.452 200.075 146.007 200.52 146.898C200.966 147.789 199.621 150.421 199.621 150.421C199.621 150.421 198.811 150.996 196.827 150.534C194.587 149.995 192.31 149.619 190.015 149.408" stroke="#263238" stroke-miterlimit="10" stroke-linecap="round"/>
<path d="M116.863 118.104C116.863 118.104 116.466 122.616 114.611 125.661C112.756 128.707 108.941 129.897 108.941 129.897L101.393 153.094L105.337 168.774C105.337 168.774 98.3069 179.465 95.545 185.961C92.7831 192.457 96.1038 199.803 99.0196 202.848C101.935 205.893 105.807 210.024 115.688 209.635C129.457 209.093 139.176 210.348 143.59 205.181C148.005 200.013 148.45 190.254 143.202 182.891C140.027 178.412 135.694 168.734 135.694 168.734L139.986 152.575L133.409 129.897C133.409 129.897 129.449 129.67 127.068 126.755C124.686 123.839 125.213 118.534 125.213 118.534L116.863 118.104Z" fill="white"/>
<mask id="mask8_316_4812" style="mask-type:luminance" maskUnits="userSpaceOnUse" x="94" y="118" width="54" height="92">
<path d="M116.862 118.104C116.862 118.104 116.465 122.615 114.61 125.661C112.756 128.706 108.941 129.897 108.941 129.897L101.392 153.093L105.337 168.774C105.337 168.774 98.3064 179.465 95.5446 185.96C92.7827 192.456 96.1034 199.802 99.0192 202.848C101.935 205.893 105.806 210.024 115.688 209.635C129.457 209.092 139.176 210.348 143.59 205.18C148.004 200.013 148.45 190.253 143.201 182.891C140.026 178.412 135.693 168.733 135.693 168.733L139.986 152.575L133.409 129.897C133.409 129.897 129.448 129.67 127.067 126.754C124.686 123.838 125.213 118.533 125.213 118.533L116.862 118.104Z" fill="white"/>
</mask>
<g mask="url(#mask8_316_4812)">
<path opacity="0.1" d="M116.862 118.104C116.862 118.104 116.465 122.615 114.61 125.661C112.756 128.706 108.941 129.897 108.941 129.897L101.392 153.093L105.337 168.774C105.337 168.774 98.3064 179.465 95.5446 185.96C92.7827 192.456 96.1034 199.802 99.0192 202.848C101.935 205.893 105.806 210.024 115.688 209.635C129.457 209.092 139.176 210.348 143.59 205.18C148.004 200.013 148.45 190.253 143.201 182.891C140.026 178.412 135.693 168.733 135.693 168.733L139.986 152.575L133.409 129.897C133.409 129.897 129.448 129.67 127.067 126.754C124.686 123.838 125.213 118.533 125.213 118.533L116.862 118.104Z" fill="black"/>
</g>
<path d="M116.863 118.104C116.863 118.104 116.466 122.616 114.611 125.661C112.756 128.707 108.941 129.897 108.941 129.897L101.393 153.094L105.337 168.774C105.337 168.774 98.3069 179.465 95.545 185.961C92.7831 192.457 96.1038 199.803 99.0196 202.848C101.935 205.893 105.807 210.024 115.688 209.635C129.457 209.093 139.176 210.348 143.59 205.181C148.005 200.013 148.45 190.254 143.202 182.891C140.027 178.412 135.694 168.734 135.694 168.734L139.986 152.575L133.409 129.897C133.409 129.897 129.449 129.67 127.068 126.755C124.686 123.839 125.213 118.534 125.213 118.534L116.863 118.104Z" stroke="#263238" stroke-miterlimit="10" stroke-linecap="round"/>
<path d="M139.985 152.575L133.409 129.897C132.749 129.851 132.096 129.742 131.457 129.573C132.218 134.846 131.311 137.486 131.311 137.486C131.181 138.643 130.775 139.752 130.128 140.72C129.482 141.688 128.612 142.487 127.593 143.051C124.022 145.173 117.259 145.569 113.015 142.127C109.775 139.527 110.382 132.408 110.86 129.063C110.235 129.398 109.582 129.677 108.908 129.897L101.36 153.094L105.336 168.774H135.677L139.985 152.575Z" fill="#263238" stroke="#263238" stroke-miterlimit="10" stroke-linecap="round"/>
<path d="M110.439 107.584C110.439 107.584 108.009 104.409 107.151 106.774C106.292 109.139 110.561 111.236 110.561 111.236L110.439 107.584Z" fill="white"/>
<mask id="mask9_316_4812" style="mask-type:luminance" maskUnits="userSpaceOnUse" x="107" y="105" width="4" height="7">
<path d="M110.44 107.584C110.44 107.584 108.01 104.409 107.151 106.774C106.293 109.139 110.561 111.236 110.561 111.236L110.44 107.584Z" fill="white"/>
</mask>
<g mask="url(#mask9_316_4812)">
<path opacity="0.1" d="M110.44 107.584C110.44 107.584 108.01 104.409 107.151 106.774C106.293 109.139 110.561 111.236 110.561 111.236L110.44 107.584Z" fill="black"/>
</g>
<path d="M110.439 107.584C110.439 107.584 108.009 104.409 107.151 106.774C106.292 109.139 110.561 111.236 110.561 111.236L110.439 107.584Z" stroke="#263238" stroke-miterlimit="10" stroke-linecap="round"/>
<path d="M131.927 107.584C131.927 107.584 134.397 104.409 135.215 106.774C136.033 109.139 131.813 111.236 131.813 111.236L131.927 107.584Z" fill="white"/>
<mask id="mask10_316_4812" style="mask-type:luminance" maskUnits="userSpaceOnUse" x="131" y="105" width="5" height="7">
<path d="M131.927 107.584C131.927 107.584 134.397 104.409 135.215 106.774C136.033 109.139 131.814 111.236 131.814 111.236L131.927 107.584Z" fill="white"/>
</mask>
<g mask="url(#mask10_316_4812)">
<path opacity="0.1" d="M131.927 107.584C131.927 107.584 134.397 104.409 135.215 106.774C136.033 109.139 131.814 111.236 131.814 111.236L131.927 107.584Z" fill="black"/>
</g>
<path d="M131.927 107.584C131.927 107.584 134.397 104.409 135.215 106.774C136.033 109.139 131.813 111.236 131.813 111.236L131.927 107.584Z" stroke="#263238" stroke-miterlimit="10" stroke-linecap="round"/>
<path d="M121.292 121.272C118.465 121.272 115.754 120.149 113.755 118.15C111.756 116.151 110.634 113.44 110.634 110.613V94.2602C110.632 93.7383 110.734 93.2214 110.933 92.7389C111.132 92.2565 111.424 91.818 111.793 91.4487C112.162 91.0793 112.6 90.7862 113.082 90.5863C113.564 90.3863 114.08 90.2834 114.602 90.2834H127.942C128.47 90.2737 128.995 90.3694 129.486 90.5649C129.977 90.7604 130.424 91.0518 130.801 91.4221C131.178 91.7923 131.478 92.234 131.682 92.7213C131.886 93.2086 131.992 93.7317 131.992 94.2602V110.637C131.987 112.038 131.707 113.424 131.167 114.717C130.627 116.009 129.838 117.183 128.844 118.17C127.851 119.158 126.673 119.94 125.377 120.472C124.081 121.004 122.693 121.276 121.292 121.272Z" fill="white"/>
<mask id="mask11_316_4812" style="mask-type:luminance" maskUnits="userSpaceOnUse" x="110" y="90" width="22" height="32">
<path d="M121.292 121.272C118.465 121.272 115.754 120.149 113.755 118.15C111.756 116.151 110.634 113.44 110.634 110.613V94.2602C110.632 93.7383 110.734 93.2214 110.933 92.7389C111.132 92.2565 111.424 91.818 111.793 91.4487C112.162 91.0793 112.6 90.7862 113.082 90.5863C113.564 90.3863 114.08 90.2834 114.602 90.2834H127.942C128.47 90.2737 128.995 90.3694 129.486 90.5649C129.977 90.7604 130.424 91.0518 130.801 91.4221C131.178 91.7923 131.478 92.234 131.682 92.7213C131.886 93.2086 131.992 93.7317 131.992 94.2602V110.637C131.987 112.038 131.707 113.424 131.167 114.717C130.627 116.009 129.838 117.183 128.844 118.17C127.851 119.158 126.673 119.94 125.377 120.472C124.081 121.004 122.693 121.276 121.292 121.272Z" fill="white"/>
</mask>
<g mask="url(#mask11_316_4812)">
<path opacity="0.1" d="M121.292 121.272C118.465 121.272 115.754 120.149 113.755 118.15C111.756 116.151 110.634 113.44 110.634 110.613V94.2602C110.632 93.7383 110.734 93.2214 110.933 92.7389C111.132 92.2565 111.424 91.818 111.793 91.4487C112.162 91.0793 112.6 90.7862 113.082 90.5863C113.564 90.3863 114.08 90.2834 114.602 90.2834H127.942C128.47 90.2737 128.995 90.3694 129.486 90.5649C129.977 90.7604 130.424 91.0518 130.801 91.4221C131.178 91.7923 131.478 92.234 131.682 92.7213C131.886 93.2086 131.992 93.7317 131.992 94.2602V110.637C131.987 112.038 131.707 113.424 131.167 114.717C130.627 116.009 129.838 117.183 128.844 118.17C127.851 119.158 126.673 119.94 125.377 120.472C124.081 121.004 122.693 121.276 121.292 121.272Z" fill="black"/>
</g>
<path d="M121.292 121.272C118.465 121.272 115.754 120.149 113.755 118.15C111.756 116.151 110.634 113.44 110.634 110.613V94.2602C110.632 93.7383 110.734 93.2214 110.933 92.7389C111.132 92.2565 111.424 91.818 111.793 91.4487C112.162 91.0793 112.6 90.7862 113.082 90.5863C113.564 90.3863 114.08 90.2834 114.602 90.2834H127.942C128.47 90.2737 128.995 90.3694 129.486 90.5649C129.977 90.7604 130.424 91.0518 130.801 91.4221C131.178 91.7923 131.478 92.234 131.682 92.7213C131.886 93.2086 131.992 93.7317 131.992 94.2602V110.637C131.987 112.038 131.707 113.424 131.167 114.717C130.627 116.009 129.838 117.183 128.844 118.17C127.851 119.158 126.673 119.94 125.377 120.472C124.081 121.004 122.693 121.276 121.292 121.272Z" stroke="#263238" stroke-miterlimit="10" stroke-linecap="round"/>
<path d="M113.363 103.355C114.095 103.84 114.952 104.099 115.83 104.099C116.707 104.099 117.565 103.84 118.296 103.355" stroke="#263238" stroke-miterlimit="10" stroke-linecap="round"/>
<path d="M124.411 103.355C125.14 103.841 125.997 104.099 126.873 104.099C127.749 104.099 128.605 103.841 129.335 103.355" stroke="#263238" stroke-miterlimit="10" stroke-linecap="round"/>
<path d="M122.297 101.598L123.001 108.402H120.183" stroke="#263238" stroke-miterlimit="10" stroke-linecap="round"/>
<path d="M120.296 112.273H123.115" stroke="#263238" stroke-miterlimit="10" stroke-linecap="round"/>
<path d="M121.398 90.2588H114.602C114.08 90.2588 113.564 90.3617 113.082 90.5616C112.6 90.7616 112.162 91.0547 111.793 91.4241C111.424 91.7934 111.132 92.2319 110.933 92.7143C110.734 93.1968 110.632 93.7137 110.634 94.2356V102.335C114.983 98.5525 120.045 92.0487 121.398 90.2588Z" fill="#263238" stroke="#263238" stroke-miterlimit="10"/>
<path d="M131.992 102.643V94.26C131.992 93.2053 131.573 92.1938 130.827 91.448C130.082 90.7022 129.07 90.2832 128.015 90.2832H121.933C123.334 94.7217 128.752 99.9295 131.992 102.643Z" fill="#263238" stroke="#263238" stroke-miterlimit="10"/>
<path d="M112.902 100.189C112.902 100.189 114.173 97.9531 118.223 98.3095" stroke="#263238" stroke-width="2" stroke-miterlimit="10" stroke-linecap="round"/>
<path d="M123.584 98.3093C124.662 97.8601 125.862 97.8021 126.977 98.1453C128.093 98.4885 129.053 99.2113 129.691 100.188" stroke="#263238" stroke-width="2" stroke-miterlimit="10" stroke-linecap="round"/>
<path d="M95.5447 185.961C92.7585 192.441 96.1036 199.803 99.0193 202.848C101.935 205.894 105.807 210.024 115.688 209.635C129.457 209.093 139.176 210.348 143.59 205.181C148.004 200.013 148.45 190.254 143.201 182.891C142.015 181.148 140.933 179.336 139.962 177.465H99.9589C98.3278 180.211 96.854 183.048 95.5447 185.961Z" fill="#263238" stroke="#263238" stroke-miterlimit="10" stroke-linecap="round"/>
<path d="M117.219 199.106C110.245 191.873 97.5857 188.253 91.3816 187.216C85.1775 186.18 73.8141 179.927 73.8141 179.927C73.8141 179.927 67.0916 179.7 67.61 187.71C68.1283 195.721 87.502 205.027 95.002 209.157C98.3709 211.058 102.146 212.124 106.012 212.264C109.877 212.405 113.72 211.618 117.219 209.967" fill="#263238"/>
<path d="M117.219 199.106C110.245 191.873 97.5857 188.253 91.3816 187.216C85.1775 186.18 73.8141 179.927 73.8141 179.927C73.8141 179.927 67.0916 179.7 67.61 187.71C68.1283 195.721 87.502 205.027 95.002 209.157C98.3709 211.058 102.146 212.124 106.012 212.264C109.877 212.405 113.72 211.618 117.219 209.967" stroke="#263238" stroke-miterlimit="10" stroke-linecap="round"/>
<path d="M121.584 199.365C128.557 192.133 141.217 188.512 147.421 187.476C153.625 186.439 163.271 181.158 163.271 181.158C163.271 181.158 171.711 179.984 171.192 187.994C170.674 196.004 151.3 205.302 143.8 209.441C140.431 211.34 136.656 212.404 132.791 212.545C128.925 212.686 125.083 211.899 121.584 210.251" fill="#263238"/>
<path d="M121.584 199.365C128.557 192.133 141.217 188.512 147.421 187.476C153.625 186.439 163.271 181.158 163.271 181.158C163.271 181.158 171.711 179.984 171.192 187.994C170.674 196.004 151.3 205.302 143.8 209.441C140.431 211.34 136.656 212.404 132.791 212.545C128.925 212.686 125.083 211.899 121.584 210.251" stroke="#263238" stroke-miterlimit="10" stroke-linecap="round"/>
<path d="M150.693 212.008C150.693 212.008 151.649 211.377 151.171 209.781C150.693 208.186 148.142 209.457 146.384 209.457C144.627 209.457 137.929 208.817 134.746 208.501C132.016 208.226 127.553 208.307 126.314 208.331C126.494 210.294 126.091 212.266 125.156 214.001L125.78 214.066C131.206 214.6 133.563 214.706 135.223 215.054C138.253 215.694 141.598 218.245 144.943 218.091C148.288 217.937 151.325 215.661 151.325 214.26C151.358 213.462 151.137 212.673 150.693 212.008Z" fill="white"/>
<mask id="mask12_316_4812" style="mask-type:luminance" maskUnits="userSpaceOnUse" x="125" y="208" width="27" height="11">
<path d="M150.693 212.008C150.693 212.008 151.649 211.377 151.171 209.781C150.693 208.186 148.142 209.457 146.384 209.457C144.627 209.457 137.929 208.817 134.746 208.501C132.016 208.226 127.553 208.307 126.314 208.331C126.494 210.294 126.091 212.266 125.156 214.001L125.78 214.066C131.206 214.6 133.563 214.706 135.223 215.054C138.253 215.694 141.598 218.245 144.943 218.091C148.288 217.937 151.325 215.661 151.325 214.26C151.358 213.462 151.137 212.673 150.693 212.008Z" fill="white"/>
</mask>
<g mask="url(#mask12_316_4812)">
<path opacity="0.1" d="M150.693 212.008C150.693 212.008 151.649 211.377 151.171 209.781C150.693 208.186 148.142 209.457 146.384 209.457C144.627 209.457 137.929 208.817 134.746 208.501C132.016 208.226 127.553 208.307 126.314 208.331C126.494 210.294 126.091 212.266 125.156 214.001L125.78 214.066C131.206 214.6 133.563 214.706 135.223 215.054C138.253 215.694 141.598 218.245 144.943 218.091C148.288 217.937 151.325 215.661 151.325 214.26C151.358 213.462 151.137 212.673 150.693 212.008Z" fill="black"/>
</g>
<path d="M150.693 212.008C150.693 212.008 151.649 211.377 151.171 209.781C150.693 208.186 148.142 209.457 146.384 209.457C144.627 209.457 137.929 208.817 134.746 208.501C132.016 208.226 127.553 208.307 126.314 208.331C126.494 210.294 126.091 212.266 125.156 214.001L125.78 214.066C131.206 214.6 133.563 214.706 135.223 215.054C138.253 215.694 141.598 218.245 144.943 218.091C148.288 217.937 151.325 215.661 151.325 214.26C151.358 213.462 151.137 212.673 150.693 212.008Z" stroke="#263238" stroke-miterlimit="10" stroke-linecap="round"/>
<path d="M150.693 212.008C149.763 212.166 148.813 212.166 147.883 212.008" stroke="#263238" stroke-miterlimit="10" stroke-linecap="round"/>
<path d="M151.333 214.244C150.095 214.339 148.852 214.339 147.615 214.244" stroke="#263238" stroke-miterlimit="10" stroke-linecap="round"/>
<path d="M146.992 215.669C147.863 216.156 148.878 216.322 149.859 216.139" stroke="#263238" stroke-miterlimit="10" stroke-linecap="round"/>
<path d="M145.76 216.714C146.586 217.111 147.51 217.254 148.417 217.127" stroke="#263238" stroke-miterlimit="10" stroke-linecap="round"/>
<path d="M125.156 213.985C126.091 212.25 126.494 210.278 126.314 208.315H125.966C125.966 208.315 113.687 205.788 103.482 199.552C93.2766 193.315 80.35 183.766 73.8138 179.935C67.2776 176.104 61.0492 181.847 61.6648 187.913C62.2803 193.979 67.2452 197.162 76.1788 200.872C85.1124 204.581 101.384 210.283 109.994 212.033C114.456 212.916 120.207 213.523 125.156 213.985Z" fill="#263238" stroke="#263238" stroke-miterlimit="10" stroke-linecap="round"/>
<path d="M110.812 215.669C109.879 213.934 109.479 211.962 109.662 210H110.002C110.002 210 122.281 207.449 132.494 201.228C142.707 195.008 155.618 185.435 162.162 181.604C168.706 177.773 174.918 183.523 174.311 189.581C173.704 195.64 168.73 198.831 159.797 202.5C150.863 206.169 134.6 211.911 125.982 213.669C121.511 214.592 115.793 215.2 110.812 215.669Z" fill="#263238" stroke="#263238" stroke-miterlimit="10" stroke-linecap="round"/>
<path d="M109.662 210.016C109.662 210.016 97.8449 210.478 94.0949 210.219C90.3449 209.959 87.502 208.145 86.4734 209.052C85.4448 209.959 86.7326 211.377 86.7326 211.377C86.7326 211.377 86.3438 213.572 87.3805 214.738C88.4172 215.904 89.8103 216.933 94.2245 218.229C98.6386 219.525 103.134 217.694 105.564 217.046L110.788 215.669C110.788 215.669 109.589 213.815 109.662 210.016Z" fill="white"/>
<mask id="mask13_316_4812" style="mask-type:luminance" maskUnits="userSpaceOnUse" x="86" y="208" width="25" height="11">
<path d="M109.662 210.016C109.662 210.016 97.8449 210.477 94.0949 210.218C90.3449 209.959 87.502 208.145 86.4734 209.052C85.4448 209.959 86.7326 211.376 86.7326 211.376C86.7326 211.376 86.3438 213.571 87.3805 214.738C88.4172 215.904 89.8103 216.932 94.2245 218.228C98.6386 219.524 103.134 217.694 105.564 217.046L110.788 215.669C110.788 215.669 109.589 213.814 109.662 210.016Z" fill="white"/>
</mask>
<g mask="url(#mask13_316_4812)">
<path opacity="0.1" d="M109.662 210.016C109.662 210.016 97.8449 210.477 94.0949 210.218C90.3449 209.959 87.502 208.145 86.4734 209.052C85.4448 209.959 86.7326 211.376 86.7326 211.376C86.7326 211.376 86.3438 213.571 87.3805 214.738C88.4172 215.904 89.8103 216.932 94.2245 218.228C98.6386 219.524 103.134 217.694 105.564 217.046L110.788 215.669C110.788 215.669 109.589 213.814 109.662 210.016Z" fill="black"/>
</g>
<path d="M109.662 210.016C109.662 210.016 97.8449 210.478 94.0949 210.219C90.3449 209.959 87.502 208.145 86.4734 209.052C85.4448 209.959 86.7326 211.377 86.7326 211.377C86.7326 211.377 86.3438 213.572 87.3805 214.738C88.4172 215.904 89.8103 216.933 94.2245 218.229C98.6386 219.525 103.134 217.694 105.564 217.046L110.788 215.669C110.788 215.669 109.589 213.815 109.662 210.016Z" stroke="#263238" stroke-miterlimit="10" stroke-linecap="round"/>
<path d="M86.7326 211.377C86.9996 211.197 87.314 211.102 87.6357 211.102C87.9573 211.102 88.2717 211.197 88.5388 211.377C89.1574 211.799 89.8634 212.076 90.6041 212.187" stroke="#263238" stroke-miterlimit="10" stroke-linecap="round"/>
<path d="M86.8784 213.887C87.0848 213.701 87.3338 213.568 87.6035 213.501C87.8732 213.433 88.1554 213.432 88.4254 213.499C89.0421 213.674 89.6794 213.767 90.3206 213.774" stroke="#263238" stroke-miterlimit="10" stroke-linecap="round"/>
<path d="M88.8546 215.936C88.8546 215.936 89.0814 215.28 89.5107 215.28C89.94 215.28 91.7137 215.515 92.1754 215.475" stroke="#263238" stroke-miterlimit="10" stroke-linecap="round"/>
<path d="M91.3654 217.216C91.3654 217.216 91.7947 216.633 92.1754 216.6C92.6641 216.532 93.1562 216.492 93.6495 216.479" stroke="#263238" stroke-miterlimit="10" stroke-linecap="round"/>
<path d="M115.672 209.635C115.672 209.635 140.391 197.486 150.377 190.578" stroke="white" stroke-miterlimit="10" stroke-linecap="round"/>
<path d="M87.7691 189.022C87.7691 189.022 108.892 205.537 120.798 206.687" stroke="white" stroke-miterlimit="10" stroke-linecap="round"/>
<path d="M97.6583 188.577C97.6583 188.577 113.727 193.558 117.907 199.989" stroke="white" stroke-miterlimit="10" stroke-linecap="round"/>
<path d="M123.536 197.738C123.536 197.738 133.498 190.667 143.785 188.577" stroke="white" stroke-miterlimit="10" stroke-linecap="round"/>
</svg>
