<svg width="240" height="260" viewBox="0 0 240 260" fill="none" xmlns="http://www.w3.org/2000/svg">
<path d="M124.44 0.925842C160.277 5.67329 191.815 26.0395 210.384 49.7103C224.821 68.0885 229.385 89.5584 226.883 112.212C224.476 133.702 217.017 154.407 227.869 174.095C236.387 189.554 247.32 206.756 233.211 224.628C226.161 233.512 215.308 240.52 203.734 245.899C166.999 263.113 124.039 265.387 92.5886 248.153C65.6384 233.385 48.0886 208.558 43.3402 182.44C42.4176 177.427 42.0337 172.356 42.1932 167.287C42.6504 153.889 44.9284 138.948 39.4421 126.255C32.9772 111.301 16.0852 103.123 5.98686 90.2433C-4.44032 76.9451 -0.429871 60.5085 11.7138 46.2861C37.0599 16.5047 81.247 -4.77246 124.44 0.925842Z" fill="#00B8CC"/>
<path opacity="0.7" d="M124.44 0.925842C160.277 5.67329 191.815 26.0395 210.384 49.7103C224.821 68.0885 229.385 89.5584 226.883 112.212C224.476 133.702 217.017 154.407 227.869 174.095C236.387 189.554 247.32 206.756 233.211 224.628C226.161 233.512 215.308 240.52 203.734 245.899C166.999 263.113 124.039 265.387 92.5886 248.153C65.6384 233.385 48.0886 208.558 43.3402 182.44C42.4176 177.427 42.0337 172.356 42.1932 167.287C42.6504 153.889 44.9284 138.948 39.4421 126.255C32.9772 111.301 16.0852 103.123 5.98686 90.2433C-4.44032 76.9451 -0.429871 60.5085 11.7138 46.2861C37.0599 16.5047 81.247 -4.77246 124.44 0.925842Z" fill="white"/>
<path d="M105.359 109.555C105.359 109.555 89.9464 113.173 86.4368 114.108C82.9273 115.043 80.1353 129.183 79.8037 135.014C79.472 140.846 76.4147 180.681 74.9796 189.207C73.5444 197.734 71.2469 212.683 71.2469 212.683H158.497L156.399 176.502C156.399 176.502 158.033 180.59 158.618 181.639C159.203 182.689 165.504 184.558 169.363 184.323C173.223 184.088 177.07 182.9 177.07 177.527C177.07 172.154 171.812 163.863 168.543 155.921C165.275 147.979 161.422 131.161 156.628 123.804C151.834 116.448 148.005 113.993 144.133 112.474C140.262 110.954 138.996 111.075 137.012 110.49C135.028 109.905 119.259 107.921 115.87 107.921C112.481 107.921 105.359 109.555 105.359 109.555Z" fill="#00B8CC"/>
<mask id="mask0_316_4968" style="mask-type:luminance" maskUnits="userSpaceOnUse" x="71" y="107" width="107" height="106">
<path d="M105.359 109.555C105.359 109.555 89.9464 113.173 86.4368 114.108C82.9273 115.043 80.1353 129.183 79.8037 135.014C79.472 140.846 76.4147 180.681 74.9796 189.207C73.5444 197.734 71.2469 212.683 71.2469 212.683H158.497L156.399 176.502C156.399 176.502 158.033 180.59 158.618 181.639C159.203 182.689 165.504 184.558 169.363 184.323C173.223 184.088 177.07 182.9 177.07 177.527C177.07 172.154 171.812 163.863 168.543 155.921C165.275 147.979 161.422 131.161 156.628 123.804C151.834 116.448 148.005 113.993 144.133 112.474C140.262 110.954 138.996 111.075 137.012 110.49C135.028 109.905 119.259 107.921 115.87 107.921C112.481 107.921 105.359 109.555 105.359 109.555Z" fill="white"/>
</mask>
<g mask="url(#mask0_316_4968)">
<path opacity="0.4" d="M169.363 184.299C173.217 184.07 177.07 182.9 177.07 177.527C177.07 172.154 171.812 163.863 168.543 155.921C165.275 147.979 161.422 131.161 156.628 123.804C151.834 116.448 148.005 113.993 144.133 112.474C140.262 110.954 138.996 111.075 137.012 110.49C135.884 110.158 130.336 109.38 125.126 108.765L101.97 137.818L113.868 138.632C113.868 138.632 106.33 145.567 106.632 146.472C106.933 147.376 116.883 158.532 116.883 158.532C116.883 158.532 102.109 149.788 96.6819 142.552C91.2548 135.316 91.8578 138.934 92.4608 143.758C93.0638 148.582 82.2096 165.467 82.2096 165.467C82.2096 165.467 80.702 176.321 80.702 178.431C80.702 180.542 81.0035 186.572 81.0035 186.572L103.617 212.683H158.491L156.392 176.502C156.392 176.502 158.027 180.59 158.612 181.64C159.197 182.689 165.492 184.534 169.363 184.299Z" fill="#263238"/>
</g>
<path d="M105.359 109.555C105.359 109.555 89.9464 113.173 86.4368 114.108C82.9273 115.043 80.1353 129.183 79.8037 135.014C79.472 140.846 76.4147 180.681 74.9796 189.207C73.5444 197.734 71.2469 212.683 71.2469 212.683H158.497L156.399 176.502C156.399 176.502 158.033 180.59 158.618 181.639C159.203 182.689 165.504 184.558 169.363 184.323C173.223 184.088 177.07 182.9 177.07 177.527C177.07 172.154 171.812 163.863 168.543 155.921C165.275 147.979 161.422 131.161 156.628 123.804C151.834 116.448 148.005 113.993 144.133 112.474C140.262 110.954 138.996 111.075 137.012 110.49C135.028 109.905 119.259 107.921 115.87 107.921C112.481 107.921 105.359 109.555 105.359 109.555Z" stroke="#263238" stroke-linecap="round" stroke-linejoin="round"/>
<path d="M120.869 98.8093C120.869 98.8093 117.48 97.8747 115.496 98.4596C113.512 99.0445 111.643 101.475 107.44 105.467C103.237 109.459 101.717 110.019 101.717 111.889C101.717 113.758 102.652 129.641 102.32 132.795C101.989 135.949 101.971 137.818 101.971 137.818L114.586 135.485L107.114 143.324C107.114 143.324 111.667 147.412 116.69 149.517C121.713 151.621 131.874 158.23 131.874 158.23L130.584 167.457C130.584 167.457 136.662 156.717 137.597 154.263C138.531 151.808 148.686 135.34 148.686 135.34L144.465 127.983L151.623 126.023C151.623 126.023 146.003 118.431 142.849 111.798C139.695 105.165 136.891 102.807 131.754 100.468C126.616 98.1279 120.869 98.8093 120.869 98.8093Z" fill="#00B8CC"/>
<mask id="mask1_316_4968" style="mask-type:luminance" maskUnits="userSpaceOnUse" x="101" y="98" width="51" height="70">
<path d="M120.869 98.8093C120.869 98.8093 117.48 97.8747 115.496 98.4596C113.512 99.0445 111.643 101.475 107.44 105.467C103.237 109.459 101.717 110.019 101.717 111.889C101.717 113.758 102.652 129.641 102.32 132.795C101.989 135.949 101.971 137.818 101.971 137.818L114.586 135.485L107.114 143.324C107.114 143.324 111.667 147.412 116.69 149.517C121.713 151.621 131.874 158.23 131.874 158.23L130.584 167.457C130.584 167.457 136.662 156.717 137.597 154.263C138.531 151.808 148.686 135.34 148.686 135.34L144.465 127.983L151.623 126.023C151.623 126.023 146.003 118.431 142.849 111.798C139.695 105.165 136.891 102.807 131.754 100.468C126.616 98.1279 120.869 98.8093 120.869 98.8093Z" fill="white"/>
</mask>
<g mask="url(#mask1_316_4968)">
<path opacity="0.4" d="M144.483 128.008L151.623 126.024C151.623 126.024 146.002 118.432 142.849 111.799C139.695 105.165 136.891 102.808 131.753 100.468C126.615 98.1282 120.899 98.8337 120.899 98.8337C120.899 98.8337 117.51 97.8991 115.526 98.484C115.134 98.6052 114.761 98.7797 114.416 99.0026C111.757 104.9 111.178 106.142 112.668 111.521C114.157 116.9 118.698 134.737 119.904 137.149C121.11 139.561 112.722 141.075 107.12 143.33C107.12 143.33 111.673 147.419 116.696 149.523C121.719 151.628 131.874 158.231 131.874 158.231L130.583 167.457C130.583 167.457 136.662 156.717 137.596 154.263C138.531 151.809 148.686 135.34 148.686 135.34L144.483 128.008Z" fill="#263238"/>
</g>
<path d="M120.869 98.8093C120.869 98.8093 117.48 97.8747 115.496 98.4596C113.512 99.0445 111.643 101.475 107.44 105.467C103.237 109.459 101.717 110.019 101.717 111.889C101.717 113.758 102.652 129.641 102.32 132.795C101.989 135.949 101.971 137.818 101.971 137.818L114.586 135.485L107.114 143.324C107.114 143.324 111.667 147.412 116.69 149.517C121.713 151.621 131.874 158.23 131.874 158.23L130.584 167.457C130.584 167.457 136.662 156.717 137.597 154.263C138.531 151.808 148.686 135.34 148.686 135.34L144.465 127.983L151.623 126.023C151.623 126.023 146.003 118.431 142.849 111.798C139.695 105.165 136.891 102.807 131.754 100.468C126.616 98.1279 120.869 98.8093 120.869 98.8093Z" stroke="#263238" stroke-linecap="round" stroke-linejoin="round"/>
<path d="M119.494 128.242C119.494 128.242 122.998 137.233 123.812 140.622C124.339 142.735 125.125 144.774 126.151 146.695L132.929 152.532L136.198 144.693C136.198 144.693 138.652 134.411 138.302 126.94C137.953 119.468 135.848 111.171 130.945 106.148C126.043 101.125 118.566 103.35 117.631 108.367C116.696 113.384 119.494 128.242 119.494 128.242Z" fill="white" stroke="#263238" stroke-linecap="round" stroke-linejoin="round"/>
<path d="M122.527 123.805L128.485 131.047L126.145 146.695L132.923 152.532L135.727 145.296L131.054 130.462L135.377 122.285L129.184 116.448L122.527 123.805Z" fill="#263238" stroke="#263238" stroke-linecap="round" stroke-linejoin="round"/>
<path d="M119.844 97.9952C119.844 97.9952 118.089 98.3449 117.275 99.2796C116.461 100.214 113.415 101.499 113.657 105.816C113.898 110.134 119.265 127.193 119.5 128.242C119.735 129.292 129.076 121.7 129.076 121.7L138.302 128.242C138.302 128.242 138.905 120.403 137.017 113.167C135.13 105.931 130.475 99.5027 127.086 98.0916C123.697 96.6806 119.844 97.9952 119.844 97.9952Z" fill="white" stroke="#263238" stroke-linecap="round" stroke-linejoin="round"/>
<path d="M120.073 84.7951C120.073 84.7951 119.608 94.4916 118.788 98.4595C117.968 102.427 117.154 102.433 118.089 105.352C119.023 108.271 128.014 120.886 129.07 121.7C130.125 122.514 134.907 115.278 136.541 111.539C138.175 107.8 132.223 103.483 128.25 97.4102C124.276 91.3379 122.762 84.7951 121.827 84.6806C121.24 84.6109 120.646 84.6498 120.073 84.7951Z" fill="white" stroke="#263238" stroke-linecap="round" stroke-linejoin="round"/>
<path d="M158.009 67.6092C157.834 68.3509 157.448 68.9961 157.189 70.0212C156.817 71.3752 156.553 72.7564 156.399 74.1519C156.163 76.8353 155.796 83.8424 154.18 88.6243C152.563 93.4062 149.856 100.19 147.546 104.393C145.237 108.596 141.703 112.1 136.915 111.515C132.127 110.93 130.728 110.23 126.754 105.442C122.781 100.654 121.382 98.0856 120.803 95.8665C120.406 93.9459 120.204 91.9903 120.2 90.0293C120.2 90.0293 118.68 78.8132 120.549 73.4403C122.419 68.0675 125.337 58.2624 134.799 55.9227C144.26 53.583 154.095 57.7921 155.585 59.8966C156.765 61.6912 157.584 63.6984 157.997 65.8062C158.148 66.3972 158.152 67.0162 158.009 67.6092Z" fill="white"/>
<mask id="mask2_316_4968" style="mask-type:luminance" maskUnits="userSpaceOnUse" x="119" y="55" width="40" height="57">
<path d="M158.009 67.6092C157.834 68.3509 157.448 68.9961 157.189 70.0212C156.817 71.3752 156.553 72.7564 156.399 74.1519C156.163 76.8353 155.796 83.8424 154.18 88.6243C152.563 93.4062 149.856 100.19 147.546 104.393C145.237 108.596 141.703 112.1 136.915 111.515C132.127 110.93 130.728 110.23 126.754 105.442C122.781 100.654 121.382 98.0856 120.803 95.8665C120.406 93.9459 120.204 91.9903 120.2 90.0293C120.2 90.0293 118.68 78.8132 120.549 73.4403C122.419 68.0675 125.337 58.2624 134.799 55.9227C144.26 53.583 154.095 57.7921 155.585 59.8966C156.765 61.6912 157.584 63.6984 157.997 65.8062C158.148 66.3972 158.152 67.0162 158.009 67.6092Z" fill="white"/>
</mask>
<g mask="url(#mask2_316_4968)">
<path d="M155.579 59.9387C154.059 57.8342 144.248 53.6312 134.793 55.9648C129.776 57.201 126.604 60.5417 124.445 64.202L126.736 68.4231C127.134 67.6211 132.164 64.805 132.164 64.805C132.164 64.805 132.767 69.6292 135.981 70.8352C139.195 72.0412 140.003 72.0412 140.003 72.0412C140.003 72.0412 141.209 67.0181 143.018 66.0111C144.827 65.004 143.217 68.4231 147.239 72.4452C151.261 76.4673 154.27 76.0633 154.27 76.0633C154.27 76.0633 152.262 93.9487 148.041 101.788C146.594 104.477 145.418 106.727 144.562 108.536C145.722 107.312 146.717 105.941 147.522 104.459C149.856 100.238 152.545 93.4784 154.156 88.6904C155.766 83.9025 156.139 76.8955 156.375 74.2181C156.529 72.8226 156.793 71.4414 157.165 70.0874C157.424 69.0442 157.81 68.399 157.985 67.6754C158.114 67.0877 158.1 66.4774 157.942 65.8965C157.551 63.7754 156.747 61.7515 155.579 59.9387Z" fill="#00B8CC"/>
<path opacity="0.5" d="M155.579 59.9387C154.059 57.8342 144.248 53.6312 134.793 55.9648C129.776 57.201 126.604 60.5417 124.445 64.202L126.736 68.4231C127.134 67.6211 132.164 64.805 132.164 64.805C132.164 64.805 132.767 69.6292 135.981 70.8352C139.195 72.0412 140.003 72.0412 140.003 72.0412C140.003 72.0412 141.209 67.0181 143.018 66.0111C144.827 65.004 143.217 68.4231 147.239 72.4452C151.261 76.4673 154.27 76.0633 154.27 76.0633C154.27 76.0633 152.262 93.9487 148.041 101.788C146.594 104.477 145.418 106.727 144.562 108.536C145.722 107.312 146.717 105.941 147.522 104.459C149.856 100.238 152.545 93.4784 154.156 88.6904C155.766 83.9025 156.139 76.8955 156.375 74.2181C156.529 72.8226 156.793 71.4414 157.165 70.0874C157.424 69.0442 157.81 68.399 157.985 67.6754C158.114 67.0877 158.1 66.4774 157.942 65.8965C157.551 63.7754 156.747 61.7515 155.579 59.9387Z" fill="white"/>
</g>
<path d="M158.009 67.6092C157.834 68.3509 157.448 68.9961 157.189 70.0212C156.817 71.3752 156.553 72.7564 156.399 74.1519C156.163 76.8353 155.796 83.8424 154.18 88.6243C152.563 93.4062 149.856 100.19 147.546 104.393C145.237 108.596 141.703 112.1 136.915 111.515C132.127 110.93 130.728 110.23 126.754 105.442C122.781 100.654 121.382 98.0856 120.803 95.8665C120.406 93.9459 120.204 91.9903 120.2 90.0293C120.2 90.0293 118.68 78.8132 120.549 73.4403C122.419 68.0675 125.337 58.2624 134.799 55.9227C144.26 53.583 154.095 57.7921 155.585 59.8966C156.765 61.6912 157.584 63.6984 157.997 65.8062C158.148 66.3972 158.152 67.0162 158.009 67.6092Z" stroke="#263238" stroke-linecap="round" stroke-linejoin="round"/>
<path d="M163.52 60.0355C163.52 60.0355 167.373 60.6385 166.439 56.1823C165.504 51.726 161.066 49.4104 157.333 49.8747C153.601 50.339 146.003 51.9792 142.734 51.3943C139.466 50.8094 134.895 46.6064 127.659 48.4757C120.423 50.3451 115.985 59.4506 117.034 64.8235C118.083 70.1963 120.049 78.8375 120.049 78.8375C120.049 78.8375 122.153 81.1772 123.203 81.0566C124.252 80.936 127.761 76.1541 127.991 74.8697C128.22 73.5853 125.657 68.2365 127.056 65.8727C128.455 63.5089 131.729 62.2546 131.729 62.2546C131.729 62.2546 130.559 67.0426 133.014 69.0265C135.468 71.0104 137.452 70.1963 137.572 69.6295C137.572 69.6295 139.273 63.2496 142.354 62.0737C145.436 60.8978 145.876 64.4255 149.693 69.1169C153.51 73.8084 157.321 71.9089 157.761 71.6134C158.202 71.3179 156.441 70.4074 154.385 67.9471C153.468 66.856 152.76 65.6048 152.298 64.2566C154.855 66.5541 157.593 69.2074 158.823 70.5642C161.042 73.0184 167 70.2144 167.349 68.1099C167.699 66.0054 163.52 60.0355 163.52 60.0355Z" fill="#263238" stroke="#263238" stroke-linecap="round" stroke-linejoin="round"/>
<path d="M131.874 75.4549C131.874 75.4549 120.308 72.4398 119.259 72.1806C118.21 71.9213 116.919 74.6348 116.919 74.6348L127.9 84.663L132.573 76.1363L131.874 75.4549Z" fill="white" stroke="#263238" stroke-linecap="round" stroke-linejoin="round"/>
<path d="M136.891 111.539C141.679 112.142 145.183 108.621 147.522 104.417C149.711 100.468 152.214 94.2567 153.866 89.5471C150.429 89.722 141.239 90.0054 135.257 88.4135C127.786 86.4296 125.096 82.6909 123.197 81.0567C121.951 79.8751 120.804 78.5945 119.765 77.2275C119.735 77.4808 119.717 77.7341 119.693 77.9934C120.899 79.6396 126.417 87.2798 126.929 89.4507C127.532 91.8989 125.88 95.6376 124.36 96.4577C122.841 97.2778 121.442 93.0687 120.972 92.0195C120.501 90.9703 120.157 90.0356 120.157 90.0356C120.167 91.5566 120.276 93.0754 120.483 94.5823C120.549 95.0105 120.634 95.4386 120.742 95.8728C121.345 98.0919 122.726 100.661 126.694 105.449C130.662 110.237 132.103 110.954 136.891 111.539Z" fill="#00B8CC"/>
<mask id="mask3_316_4968" style="mask-type:luminance" maskUnits="userSpaceOnUse" x="119" y="77" width="35" height="35">
<path d="M136.891 111.539C141.679 112.142 145.183 108.621 147.522 104.417C149.711 100.468 152.214 94.2567 153.866 89.5471C150.429 89.722 141.239 90.0054 135.257 88.4135C127.786 86.4296 125.096 82.6909 123.197 81.0567C121.951 79.8751 120.804 78.5945 119.765 77.2275C119.735 77.4808 119.717 77.7341 119.693 77.9934C120.899 79.6396 126.417 87.2798 126.929 89.4507C127.532 91.8989 125.88 95.6376 124.36 96.4577C122.841 97.2778 121.442 93.0687 120.972 92.0195C120.501 90.9703 120.157 90.0356 120.157 90.0356C120.167 91.5566 120.276 93.0754 120.483 94.5823C120.549 95.0105 120.634 95.4386 120.742 95.8728C121.345 98.0919 122.726 100.661 126.694 105.449C130.662 110.237 132.103 110.954 136.891 111.539Z" fill="white"/>
</mask>
<g mask="url(#mask3_316_4968)">
<path opacity="0.4" d="M144.495 89.6075C143.928 93.0447 142.463 98.6527 138.67 102.874C137.365 104.313 135.767 105.457 133.983 106.228C132.199 106.998 130.271 107.378 128.328 107.342C131.181 110.478 132.809 111.075 136.891 111.563C141.679 112.166 145.183 108.645 147.522 104.442C149.711 100.492 152.214 94.2808 153.866 89.5713C151.985 89.6437 148.36 89.7703 144.495 89.6075Z" fill="#263238"/>
</g>
<path d="M136.891 111.539C141.679 112.142 145.183 108.621 147.522 104.417C149.711 100.468 152.214 94.2567 153.866 89.5471C150.429 89.722 141.239 90.0054 135.257 88.4135C127.786 86.4296 125.096 82.6909 123.197 81.0567C121.951 79.8751 120.804 78.5945 119.765 77.2275C119.735 77.4808 119.717 77.7341 119.693 77.9934C120.899 79.6396 126.417 87.2798 126.929 89.4507C127.532 91.8989 125.88 95.6376 124.36 96.4577C122.841 97.2778 121.442 93.0687 120.972 92.0195C120.501 90.9703 120.157 90.0356 120.157 90.0356C120.167 91.5566 120.276 93.0755 120.483 94.5823C120.549 95.0105 120.634 95.4386 120.742 95.8728C121.345 98.0919 122.726 100.661 126.694 105.449C130.662 110.237 132.103 110.954 136.891 111.539Z" stroke="#263238" stroke-linecap="round" stroke-linejoin="round"/>
<path d="M131.874 75.4547C130.888 75.8496 130.006 76.4653 129.295 77.2546C128.584 78.0438 128.064 78.9856 127.774 80.0075C126.634 83.6255 128.117 88.4135 132.218 89.5833C136.318 90.7532 150.091 91.2175 153.74 90.4034C157.388 89.5894 160.228 84.91 159.088 80.9421C157.949 76.9743 153.963 76.721 153.963 76.721L135.48 75.1049C134.281 74.9936 133.071 75.1019 131.91 75.4245L131.874 75.4547Z" fill="white" stroke="#263238" stroke-linecap="round" stroke-linejoin="round"/>
<path d="M138.645 85.3802L132.103 84.6807" stroke="#263238" stroke-linecap="round" stroke-linejoin="round"/>
<path d="M137.946 85.3805C137.946 85.3805 137.011 86.7795 135.606 86.5504C135.427 86.5347 135.253 86.4819 135.095 86.3953C134.937 86.3086 134.799 86.19 134.689 86.0471C134.58 85.9041 134.501 85.7399 134.459 85.5649C134.416 85.3899 134.411 85.208 134.442 85.0308L137.946 85.3805Z" fill="#263238"/>
<path d="M153.48 86.6648L146.938 85.9653" stroke="#263238" stroke-linecap="round" stroke-linejoin="round"/>
<path d="M152.775 86.6647C152.775 86.6647 151.84 88.0637 150.441 87.8345C150.261 87.8188 150.087 87.766 149.929 87.6794C149.771 87.5928 149.632 87.4744 149.522 87.3315C149.412 87.1887 149.333 87.0246 149.29 86.8496C149.247 86.6746 149.24 86.4926 149.271 86.3149L152.775 86.6647Z" fill="#263238"/>
<path d="M139.695 81.4065C139.695 81.4065 137.241 77.3241 131.988 79.308" stroke="#263238" stroke-width="3" stroke-linecap="round" stroke-linejoin="round"/>
<path d="M146.938 83.8607C146.938 83.8607 149.392 80.9421 154.035 81.6476" stroke="#263238" stroke-width="3" stroke-linecap="round" stroke-linejoin="round"/>
<path d="M169.496 172.154C169.496 172.154 163.032 184.329 162.905 185.469C162.778 186.608 167.85 185.855 168.61 185.342C169.369 184.829 174.067 177.099 174.447 174.56C174.827 172.021 173.687 171.008 172.161 171.008C171.165 171.063 170.221 171.469 169.496 172.154Z" fill="white" stroke="#263238" stroke-linecap="round" stroke-linejoin="round"/>
<path d="M169.038 172.341C169.038 172.341 168.018 171.454 165.866 171.834C163.713 172.214 162.061 176.146 161.421 178.178C160.782 180.21 159.522 183.123 159.775 183.503C160.028 183.883 161.168 184.263 162.441 183.629C163.713 182.996 168.507 174.753 169.038 173.607C169.568 172.462 169.038 172.341 169.038 172.341Z" fill="white" stroke="#263238" stroke-linecap="round" stroke-linejoin="round"/>
<path d="M179.138 176.086C179.894 176.314 180.553 176.787 181.013 177.429C181.472 178.072 181.706 178.848 181.677 179.638C181.55 182.43 180.405 184.962 178.379 186.235C176.352 187.507 173.175 187.628 173.434 185.981C173.693 184.335 178.155 179.511 179.138 176.086Z" fill="white" stroke="#263238" stroke-linecap="round" stroke-linejoin="round"/>
<path d="M174.573 173.674C174.573 173.674 169.243 183.823 168.609 185.342C167.976 186.862 170.388 186.994 171.401 186.741C172.414 186.488 176.985 182.556 178.252 178.625C179.518 174.693 178.505 174.56 177.112 173.927C175.719 173.294 175.46 173.421 174.573 173.674Z" fill="white" stroke="#263238" stroke-linecap="round" stroke-linejoin="round"/>
<path d="M143.078 89.7824L142.053 88.7874C141.997 88.7246 141.936 88.6662 141.872 88.6125C141.477 88.2628 140.989 88.0347 140.468 87.9554C139.947 87.8761 139.413 87.9492 138.933 88.1658C138.452 88.3823 138.044 88.7332 137.757 89.1762C137.471 89.6191 137.319 90.1354 137.319 90.6628C137.32 91.1885 137.47 91.7031 137.753 92.1462C137.926 92.408 138.142 92.6385 138.392 92.8276L139.303 93.7924L139.707 93.3582C139.819 93.3674 139.932 93.3674 140.045 93.3582C140.405 93.3582 140.761 93.2872 141.094 93.1493C141.426 93.0113 141.728 92.8091 141.983 92.5543C142.237 92.2994 142.438 91.9969 142.576 91.664C142.713 91.3312 142.783 90.9745 142.782 90.6145C142.782 90.4426 142.766 90.271 142.734 90.102L143.078 89.7824Z" fill="#5E5E5E" stroke="#263238" stroke-linecap="round" stroke-linejoin="round"/>
<path d="M141.244 94.5944C142.76 94.5944 143.988 93.366 143.988 91.8507C143.988 90.3353 142.76 89.1069 141.244 89.1069C139.729 89.1069 138.501 90.3353 138.501 91.8507C138.501 93.366 139.729 94.5944 141.244 94.5944Z" fill="#263238" stroke="#263238" stroke-linecap="round" stroke-linejoin="round"/>
<path d="M146.359 92.1763L144.99 90.8376C144.914 90.7547 144.833 90.6762 144.749 90.6024C144.085 90.0155 143.231 89.6885 142.345 89.6817C141.458 89.675 140.6 89.9889 139.927 90.5655C139.254 91.1422 138.812 91.9427 138.683 92.8195C138.554 93.6962 138.747 94.5901 139.225 95.3361V95.3662C139.459 95.716 139.751 96.0238 140.087 96.2768L141.293 97.5733L141.836 96.9703C141.986 96.9895 142.137 96.9996 142.288 97.0004C143.263 96.9988 144.197 96.6106 144.885 95.9209C145.574 95.2312 145.961 94.2965 145.961 93.322C145.96 93.0893 145.938 92.8572 145.894 92.6286L146.359 92.1763Z" fill="#5E5E5E" stroke="#263238" stroke-linecap="round" stroke-linejoin="round"/>
<path d="M143.904 98.6224C145.936 98.6224 147.582 96.9755 147.582 94.944C147.582 92.9125 145.936 91.2656 143.904 91.2656C141.873 91.2656 140.226 92.9125 140.226 94.944C140.226 96.9755 141.873 98.6224 143.904 98.6224Z" fill="#263238" stroke="#263238" stroke-linecap="round" stroke-linejoin="round"/>
<path d="M153.763 89.7824L152.738 88.7874L152.557 88.6125C152.063 88.1712 151.424 87.9245 150.761 87.9181C150.098 87.9117 149.456 88.1462 148.952 88.5779C148.449 89.0096 148.12 89.6093 148.025 90.2656C147.931 90.9218 148.078 91.5901 148.439 92.1462C148.612 92.4081 148.828 92.6385 149.078 92.8276L149.989 93.7924L150.399 93.3583C150.509 93.3675 150.62 93.3675 150.73 93.3583C151.458 93.3583 152.156 93.0692 152.67 92.5546C153.185 92.0401 153.474 91.3422 153.474 90.6145C153.474 90.4422 153.456 90.2704 153.42 90.102L153.763 89.7824Z" fill="#5E5E5E" stroke="#263238" stroke-linecap="round" stroke-linejoin="round"/>
<path d="M151.93 94.5944C153.445 94.5944 154.674 93.366 154.674 91.8507C154.674 90.3353 153.445 89.1069 151.93 89.1069C150.415 89.1069 149.186 90.3353 149.186 91.8507C149.186 93.366 150.415 94.5944 151.93 94.5944Z" fill="#263238" stroke="#263238" stroke-linecap="round" stroke-linejoin="round"/>
<path d="M157.05 92.1764L155.675 90.8377C155.597 90.7547 155.515 90.6761 155.428 90.6025C154.766 90.0065 153.907 89.6758 153.016 89.6738C152.355 89.6726 151.707 89.8495 151.138 90.1859C150.57 90.5224 150.103 91.0059 149.786 91.5855C149.469 92.1652 149.315 92.8195 149.339 93.4796C149.363 94.1396 149.564 94.781 149.922 95.3361V95.3663C150.154 95.7159 150.444 96.0237 150.779 96.2768L151.985 97.5733L152.533 96.9703C152.681 96.9896 152.83 96.9996 152.98 97.0005C153.463 97.0005 153.941 96.9053 154.387 96.7205C154.834 96.5356 155.239 96.2647 155.581 95.9231C155.922 95.5815 156.193 95.176 156.378 94.7297C156.563 94.2835 156.658 93.8051 156.658 93.3221C156.657 93.0894 156.635 92.8572 156.592 92.6286L157.05 92.1764Z" fill="#5E5E5E" stroke="#263238" stroke-linecap="round" stroke-linejoin="round"/>
<path d="M158.255 94.9443C158.257 95.6721 158.042 96.3839 157.638 96.9896C157.235 97.5953 156.661 98.0677 155.989 98.347C155.317 98.6264 154.577 98.7001 153.863 98.5588C153.149 98.4176 152.493 98.0677 151.978 97.5535C151.463 97.0393 151.112 96.3839 150.97 95.6702C150.827 94.9565 150.9 94.2166 151.178 93.5441C151.456 92.8716 151.928 92.2968 152.533 91.8923C153.138 91.4879 153.849 91.272 154.577 91.272C155.552 91.272 156.486 91.6587 157.176 92.3472C157.866 93.0357 158.254 93.9698 158.255 94.9443Z" fill="#263238" stroke="#263238" stroke-linecap="round" stroke-linejoin="round"/>
<path d="M161.374 96.2345C161.179 95.8966 160.935 95.5897 160.65 95.324L160.56 95.2094H160.529C159.842 94.6211 158.968 94.2981 158.063 94.2988H143.181C142.17 94.2988 141.201 94.7004 140.486 95.4151C139.771 96.1298 139.37 97.0991 139.37 98.1099C139.369 99.0896 139.747 100.031 140.425 100.739H140.377L146.732 107.758L167.392 102.813L161.374 96.2345Z" fill="#5E5E5E" stroke="#263238" stroke-linecap="round" stroke-linejoin="round"/>
<path d="M165.003 109.664H150.097C149.597 109.664 149.101 109.565 148.639 109.373C148.177 109.182 147.758 108.901 147.404 108.547C147.051 108.193 146.771 107.773 146.58 107.311C146.389 106.848 146.291 106.353 146.292 105.853C146.291 105.352 146.389 104.857 146.58 104.395C146.771 103.932 147.051 103.512 147.404 103.158C147.758 102.804 148.177 102.523 148.639 102.332C149.101 102.14 149.597 102.042 150.097 102.042H165.003C166.014 102.042 166.984 102.443 167.698 103.158C168.413 103.872 168.814 104.842 168.814 105.853C168.814 106.863 168.413 107.833 167.698 108.547C166.984 109.262 166.014 109.664 165.003 109.664Z" fill="#263238" stroke="#263238" stroke-linecap="round" stroke-linejoin="round"/>
<path d="M170.473 106.757H149.446L151.315 111.66L149.446 122.164H170.473C172.479 122.108 174.384 121.272 175.782 119.833C177.181 118.395 177.964 116.467 177.964 114.461C177.964 112.454 177.181 110.527 175.782 109.088C174.384 107.65 172.479 106.813 170.473 106.757Z" fill="#263238" stroke="#263238" stroke-linecap="round" stroke-linejoin="round"/>
<path d="M149.446 106.757V122.164C151.452 122.108 153.356 121.272 154.755 119.833C156.154 118.395 156.937 116.467 156.937 114.461C156.937 112.454 156.154 110.527 154.755 109.088C153.356 107.65 151.452 106.813 149.446 106.757Z" fill="#5E5E5E" stroke="#263238" stroke-linecap="round" stroke-linejoin="round"/>
<path d="M157.158 123.919C157.158 123.919 149.446 124.974 143.608 129.406C137.771 133.839 136.601 138.168 136.131 140.622C135.838 142.32 135.683 144.038 135.667 145.76V185.933H143.608V144.825C143.608 144.825 142.909 139.453 145.942 135.014C148.975 130.576 157.158 128.683 157.158 128.683V123.919Z" fill="#263238" stroke="#263238" stroke-linecap="round" stroke-linejoin="round"/>
<path d="M150.266 123.919C150.266 123.919 142.559 124.974 136.716 129.406C130.873 133.839 129.709 138.168 129.245 140.622C128.948 142.319 128.791 144.038 128.774 145.76V185.933H136.716V144.825C136.716 144.825 136.017 139.453 139.056 135.014C142.095 130.576 150.266 128.683 150.266 128.683V123.919Z" fill="white" stroke="#263238" stroke-linecap="round" stroke-linejoin="round"/>
<path d="M137.562 170.597C138.101 167.455 135.991 164.472 132.85 163.934C129.708 163.395 126.725 165.505 126.186 168.646C125.648 171.787 127.758 174.771 130.899 175.309C134.04 175.848 137.023 173.738 137.562 170.597Z" fill="#263238" stroke="#263238" stroke-linecap="round" stroke-linejoin="round"/>
<path d="M158.406 143.191H156.073V144.711H158.406V143.191Z" fill="#263238" stroke="#263238" stroke-linecap="round" stroke-linejoin="round"/>
<path d="M159.987 129.406H154.499V143.42H159.987V129.406Z" fill="#263238" stroke="#263238" stroke-linecap="round" stroke-linejoin="round"/>
<path d="M173.242 141.264L171.086 142.157L171.667 143.561L173.824 142.668L173.242 141.264Z" fill="#263238" stroke="#263238" stroke-linecap="round" stroke-linejoin="round"/>
<path d="M169.422 127.929L164.352 130.028L169.712 142.977L174.782 140.878L169.422 127.929Z" fill="#263238" stroke="#263238" stroke-linecap="round" stroke-linejoin="round"/>
<path d="M171.637 122.164H149.446V131.396H171.637V122.164Z" fill="#5E5E5E" stroke="#263238" stroke-linecap="round" stroke-linejoin="round"/>
<path d="M171.637 122.164H154.276V131.396H171.637V122.164Z" fill="#263238" stroke="#263238" stroke-linecap="round" stroke-linejoin="round"/>
<path d="M167.084 166.142H166.21V158.604H164.105V166.142H163.406V170.87H164.105V183.31H166.21V170.87H167.084V166.142Z" fill="#263238" stroke="#263238" stroke-linecap="round" stroke-linejoin="round"/>
<path d="M183.082 206.61H143.283V191.209C143.283 188.97 144.172 186.823 145.756 185.24C147.339 183.657 149.486 182.767 151.725 182.767H159.299C162.428 182.766 165.527 183.382 168.417 184.579C171.308 185.776 173.935 187.531 176.148 189.744C178.36 191.956 180.115 194.583 181.312 197.474C182.509 200.365 183.125 203.463 183.124 206.592L183.082 206.61Z" fill="#263238" stroke="#263238" stroke-linecap="round" stroke-linejoin="round"/>
<path d="M172.125 206.61H132.278V191.209C132.278 188.97 133.167 186.823 134.751 185.24C136.334 183.657 138.481 182.767 140.72 182.767H148.294C151.425 182.766 154.526 183.381 157.418 184.579C160.311 185.777 162.939 187.533 165.153 189.748C167.366 191.962 169.121 194.592 170.318 197.485C171.514 200.378 172.128 203.479 172.125 206.61Z" fill="#5E5E5E" stroke="#263238" stroke-linecap="round" stroke-linejoin="round"/>
<path d="M162.061 157.791H145.713V183.949H162.061V157.791Z" fill="#263238" stroke="#263238" stroke-linecap="round" stroke-linejoin="round"/>
<path d="M162.061 166.329H145.713V175.411H162.061V166.329Z" fill="#5E5E5E" stroke="#263238" stroke-linecap="round" stroke-linejoin="round"/>
<path d="M167.548 206.61H127.749V191.209C127.749 188.97 128.639 186.823 130.222 185.24C131.805 183.657 133.953 182.767 136.192 182.767H143.723C146.852 182.766 149.951 183.382 152.842 184.579C155.733 185.776 158.359 187.531 160.572 189.744C162.784 191.956 164.539 194.583 165.736 197.474C166.933 200.365 167.549 203.463 167.548 206.592V206.61Z" fill="#263238" stroke="#263238" stroke-linecap="round" stroke-linejoin="round"/>
<path d="M120.658 212.448C120.506 212.448 120.36 212.391 120.248 212.289C120.136 212.186 120.067 212.044 120.055 211.893L119.56 207.31H121.78L121.285 211.893C121.273 212.049 121.2 212.193 121.083 212.297C120.966 212.4 120.814 212.454 120.658 212.448Z" fill="#263238" stroke="#263238" stroke-linecap="round" stroke-linejoin="round"/>
<path d="M146.467 212.448C146.315 212.448 146.169 212.391 146.057 212.289C145.945 212.186 145.876 212.044 145.864 211.893L145.364 207.31H147.583L147.088 211.893C147.076 212.048 147.004 212.191 146.889 212.295C146.773 212.398 146.622 212.453 146.467 212.448Z" fill="#263238" stroke="#263238" stroke-linecap="round" stroke-linejoin="round"/>
<path d="M156.073 212.448C155.921 212.448 155.774 212.391 155.663 212.289C155.551 212.186 155.482 212.044 155.47 211.893L154.975 207.31H157.194L156.7 211.893C156.688 212.049 156.615 212.193 156.498 212.297C156.381 212.4 156.229 212.454 156.073 212.448Z" fill="#263238" stroke="#263238" stroke-linecap="round" stroke-linejoin="round"/>
<path d="M182.238 212.448C182.086 212.448 181.939 212.391 181.827 212.289C181.716 212.186 181.647 212.044 181.635 211.893L181.14 207.31H183.359L182.865 211.893C182.852 212.049 182.78 212.193 182.663 212.297C182.546 212.4 182.394 212.454 182.238 212.448Z" fill="#263238" stroke="#263238" stroke-linecap="round" stroke-linejoin="round"/>
<path d="M156.573 206.61H116.774V191.209C116.774 188.97 117.664 186.823 119.247 185.24C120.83 183.657 122.977 182.767 125.217 182.767H132.748C135.877 182.766 138.976 183.382 141.867 184.579C144.758 185.776 147.384 187.531 149.597 189.744C151.809 191.956 153.564 194.583 154.761 197.474C155.958 200.365 156.574 203.463 156.573 206.592V206.61Z" fill="#5E5E5E" stroke="#263238" stroke-linecap="round" stroke-linejoin="round"/>
<path d="M184.662 205.555H115.749C115.073 205.555 114.525 206.103 114.525 206.779V206.785C114.525 207.461 115.073 208.009 115.749 208.009H184.662C185.338 208.009 185.886 207.461 185.886 206.785V206.779C185.886 206.103 185.338 205.555 184.662 205.555Z" fill="white" stroke="#263238" stroke-linecap="round" stroke-linejoin="round"/>
<path d="M186.586 155.221H135.317V159.545H186.586V155.221Z" fill="white" stroke="#263238" stroke-linecap="round" stroke-linejoin="round"/>
<path d="M186.591 155.221H152.937V159.545H186.591V155.221Z" fill="#263238" stroke="#263238" stroke-linecap="round" stroke-linejoin="round"/>
<path d="M100.366 174.373C100.366 174.373 114.031 166.432 118.005 163.863C121.978 161.294 123.028 161.758 123.962 162.343C124.897 162.928 129.564 167.366 131.084 168.066C131.586 168.28 131.986 168.678 132.204 169.178C132.421 169.678 132.439 170.242 132.254 170.755C132.019 171.105 128.636 174.373 128.636 174.373C128.636 174.373 129.456 176.243 128.521 176.828C127.586 177.413 125.018 179.632 125.018 179.632C125.018 179.632 121.749 182.9 120.579 183.599C119.41 184.299 117.076 186.753 116.027 186.868C114.977 186.982 113.572 185.933 112.752 185.469L111.938 185.004C111.268 185.685 110.467 186.222 109.582 186.583C108.698 186.944 107.749 187.121 106.794 187.103C103.647 186.988 96.2839 184.769 96.2839 184.769C96.2839 184.769 97.1824 177.177 100.366 174.373Z" fill="white" stroke="#263238" stroke-linecap="round" stroke-linejoin="round"/>
<path d="M120.543 183.599C120.501 183.102 120.34 182.622 120.073 182.2C119.608 181.38 116.219 177.527 115.405 175.893" stroke="#263238" stroke-linecap="round" stroke-linejoin="round"/>
<path d="M118.209 171.69C118.209 171.69 120.893 175.772 122.292 176.942C123.691 178.112 125.445 178.926 124.981 179.632" stroke="#263238" stroke-linecap="round" stroke-linejoin="round"/>
<path d="M128.6 174.373C126.893 173.143 125.256 171.819 123.697 170.405C122.178 168.886 121.593 168.416 121.593 168.416" stroke="#263238" stroke-linecap="round" stroke-linejoin="round"/>
<path d="M123.697 170.405C123.697 170.405 128.015 170.405 128.835 170.52" stroke="#263238" stroke-linecap="round" stroke-linejoin="round"/>
<path d="M111.902 185.004C111.902 185.004 111.082 184.534 111.902 183.834C112.722 183.135 114.585 183.834 114.585 183.834" stroke="#263238" stroke-linecap="round" stroke-linejoin="round"/>
<path d="M90.6456 114.343C90.6456 114.343 81.4195 114.228 78.8507 115.042C76.2818 115.857 76.7461 117.147 75.926 121.35C75.1059 125.553 65.1863 150.295 61.6828 160.124C58.1793 169.953 53.2708 185.119 54.0909 186.657C54.911 188.194 71.723 191.209 80.4848 191.674C87.0246 192.141 93.5346 192.961 99.9863 194.128C99.9863 194.128 97.7672 180.228 102.205 173.571C102.205 173.571 88.4265 172.872 85.3873 172.172C82.3481 171.473 81.5341 171.237 81.5341 171.237C81.5341 171.237 88.6557 158.393 90.8748 154.654C93.0939 150.916 94.1492 134.797 87.1421 128.261" fill="#00B8CC"/>
<path d="M90.6456 114.343C90.6456 114.343 81.4195 114.228 78.8507 115.042C76.2818 115.857 76.7461 117.147 75.926 121.35C75.1059 125.553 65.1863 150.295 61.6828 160.124C58.1793 169.953 53.2708 185.119 54.0909 186.657C54.911 188.194 71.723 191.209 80.4848 191.674C87.0246 192.141 93.5346 192.961 99.9863 194.128C99.9863 194.128 97.7672 180.228 102.205 173.571C102.205 173.571 88.4265 172.872 85.3873 172.172C82.3481 171.473 81.5341 171.237 81.5341 171.237C81.5341 171.237 88.6557 158.393 90.8748 154.654C93.0939 150.916 94.1492 134.797 87.1421 128.261" stroke="#263238" stroke-linecap="round" stroke-linejoin="round"/>
<path d="M73.5924 166.196C73.5924 166.196 78.1451 165.847 80.2255 168.186C82.3059 170.526 81.51 171.201 81.51 171.201C81.51 171.201 80.2255 169.567 77.0718 168.632C73.918 167.698 69.8356 168.632 67.9602 170.152" stroke="#263238" stroke-linecap="round" stroke-linejoin="round"/>
<path d="M121.243 82.4617C121.243 82.4617 120.543 76.8537 118.439 74.7492C116.334 72.6447 114 73.9351 114 79.8929C114 85.8507 118.221 91.3502 120.308 90.518C122.394 89.6859 122.292 88.8839 122.292 88.8839" fill="white"/>
<path d="M121.243 82.4617C121.243 82.4617 120.543 76.8537 118.439 74.7492C116.334 72.6447 114 73.9351 114 79.8929C114 85.8507 118.221 91.3502 120.308 90.518C122.394 89.6859 122.292 88.8839 122.292 88.8839" stroke="#263238" stroke-linecap="round" stroke-linejoin="round"/>
<path d="M115.478 81.8464C115.478 81.8464 115.279 76.2202 117.088 76.4192C118.897 76.6182 119.699 83.2574 119.699 83.2574C119.699 83.2574 117.088 80.4413 117.088 82.0514C117.088 83.6614 119.096 84.6624 119.096 84.6624" stroke="#263238" stroke-linecap="round" stroke-linejoin="round"/>
<path d="M13.9999 212L221 213.017" stroke="#263238" stroke-linecap="round" stroke-linejoin="round"/>
<path d="M31.6194 187.857H29.0529V210.186H31.6194V187.857Z" fill="white" stroke="#263238" stroke-linecap="round" stroke-linejoin="round"/>
<path d="M33.1597 181.44H39.0627V204.293C39.0627 204.909 38.8177 205.501 38.3816 205.937C37.9456 206.373 37.3541 206.618 36.7374 206.618H35.4798C34.864 206.616 34.2739 206.371 33.839 205.935C33.404 205.499 33.1597 204.908 33.1597 204.293V181.44Z" fill="white" stroke="#263238" stroke-linecap="round" stroke-linejoin="round"/>
<path d="M33.7857 184.849V203.266C33.7857 203.571 33.8459 203.873 33.9628 204.155C34.0797 204.437 34.2511 204.693 34.4671 204.908C34.6831 205.124 34.9394 205.295 35.2215 205.411C35.5036 205.527 35.8058 205.587 36.111 205.586C36.4161 205.587 36.7183 205.527 37.0004 205.411C37.2825 205.295 37.5389 205.124 37.7548 204.908C37.9708 204.693 38.1422 204.437 38.2591 204.155C38.376 203.873 38.4362 203.571 38.4362 203.266V184.849H33.7857Z" fill="#00B8CC"/>
<path d="M38.9191 182.298H33.2728C33.0509 182.298 32.8381 182.21 32.6812 182.053C32.5242 181.896 32.4361 181.683 32.4361 181.461C32.4361 181.239 32.5242 181.026 32.6812 180.87C32.8381 180.713 33.0509 180.625 33.2728 180.625H38.9191C39.141 180.625 39.3538 180.713 39.5107 180.87C39.6676 181.026 39.7558 181.239 39.7558 181.461C39.7558 181.683 39.6676 181.896 39.5107 182.053C39.3538 182.21 39.141 182.298 38.9191 182.298Z" fill="white" stroke="#263238" stroke-linecap="round" stroke-linejoin="round"/>
<path d="M42.2193 181.44H48.1223V204.293C48.1223 204.909 47.8773 205.501 47.4412 205.937C47.0051 206.373 46.4137 206.618 45.797 206.618H44.5394C43.9227 206.618 43.3313 206.373 42.8952 205.937C42.4592 205.501 42.2142 204.909 42.2142 204.293V181.44H42.2193Z" fill="white" stroke="#263238" stroke-linecap="round" stroke-linejoin="round"/>
<path d="M42.8508 184.849V203.266C42.8508 203.881 43.0953 204.471 43.5304 204.906C43.9655 205.342 44.5556 205.586 45.1709 205.586C45.4761 205.587 45.7783 205.527 46.0604 205.411C46.3425 205.295 46.5988 205.124 46.8148 204.908C47.0308 204.693 47.2022 204.437 47.3191 204.155C47.436 203.873 47.4962 203.571 47.4962 203.266V184.849H42.8508Z" fill="#00B8CC"/>
<path d="M47.9786 182.298H42.3323C42.2227 182.298 42.1141 182.276 42.0129 182.234C41.9117 182.192 41.8198 182.13 41.7425 182.053C41.6652 181.975 41.6041 181.882 41.5626 181.781C41.5211 181.679 41.5001 181.571 41.5007 181.461C41.5001 181.352 41.5211 181.243 41.5626 181.141C41.6041 181.04 41.6652 180.948 41.7425 180.87C41.8198 180.792 41.9117 180.73 42.0129 180.688C42.1141 180.646 42.2227 180.625 42.3323 180.625H47.9786C48.2005 180.625 48.4133 180.713 48.5702 180.87C48.7271 181.026 48.8153 181.239 48.8153 181.461C48.8153 181.683 48.7271 181.896 48.5702 182.053C48.4133 182.21 48.2005 182.298 47.9786 182.298Z" fill="white" stroke="#263238" stroke-linecap="round" stroke-linejoin="round"/>
<path d="M51.2793 181.44H57.1823V204.293C57.1823 204.909 56.9373 205.501 56.5012 205.937C56.0651 206.373 55.4737 206.618 54.857 206.618H53.5994C52.9836 206.616 52.3935 206.371 51.9585 205.935C51.5236 205.499 51.2793 204.908 51.2793 204.293V181.44Z" fill="white" stroke="#263238" stroke-linecap="round" stroke-linejoin="round"/>
<path d="M51.9103 184.849V203.266C51.9103 203.881 52.1548 204.471 52.5899 204.906C53.025 205.342 53.6151 205.586 54.2305 205.586C54.5356 205.587 54.8378 205.527 55.1199 205.411C55.402 205.295 55.6584 205.124 55.8744 204.908C56.0903 204.693 56.2617 204.437 56.3786 204.155C56.4955 203.873 56.5557 203.571 56.5557 203.266V184.849H51.9103Z" fill="#00B8CC"/>
<path d="M57.0381 182.298H51.3918C51.1699 182.298 50.9571 182.21 50.8002 182.053C50.6433 181.896 50.5551 181.683 50.5551 181.461C50.5551 181.239 50.6433 181.026 50.8002 180.87C50.9571 180.713 51.1699 180.625 51.3918 180.625H57.0381C57.26 180.625 57.4728 180.713 57.6297 180.87C57.7866 181.026 57.8748 181.239 57.8748 181.461C57.8748 181.683 57.7866 181.896 57.6297 182.053C57.4728 182.21 57.26 182.298 57.0381 182.298Z" fill="white" stroke="#263238" stroke-linecap="round" stroke-linejoin="round"/>
<path d="M59.0813 185.547H27V189.397H59.0813V185.547Z" fill="white" stroke="#263238" stroke-linecap="round" stroke-linejoin="round"/>
<path d="M59.0813 208.389H27V212.238H59.0813V208.389Z" fill="white" stroke="#263238" stroke-linecap="round" stroke-linejoin="round"/>
<path d="M95.4998 184.505L95.4638 173.115H83.5501V184.746L75.671 209.138C75.5599 209.493 75.5338 209.869 75.5948 210.235C75.6557 210.602 75.802 210.949 76.0218 211.249C76.2416 211.549 76.5287 211.793 76.8601 211.961C77.1915 212.129 77.5578 212.217 77.9295 212.218H101.028C101.4 212.217 101.766 212.129 102.097 211.961C102.429 211.793 102.716 211.549 102.936 211.249C103.155 210.949 103.302 210.602 103.363 210.235C103.424 209.869 103.398 209.493 103.287 209.138L95.4998 184.505Z" fill="white" stroke="#263238" stroke-linecap="round" stroke-linejoin="round"/>
<path d="M95.1716 189.109H83.9047L78.0377 207.809C77.9378 208.108 77.9097 208.427 77.9557 208.739C78.0016 209.051 78.1203 209.348 78.3021 209.606C78.484 209.863 78.7239 210.075 79.0025 210.223C79.2811 210.371 79.5907 210.451 79.9061 210.458H99.0316C99.3471 210.451 99.6566 210.37 99.9353 210.222C100.214 210.075 100.454 209.863 100.636 209.606C100.819 209.348 100.938 209.051 100.984 208.739C101.031 208.427 101.004 208.109 100.905 207.809L95.1716 189.109Z" fill="#00B8CC"/>
<path d="M96.3315 171H82.3235C81.7934 171 81.3636 171.43 81.3636 171.96V172.858C81.3636 173.388 81.7934 173.818 82.3235 173.818H96.3315C96.8616 173.818 97.2914 173.388 97.2914 172.858V171.96C97.2914 171.43 96.8616 171 96.3315 171Z" fill="white" stroke="#263238" stroke-linecap="round" stroke-linejoin="round"/>
</svg>
