<svg width="21" height="21" viewBox="0 0 21 21" fill="none" xmlns="http://www.w3.org/2000/svg">
<g clip-path="url(#clip0_177_1837)">
<path d="M5.99987 2.13904C7.10499 2.94492 7.94149 4.07717 8.65375 5.11754L9.21199 5.93829C9.38535 6.19166 9.46467 6.49767 9.43623 6.80334C9.40779 7.10902 9.27337 7.39513 9.05625 7.61217L7.86974 8.79867L7.99487 9.06467C8.30112 9.68504 8.82962 10.5784 9.62499 11.3747C10.1742 11.9156 10.7934 12.3806 11.466 12.7572L11.7871 12.9295L12.0732 13.0713L12.201 13.1299L13.3866 11.9434C13.6045 11.7258 13.8919 11.5916 14.1986 11.5643C14.5053 11.5369 14.8119 11.6182 15.0649 11.7938L15.9521 12.4089C16.9601 13.1177 18.0127 13.9253 18.8309 14.9735C18.9723 15.1555 19.0623 15.372 19.0913 15.6006C19.1204 15.8292 19.0876 16.0614 18.9962 16.2729C18.2639 17.9818 16.4106 19.4369 14.483 19.3652L14.2205 19.3512L14.0166 19.3337L13.7909 19.3074L13.545 19.2742L13.2781 19.2295L12.9929 19.1735L12.6901 19.1062L12.3699 19.0239L12.033 18.9277L11.6812 18.8139C10.066 18.2662 8.01587 17.1899 5.91237 15.0864C3.80974 12.9838 2.73349 10.9337 2.18574 9.31842L2.07199 8.96667L1.97574 8.62979L1.89349 8.30954L1.82524 8.00679C1.80553 7.91197 1.78715 7.81688 1.77012 7.72154L1.72637 7.45467L1.69137 7.20879L1.66599 6.98304L1.64849 6.77917L1.63449 6.51667C1.56362 4.59517 3.03449 2.72879 4.73549 1.99992C4.94022 1.91152 5.16442 1.87786 5.38608 1.90225C5.60775 1.92664 5.81926 2.00824 5.99987 2.13904ZM5.18874 3.72104C4.25074 4.21104 3.34249 5.33104 3.38362 6.45192L3.40112 6.73892L3.42037 6.91829L3.44574 7.11954L3.48074 7.34092L3.52537 7.58329L3.58224 7.84404L3.65224 8.12404L3.73624 8.42067L3.83599 8.73392C3.87274 8.84067 3.91124 8.95004 3.95324 9.06204L4.08799 9.40504L4.24199 9.76117C4.79149 10.9704 5.68749 12.3862 7.15137 13.8492C8.61437 15.3122 10.0301 16.209 11.2394 16.7585L11.5955 16.9125L11.9385 17.0473C12.0505 17.0893 12.1599 17.1278 12.2666 17.1645L12.5799 17.2643L12.8774 17.3483L13.1565 17.4183L13.4172 17.4752L13.6596 17.5198L13.8819 17.5548L14.0831 17.581L14.2616 17.5985L14.5486 17.616C15.6546 17.6572 16.7834 16.7542 17.2716 15.8284C16.6486 15.0978 15.8751 14.4984 15.022 13.8947L14.3675 13.4388L14.2012 13.6129L13.846 14.0005L13.6579 14.1983C13.1451 14.7207 12.5466 15.1643 11.8291 14.8747L11.6314 14.7915L11.3899 14.683L11.2551 14.6192L10.9594 14.4713L10.6347 14.2963C9.81323 13.8391 9.05761 13.2725 8.38862 12.6119C7.72807 11.9429 7.16143 11.1873 6.70424 10.3658L6.52924 10.042L6.38049 9.74542L6.20899 9.36917L6.12499 9.16967C5.85287 8.49679 6.22737 7.92892 6.70599 7.43717L6.90199 7.24467L7.38937 6.79579L7.56437 6.62954L7.15049 6.02317C6.53537 5.13067 5.93424 4.32567 5.18787 3.72017L5.18874 3.72104ZM13.1189 5.28467L13.2204 5.29604C13.8573 5.40839 14.4423 5.71949 14.8915 6.18476C15.3408 6.65003 15.6312 7.24558 15.7211 7.88604C15.7532 8.10758 15.6991 8.33298 15.5701 8.51587C15.441 8.69877 15.2468 8.82525 15.0273 8.8693C14.8079 8.91335 14.5799 8.87162 14.3902 8.75269C14.2006 8.63375 14.0638 8.44667 14.0079 8.22992L13.9877 8.12929C13.9525 7.87826 13.8454 7.64279 13.6792 7.45133C13.5131 7.25988 13.2951 7.12063 13.0515 7.05042L12.9159 7.01979C12.6962 6.98085 12.4996 6.85944 12.3665 6.68039C12.2333 6.50133 12.1736 6.27817 12.1995 6.05655C12.2254 5.83492 12.3351 5.63157 12.506 5.48809C12.6768 5.34461 12.8961 5.27184 13.1189 5.28467ZM13.125 2.62467C14.5174 2.62467 15.8527 3.17779 16.8373 4.16236C17.8219 5.14693 18.375 6.48228 18.375 7.87467C18.3747 8.09769 18.2894 8.3122 18.1363 8.47437C17.9832 8.63654 17.7739 8.73413 17.5513 8.7472C17.3286 8.76027 17.1094 8.68783 16.9384 8.54469C16.7674 8.40155 16.6575 8.1985 16.6311 7.97704L16.625 7.87467C16.6253 6.98604 16.2874 6.13059 15.68 5.48201C15.0725 4.83343 14.241 4.44033 13.3542 4.38254L13.125 4.37467C12.8929 4.37467 12.6704 4.28248 12.5063 4.11839C12.3422 3.95429 12.25 3.73173 12.25 3.49967C12.25 3.26761 12.3422 3.04505 12.5063 2.88095C12.6704 2.71686 12.8929 2.62467 13.125 2.62467Z" fill="#263238"/>
</g>
<defs>
<clipPath id="clip0_177_1837">
<rect width="21" height="21" fill="white"/>
</clipPath>
</defs>
</svg>
