<svg width="21" height="21" viewBox="0 0 21 21" fill="none" xmlns="http://www.w3.org/2000/svg">
<g clip-path="url(#clip0_177_1855)">
<path d="M15.3125 2.625C16.3247 2.625 17.298 3.01479 18.0304 3.71344C18.7627 4.41209 19.1979 5.36595 19.2456 6.377L19.25 6.5625V13.125C19.2501 13.5665 19.0834 13.9917 18.7832 14.3155C18.483 14.6392 18.0715 14.8375 17.6312 14.8706L17.5 14.875H14.875V17.5C14.8748 17.723 14.7894 17.9375 14.6363 18.0997C14.4832 18.2619 14.2739 18.3595 14.0513 18.3725C13.8286 18.3856 13.6094 18.3132 13.4384 18.17C13.2674 18.0269 13.1575 17.8238 13.1311 17.6024L13.125 17.5V14.875H3.5C3.0585 14.8751 2.63325 14.7084 2.30952 14.4082C1.98579 14.108 1.78749 13.6965 1.75438 13.2562L1.75 13.125V6.5625C1.75 5.55033 2.13979 4.57702 2.83844 3.84464C3.53709 3.11226 4.49095 2.67706 5.502 2.62938L5.6875 2.625H15.3125ZM15.3125 4.375H8.96175C9.33887 4.9385 9.57425 5.6035 9.618 6.32187L9.625 6.5625V13.125H17.5V6.5625C17.5001 6.00712 17.2889 5.4725 16.9093 5.06709C16.5298 4.66167 16.0102 4.41581 15.456 4.37938L15.3125 4.375ZM5.6875 4.375C5.10734 4.375 4.55094 4.60547 4.1407 5.0157C3.73047 5.42594 3.5 5.98234 3.5 6.5625V13.125H7.875V6.5625C7.875 5.98234 7.64453 5.42594 7.2343 5.0157C6.82406 4.60547 6.26766 4.375 5.6875 4.375ZM6.125 7C6.34802 7.00025 6.56253 7.08564 6.7247 7.23874C6.88687 7.39184 6.98446 7.60108 6.99753 7.82372C7.0106 8.04636 6.93816 8.26558 6.79502 8.4366C6.65188 8.60763 6.44883 8.71753 6.22738 8.74388L6.125 8.75H5.25C5.02698 8.74975 4.81247 8.66436 4.6503 8.51126C4.48813 8.35816 4.39054 8.14892 4.37747 7.92628C4.3644 7.70364 4.43684 7.48442 4.57998 7.3134C4.72312 7.14237 4.92617 7.03247 5.14762 7.00612L5.25 7H6.125Z" fill="#263238"/>
</g>
<defs>
<clipPath id="clip0_177_1855">
<rect width="21" height="21" fill="white"/>
</clipPath>
</defs>
</svg>
