<svg width="21" height="21" viewBox="0 0 21 21" fill="none" xmlns="http://www.w3.org/2000/svg">
<g clip-path="url(#clip0_177_1814)">
<path d="M5.88 14.56C6.10278 14.495 6.34225 14.5212 6.54573 14.6328C6.74921 14.7444 6.90002 14.9322 6.965 15.155C7.02998 15.3778 7.0038 15.6173 6.89221 15.8207C6.78063 16.0242 6.59278 16.175 6.37 16.24C5.9325 16.3677 5.6175 16.5025 5.41538 16.625C5.62363 16.7501 5.95262 16.8901 6.40937 17.0205C7.42 17.3092 8.86637 17.5 10.5 17.5C12.1336 17.5 13.58 17.3092 14.5906 17.0205C15.0482 16.8901 15.3764 16.7501 15.5846 16.625C15.3834 16.5025 15.0684 16.3677 14.6309 16.24C14.4116 16.1722 14.2278 16.0209 14.119 15.8188C14.0102 15.6166 13.9852 15.3799 14.0494 15.1595C14.1135 14.9391 14.2617 14.7528 14.462 14.6406C14.6623 14.5285 14.8986 14.4995 15.12 14.56C15.7045 14.7306 16.24 14.9494 16.6513 15.2303C17.0319 15.4919 17.5 15.9478 17.5 16.625C17.5 17.3101 17.0205 17.7695 16.6337 18.0311C16.2155 18.3129 15.6686 18.5325 15.071 18.7031C13.8653 19.0487 12.25 19.25 10.5 19.25C8.75 19.25 7.13475 19.0487 5.929 18.7031C5.33138 18.5325 4.7845 18.3129 4.36625 18.0311C3.9795 17.7686 3.5 17.3101 3.5 16.625C3.5 15.9478 3.96812 15.4919 4.34875 15.2303C4.76 14.9494 5.2955 14.7306 5.88 14.56ZM10.5 1.75C12.2405 1.75 13.9097 2.4414 15.1404 3.67211C16.3711 4.90282 17.0625 6.57202 17.0625 8.3125C17.0625 10.5595 15.8375 12.3865 14.5687 13.685C14.0644 14.1959 13.5224 14.6683 12.9474 15.0981C12.4276 15.4884 11.2394 16.2199 11.2394 16.2199C11.014 16.348 10.7592 16.4153 10.5 16.4153C10.2408 16.4153 9.98599 16.348 9.76062 16.2199C9.17067 15.8783 8.60043 15.5038 8.05263 15.0981C7.47735 14.6686 6.93535 14.1962 6.43125 13.685C5.1625 12.3865 3.9375 10.5595 3.9375 8.3125C3.9375 6.57202 4.6289 4.90282 5.85961 3.67211C7.09032 2.4414 8.75952 1.75 10.5 1.75ZM10.5 3.5C9.22365 3.5 7.99957 4.00703 7.09705 4.90955C6.19453 5.81207 5.6875 7.03615 5.6875 8.3125C5.6875 9.9015 6.559 11.312 7.6825 12.46C8.52775 13.3245 9.45875 13.9825 10.1036 14.3867L10.5 14.6265L10.8964 14.3867C11.5404 13.9825 12.4722 13.3245 13.3175 12.4609C14.441 11.312 15.3125 9.9015 15.3125 8.3125C15.3125 7.03615 14.8055 5.81207 13.903 4.90955C13.0004 4.00703 11.7764 3.5 10.5 3.5ZM10.5 5.6875C10.8447 5.6875 11.1861 5.7554 11.5045 5.88732C11.823 6.01924 12.1124 6.21259 12.3562 6.45634C12.5999 6.7001 12.7933 6.98948 12.9252 7.30796C13.0571 7.62644 13.125 7.96778 13.125 8.3125C13.125 8.65722 13.0571 8.99856 12.9252 9.31704C12.7933 9.63552 12.5999 9.9249 12.3562 10.1687C12.1124 10.4124 11.823 10.6058 11.5045 10.7377C11.1861 10.8696 10.8447 10.9375 10.5 10.9375C9.80381 10.9375 9.13613 10.6609 8.64384 10.1687C8.15156 9.67637 7.875 9.00869 7.875 8.3125C7.875 7.61631 8.15156 6.94863 8.64384 6.45634C9.13613 5.96406 9.80381 5.6875 10.5 5.6875ZM10.5 7.4375C10.2679 7.4375 10.0454 7.52969 9.88128 7.69378C9.71719 7.85788 9.625 8.08044 9.625 8.3125C9.625 8.54456 9.71719 8.76712 9.88128 8.93122C10.0454 9.09531 10.2679 9.1875 10.5 9.1875C10.7321 9.1875 10.9546 9.09531 11.1187 8.93122C11.2828 8.76712 11.375 8.54456 11.375 8.3125C11.375 8.08044 11.2828 7.85788 11.1187 7.69378C10.9546 7.52969 10.7321 7.4375 10.5 7.4375Z" fill="#263238"/>
</g>
<defs>
<clipPath id="clip0_177_1814">
<rect width="21" height="21" fill="white"/>
</clipPath>
</defs>
</svg>
