<svg width="426" height="280" viewBox="0 0 426 280" fill="none" xmlns="http://www.w3.org/2000/svg">
<g clip-path="url(#clip0_239_2260)">
<path d="M423.389 148.23C423.389 148.23 429.179 179.265 405.12 213.876C384.154 244.034 346.213 265.065 301.114 273.971C271.356 279.849 240.684 279.571 210.492 278.125C171.645 276.251 128.468 278.003 92.6138 266.725C36.7921 249.156 2.68384 203.139 0.134735 160.442C-1.53696 132.848 12.2153 101.158 48.7987 86.6101C62.3478 81.2311 77.43 77.2271 89.252 69.8675C103.466 61.0473 109.663 48.2374 120.275 37.5577C133.39 24.356 152.167 16.8396 172.551 10.7552C238.79 -9.00819 302.001 -0.138156 353.574 25.9732C405.148 52.0846 426.473 133.019 423.389 148.23Z" fill="#00B8CC"/>
<path opacity="0.7" d="M423.389 148.23C423.389 148.23 429.179 179.265 405.12 213.876C384.154 244.034 346.213 265.065 301.114 273.971C271.356 279.849 240.684 279.571 210.492 278.125C171.645 276.251 128.468 278.003 92.6138 266.725C36.7921 249.156 2.68384 203.139 0.134735 160.442C-1.53696 132.848 12.2153 101.158 48.7987 86.6101C62.3478 81.2311 77.43 77.2271 89.252 69.8675C103.466 61.0473 109.663 48.2374 120.275 37.5577C133.39 24.356 152.167 16.8396 172.551 10.7552C238.79 -9.00819 302.001 -0.138156 353.574 25.9732C405.148 52.0846 426.473 133.019 423.389 148.23Z" fill="white"/>
<path d="M67.6317 171.739H60.5226V179.777H67.6317V171.739Z" fill="#263238" stroke="#263238" stroke-miterlimit="10"/>
<path d="M70.415 168.646H56.8086V173.591H70.415V168.646Z" fill="#263238" stroke="#263238" stroke-miterlimit="10"/>
<path d="M79.0751 177.305H48.4586V258.935H79.0751V177.305Z" fill="white" stroke="#263238" stroke-miterlimit="10"/>
<path d="M60.3674 209.466C64.722 209.466 68.2521 205.936 68.2521 201.583C68.2521 197.229 64.722 193.7 60.3674 193.7C56.0129 193.7 52.4828 197.229 52.4828 201.583C52.4828 205.936 56.0129 209.466 60.3674 209.466Z" fill="#263238" stroke="#263238" stroke-miterlimit="10"/>
<path d="M124.668 279.724L110.622 262.097H70.1047L56.1709 279.724H124.668Z" fill="white" stroke="#263238" stroke-miterlimit="10"/>
<path d="M63.9177 257.083H129.175V257.453C129.175 258.749 128.66 259.992 127.744 260.908C126.828 261.824 125.585 262.338 124.289 262.338H68.8036C67.5078 262.338 66.2651 261.824 65.3488 260.908C64.4325 259.992 63.9177 258.749 63.9177 257.453V257.083Z" fill="white" stroke="#263238" stroke-miterlimit="10"/>
<path d="M102.83 149.521L90.5355 157.532L92.1398 159.993L104.435 151.983L102.83 149.521Z" fill="white" stroke="#263238" stroke-miterlimit="10"/>
<path d="M109.793 141.1L98.3209 148.574L103.129 155.951L114.601 148.477L109.793 141.1Z" fill="#263238" stroke="#263238" stroke-miterlimit="10"/>
<path d="M65.1586 129.998H62.3752V138.966H65.1586V129.998Z" fill="#263238" stroke="#263238" stroke-miterlimit="10"/>
<path d="M66.3994 138.346H60.8328V155.973H66.3994V138.346Z" fill="white" stroke="#263238" stroke-miterlimit="10"/>
<path d="M70.1047 154.112H57.1188V164.312H70.1047V154.112Z" fill="white" stroke="#263238" stroke-miterlimit="10"/>
<path d="M91.096 149.236L76.3004 161.728L43.4607 164.623L44.2018 173.066L83.8318 169.577L97.2227 159.583L91.096 149.236Z" fill="white" stroke="#263238" stroke-miterlimit="10"/>
<path d="M333.676 51.3557L332.202 66.8634C332.202 66.8634 323.645 66.269 321.138 61.2548C318.63 56.2407 319.733 49.6671 319.733 49.6671L320.828 43.6364C322.248 42.9629 323.812 42.6514 325.382 42.7296C326.952 42.8077 328.478 43.2732 329.824 44.0844C331.111 44.7819 332.164 45.8442 332.849 47.138C333.534 48.4317 333.822 49.8991 333.676 51.3557Z" fill="#B5B5B5" stroke="#263238" stroke-miterlimit="10"/>
<path d="M272.83 101.05L304.197 93.4078L319.707 49.6675C319.707 49.6675 323.395 56.5167 326.032 59.6786C328.669 62.8404 333.676 65.7093 333.676 65.7093C333.676 65.7093 328.402 94.433 326.558 103.617C324.714 112.801 324.455 114.421 322.077 116.54C319.699 118.659 291.297 136.631 291.297 136.631C291.297 136.631 300.776 154.284 301.844 166.673C302.913 179.062 303.688 193.553 303.688 193.553C303.688 193.553 280.491 156.653 272.063 145.85C263.636 135.046 260.198 118.711 262.042 110.277C263.886 101.842 272.83 101.05 272.83 101.05Z" fill="white" stroke="#263238" stroke-miterlimit="10"/>
<path d="M283.981 109.458L291.288 136.631L296.631 104.453" stroke="#263238" stroke-miterlimit="10"/>
<path d="M305.084 94.1743C307.611 95.2263 309.817 96.9238 311.48 99.0967C313.144 101.27 314.207 103.841 314.563 106.555" stroke="#263238" stroke-miterlimit="10"/>
<path d="M310.866 94.1743C310.866 94.1743 320.879 96.2765 321.405 106.822" stroke="#263238" stroke-miterlimit="10"/>
<path d="M273.701 111.302L286.876 138.707L283.981 143.713L290.573 148.985L292.417 159.264" stroke="#263238" stroke-miterlimit="10"/>
<path d="M226.582 77.4087C226.582 77.4087 211.072 82.4228 206.022 92.1668C200.972 101.911 213.14 119.581 214.984 126.163C216.828 132.745 214.191 135.123 211.821 133.279C209.452 131.436 206.815 135.123 209.452 139.31C212.089 143.497 226.582 140.361 231.322 137.992C236.061 135.623 235.019 119.805 232.382 109.561C229.745 99.3176 226.582 87.6868 228.159 82.6813C229.736 77.6758 226.582 77.4087 226.582 77.4087Z" fill="#263238" stroke="#263238" stroke-miterlimit="10"/>
<path d="M275.734 55.9912C275.734 55.9912 283.378 65.2097 283.903 68.9143C284.222 70.8296 284.312 72.776 284.171 74.7124C284.171 74.7124 287.859 78.9254 288.651 79.4509C289.444 79.9764 292.098 81.5617 290.496 83.6724C289.982 84.3032 289.34 84.817 288.611 85.1795C287.883 85.5421 287.086 85.7449 286.273 85.7746C286.273 85.7746 286.54 93.9506 285.747 97.638C284.955 101.325 283.378 102.644 280.474 102.902C277.57 103.16 273.89 103.169 273.89 103.169L270.986 117.927L274.675 137.165L247.264 107.373C247.264 107.373 249.935 96.5524 249.935 94.4675C249.935 92.3826 245.98 88.4368 249.409 77.3315C252.839 66.2263 275.734 55.9912 275.734 55.9912Z" fill="#B5B5B5" stroke="#263238" stroke-miterlimit="10"/>
<path d="M249.073 84.1893C249.073 84.1893 253.821 85.7659 255.105 82.3456C256.389 78.9253 254.312 74.7038 260.904 71.0078C267.496 67.3118 279.155 64.6754 281.534 58.6447C283.912 52.6139 281.267 46.2557 277.578 45.4631C273.89 44.6705 269.409 46.7813 262.292 47.0484C255.174 47.3154 234.312 47.2034 227.72 57.2145C221.128 67.2256 227.496 85.2576 229.34 89.2121C231.184 93.1665 231.184 103.445 238.819 103.97C246.454 104.496 251.744 98.6976 252.261 94.4933C252.778 90.289 249.073 84.1893 249.073 84.1893Z" fill="#263238" stroke="#263238" stroke-miterlimit="10"/>
<g opacity="0.5">
<path d="M247.264 81.0447L285.265 68.1216C285.265 68.1216 292.116 72.3345 287.376 77.8742L267.867 84.1979L247.531 83.6293L247.264 81.0447Z" fill="white"/>
</g>
<path d="M247.264 81.0447L285.265 68.1216C285.265 68.1216 292.116 72.3345 287.376 77.8742L267.867 84.1979L247.531 83.6293L247.264 81.0447Z" stroke="#263238" stroke-miterlimit="10"/>
<path d="M247.264 81.0272L285.222 68.1128" stroke="#263238" stroke-width="2" stroke-miterlimit="10" stroke-linecap="round"/>
<path d="M263.869 76.2803L267.824 84.1892" stroke="#263238" stroke-miterlimit="10"/>
<path d="M254.123 86.0327C253.33 86.0327 246.479 76.8057 243.05 79.442C239.62 82.0783 242.783 91.5638 247.005 93.4075C251.227 95.2512 254.648 90.7712 254.648 90.7712" fill="#B5B5B5"/>
<path d="M254.123 86.0327C253.33 86.0327 246.479 76.8057 243.05 79.442C239.62 82.0783 242.783 91.5638 247.005 93.4075C251.227 95.2512 254.648 90.7712 254.648 90.7712" stroke="#263238" stroke-miterlimit="10"/>
<path d="M279.69 75.4874C279.69 76.7969 279.216 77.8652 278.63 77.8652C278.044 77.8652 277.578 76.7969 277.578 75.4874C277.578 74.1779 278.052 73.1182 278.63 73.1182C279.207 73.1182 279.69 74.152 279.69 75.4874Z" fill="#263238"/>
<path d="M246.488 104.211C246.488 104.211 260.189 115.549 267.832 127.93C275.476 140.31 294.985 162.451 298.147 169.835C301.31 177.218 303.947 184.851 303.947 191.175C303.947 197.499 304.472 245.452 304.472 246.52V279.724H223.541C223.541 279.724 228.556 210.413 228.556 195.655C228.556 180.897 222.222 167.457 226.97 146.375C231.718 125.293 239.594 113.171 246.488 104.211Z" fill="white" stroke="#263238" stroke-miterlimit="10"/>
<path d="M241.206 111.853L270.461 152.173L277.837 149.804L277.311 158.764L295.769 168.516" stroke="#263238" stroke-miterlimit="10"/>
<path d="M296.467 245.167H253.899V251.974H293.063" stroke="#263238" stroke-miterlimit="10"/>
<path d="M339.691 68.1216H343.672V79.6748C343.672 80.1661 343.476 80.6372 343.129 80.9846C342.782 81.332 342.31 81.5271 341.819 81.5271H341.535C341.043 81.5271 340.572 81.332 340.225 80.9846C339.877 80.6372 339.682 80.1661 339.682 79.6748V68.1216H339.691Z" fill="white" stroke="#263238" stroke-miterlimit="10"/>
<path d="M344.637 65.666H338.742V69.6463H344.637V65.666Z" fill="white" stroke="#263238" stroke-miterlimit="10"/>
<path d="M361.862 44.4205C361.862 44.4205 363.93 47.6685 363.629 49.5897C363.327 51.5109 360.535 59.9282 359.648 60.066C358.76 60.2039 358.613 59.2045 358.906 56.2322C359.199 53.2599 359.648 51.3645 359.648 50.4771C359.648 49.5897 360.233 42.6543 361.862 44.4205Z" fill="#00B8CC" stroke="#263238" stroke-linecap="round" stroke-linejoin="round"/>
<path d="M322.172 40.4402C322.172 40.4402 318.777 46.3418 321.31 49.7276C323.844 53.1135 329.281 53.4236 329.281 53.4236C329.281 53.4236 330.143 60.0575 331.496 61.0913C332.848 62.1251 336.063 66.6999 336.511 68.3196C336.959 69.9393 340.052 67.8802 340.052 66.5448C340.052 65.2095 337.838 59.911 337.243 58.4378C336.649 56.9645 337.984 52.9756 338.424 51.6488C338.62 50.9715 338.91 50.3249 339.285 49.7276C339.285 49.7276 343.594 53.863 344.008 56.2236C344.421 58.5842 343.266 67.2858 344.447 68.2852C345.628 69.2845 348.756 69.0261 349.316 67.2513C349.876 65.4765 350.944 55.1898 350.944 53.3891C350.944 51.5885 348.135 45.5664 348.135 45.5664C348.135 45.5664 352.711 50.1411 352.857 51.7608C353.004 53.3805 351.677 63.7104 352.418 64.0033C352.87 64.2699 353.389 64.3981 353.913 64.3721C354.437 64.3461 354.942 64.1669 355.365 63.8568C356.203 62.9069 356.854 61.808 357.286 60.6175C357.286 60.6175 360.234 53.6821 361.414 50.4341C362.595 47.1861 363.629 43.5418 360.975 42.1719C357.008 40.1065 352.919 38.2853 348.73 36.7184C341.207 33.7633 330.582 31.5491 326.748 34.3578C322.913 37.1664 322.172 40.4402 322.172 40.4402Z" fill="#00B8CC" stroke="#263238" stroke-linecap="round" stroke-linejoin="round"/>
<path d="M329.255 53.4236L328.661 42.8008" stroke="#263238" stroke-miterlimit="10"/>
<path d="M329.109 49.5813C329.109 49.5813 323.206 49.4348 322.611 41.9136" stroke="#263238" stroke-miterlimit="10"/>
<path d="M358.906 56.2234C358.906 56.2234 360.828 50.6148 359.208 47.9613C357.588 45.3078 351.384 41.1724 351.384 41.1724" stroke="#263238" stroke-miterlimit="10"/>
<path d="M317.476 144.143C317.993 143.79 327.178 134.089 327.351 133.4C327.523 132.711 327.695 123.355 328.738 121.278C329.781 119.202 333.236 113.128 333.417 111.224C333.598 109.32 333.59 102.91 333.417 100.662C333.245 98.413 335.494 98.2321 337.054 100.317C338.613 102.402 338.958 105.34 338.958 107.933C338.958 110.526 339.13 112.611 339.475 113.102C339.82 113.593 342.767 116.221 344.154 116.548C345.541 116.876 353.857 112.732 356.287 111.87C358.717 111.009 360.268 103.901 360.596 103.203C360.923 102.505 361.121 97.3188 361.293 96.1041C361.466 94.8893 363.715 93.3299 364.585 96.2764C365.456 99.2228 365.102 106.15 364.93 108.054C364.758 109.958 364.93 113.947 364.068 114.989C363.206 116.031 357.657 120.873 357.175 121.571C356.692 122.269 354.589 129.015 353.883 130.057C353.176 131.1 347.299 133.348 343.318 135.769C340.437 137.622 337.714 139.708 335.175 142.007C335.497 142.36 335.675 142.821 335.675 143.299C335.675 143.777 335.497 144.238 335.175 144.591C334.153 145.475 332.987 146.177 331.728 146.668L328.092 155.335L317.476 144.143Z" fill="#B5B5B5" stroke="#263238" stroke-miterlimit="10"/>
<path d="M353.857 130.152C354.555 129.11 356.632 122.398 357.149 121.666C357.666 120.934 363.181 116.118 364.042 115.084C364.904 114.05 364.74 110.061 364.904 108.148C365.068 106.236 365.421 99.3176 364.559 96.3711C363.698 93.4246 361.44 94.984 361.268 96.1988C361.095 97.4136 360.923 102.609 360.57 103.298C360.216 103.987 358.665 111.095 356.261 111.965C353.857 112.835 345.516 116.988 344.128 116.643C342.741 116.298 339.82 113.697 339.449 113.197C339.079 112.697 338.932 110.612 338.932 108.028C338.932 105.443 338.587 102.488 337.028 100.412C335.468 98.3354 333.21 98.4991 333.391 100.756C333.572 103.014 333.564 109.372 333.391 111.319C333.219 113.266 329.746 119.288 328.712 121.373C327.678 123.458 327.489 132.737 327.351 133.4C325.78 135.427 324.087 137.357 322.284 139.181L331.53 147.098L331.677 146.737C332.935 146.246 334.101 145.543 335.123 144.66C335.445 144.307 335.623 143.846 335.623 143.368C335.623 142.89 335.445 142.429 335.123 142.076C337.662 139.777 340.386 137.691 343.267 135.838C347.308 133.4 353.168 131.151 353.857 130.152Z" fill="#00B8CC" stroke="#263238" stroke-linecap="round" stroke-linejoin="round"/>
<path d="M357.149 121.623L351.263 125.948" stroke="#263238" stroke-miterlimit="10"/>
<path d="M240.456 131.625C240.456 131.625 249.418 130.04 254.691 134.253C259.965 138.466 261.809 146.375 262.068 147.176C262.326 147.977 287.066 170.644 287.066 170.644L318.165 141.912L333.46 156.937C333.46 156.937 313.951 181.707 303.938 191.192C293.925 200.678 286.54 205.149 284.696 205.967C282.852 206.786 281.008 205.967 278.897 204.649C276.786 203.331 233.037 159.324 233.037 159.324" fill="white"/>
<path d="M240.456 131.625C240.456 131.625 249.418 130.04 254.691 134.253C259.965 138.466 261.809 146.375 262.068 147.176C262.326 147.977 287.066 170.644 287.066 170.644L318.165 141.912L333.46 156.937C333.46 156.937 313.951 181.707 303.938 191.192C293.925 200.678 286.54 205.149 284.696 205.967C282.852 206.786 281.008 205.967 278.897 204.649C276.786 203.331 233.037 159.324 233.037 159.324" stroke="#263238" stroke-miterlimit="10"/>
<path d="M239.887 150.071C239.887 150.071 248.056 142.429 252.279 142.162C256.501 141.895 259.388 145.324 259.388 145.324" stroke="#263238" stroke-miterlimit="10"/>
<path d="M235.665 143.748C235.665 143.748 245.687 137.157 251.486 140.301" stroke="#263238" stroke-miterlimit="10"/>
<path d="M287.066 170.645C287.066 170.645 280.215 185.136 281.267 191.985" stroke="#263238" stroke-miterlimit="10"/>
<path d="M285.747 171.411C281.188 174.556 277.767 179.088 275.993 184.334" stroke="#263238" stroke-miterlimit="10"/>
<path d="M349.221 86.6274H353.202V98.1807C353.193 98.6645 352.995 99.1255 352.65 99.4652C352.306 99.8049 351.842 99.9964 351.358 99.9985H351.074C350.582 99.9985 350.111 99.8034 349.764 99.456C349.416 99.1086 349.221 98.6375 349.221 98.1462V86.6274Z" fill="white" stroke="#263238" stroke-miterlimit="10"/>
<path d="M354.167 84.2065H348.273V88.1868H354.167V84.2065Z" fill="white" stroke="#263238" stroke-miterlimit="10"/>
<path d="M356.675 86.6274H360.656V98.1807C360.656 98.6719 360.461 99.1431 360.113 99.4905C359.766 99.8378 359.294 100.033 358.803 100.033H358.51C358.019 100.033 357.548 99.8378 357.2 99.4905C356.853 99.1431 356.657 98.6719 356.657 98.1807V86.6274H356.675Z" fill="white" stroke="#263238" stroke-miterlimit="10"/>
<path d="M361.612 84.2065H355.718V88.1868H361.612V84.2065Z" fill="white" stroke="#263238" stroke-miterlimit="10"/>
<path d="M363.215 92.6924H337.915V105.684H363.215V92.6924Z" fill="#263238" stroke="#263238" stroke-miterlimit="10"/>
<path d="M107.365 122.855C107.365 122.855 107.064 132.84 109.183 136.778C111.303 140.715 114.931 142.223 115.215 145.557C115.5 148.891 114 153.423 116.12 154.637C118.24 155.852 133.354 171.007 138.223 170.679C143.092 170.352 148.253 163.416 148.253 163.416L159.154 170.378L173.682 140.413L163.997 131.634C163.997 131.634 160.059 108.019 154.613 101.36C149.167 94.7 128.882 92.8908 118.585 97.7327C108.287 102.575 104.659 113.473 102.212 115.592C99.7649 117.712 94.655 119.814 97.4124 123.76C100.17 127.706 107.365 122.855 107.365 122.855Z" fill="white" stroke="#263238" stroke-miterlimit="10"/>
<path d="M161.256 137.682C162.411 136.821 163.566 134.477 164.514 132.108L163.979 131.634C163.979 131.634 160.041 108.019 154.595 101.36C149.149 94.7 128.865 92.8908 118.567 97.7327C108.27 102.575 104.642 113.473 102.195 115.592C99.7477 117.712 94.655 119.814 97.4125 123.76C99.9976 127.43 106.435 123.467 107.296 122.898L107.4 122.838C110.21 121.947 112.945 120.832 115.577 119.504C118.027 118.083 120.356 116.464 122.54 114.662C122.54 114.662 116.18 125.259 118.602 128.584C121.023 131.91 128.287 130.402 128.287 130.402C128.287 130.402 133.13 136.76 136.164 135.244C139.197 133.728 134.948 127.981 139.49 125.862C144.031 123.743 147.667 132.823 147.667 134.339C147.667 135.856 158.533 139.802 161.256 137.682Z" fill="#263238" stroke="#263238" stroke-miterlimit="10"/>
<path d="M164.557 132.16L143.393 156.757C143.393 156.757 138.223 156.145 134.612 153.423C131.002 150.7 127.951 144.04 127.951 144.04C127.951 144.04 143.393 127.094 151.261 122.252C158.154 118.022 160.395 117.255 160.851 117.083C160.584 116.058 160.3 115.024 159.99 113.999C158.344 114.722 153.518 117.143 145.797 123.415C137.361 130.307 119.507 148.141 115.043 152.639C115.057 153.027 115.163 153.406 115.352 153.746C115.541 154.086 115.807 154.376 116.129 154.594C118.249 155.8 133.363 170.963 138.232 170.636C139.227 170.54 140.194 170.247 141.075 169.775C142.006 166.001 143.6 160.298 144.893 157.911C146.461 155.042 162.006 138.191 166.228 133.633L164.557 132.16Z" fill="#00B8CC" stroke="#263238" stroke-linecap="round" stroke-linejoin="round"/>
<path d="M137.637 136.183C137.637 136.183 134.914 126.491 138.55 124.681C142.187 122.872 146.719 126.801 147.331 131.031C147.943 135.261 145.815 140.422 145.815 140.422C147.08 143.16 147.503 146.213 147.03 149.192" fill="white"/>
<path d="M137.637 136.183C137.637 136.183 134.914 126.491 138.55 124.681C142.187 122.872 146.719 126.801 147.331 131.031C147.943 135.261 145.815 140.422 145.815 140.422C147.08 143.16 147.503 146.213 147.03 149.192" stroke="#263238" stroke-miterlimit="10"/>
<path d="M122.066 143.67C122.669 144.842 122.66 146.039 122.066 146.349C121.471 146.659 120.48 145.97 119.877 144.799C119.274 143.627 119.283 142.429 119.877 142.119C120.472 141.809 121.463 142.498 122.066 143.67Z" fill="#263238"/>
<path d="M114.242 138.044C114.242 138.044 114.595 133.814 119.705 134.692" stroke="#263238" stroke-miterlimit="10"/>
<path d="M173.096 136.864L150.209 173.35L159.18 179.846L180.205 140.267L173.096 136.864Z" fill="white" stroke="#263238" stroke-miterlimit="10"/>
<path d="M178.663 140.887C178.663 140.887 161.032 171.506 157.629 178.304C154.225 185.101 144.332 201.798 143.712 211.697C143.092 221.596 140.007 279.759 140.007 279.759H211.158C211.158 279.759 216.423 235.544 216.113 218.538C215.803 201.531 211.468 176.477 198.482 159.471C185.496 142.464 178.663 140.887 178.663 140.887Z" fill="white" stroke="#263238" stroke-miterlimit="10"/>
<path d="M184.85 145.522C184.85 145.522 174.329 165.337 167.219 176.753C160.11 188.168 150.838 200.566 148.357 207.691C145.875 214.816 145.875 217.9 145.875 217.9" stroke="#263238" stroke-miterlimit="10"/>
<path d="M93.6123 223.448L85.2623 217.262C85.2623 217.262 81.2381 207.062 78.765 204.279C76.2919 201.496 72.8882 202.108 70.7253 199.635C68.5624 197.163 66.0893 191.597 64.8484 191.02C63.6076 190.443 60.8329 191.95 60.8329 194.423C60.8329 196.896 63.6162 200.919 63.6162 201.841V202.771C63.6162 202.771 53.0947 199.678 51.8625 200.609C50.6302 201.539 49.3894 204.624 50.3114 206.174C51.2334 207.725 53.0947 208.337 53.0947 209.578C53.0947 210.818 50.9318 214.833 52.1727 216.375C53.0349 217.391 54.0853 218.23 55.2662 218.848C55.2662 218.848 55.2662 224.723 57.1189 227.196C58.9716 229.669 73.1984 231.504 77.5328 232.15C81.8672 232.796 94.5429 238.947 94.5429 238.947L93.6123 223.448Z" fill="#00B8CC" stroke="#263238" stroke-linecap="round" stroke-linejoin="round"/>
<path d="M175.569 170.266C175.569 170.266 162.273 176.753 157.318 193.76C152.364 210.767 149.279 228.394 149.279 228.394C149.279 228.394 146.185 227.773 146.185 229.634C146.217 230.572 146.112 231.509 145.875 232.417L92.0698 222.208L90.829 247.563C90.829 247.563 160.722 260.555 164.436 260.555C168.15 260.555 172.192 259.314 173.407 256.247C174.622 253.18 194.742 208.001 194.742 208.001" fill="white"/>
<path d="M175.569 170.266C175.569 170.266 162.273 176.753 157.318 193.76C152.364 210.767 149.279 228.394 149.279 228.394C149.279 228.394 146.185 227.773 146.185 229.634C146.217 230.572 146.112 231.509 145.875 232.417L92.0698 222.208L90.829 247.563C90.829 247.563 160.722 260.555 164.436 260.555C168.15 260.555 172.192 259.314 173.407 256.247C174.622 253.18 194.742 208.001 194.742 208.001" stroke="#263238" stroke-miterlimit="10"/>
<path d="M181.756 184.49C181.756 184.49 192.269 190.357 194.122 198.404" stroke="#263238" stroke-miterlimit="10"/>
<path d="M174.328 193.45C175.259 193.45 191.037 194.69 194.432 203.659" stroke="#263238" stroke-miterlimit="10"/>
<path d="M188.866 220.976C188.866 220.976 200.93 215.41 204.643 203.349" stroke="#263238" stroke-miterlimit="10"/>
<path d="M148.667 232.727C148.667 232.727 154.845 244.16 154.535 252.206" stroke="#263238" stroke-miterlimit="10"/>
<path d="M152.372 230.866C152.372 230.866 158.594 232.107 162.902 240.429" stroke="#263238" stroke-miterlimit="10"/>
<path d="M235.536 219.115H224.394C223.347 219.158 222.344 219.545 221.54 220.216C220.736 220.888 220.176 221.806 219.947 222.828L208.444 279.69H226.996L238.5 222.828C238.619 222.382 238.631 221.913 238.537 221.461C238.442 221.009 238.242 220.586 237.954 220.224C237.666 219.863 237.297 219.575 236.877 219.382C236.457 219.189 235.998 219.098 235.536 219.115Z" fill="#263238" stroke="#263238" stroke-miterlimit="10"/>
<path d="M0.297607 279.724H419.924" stroke="#263238" stroke-miterlimit="10"/>
<path d="M22.1074 239.309H29.5871V274.331C29.5871 275.245 29.2239 276.121 28.5775 276.767C27.9311 277.414 27.0544 277.777 26.1402 277.777H25.606C24.6918 277.777 23.8151 277.414 23.1687 276.767C22.5223 276.121 22.1591 275.245 22.1591 274.331V239.309H22.1074Z" fill="white" stroke="#263238" stroke-linecap="round" stroke-linejoin="round"/>
<path d="M22.1074 253.499V274.029C22.1074 275.021 22.5014 275.972 23.2028 276.673C23.9041 277.375 24.8554 277.769 25.8472 277.769C26.8391 277.769 27.7903 277.375 28.4917 276.673C29.193 275.972 29.5871 275.021 29.5871 274.029V253.499H22.1074Z" fill="#00B8CC" stroke="#263238" stroke-linecap="round" stroke-linejoin="round"/>
<path d="M30.9055 238.207H20.7804V245.245H30.9055V238.207Z" fill="white" stroke="#263238" stroke-linecap="round" stroke-linejoin="round"/>
<path d="M40.4016 277.794C39.9076 277.795 39.4182 277.698 38.9618 277.509C38.5054 277.32 38.0909 277.043 37.7424 276.693C37.3939 276.343 37.1181 275.927 36.9312 275.47C36.7442 275.013 36.6497 274.523 36.6532 274.029V239.309H44.1414V274.029C44.1448 274.522 44.0506 275.011 43.8642 275.468C43.6778 275.925 43.4028 276.34 43.0552 276.69C42.7076 277.04 42.2942 277.317 41.8388 277.507C41.3833 277.696 40.8949 277.794 40.4016 277.794Z" fill="white" stroke="#263238" stroke-linecap="round" stroke-linejoin="round"/>
<path d="M36.6531 253.499V274.029C36.6992 274.991 37.1139 275.898 37.811 276.563C38.5081 277.227 39.4342 277.598 40.3972 277.598C41.3602 277.598 42.2863 277.227 42.9834 276.563C43.6805 275.898 44.0952 274.991 44.1413 274.029V253.499H36.6531Z" fill="#00B8CC" stroke="#263238" stroke-linecap="round" stroke-linejoin="round"/>
<path d="M45.4598 238.207H35.3347V245.245H45.4598V238.207Z" fill="white" stroke="#263238" stroke-linecap="round" stroke-linejoin="round"/>
<path d="M54.9472 277.794C54.4539 277.794 53.9654 277.696 53.51 277.507C53.0546 277.317 52.6412 277.04 52.2936 276.69C51.9459 276.34 51.671 275.925 51.4846 275.468C51.2982 275.011 51.204 274.522 51.2074 274.029V239.309H58.6956V274.029C58.699 274.523 58.6045 275.013 58.4176 275.47C58.2306 275.927 57.9549 276.343 57.6064 276.693C57.2579 277.043 56.8434 277.32 56.387 277.509C55.9306 277.698 55.4412 277.795 54.9472 277.794Z" fill="white" stroke="#263238" stroke-linecap="round" stroke-linejoin="round"/>
<path d="M51.2074 253.499V274.029C51.2074 275.021 51.6014 275.972 52.3028 276.673C53.0041 277.375 53.9554 277.769 54.9472 277.769C55.4391 277.77 55.9263 277.674 56.381 277.486C56.8358 277.299 57.2491 277.024 57.5972 276.676C57.9454 276.329 58.2217 275.917 58.4102 275.462C58.5986 275.008 58.6957 274.521 58.6957 274.029V253.499H51.2074Z" fill="#00B8CC" stroke="#263238" stroke-linecap="round" stroke-linejoin="round"/>
<path d="M60.014 238.207H49.8889V245.245H60.014V238.207Z" fill="white" stroke="#263238" stroke-linecap="round" stroke-linejoin="round"/>
<path d="M69.5015 277.794C69.0082 277.794 68.5198 277.696 68.0643 277.507C67.6089 277.317 67.1955 277.04 66.8479 276.69C66.5003 276.34 66.2253 275.925 66.0389 275.468C65.8525 275.011 65.7583 274.522 65.7617 274.029V239.309H73.2844V274.029C73.2879 274.526 73.1923 275.018 73.0032 275.478C72.8141 275.937 72.5353 276.355 72.1831 276.705C71.8309 277.056 71.4124 277.332 70.9519 277.519C70.4915 277.706 69.9984 277.8 69.5015 277.794Z" fill="white" stroke="#263238" stroke-linecap="round" stroke-linejoin="round"/>
<path d="M65.7616 253.499V274.029C65.7616 275.027 66.1579 275.983 66.8633 276.689C67.5687 277.394 68.5254 277.79 69.523 277.79C70.5205 277.79 71.4772 277.394 72.1826 276.689C72.888 275.983 73.2843 275.027 73.2843 274.029V253.499H65.7616Z" fill="#00B8CC" stroke="#263238" stroke-linecap="round" stroke-linejoin="round"/>
<path d="M74.5683 238.207H64.4432V245.245H74.5683V238.207Z" fill="white" stroke="#263238" stroke-linecap="round" stroke-linejoin="round"/>
<path d="M80.8932 249.044H15.7222V251.259H80.8932V274.348H12.5597V279.724H85.3224V278.457V274.348V251.259V249.044H80.8932Z" fill="white" stroke="#263238" stroke-linecap="round" stroke-linejoin="round"/>
<path d="M325.205 275.339L316.683 242.247V233.201H304.619V242.247L296.096 275.339C295.962 275.858 295.948 276.401 296.057 276.926C296.165 277.451 296.392 277.944 296.721 278.368C297.05 278.791 297.471 279.134 297.953 279.369C298.435 279.604 298.964 279.726 299.5 279.724H321.801C322.337 279.726 322.867 279.604 323.348 279.369C323.83 279.134 324.252 278.791 324.58 278.368C324.909 277.944 325.136 277.451 325.245 276.926C325.353 276.401 325.339 275.858 325.205 275.339Z" fill="white" stroke="#263238" stroke-miterlimit="10"/>
<path d="M318.225 258.616H303.076L298.604 275.985C298.564 276.12 298.558 276.263 298.587 276.402C298.616 276.54 298.678 276.669 298.768 276.777C298.85 276.892 298.958 276.986 299.085 277.049C299.211 277.112 299.351 277.143 299.492 277.139H321.801C321.944 277.144 322.085 277.114 322.213 277.051C322.341 276.988 322.451 276.894 322.534 276.777C322.624 276.669 322.686 276.54 322.714 276.402C322.743 276.263 322.737 276.12 322.697 275.985L318.225 258.616Z" fill="#00B8CC"/>
<path d="M349.746 248.433V229.324H338.544V248.433C334.988 249.747 332.007 252.27 330.123 255.56C328.239 258.85 327.573 262.698 328.241 266.43C328.908 270.161 330.868 273.54 333.775 275.973C336.683 278.406 340.354 279.739 344.145 279.739C347.937 279.739 351.608 278.406 354.516 275.973C357.423 273.54 359.382 270.161 360.05 266.43C360.718 262.698 360.051 258.85 358.168 255.56C356.284 252.27 353.303 249.747 349.746 248.433Z" fill="white" stroke="#263238" stroke-miterlimit="10"/>
<path d="M330.315 259.478C329.674 261.632 329.546 263.905 329.939 266.117C330.332 268.329 331.236 270.419 332.58 272.22C333.924 274.021 335.669 275.483 337.678 276.491C339.686 277.498 341.902 278.023 344.15 278.023C346.397 278.023 348.613 277.498 350.622 276.491C352.63 275.483 354.376 274.021 355.719 272.22C357.063 270.419 357.967 268.329 358.361 266.117C358.754 263.905 358.625 261.632 357.984 259.478H330.315Z" fill="#00B8CC"/>
<path d="M382.957 259.073V224.06H375.563V259.073C373.215 259.94 371.246 261.606 370.002 263.778C368.758 265.951 368.318 268.491 368.759 270.955C369.199 273.419 370.493 275.65 372.413 277.257C374.332 278.863 376.756 279.744 379.26 279.744C381.764 279.744 384.188 278.863 386.107 277.257C388.027 275.65 389.321 273.419 389.761 270.955C390.202 268.491 389.762 265.951 388.518 263.778C387.274 261.606 385.305 259.94 382.957 259.073Z" fill="white" stroke="#263238" stroke-miterlimit="10"/>
<path d="M370.135 266.362C369.87 267.236 369.737 268.145 369.738 269.058C369.7 270.333 369.918 271.603 370.379 272.792C370.841 273.981 371.536 275.065 372.425 275.981C373.313 276.896 374.376 277.624 375.551 278.121C376.726 278.617 377.989 278.874 379.264 278.874C380.54 278.874 381.803 278.617 382.978 278.121C384.153 277.624 385.216 276.896 386.104 275.981C386.992 275.065 387.688 273.981 388.149 272.792C388.611 271.603 388.829 270.333 388.791 269.058C388.792 268.145 388.658 267.236 388.394 266.362H370.135Z" fill="#00B8CC"/>
</g>
<defs>
<clipPath id="clip0_239_2260">
<rect width="425.52" height="280" fill="white"/>
</clipPath>
</defs>
</svg>
