<svg width="155" height="42" viewBox="0 0 155 42" fill="none" xmlns="http://www.w3.org/2000/svg">
<g clip-path="url(#clip0_275_4744)">
<mask id="mask0_275_4744" style="mask-type:luminance" maskUnits="userSpaceOnUse" x="0" y="0" width="155" height="42">
<path d="M154.841 0H0V42H154.841V0Z" fill="white"/>
</mask>
<g mask="url(#mask0_275_4744)">
<path fill-rule="evenodd" clip-rule="evenodd" d="M0 15.1916H27.7029L30.75 6.55765C31.3074 5.03568 30.9869 4.75383 30.0208 4.4344C27.6843 3.66871 29.6956 0.460351 32.4129 0.0469746C32.4129 0.0328822 32.4129 0.0187898 32.4129 0L21.9895 2.21251H27.7911L18.32 4.37803H27.0154L14.6504 6.54356H26.2443L10.9808 8.70907H25.5151L7.31126 10.8746H24.6929L3.64169 13.0448H23.9172L0 15.1916Z" fill="#00B8CC"/>
<path fill-rule="evenodd" clip-rule="evenodd" d="M35.0327 0C32.0414 0 29.5609 3.61234 32.0553 4.4344C33.0214 4.75383 33.342 5.03568 32.7846 6.55765L22.2265 36.4899C19.6345 43.8367 33.9458 43.8367 36.5377 36.4899L47.0959 6.55296C47.6115 5.03098 48.1317 4.74914 49.3208 4.4297C52.3959 3.61234 52.4655 0 49.4741 0H35.0327Z" fill="#E80055"/>
<path fill-rule="evenodd" clip-rule="evenodd" d="M45.4841 4.60333L42.0607 14.3036C41.8889 14.7921 41.3547 15.1914 40.8716 15.1914H32.8914C32.4084 15.1914 32.1575 14.7921 32.3294 14.3036L35.7481 4.60333C36.3055 3.02499 34.1828 3.24107 33.6254 2.8136C33.1283 2.43311 33.7554 1.41846 34.6705 1.41846H48.8006C49.7157 1.41846 49.6274 2.43311 48.861 2.8136C48.011 3.24107 46.0415 3.02499 45.4841 4.60333Z" fill="white"/>
<path fill-rule="evenodd" clip-rule="evenodd" d="M32.8914 18.1226C33.342 18.1226 33.5835 18.4984 33.421 18.954L27.559 35.5783C27.3964 36.034 26.8947 36.4097 26.4442 36.4097C25.9936 36.4097 25.7521 36.034 25.9147 35.5783L31.7766 18.954C31.9392 18.4937 32.4409 18.1226 32.8914 18.1226Z" fill="white"/>
<path fill-rule="evenodd" clip-rule="evenodd" d="M128.556 12.3123L127.756 17.8318H130.153L129.355 12.3123H128.556ZM126.377 27.363H120.259L123.241 7.29541H134.664L137.65 27.363H131.533L130.818 22.3461H127.097L126.377 27.363Z" fill="#00B8CC"/>
<path fill-rule="evenodd" clip-rule="evenodd" d="M103.31 27.363V7.29541H111.136C112.131 7.29541 113.06 7.39875 113.933 7.60071C114.806 7.80741 115.573 8.13156 116.232 8.57781C116.891 9.02406 117.412 9.59714 117.788 10.2924C118.165 10.9876 118.355 11.8285 118.355 12.8149C118.355 13.6323 118.141 14.4262 117.71 15.1966C117.277 15.9669 116.632 16.5118 115.768 16.8265C116.265 16.9581 116.715 17.1742 117.119 17.4795C117.523 17.7848 117.867 18.1465 118.155 18.5646C118.439 18.9827 118.657 19.4337 118.801 19.9175C118.95 20.4013 119.019 20.8758 119.019 21.3408C119.019 22.4541 118.829 23.3936 118.453 24.1546C118.077 24.9156 117.542 25.5403 116.854 26.0242C116.167 26.5081 115.345 26.851 114.389 27.0577C113.431 27.2643 112.377 27.363 111.22 27.363H103.31ZM109.344 12.0634V15.3516H110.087C110.895 15.3516 111.457 15.2107 111.768 14.9335C112.08 14.6563 112.238 14.2477 112.238 13.7074C112.238 13.0733 112.033 12.6458 111.629 12.4109C111.225 12.1807 110.737 12.0634 110.171 12.0634H109.344ZM109.344 19.3632V22.595H110.445C111.253 22.595 111.824 22.4494 112.154 22.1629C112.484 21.8764 112.651 21.4723 112.651 20.9509C112.651 20.5234 112.484 20.1523 112.154 19.8376C111.824 19.5229 111.253 19.3632 110.445 19.3632H109.344Z" fill="#00B8CC"/>
<path fill-rule="evenodd" clip-rule="evenodd" d="M86.1926 27.363V7.29541H93.2766C94.5448 7.29541 95.678 7.48331 96.6814 7.85444C97.6849 8.22554 98.5348 8.74694 99.2312 9.41399C99.9283 10.081 100.462 10.8796 100.829 11.7956C101.196 12.7163 101.382 13.7215 101.382 14.8207C101.382 15.8636 101.238 16.8406 100.955 17.7613C100.671 18.682 100.212 19.4806 99.5753 20.1571C98.9434 20.8335 98.1217 21.369 97.1086 21.7589C96.0963 22.1488 94.8556 22.3461 93.3879 22.3461H92.2317V27.363H86.1926ZM92.2265 12.3123V17.3292H93.1372C93.8151 17.3292 94.3542 17.1319 94.7488 16.742C95.144 16.3521 95.3435 15.7086 95.3435 14.8207C95.3435 13.8907 95.144 13.2424 94.7488 12.8713C94.3542 12.5002 93.8151 12.3123 93.1372 12.3123H92.2265Z" fill="#00B8CC"/>
<path fill-rule="evenodd" clip-rule="evenodd" d="M147.995 22.3461L145.7 27.363H139.583L142.472 21.0449C142.073 20.7818 141.72 20.4859 141.413 20.1571C140.781 19.4806 140.321 18.682 140.033 17.7613C139.75 16.8406 139.606 15.8636 139.606 14.8207C139.606 13.7263 139.791 12.7163 140.159 11.7956C140.526 10.8748 141.06 10.081 141.757 9.41399C142.453 8.74694 143.303 8.22554 144.306 7.85444C145.31 7.48331 146.443 7.29541 147.711 7.29541H154.795V27.363H148.761V22.3461H147.995ZM148.761 12.3123V17.3292H147.851C147.173 17.3292 146.634 17.1319 146.239 16.742C145.844 16.3521 145.644 15.7086 145.644 14.8207C145.644 13.8907 145.844 13.2424 146.239 12.8713C146.634 12.5002 147.173 12.3123 147.851 12.3123H148.761Z" fill="#00B8CC"/>
<path fill-rule="evenodd" clip-rule="evenodd" d="M53.608 27.363V7.29541H84.251V12.721H70.0607V27.363H63.9432V12.7116H59.7256V27.363H53.608Z" fill="#00B8CC"/>
<path d="M84.2518 21.937H71.9932V27.3626H84.2518V21.937Z" fill="#00B8CC"/>
<path d="M78.9981 14.6187H71.9932V20.0442H78.9981V14.6187Z" fill="#00B8CC"/>
<path d="M153.704 35.832H153.239C152.742 35.832 152.528 35.5878 152.528 35.1697C152.528 34.7657 152.77 34.545 153.267 34.545H153.708V35.832H153.704ZM154.842 33.7839H153.272C152.041 33.7839 151.358 34.2537 151.358 35.1603C151.358 35.6864 151.604 36.0575 152.036 36.2783L151.042 38.0774H152.269L153.077 36.546H153.699V38.0774H154.837V33.7839H154.842ZM150.397 38.0727V33.7839H149.189L147.716 36.9406C147.781 36.6729 147.86 36.0575 147.86 35.428V33.7839H146.773V38.0727H147.967L149.463 34.9161C149.398 35.1838 149.309 35.7663 149.309 36.4474V38.0727H150.397ZM143.852 37.3446C143.554 37.3446 143.322 37.2084 143.141 36.9219V35.0523C143.331 34.7281 143.606 34.5027 143.926 34.5027C144.414 34.5027 144.688 34.8503 144.688 35.926C144.683 36.9312 144.372 37.3446 143.852 37.3446ZM144.275 33.6524C143.856 33.6524 143.392 33.845 143.058 34.2819L143.001 33.7792H142.003V39.8531L143.141 39.7215V37.7392C143.405 38.0493 143.764 38.1996 144.191 38.1996C145.254 38.1996 145.872 37.2272 145.872 35.9166C145.868 34.5355 145.394 33.6524 144.275 33.6524ZM139.109 34.512C139.662 34.512 139.95 34.9395 139.95 35.9307C139.95 36.9124 139.662 37.3493 139.1 37.3493C138.537 37.3493 138.25 36.9219 138.25 35.9307C138.254 34.9489 138.543 34.512 139.109 34.512ZM139.109 33.6524C137.827 33.6524 137.07 34.559 137.07 35.926C137.07 37.3493 137.837 38.1996 139.105 38.1996C140.377 38.1996 141.139 37.2835 141.139 35.926C141.135 34.5027 140.377 33.6524 139.109 33.6524ZM136.74 34.6482L136.884 33.7839H133.131V34.6482H134.404V38.0727H135.542V34.6482H136.74ZM130.744 37.3775C130.391 37.3775 130.2 37.1567 130.2 36.7762C130.2 36.3065 130.502 36.081 131.12 36.081H131.496V36.8984C131.324 37.2084 131.073 37.3775 130.744 37.3775ZM132.611 35.1509C132.611 34.1785 132.104 33.6524 130.929 33.6524C130.451 33.6524 129.889 33.7557 129.359 33.9672L129.615 34.7375C130.046 34.5919 130.455 34.512 130.734 34.512C131.268 34.512 131.496 34.6812 131.496 35.2167V35.428H131.008C129.749 35.428 129.057 35.94 129.057 36.8748C129.057 37.65 129.587 38.2043 130.432 38.2043C130.939 38.2043 131.403 38.0257 131.705 37.556C131.881 37.9835 132.202 38.1479 132.68 38.1855L132.922 37.4244C132.713 37.3493 132.611 37.2318 132.611 36.8843V35.1509ZM126.447 37.3446C126.149 37.3446 125.917 37.2084 125.736 36.9219V35.0523C125.927 34.7281 126.2 34.5027 126.521 34.5027C127.009 34.5027 127.283 34.8503 127.283 35.926C127.278 36.9312 126.967 37.3446 126.447 37.3446ZM126.869 33.6524C126.451 33.6524 125.987 33.845 125.652 34.2819L125.597 33.7792H124.598V39.8531L125.736 39.7215V37.7392C126.001 38.0493 126.358 38.1996 126.786 38.1996C127.85 38.1996 128.468 37.2272 128.468 35.9166C128.462 34.5355 127.994 33.6524 126.869 33.6524ZM121.709 34.512C122.262 34.512 122.549 34.9395 122.549 35.9307C122.549 36.9124 122.262 37.3493 121.699 37.3493C121.137 37.3493 120.85 36.9219 120.85 35.9307C120.85 34.9489 121.137 34.512 121.709 34.512ZM121.709 33.6524C120.427 33.6524 119.67 34.559 119.67 35.926C119.67 37.3493 120.436 38.1996 121.704 38.1996C122.977 38.1996 123.739 37.2835 123.739 35.926C123.734 34.5027 122.972 33.6524 121.709 33.6524ZM117.064 37.3446C116.558 37.3446 116.246 36.9406 116.246 36.0716V35.5314C116.464 35.118 116.808 34.9301 117.157 34.9301C117.598 34.9301 117.867 35.1978 117.867 36.0951C117.872 37.0769 117.514 37.3446 117.064 37.3446ZM117.463 34.0752C116.869 34.0752 116.455 34.3429 116.168 34.7798C116.265 33.8168 116.567 33.5349 117.25 33.3048C117.867 33.1122 118.243 32.9337 118.601 32.6988L118.179 31.9473C117.733 32.2244 117.44 32.3512 116.785 32.5626C115.433 33.0089 115.062 33.8826 115.062 35.677C115.062 37.4433 115.889 38.2043 117.073 38.2043C118.267 38.2043 119.056 37.401 119.056 36.0575C119.056 34.7939 118.369 34.0752 117.463 34.0752ZM112.316 37.3775C111.963 37.3775 111.773 37.1567 111.773 36.7762C111.773 36.3065 112.075 36.081 112.693 36.081H113.069V36.8984C112.893 37.2084 112.646 37.3775 112.316 37.3775ZM114.184 35.1509C114.184 34.1785 113.677 33.6524 112.503 33.6524C112.024 33.6524 111.462 33.7557 110.933 33.9672L111.188 34.7375C111.62 34.5919 112.029 34.512 112.308 34.512C112.841 34.512 113.069 34.6812 113.069 35.2167V35.428H112.581C111.323 35.428 110.631 35.94 110.631 36.8748C110.631 37.65 111.16 38.2043 112.006 38.2043C112.511 38.2043 112.976 38.0257 113.278 37.556C113.455 37.9835 113.775 38.1479 114.254 38.1855L114.495 37.4244C114.286 37.3493 114.184 37.2318 114.184 36.8843V35.1509ZM109.818 33.7839H106.738L106.603 35.6112C106.506 36.9547 106.459 37.1097 105.962 37.3258L106.237 38.1666C107.365 37.8895 107.518 37.3587 107.662 35.6817L107.75 34.6389H108.684V38.0727H109.822V33.7839H109.818ZM101.638 35.832H101.173C100.676 35.832 100.462 35.5878 100.462 35.1697C100.462 34.7657 100.704 34.545 101.201 34.545H101.642V35.832H101.638ZM102.775 33.7839H101.205C99.975 33.7839 99.292 34.2537 99.292 35.1603C99.292 35.6864 99.5382 36.0575 99.9698 36.2783L98.976 38.0774H100.203L101.01 36.546H101.633V38.0774H102.771V33.7839H102.775ZM96.4908 37.3775C96.1378 37.3775 95.9472 37.1567 95.9472 36.7762C95.9472 36.3065 96.2498 36.081 96.8676 36.081H97.2436V36.8984C97.0671 37.2084 96.8209 37.3775 96.4908 37.3775ZM98.3583 35.1509C98.3583 34.1785 97.8517 33.6524 96.677 33.6524C96.1986 33.6524 95.6365 33.7557 95.107 33.9672L95.3621 34.7375C95.7945 34.5919 96.2031 34.512 96.4819 34.512C97.0159 34.512 97.2436 34.6812 97.2436 35.2167V35.428H96.7556C95.4971 35.428 94.7999 35.94 94.7999 36.8748C94.7999 37.65 95.3294 38.2043 96.1749 38.2043C96.6814 38.2043 97.1457 38.0257 97.4475 37.556C97.624 37.9835 97.9452 38.1479 98.4235 38.1855L98.6645 37.4244C98.4561 37.3493 98.3538 37.2318 98.3538 36.8843V35.1509H98.3583ZM93.3137 35.7756L94.4847 33.7839H93.3649L92.4126 35.4657H91.9625V33.7839H90.8241V38.0727H91.9625V36.1938H92.3852L93.3693 38.0727H94.596L93.3137 35.7756ZM88.7661 33.6524C87.5261 33.6524 86.7414 34.6013 86.7414 35.9589C86.7414 37.3258 87.5172 38.1996 88.7801 38.1996C89.3423 38.1996 89.788 38.0117 90.1737 37.6969L89.6627 36.9501C89.3653 37.1755 89.1517 37.2741 88.8358 37.2741C88.2973 37.2741 87.9399 36.9406 87.9399 35.9448C87.9399 34.9489 88.2744 34.5355 88.8454 34.5355C89.1569 34.5355 89.4076 34.6342 89.6768 34.8503L90.1737 34.1644C89.7747 33.8262 89.3334 33.6524 88.7661 33.6524ZM84.739 36.3252V38.0727H85.8774V33.7839H84.739V35.4609H83.4249V33.7839H82.2865V38.0727H83.4249V36.3252H84.739ZM81.1673 38.0727V33.7839H79.9592L78.4871 36.9406C78.5516 36.6729 78.631 36.0575 78.631 35.428V33.7839H77.5438V38.0727H78.7378L80.2336 34.9161C80.1684 35.1838 80.0801 35.7663 80.0801 36.4474V38.0727H81.1673ZM76.8147 37.2178H76.174V33.7839H75.0356V37.2084H73.7955V33.7839H72.6574V38.0727H75.8669L76.0019 39.3833H76.8103V37.2178H76.8147ZM71.538 38.0727V33.7839H70.3302L68.8578 36.9406C68.9229 36.6729 69.0018 36.0575 69.0018 35.428V33.7839H67.9148V38.0727H69.1086L70.6044 34.9161C70.5393 35.1838 70.4511 35.7663 70.4511 36.4474V38.0727H71.538ZM65.6946 34.5684V37.2178H64.0456C64.5101 36.936 64.6773 36.5037 64.7887 35.1603L64.8352 34.5684H65.6946ZM67.2135 37.2178H66.7629V33.7839H63.8505L63.739 35.2731C63.6182 36.795 63.4371 37.0299 63.1723 37.2178H62.8983V39.388H63.7065L63.8412 38.0774H66.2659L66.4006 39.388H67.2088V37.2178H67.2135ZM61.5698 35.5549H60.023C60.088 34.7469 60.3574 34.4369 60.808 34.4369C61.3514 34.4369 61.5698 34.8597 61.5698 35.5032V35.5549ZM62.6985 35.832C62.6985 34.4651 61.9878 33.6524 60.7848 33.6524C59.5446 33.6524 58.8571 34.6577 58.8571 35.9495C58.8571 37.293 59.5678 38.1996 60.9288 38.1996C61.593 38.1996 62.1225 37.9553 62.536 37.617L62.0622 36.9688C61.6952 37.2272 61.3886 37.3399 61.031 37.3399C60.4875 37.3399 60.102 37.0956 60.023 36.2689H62.6707C62.6846 36.1562 62.6985 35.9777 62.6985 35.832ZM58.3462 38.0727L57.9699 33.7839H56.5996L55.9214 36.6259L55.2804 33.7839H53.9195L53.5525 38.0727H54.6348L54.7323 36.4145C54.7556 35.8884 54.7556 35.3764 54.7184 34.8267L55.4384 37.6265H56.4092L57.1616 34.8174C57.1291 35.4327 57.1199 35.8837 57.1524 36.4192L57.2732 38.0727H58.3462Z" fill="#00B8CC"/>
</g>
</g>
<defs>
<clipPath id="clip0_275_4744">
<rect width="155" height="42" fill="white"/>
</clipPath>
</defs>
</svg>
