<svg width="357" height="259" viewBox="0 0 357 259" fill="none" xmlns="http://www.w3.org/2000/svg">
<path d="M79.7022 247.741C99.095 264.125 146.706 258.126 167.323 247.741C234.261 214.026 351.595 157.915 356.904 76.62C359.163 42.0631 321.101 23.923 305.192 18.5955C267.056 5.81585 225.148 1.97473 183.749 0.494845C140.551 -1.05081 94.181 0.152826 55.3051 17.0235C40.5716 23.3969 26.668 31.6119 17.1524 42.7998C7.48063 54.1653 1.91754 67.6947 0.446648 81.3557C-1.93636 103.389 5.4674 125.483 16.6675 145.701C27.8677 165.92 42.8067 184.645 56.5131 203.844C65.4535 216.374 63.3827 233.928 79.7022 247.741Z" fill="#00B8CC"/>
<path d="M215.83 77.0978C215.696 76.971 215.527 76.8792 215.34 76.8319C215.154 76.7845 214.957 76.7834 214.77 76.8287L189.814 82.6821L147.355 85.5976C147.209 85.6057 147.067 85.6414 146.936 85.7022L91.2068 111.725L92.0285 95.2785V73.0535C92.0285 72.9219 92 72.7917 91.9447 72.6701C91.8894 72.5486 91.8083 72.4382 91.706 72.3452C91.6038 72.2521 91.4824 72.1784 91.3488 72.128C91.2152 72.0777 91.072 72.0518 90.9274 72.0518H79.7026C79.4106 72.0518 79.1305 72.1573 78.924 72.3452C78.7175 72.533 78.6015 72.7878 78.6015 73.0535C78.6015 73.3192 78.7175 73.574 78.924 73.7618C79.1305 73.9497 79.4106 74.0552 79.7026 74.0552H89.777V95.2037L88.8895 113.347C88.8784 113.522 88.919 113.697 89.0072 113.854C89.0953 114.01 89.2277 114.142 89.3908 114.237C89.5524 114.331 89.7381 114.385 89.9296 114.394C90.1212 114.403 90.3121 114.367 90.4837 114.289L147.733 87.5786L190.069 84.6706C190.131 84.6784 190.195 84.6784 190.258 84.6706L213.447 79.2283L203.463 111.373C203.46 111.408 203.46 111.443 203.463 111.478L201.819 120.359H200.883C200.832 120.359 200.782 120.369 200.737 120.389C200.691 120.409 200.651 120.438 200.62 120.474C200.588 120.51 200.566 120.552 200.554 120.597C200.543 120.641 200.543 120.688 200.554 120.733L201.943 124.239C201.959 124.304 201.996 124.363 202.048 124.409C202.1 124.456 202.166 124.488 202.237 124.502C202.308 124.517 202.383 124.512 202.451 124.489C202.52 124.466 202.58 124.426 202.625 124.374L205.221 120.957C205.386 120.748 205.221 120.494 204.868 120.479H204.046L205.599 111.912L216.109 78.0846C216.166 77.9125 216.17 77.7297 216.12 77.5558C216.071 77.382 215.971 77.2236 215.83 77.0978Z" fill="#00B8CC"/>
<path opacity="0.6" d="M215.83 77.0978C215.696 76.971 215.527 76.8792 215.34 76.8319C215.154 76.7845 214.957 76.7834 214.77 76.8287L189.814 82.6821L147.355 85.5976C147.209 85.6057 147.067 85.6414 146.936 85.7022L91.2068 111.725L92.0285 95.2785V73.0535C92.0285 72.9219 92 72.7917 91.9447 72.6701C91.8894 72.5486 91.8083 72.4382 91.706 72.3452C91.6038 72.2521 91.4824 72.1784 91.3488 72.128C91.2152 72.0777 91.072 72.0518 90.9274 72.0518H79.7026C79.4106 72.0518 79.1305 72.1573 78.924 72.3452C78.7175 72.533 78.6015 72.7878 78.6015 73.0535C78.6015 73.3192 78.7175 73.574 78.924 73.7618C79.1305 73.9497 79.4106 74.0552 79.7026 74.0552H89.777V95.2037L88.8895 113.347C88.8784 113.522 88.919 113.697 89.0072 113.854C89.0953 114.01 89.2277 114.142 89.3908 114.237C89.5524 114.331 89.7381 114.385 89.9296 114.394C90.1212 114.403 90.3121 114.367 90.4837 114.289L147.733 87.5786L190.069 84.6706C190.131 84.6784 190.195 84.6784 190.258 84.6706L213.447 79.2283L203.463 111.373C203.46 111.408 203.46 111.443 203.463 111.478L201.819 120.359H200.883C200.832 120.359 200.782 120.369 200.737 120.389C200.691 120.409 200.651 120.438 200.62 120.474C200.588 120.51 200.566 120.552 200.554 120.597C200.543 120.641 200.543 120.688 200.554 120.733L201.943 124.239C201.959 124.304 201.996 124.363 202.048 124.409C202.1 124.456 202.166 124.488 202.237 124.502C202.308 124.517 202.383 124.512 202.451 124.489C202.52 124.466 202.58 124.426 202.625 124.374L205.221 120.957C205.386 120.748 205.221 120.494 204.868 120.479H204.046L205.599 111.912L216.109 78.0846C216.166 77.9125 216.17 77.7297 216.12 77.5558C216.071 77.382 215.971 77.2236 215.83 77.0978Z" fill="black" fill-opacity="0.7"/>
<path d="M84.6318 37.0731C83.5169 36.058 82.193 35.2527 80.7358 34.7033C79.2786 34.1539 77.7167 33.8711 76.1393 33.8711C74.5619 33.8711 73 34.1539 71.5428 34.7033C70.0856 35.2527 68.7617 36.058 67.6467 37.0731C65.3972 39.1236 64.1338 41.9022 64.1338 44.7992C64.1338 47.6962 65.3972 50.4748 67.6467 52.5252L76.1434 60.2475L84.6318 52.5252C85.7477 51.5109 86.6328 50.3065 87.2368 48.9808C87.8407 47.6552 88.1516 46.2342 88.1516 44.7992C88.1516 43.3642 87.8407 41.9432 87.2368 40.6175C86.6328 39.2919 85.7477 38.0875 84.6318 37.0731ZM79.7015 47.9801C79.0108 48.6047 78.1323 49.0293 77.1766 49.2003C76.221 49.3712 75.2312 49.2809 74.3319 48.9406C73.4327 48.6004 72.6644 48.0254 72.1239 47.2884C71.5834 46.5514 71.295 45.6852 71.295 44.7992C71.295 43.9132 71.5834 43.047 72.1239 42.31C72.6644 41.5729 73.4327 40.998 74.3319 40.6578C75.2312 40.3175 76.221 40.2272 77.1766 40.3981C78.1323 40.5691 79.0108 40.9936 79.7015 41.6183C80.1623 42.0352 80.5281 42.5308 80.7777 43.0767C81.0272 43.6226 81.1557 44.208 81.1557 44.7992C81.1557 45.3904 81.0272 45.9758 80.7777 46.5217C80.5281 47.0676 80.1623 47.5632 79.7015 47.9801Z" fill="#263238"/>
<path d="M67.6555 49.5879C68.6007 51.3404 69.9486 52.8878 71.608 54.1256" stroke="white" stroke-linecap="round" stroke-linejoin="round"/>
<path d="M70.5722 36.9688C66.4636 39.2114 65.3953 43.5398 66.743 47.5243" stroke="white" stroke-linecap="round" stroke-linejoin="round"/>
<path d="M76.1769 35.5186C75.1384 35.5231 74.1061 35.6641 73.1119 35.9372" stroke="white" stroke-linecap="round" stroke-linejoin="round"/>
<path d="M192.969 106.491C191.854 105.476 190.53 104.671 189.073 104.121C187.616 103.572 186.054 103.289 184.476 103.289C182.899 103.289 181.337 103.572 179.88 104.121C178.423 104.671 177.099 105.476 175.984 106.491C174.868 107.505 173.983 108.71 173.379 110.036C172.775 111.361 172.464 112.782 172.464 114.217C172.464 115.652 172.775 117.073 173.379 118.399C173.983 119.724 174.868 120.929 175.984 121.943L184.472 129.665L192.969 121.943C194.085 120.929 194.97 119.724 195.574 118.399C196.178 117.073 196.489 115.652 196.489 114.217C196.489 112.782 196.178 111.361 195.574 110.036C194.97 108.71 194.085 107.505 192.969 106.491ZM187.973 117.398C187.282 118.023 186.404 118.447 185.448 118.618C184.492 118.789 183.503 118.699 182.603 118.359C181.704 118.018 180.936 117.443 180.395 116.706C179.855 115.969 179.566 115.103 179.566 114.217C179.566 113.331 179.855 112.465 180.395 111.728C180.936 110.991 181.704 110.416 182.603 110.076C183.503 109.735 184.492 109.645 185.448 109.816C186.404 109.987 187.282 110.412 187.973 111.036C188.434 111.453 188.799 111.949 189.049 112.495C189.299 113.041 189.427 113.626 189.427 114.217C189.427 114.808 189.299 115.394 189.049 115.94C188.799 116.486 188.434 116.981 187.973 117.398Z" fill="#263238"/>
<path d="M175.959 119.006C176.904 120.761 178.252 122.311 179.912 123.551" stroke="white" stroke-linecap="round" stroke-linejoin="round"/>
<path d="M178.876 106.379C174.767 108.622 173.699 112.942 175.046 116.934" stroke="white" stroke-linecap="round" stroke-linejoin="round"/>
<path d="M184.472 104.937C183.437 104.944 182.407 105.085 181.415 105.355" stroke="white" stroke-linecap="round" stroke-linejoin="round"/>
<path opacity="0.7" d="M79.7022 247.741C99.095 264.125 146.706 258.126 167.323 247.741C234.261 214.026 351.595 157.915 356.904 76.62C359.163 42.0631 321.101 23.923 305.192 18.5955C267.056 5.81585 225.148 1.97473 183.749 0.494845C140.551 -1.05081 94.181 0.152826 55.3051 17.0235C40.5716 23.3969 26.668 31.6119 17.1524 42.7998C7.48063 54.1653 1.91754 67.6947 0.446648 81.3557C-1.93636 103.389 5.4674 125.483 16.6675 145.701C27.8677 165.92 42.8067 184.645 56.5131 203.844C65.4535 216.374 63.3827 233.928 79.7022 247.741Z" fill="white"/>
<path d="M263.687 107.359L256.143 134.151L269.291 203.801H269.192L268.872 203.861C263.276 204.975 202.994 216.906 200.044 216.682C196.954 216.45 148.522 209.67 148.522 209.67L105.652 214.23L71.2792 200.437L39.5195 205.536L30.4805 103.501C30.4805 103.501 37.194 53.609 34.1043 40.1753C34.1043 40.1753 86.9989 47.0828 91.8881 47.5612C96.7774 48.0396 153.657 31.7354 153.657 31.7354L201.654 46.2007L241.862 41.5732L301.355 66.9155C301.355 66.9155 262.725 101.901 263.687 107.359Z" fill="white" stroke="#263238" stroke-linecap="round" stroke-linejoin="round"/>
<path d="M40.2595 44.5635L91.8887 51.1719L152.836 37.5215L201.606 49.9385L239.873 46.2007L292.891 66.8707C292.891 66.8707 262.717 100.885 261.559 103.06C260.4 105.236 250.728 134.151 250.728 134.151L263.498 200.46L201.63 212.847L149.59 205.274L108.348 208.578L73.2848 194.89L44.1628 200.46L34.7129 105.041C34.7129 105.041 43.3903 66.2278 40.2595 44.5635Z" fill="#00B8CC" stroke="#263238" stroke-linecap="round" stroke-linejoin="round"/>
<path d="M220.077 80.1854L228.434 78.3464L269.027 94.1274C271.016 91.8174 273.259 89.2384 275.56 86.6069L231.557 69.6897L222.287 72.0519L228.097 47.3301L220.414 48.0777L213.363 74.347L190.585 80.148L146.754 83.6242L129.243 91.5408L130.065 68.2095L151.479 59.0294L176.427 63.4101L180.675 44.6464L173.099 42.7177L170.699 56.3457L151.479 52.6079L130.328 61.2871L131.01 42.4336L120.788 44.6912V95.316L94.8129 107.053V50.5147L91.8547 51.1726L85.3795 50.3428L86.4888 69.6897H68.9203L40.7926 49.6775C40.9734 52.563 40.9981 55.6579 40.9159 58.8052L65.9046 77.8306H86.9737L87.7954 92.2585L87.023 98.239L35.2213 110.23L35.4925 112.958L86.6368 101.229L85.4535 110.536L36.3471 121.563L37.251 130.728L63.2668 124.471L65.6827 152.669L41.713 175.739L42.6497 185.173L51.0971 177.039L52.9706 198.756L55.3865 198.292L53.743 174.498L71.2376 157.663L79.7014 155.696L113.203 145.866L112.464 150.292L93.8597 202.927L101.017 205.723L110.796 177.009L125.225 174.58L154.216 185.988L167.667 186.773L165.383 207.577L168.966 208.093L170.527 186.93L204.275 188.896L228.656 185.704L231.762 206.815L238.04 205.559L235.008 184.851L259.832 181.599L258.591 175.141L205.754 181.517L184.389 179.813L187.43 153.648L205.993 144.423H211.745L253.357 148.258L251.894 140.596L212.92 137.239H203.922L208.491 112.248L220.077 80.1854ZM82.0269 146.793L67.8932 150.606L66.0196 123.791L87.7954 118.558L120.27 103.307L114.921 135.647L82.0269 146.793ZM127.863 167.224L113.211 169.87L119.292 152.093L128.487 99.4725L147.001 90.7783L154.191 117.302L151.504 139.385L143.435 172.905L127.863 167.224ZM194.99 142.928L182.236 148.423L177.544 179.267L156.18 177.563L148.825 174.879L157.042 141.59L160.231 118.543H174.948L199.509 114.805L194.99 142.928ZM200.701 109.43L176.049 114.042H156.229L150.263 90.3074L188.942 87.0555L210.783 82.2262L200.701 109.43Z" fill="white" stroke="#263238" stroke-linecap="round" stroke-linejoin="round"/>
<path opacity="0.5" d="M210.784 130.787L213.011 114.782L241.443 120.464L239.125 134.129L210.784 130.787Z" fill="white"/>
<path opacity="0.5" d="M228.401 114.042L234.195 99.3447L255.609 106.693L250.695 121.891L228.401 114.042Z" fill="white"/>
<path opacity="0.5" d="M223.751 82.2412H226.118L235.067 85.9267L226.118 110.619L217.728 108.331L215.041 107.793L223.751 82.2412Z" fill="white"/>
<path opacity="0.5" d="M241.443 88.7891L262.332 96.4291L258.856 101.901L239.126 96.4291L241.443 88.7891Z" fill="white"/>
<path opacity="0.5" d="M228.401 66.8862L232.453 49.939L239.125 48.9746L248.986 52.5779L242.001 70.0483L232.584 66.8862H228.401Z" fill="white"/>
<path opacity="0.5" d="M246.372 71.88L250.727 62.1318L280.03 74.2722L274.229 82.2412L246.372 71.88Z" fill="white"/>
<path opacity="0.5" d="M183.93 48.9746L199.493 53.0712L194.768 75.5952H192.508H178.777L183.93 48.9746Z" fill="white"/>
<path opacity="0.5" d="M203.439 53.6916L215.042 51.8975L210.785 71.8797L199.495 74.5411L203.439 53.6916Z" fill="white"/>
<path opacity="0.5" d="M175.589 66.8857L174.184 76.6488L148.883 77.7029L133.673 84.8346V71.8794L152.088 63.2227L175.589 66.8857Z" fill="white"/>
<path opacity="0.5" d="M134.775 44.5637L153.05 40.1904L151.636 49.9386L133.706 56.3153L134.775 44.5637Z" fill="white"/>
<path opacity="0.5" d="M155.376 49.9391L168.622 52.5779L170.734 43.6595L157.019 41.5439L155.376 49.9391Z" fill="white"/>
<path opacity="0.5" d="M98.125 52.5779V66.8862L117.271 62.1317V48.9746L98.125 52.5779Z" fill="white"/>
<path opacity="0.5" d="M99.4406 72.1869V100.467L110.016 96.4303L108.348 79.0271L117.272 76.6499V66.8867L99.4406 72.1869Z" fill="white"/>
<path opacity="0.5" d="M67.3685 81.1348L68.823 99.3453L82.743 96.4298L84.9781 90.7484V81.1348H67.3685Z" fill="white"/>
<path opacity="0.5" d="M44.7463 66.8711L63.1119 79.8039V88.7746L42.4208 90.2249C42.4208 90.2249 45.0339 74.5411 44.7463 66.8711Z" fill="white"/>
<path opacity="0.5" d="M42.4204 93.8055L61.3448 92.2207V100.907L39.0924 106.432L42.4204 93.8055Z" fill="white"/>
<path opacity="0.5" d="M67.3685 51.8975V64.2472L82.743 65.3012L82.1103 52.5777L67.3685 51.8975Z" fill="white"/>
<path opacity="0.5" d="M131.71 101.902L144.916 96.3027L148.885 116.778L129.073 119.948L131.71 101.902Z" fill="white"/>
<path opacity="0.5" d="M134.775 123.066L133.706 137.09L147.446 135.774V119.948L134.775 123.066Z" fill="white"/>
<path opacity="0.5" d="M174.185 92.2202L172.394 110.618H179.863L196.479 108.121L206.052 85.9258L187.809 90.7475L174.185 92.2202Z" fill="white"/>
<path opacity="0.5" d="M155.376 93.2748V98.2685L169.205 97.9096V92.2207L155.376 93.2748Z" fill="white"/>
<path opacity="0.5" d="M175.59 125.233L174.185 139.998L192.419 137.09L194.769 119.948L175.59 125.233Z" fill="white"/>
<path opacity="0.5" d="M159.632 144.445L172.394 145.275L169.205 174.901L156.962 174.557L152.376 173.054L159.632 144.445Z" fill="white"/>
<path opacity="0.5" d="M163.798 123.065L172.393 124.194L170.733 134.129H162.286L163.798 123.065Z" fill="white"/>
<path opacity="0.5" d="M232.454 150.605L248.987 152.063L252.758 170.184L232.454 170.565V150.605Z" fill="white"/>
<path opacity="0.5" d="M194.769 156.623L210.784 155.449L213.011 176.68H192.123L194.769 156.623Z" fill="white"/>
<path opacity="0.5" d="M239.126 188.865L241.443 198.568L252.758 196.894L250.729 186.802L239.126 188.865Z" fill="white"/>
<path opacity="0.5" d="M202.568 192.686L225.05 190.196L226.118 201.492L201.631 207.016L187.776 205.536L192.608 191.639L202.568 192.686Z" fill="white"/>
<path opacity="0.5" d="M86.2268 159.673L104.51 156.623L103.278 168.106L98.1254 179.304L84.9777 182.489L86.2268 159.673Z" fill="white"/>
<path opacity="0.5" d="M70.2773 126.945V136.036L84.3535 134.129L91.8887 131.491L91.5025 119.948L86.3749 123.066L70.2773 126.945Z" fill="white"/>
<path opacity="0.5" d="M40.9662 134.129L59.5372 129.973L61.345 147.428L43.5793 150.605L40.9662 134.129Z" fill="white"/>
<path opacity="0.5" d="M42.2646 165.16L52.8649 156.623L55.6177 158.94L44.6559 168.517L42.2646 165.16Z" fill="white"/>
<path opacity="0.5" d="M45.0338 188.866L50.2189 187.752L51.1557 197.268L46.0199 197.949L45.0338 188.866Z" fill="white"/>
<path opacity="0.5" d="M58.6659 194.636L57.6716 178.003L70.2769 176.68V193.119L58.6659 194.636Z" fill="white"/>
<path opacity="0.5" d="M138.078 156.624C141.995 156.624 145.17 153.735 145.17 150.172C145.17 146.609 141.995 143.721 138.078 143.721C134.161 143.721 130.987 146.609 130.987 150.172C130.987 153.735 134.161 156.624 138.078 156.624Z" fill="white"/>
<path opacity="0.1" d="M263.687 107.359L256.143 134.152L269.291 203.802H269.192L268.872 203.862L200.052 216.682L217.941 107L241.837 41.5439L301.33 66.8863C301.33 66.8863 262.725 101.902 263.687 107.359Z" fill="black" fill-opacity="0.7"/>
<path opacity="0.1" d="M201.631 46.171L183.422 104.892L167.562 130.399L148.531 209.67L105.662 214.23L137.232 147.435L144.743 97.4985L154.259 31.8926L201.631 46.171Z" fill="black" fill-opacity="0.7"/>
<path opacity="0.1" d="M91.5029 47.5393L90.1964 102.111L72.2005 200.834L71.2884 200.468L39.5205 205.536L31.221 111.516L80.9437 94.0226L89.161 47.2627L91.5029 47.5393Z" fill="black" fill-opacity="0.7"/>
<path d="M263.687 107.351C262.717 107.71 254.598 108.584 254.598 108.584C254.787 106.827 258.855 103.658 258.855 101.901C258.886 101.694 258.86 101.483 258.78 101.288C258.7 101.092 258.567 100.917 258.395 100.78C258.222 100.642 258.015 100.545 257.791 100.498C257.567 100.451 257.334 100.455 257.113 100.511C256.727 102.798 250.342 107.014 248.986 107.545C247.63 108.076 243.957 119.334 241.968 121.098C226.356 135.257 211.564 143.443 206.051 153.243C202.518 159.306 197.32 164.433 190.964 168.127C190.964 168.127 187.775 205.461 199.953 188.872C212.131 172.284 216.495 173.256 222.584 165.87C228.673 158.484 240.571 141.626 249.857 127.423C254.598 123.76 258.271 125.457 261.172 122.818C261.788 122.257 261.369 119.999 262.331 118.519C263.292 117.039 264.845 114.37 264.656 112.786C264.467 111.201 266.012 110.326 266.201 109.444C266.39 108.562 264.656 106.999 263.687 107.351Z" fill="#BFBFBF" stroke="#263238" stroke-miterlimit="10"/>
<path d="M76.4149 159.254C73.2595 148.616 60.6378 137.829 48.5913 121.039C47.0546 118.938 46.011 107.239 44.8195 106.491C43.628 105.744 38.3279 100.391 38.4676 98.0814C38.2622 97.9853 38.0338 97.9373 37.8029 97.9417C37.5721 97.9461 37.3461 98.0029 37.1454 98.1068C36.9447 98.2107 36.7757 98.3585 36.6536 98.5368C36.5315 98.7151 36.4602 98.9183 36.4461 99.1279C36.0435 100.847 39.2975 104.712 39.0921 106.469C39.0921 106.469 31.3432 104.084 30.4722 103.554C29.6011 103.023 27.5468 104.249 27.5386 105.146C27.5304 106.043 28.8369 107.194 28.2864 108.712C27.7358 110.229 28.6479 113.13 29.256 114.759C29.8641 116.389 28.9438 118.497 29.4122 119.178C31.6555 122.31 35.6326 121.338 39.4372 125.816C45.3043 141.395 53.1025 160.151 57.3837 168.531C61.6649 176.912 66.1433 176.755 74.2949 195.302C82.4464 213.849 87.8123 176.695 87.8123 176.695C82.4201 171.875 78.4933 165.866 76.4149 159.254Z" fill="#BFBFBF" stroke="#263238" stroke-miterlimit="10"/>
<path d="M81.5421 164.316C81.5421 164.316 83.6457 159.771 79.7178 158.335C75.79 156.9 70.8514 159.494 70.8514 159.494C70.8514 159.494 63.5956 161.146 63.3079 168.128C63.3079 168.128 61.6645 191.557 67.7124 191.646C73.7603 191.736 81.5421 164.316 81.5421 164.316Z" fill="#999999" stroke="#263238" stroke-linecap="round" stroke-linejoin="round"/>
<path d="M194.744 165.13C194.744 165.13 194.424 161.452 199.354 161.938C204.284 162.424 208.344 168.815 208.056 177.764C208.056 177.764 210.316 189.179 204.251 188.865C198.187 188.551 194.744 165.13 194.744 165.13Z" fill="#999999" stroke="#263238" stroke-linecap="round" stroke-linejoin="round"/>
<path d="M99.5791 185.351C99.5791 185.351 82.7748 167.537 79.7015 161.377C79.7015 161.377 68.1316 161.033 66.5539 170.265C65.6577 176.438 65.6577 182.691 66.5539 188.864C66.5539 188.864 77.9595 217.182 82.7008 227.902L99.5791 185.351Z" fill="#757575"/>
<mask id="mask0_344_8986" style="mask-type:luminance" maskUnits="userSpaceOnUse" x="65" y="161" width="35" height="67">
<path d="M99.5791 185.351C99.5791 185.351 82.7748 167.537 79.7015 161.377C79.7015 161.377 68.1316 161.033 66.5539 170.265C65.6577 176.438 65.6577 182.691 66.5539 188.864C66.5539 188.864 77.9595 217.182 82.7008 227.902L99.5791 185.351Z" fill="white"/>
</mask>
<g mask="url(#mask0_344_8986)">
<g opacity="0.3">
<path d="M93.671 178.899C90.941 179.229 88.307 180.036 85.9139 181.276C85.2811 181.59 84.6402 181.942 83.9992 182.338C83.4021 182.703 82.851 183.126 82.3558 183.601C79.8906 185.844 78.2472 189.23 77.22 193.215C76.6869 195.274 76.2918 197.361 76.0367 199.464C75.5879 203.145 75.4012 206.848 75.4779 210.551C74.081 207.179 72.7005 203.823 71.4515 200.75C71.6732 198.455 72.0409 196.174 72.5526 193.917C72.9559 192.106 73.5052 190.325 74.196 188.587C75.3057 185.43 77.253 182.57 79.866 180.259C80.3986 179.81 80.9702 179.4 81.5752 179.034C82.2161 178.645 82.8571 178.286 83.4816 177.957C85.6982 176.794 88.0862 175.926 90.5731 175.378L93.671 178.899Z" fill="#00B8CC"/>
</g>
<g opacity="0.3">
<path d="M87.2124 171.529C84.9434 172.121 82.7222 172.855 80.5646 173.726C79.8168 174.025 79.0526 174.354 78.2555 174.706C77.6818 174.958 77.1321 175.253 76.6121 175.588C73.8757 177.382 71.9775 180.268 70.6546 183.564C69.9909 185.287 69.4664 187.05 69.0851 188.842C68.7646 190.337 68.5263 191.832 68.3373 193.283L66.5624 188.887C66.5624 188.887 66.283 187.183 66.0775 184.521C66.0775 184.252 66.0775 183.975 66.02 183.691C66.5067 182.273 67.0997 180.887 67.795 179.542C69.2446 176.559 71.5386 173.98 74.4427 172.067C75.0301 171.704 75.6452 171.379 76.2834 171.095C76.9901 170.774 77.6885 170.482 78.3624 170.205C80.32 169.4 82.3254 168.693 84.3692 168.09C85.2813 169.204 86.2263 170.347 87.2124 171.529Z" fill="#00B8CC"/>
</g>
<g opacity="0.3">
<path d="M81.2462 163.888C79.3702 164.333 77.5602 164.983 75.8556 165.824C74.5444 166.456 73.2913 167.184 72.1086 167.999C69.9653 169.466 67.9962 171.132 66.2332 172.971C66.3236 172.074 66.4469 171.169 66.5948 170.272C66.9128 168.009 68.1074 165.923 69.9639 164.389L70.0707 164.329C70.9499 163.754 71.8604 163.22 72.7988 162.729C73.1439 162.542 73.4973 162.37 73.8506 162.198L73.9164 162.318C74.5606 162.105 75.2194 161.93 75.8885 161.795C77.136 161.532 78.4125 161.399 79.6931 161.398C80.1533 162.257 80.672 163.088 81.2462 163.888Z" fill="#00B8CC"/>
</g>
<g opacity="0.3">
<path d="M91.3374 187.526L88.0505 190.202C85.9926 188.106 84.072 185.902 82.2984 183.601C81.4356 182.502 80.6057 181.359 79.7922 180.245C78.6993 178.705 77.6392 177.142 76.6285 175.572C75.8835 174.406 75.1604 173.24 74.4592 172.074C73.6374 170.706 72.8157 169.338 72.0926 168C71.3695 166.661 70.7121 165.503 70.0793 164.307C70.9081 163.666 71.8286 163.13 72.8157 162.714C73.1608 162.527 73.5142 162.356 73.8675 162.184L73.9332 162.303C74.5413 163.447 75.1741 164.628 75.8479 165.832C76.6696 167.267 77.4913 168.74 78.387 170.22C79.0882 171.386 79.8113 172.552 80.5564 173.718C81.4767 175.139 82.4299 176.549 83.416 177.95C84.2213 179.086 85.043 180.197 85.8812 181.284C87.5671 183.458 89.3889 185.542 91.3374 187.526Z" fill="#00B8CC"/>
</g>
<g opacity="0.3">
<path d="M87.0972 212.262L82.8653 213.391C81.6081 209.496 79.0854 204.615 75.9957 199.464C74.9028 197.633 73.7277 195.771 72.5115 193.91C71.4104 192.205 70.2682 190.508 69.1178 188.834C68.1235 187.339 67.121 185.918 66.1103 184.513C66.1103 184.244 66.1103 183.967 66.0528 183.683C65.9295 181.762 65.8638 179.452 65.9542 176.955L67.8277 179.534C68.7645 180.835 69.7259 182.188 70.6873 183.556C71.8377 185.201 72.9964 186.883 74.1386 188.58C75.1739 190.12 76.1929 191.675 77.1789 193.222C81.5834 200.122 85.388 206.985 87.0972 212.262Z" fill="#00B8CC"/>
</g>
<path opacity="0.2" d="M86.7525 217.772L82.7425 227.902C78.0011 217.182 66.5955 188.872 66.5955 188.872C65.6993 182.699 65.6993 176.445 66.5955 170.272C67.5569 164.531 72.3476 162.49 75.9139 161.772C76.1245 161.804 76.333 161.847 76.5384 161.9C76.5384 161.9 67.3844 167.23 68.3869 187.75L77.3026 210.177C77.3026 210.177 78.2394 202.365 81.8057 203.494C83.3423 203.995 85.5281 210.476 86.7525 217.772Z" fill="black" fill-opacity="0.7"/>
</g>
<path d="M99.5791 185.351C99.5791 185.351 82.7748 167.537 79.7015 161.377C79.7015 161.377 68.1316 161.033 66.5539 170.265C65.6577 176.438 65.6577 182.691 66.5539 188.864C66.5539 188.864 77.9595 217.182 82.7008 227.902L99.5791 185.351Z" stroke="#263238" stroke-linecap="round" stroke-linejoin="round"/>
<path d="M135.761 169.443C135.679 169.75 135.342 170.004 134.775 170.191C133.167 170.571 131.496 170.682 129.844 170.52C119.367 169.997 98.1092 164.338 93.0392 153.079C87.624 141.066 101.519 125.382 116.393 125.046C124.939 124.859 132.145 134.017 133.879 144.811C134.758 150.014 139.615 154.335 135.761 169.443Z" fill="#BFBFBF" stroke="#263238" stroke-miterlimit="10"/>
<path d="M128.497 152.093C127.929 153.083 127.724 154.212 127.913 155.315" stroke="#263238" stroke-linecap="round" stroke-linejoin="round"/>
<path d="M128.577 158.327C128.577 158.327 130.098 160.196 131.191 159.329" stroke="#263238" stroke-linecap="round" stroke-linejoin="round"/>
<path d="M134.758 170.191C133.149 170.571 131.479 170.683 129.827 170.52C130.041 169.107 130.452 167.47 130.583 166.648C131.01 164.054 129.581 163.246 130.189 163.06C130.797 162.873 130.739 165.183 131.947 166.356C133.071 167.513 134.016 168.803 134.758 170.191Z" fill="#263238"/>
<path d="M130.649 168.217C130.649 168.217 128.784 174.721 129.006 178.017C129.256 180.546 129.759 183.048 130.509 185.493L107.945 186.682C107.945 186.682 111.322 171.902 109.514 166.729C107.707 161.556 123.944 163.44 123.944 163.44" fill="#BFBFBF"/>
<path d="M130.649 168.217C130.649 168.217 128.784 174.721 129.006 178.017C129.256 180.546 129.759 183.048 130.509 185.493L107.945 186.682C107.945 186.682 111.322 171.902 109.514 166.729C107.707 161.556 123.944 163.44 123.944 163.44" stroke="#263238" stroke-miterlimit="10"/>
<path d="M128.069 137.71C129.014 134.914 130.698 135.198 130.698 135.198C130.698 135.198 129.605 121.779 123.303 120.351C119.046 119.379 117.879 125.21 113.442 121.009C110.977 118.654 106.474 118.019 103.458 120.007C101.675 121.203 101.732 122.87 100.541 124.321C99.3494 125.771 96.8925 125.711 95.0847 126.048C92.2908 126.563 89.4558 128.455 88.8724 131.131C88.3958 133.314 91.3376 135.041 90.7624 136.835C90.0804 138.98 87.8863 140.281 86.5305 142.068C84.887 144.206 84.7391 146.987 85.3719 149.469C86.3168 153.162 88.4123 154.604 91.6745 156.488C93.318 157.43 94.2794 159.142 95.2901 160.585C98.6756 165.429 102.784 168.972 109.259 169.974C122.251 171.993 128.069 161.086 128.069 161.086C128.069 161.086 126.606 150.276 127.666 149.043C128.726 147.809 130.953 152.033 130.953 152.033C133.657 145.454 128.069 137.71 128.069 137.71Z" fill="#263238"/>
<path d="M131.084 153.7C130.69 152.384 130.969 146.972 129.17 147.465C127.592 147.906 128.348 153.491 129.992 157.221C131.635 160.951 133.648 160.959 133.706 159.875C133.763 158.791 132.399 158.111 132.062 156.548" fill="#BFBFBF"/>
<path d="M131.084 153.7C130.69 152.384 130.969 146.972 129.17 147.465C127.592 147.906 128.348 153.491 129.992 157.221C131.635 160.951 133.648 160.959 133.706 159.875C133.763 158.791 132.399 158.111 132.062 156.548" stroke="#263238" stroke-miterlimit="10"/>
<path opacity="0.3" d="M127.14 130.996C127.14 130.996 127.855 124.829 123.278 125.016C118.701 125.203 118.939 130.996 118.939 130.996C118.939 130.996 115.093 129.808 113.779 131.826C112.464 133.845 113.82 137.926 113.82 137.926C113.82 137.926 109.711 139.115 110.722 141.619C111.733 144.124 109.078 144.497 109.078 144.497" stroke="white" stroke-linecap="round" stroke-linejoin="round"/>
<path opacity="0.3" d="M126.097 136.035C126.097 136.035 125.374 141.492 121.092 141.619C121.092 141.619 116.688 153.939 101.724 153.678" stroke="white" stroke-linecap="round" stroke-linejoin="round"/>
<path opacity="0.3" d="M114.634 124.193C114.634 124.193 111.182 121.256 107.033 123.057C102.883 124.859 105.644 129.972 105.644 129.972C105.644 129.972 101.618 129.748 100.295 132.514C98.9716 135.28 102.891 137.089 102.891 137.089C102.891 137.089 98.4211 139.249 100.295 140.961C102.168 142.673 100.295 146.112 100.295 146.112" stroke="white" stroke-linecap="round" stroke-linejoin="round"/>
<path opacity="0.3" d="M97.3766 129.973C97.3766 129.973 91.115 131.767 92.4462 136.035C93.7774 140.304 94.8292 140.289 94.8292 140.289C94.8292 140.289 90.1372 141.784 89.8496 144.857C89.5619 147.929 93.6213 147.802 93.6213 147.802C93.6213 147.802 92.3147 150.897 95.6509 152.063" stroke="white" stroke-linecap="round" stroke-linejoin="round"/>
<path d="M99.5798 183.49C99.5798 183.49 114.691 173.772 142.195 183.984L162.828 179.603C162.828 179.603 176.173 212.578 168.169 246.375C168.169 246.375 150.264 258.059 120.287 258C87.7716 257.925 79.7186 246.375 79.7186 246.375L84.3696 235.588C81.5675 223.268 77.9437 203.517 80.7047 193.291C84.9037 177.741 99.5798 183.49 99.5798 183.49Z" fill="#757575"/>
<mask id="mask1_344_8986" style="mask-type:luminance" maskUnits="userSpaceOnUse" x="79" y="179" width="92" height="79">
<path d="M99.5803 183.49C99.5803 183.49 114.692 173.772 142.195 183.984L162.829 179.603C162.829 179.603 176.173 212.578 168.17 246.375C168.17 246.375 150.264 258.059 120.288 258C87.772 257.925 79.7191 246.375 79.7191 246.375L84.3701 235.588C81.568 223.268 77.9442 203.517 80.7052 193.291C84.9042 177.741 99.5803 183.49 99.5803 183.49Z" fill="white"/>
</mask>
<g mask="url(#mask1_344_8986)">
<g opacity="0.3">
<path d="M161.333 249.865C160.084 250.418 158.654 251.001 157.076 251.599C156.945 250.171 156.813 248.759 156.698 247.361C156.583 245.963 156.46 244.52 156.353 243.122C156.008 238.891 155.721 234.839 155.474 230.989C155.381 229.524 155.296 228.086 155.219 226.676C154.891 220.905 154.652 215.597 154.504 210.753C154.455 209.183 154.411 207.665 154.373 206.2C154.258 201.057 154.217 196.512 154.25 192.565C154.25 191.01 154.25 189.574 154.299 188.169C154.348 185.567 154.414 183.295 154.496 181.351L158.925 180.409C158.86 182.099 158.786 184.08 158.736 186.352C158.736 187.75 158.679 189.245 158.662 190.838C158.662 194.575 158.662 198.964 158.736 203.935C158.736 205.43 158.772 206.992 158.843 208.622C158.98 213.536 159.21 218.966 159.533 224.911C159.616 226.332 159.689 227.79 159.78 229.27C160.026 233.127 160.3 237.184 160.602 241.44C160.717 242.84 160.834 244.261 160.955 245.701C161.095 247.084 161.21 248.46 161.333 249.865Z" fill="#00B8CC"/>
</g>
<g opacity="0.3">
<path d="M148.276 182.674C147.947 184.879 147.602 187.518 147.257 190.553C147.092 191.929 146.928 193.394 146.78 194.934C146.345 199.329 145.958 204.353 145.646 209.885C145.572 211.335 145.498 212.823 145.449 214.37C145.252 219.312 145.153 224.604 145.219 230.189C145.219 231.594 145.219 233.015 145.285 234.45C145.372 238.437 145.548 242.573 145.81 246.859C145.901 248.235 145.991 249.625 146.106 251.031C146.194 252.317 146.301 253.61 146.427 254.911C145.038 255.254 143.592 255.583 142.088 255.882C141.981 254.694 141.874 253.513 141.792 252.339C141.677 250.949 141.579 249.566 141.488 248.197C141.201 243.892 141.02 239.698 140.921 235.631C140.872 234.218 140.847 232.828 140.831 231.445C140.757 225.92 140.831 220.672 140.995 215.746C141.044 214.251 141.105 212.803 141.176 211.403C141.439 205.773 141.825 200.638 142.252 196.1C142.4 194.605 142.54 193.177 142.688 191.816C143.033 188.729 143.378 185.993 143.699 183.661L148.276 182.674Z" fill="#00B8CC"/>
</g>
<g opacity="0.3">
<path d="M133.551 181.246C133.107 184.43 132.581 188.721 132.055 193.82C131.913 195.14 131.779 196.516 131.653 197.946C131.225 202.693 130.831 208.031 130.502 213.802C130.428 215.162 130.354 216.538 130.297 217.943C130.075 222.922 129.943 228.185 129.919 233.642C129.919 234.988 129.919 236.348 129.919 237.724C129.919 242.06 130.05 246.515 130.256 251.038C130.313 252.391 130.379 253.744 130.461 255.112C130.461 255.905 130.551 256.689 130.609 257.482C129.179 257.609 127.716 257.721 126.221 257.788C126.18 257.168 126.139 256.547 126.106 255.934C126.024 254.581 125.95 253.236 125.892 251.89C125.67 247.233 125.555 242.65 125.522 238.18C125.522 236.827 125.522 235.489 125.522 234.151C125.522 228.686 125.67 223.423 125.884 218.452C125.942 217.069 125.999 215.716 126.073 214.378C126.377 208.599 126.771 203.231 127.207 198.44C127.33 197.034 127.462 195.674 127.593 194.373C128.177 188.557 128.777 183.772 129.237 180.326C130.65 180.595 132.063 180.902 133.551 181.246Z" fill="#00B8CC"/>
</g>
<g opacity="0.3">
<path d="M117.969 257.946C116.433 257.946 114.946 257.864 113.516 257.774C113.516 257.55 113.458 257.318 113.434 257.079C113.286 255.778 113.162 254.44 113.064 253.057C112.719 248.393 112.612 243.339 112.505 237.904C112.505 237.68 112.505 237.471 112.505 237.246C112.505 236.133 112.464 235.004 112.439 233.838C112.341 228.971 112.193 223.783 111.856 218.303C111.774 216.973 111.683 215.612 111.576 214.244C111.429 212.308 111.256 210.349 111.051 208.353C110.681 204.81 110.492 201.625 110.451 198.68C110.451 197.259 110.451 195.921 110.5 194.658C110.579 189.554 111.408 184.483 112.965 179.58C114.54 179.416 116.122 179.327 117.707 179.311C116.531 182.241 115.184 187.197 114.921 194.875C114.88 196.138 114.863 197.469 114.921 198.882C114.954 201.618 115.14 204.648 115.48 207.972C115.715 210.23 115.915 212.447 116.08 214.625C116.178 215.986 116.269 217.324 116.342 218.647C116.663 224.187 116.803 229.42 116.901 234.346C116.901 235.318 116.901 236.267 116.959 237.209C116.959 237.598 116.959 237.957 116.959 238.368C117.066 243.601 117.172 248.542 117.518 253.027C117.616 254.403 117.739 255.734 117.904 257.019C117.879 257.318 117.928 257.632 117.969 257.946Z" fill="#00B8CC"/>
</g>
<g opacity="0.3">
<path d="M103.27 197.79C103.099 200.389 103.08 202.994 103.212 205.595C103.352 208.084 103.409 210.446 103.409 212.726C103.409 214.139 103.409 215.507 103.352 216.868C103.22 221.503 102.892 225.898 102.53 230.428C102.53 230.832 102.473 231.243 102.44 231.654C102.333 233.015 102.234 234.391 102.144 235.788C101.881 239.526 101.675 243.421 101.626 247.615C101.626 248.736 101.626 249.858 101.626 250.874C101.659 252.409 101.722 253.862 101.815 255.233C101.815 255.644 101.864 256.055 101.906 256.451C100.306 256.167 98.8103 255.848 97.4189 255.494C97.3778 254.896 97.3449 254.283 97.3121 253.648C97.2381 252.197 97.2052 250.657 97.197 249.08C97.197 248.587 97.197 248.078 97.197 247.585C97.2463 242.898 97.4928 238.614 97.7805 234.495C97.8873 233.075 97.9859 231.684 98.0927 230.301C98.0927 230.257 98.0927 230.204 98.0927 230.152C98.4625 225.315 98.8158 220.65 98.9144 215.679C98.9144 214.289 98.9144 212.876 98.9144 211.425C98.9144 209.616 98.8405 207.747 98.7337 205.804C98.5794 202.832 98.6096 199.854 98.8241 196.885C98.9062 195.517 99.0295 194.157 99.1609 192.804C99.5225 189.313 100.04 185.919 100.591 182.876C101.909 182.237 103.284 181.696 104.699 181.261H104.74C104.954 181.187 105.176 181.119 105.406 181.06C104.675 184.797 103.935 189.215 103.483 193.768C103.45 195.091 103.344 196.444 103.27 197.79Z" fill="#00B8CC"/>
</g>
<g opacity="0.3">
<path d="M97.7805 182.929C98.405 183.071 98.9062 183.228 99.2103 183.325C96.2405 185.051 94.0752 187.713 93.1295 190.801C92.7105 192.127 92.4758 193.496 92.431 194.875C92.3871 195.832 92.4118 196.791 92.505 197.746C92.8775 201.648 93.113 205.415 93.2117 209.049C93.2692 210.544 93.2938 212.039 93.2938 213.534C93.3174 218.392 93.0623 223.248 92.5296 228.082C92.3817 229.502 92.2009 230.905 91.9873 232.29C91.8722 233.09 91.749 233.89 91.6093 234.682C91.0916 237.673 90.5821 241.291 90.163 244.976C89.9905 246.539 89.8261 248.109 89.6864 249.664C89.5933 250.725 89.5111 251.772 89.4399 252.803C87.9703 252.191 86.5505 251.484 85.1916 250.688C85.2984 249.394 85.4299 248.101 85.5614 246.853C85.7422 245.118 85.9394 243.459 86.1366 241.941C86.7118 237.419 87.2541 234.152 87.2706 234.062C87.4678 232.891 87.6486 231.702 87.8129 230.496C88.0101 229.076 88.1745 227.638 88.3059 226.183C88.7872 221.289 88.9764 216.375 88.8729 211.463C88.8729 209.893 88.799 208.309 88.725 206.686C88.599 203.9 88.3963 201.03 88.1169 198.074C87.943 196.424 87.943 194.761 88.1169 193.111C88.2676 191.727 88.5789 190.361 89.0455 189.036C89.9218 186.53 91.4463 184.251 93.491 182.391C94.9402 182.404 96.3816 182.584 97.7805 182.929Z" fill="#00B8CC"/>
</g>
<g opacity="0.3">
<path d="M165.515 187.682C163.634 188.654 161.341 189.753 158.654 190.859C157.29 191.428 155.822 191.996 154.25 192.564C151.965 193.386 149.467 194.186 146.78 194.934C145.328 195.337 143.819 195.719 142.252 196.077C138.758 196.881 135.22 197.515 131.652 197.976C130.206 198.163 128.71 198.32 127.198 198.455C123.977 198.746 120.624 198.903 117.107 198.903C116.467 198.903 115.834 198.903 115.201 198.903H114.856C113.344 198.903 111.865 198.806 110.435 198.701C108.031 198.52 105.639 198.223 103.27 197.812C101.758 197.543 100.303 197.239 98.9062 196.9C96.6945 196.364 94.521 195.705 92.3981 194.926C90.8971 194.383 89.47 193.8 88.1169 193.177C85.9849 192.2 83.9261 191.096 81.954 189.873C82.5204 188.635 83.2696 187.473 84.1809 186.419C85.7452 187.397 87.3694 188.293 89.0455 189.103C90.3109 189.716 91.6668 190.306 93.0966 190.852C95.098 191.624 97.1509 192.281 99.2431 192.818C100.624 193.184 102.07 193.498 103.582 193.775C105.861 194.199 108.166 194.501 110.484 194.68C111.906 194.799 113.369 194.866 114.881 194.896H115.275C115.875 194.896 116.467 194.896 117.058 194.896C120.575 194.897 124.088 194.724 127.584 194.381C129.113 194.231 130.603 194.052 132.055 193.842C135.639 193.342 139.189 192.655 142.688 191.786C144.274 191.398 145.794 190.979 147.257 190.546C149.804 189.798 152.187 188.976 154.299 188.161C155.942 187.555 157.372 186.942 158.728 186.344C160.906 185.387 162.763 184.475 164.275 183.668C164.653 184.804 165.072 186.15 165.515 187.682Z" fill="#00B8CC"/>
</g>
<g opacity="0.3">
<path d="M168.918 202.641C165.697 204.824 162.329 206.821 158.835 208.622C157.463 209.37 156.025 210.042 154.504 210.73C151.568 212.083 148.551 213.283 145.465 214.326C144.019 214.819 142.54 215.283 141.012 215.701C137.515 216.681 133.945 217.431 130.329 217.944C128.883 218.146 127.404 218.318 125.908 218.437C123.881 218.607 121.811 218.694 119.696 218.699C118.579 218.699 117.445 218.699 116.311 218.617C114.84 218.55 113.369 218.437 111.873 218.273C111.586 218.273 111.298 218.213 111.01 218.183C108.441 217.876 105.894 217.426 103.385 216.838C101.873 216.479 100.416 216.08 99.0132 215.642C97.0575 215.034 95.1376 214.336 93.2611 213.548C91.7162 212.898 90.2454 212.203 88.8402 211.478C85.6441 209.82 82.6188 207.903 79.8012 205.751C79.719 203.845 79.7026 202.014 79.8012 200.279C82.5379 202.683 85.5299 204.834 88.7334 206.701C90.1522 207.533 91.6478 208.315 93.22 209.048C95.1074 209.931 97.05 210.712 99.0378 211.388C100.451 211.874 101.93 212.307 103.451 212.696C106.118 213.375 108.837 213.875 111.586 214.191C113.081 214.371 114.56 214.498 116.039 214.573C119.391 214.737 122.751 214.659 126.089 214.341C127.593 214.199 129.08 214.012 130.526 213.78C134.151 213.211 137.722 212.391 141.209 211.328C142.737 210.865 144.233 210.364 145.679 209.833C148.661 208.749 151.574 207.516 154.406 206.14C155.945 205.392 157.397 204.645 158.761 203.897C162.002 202.124 165.125 200.177 168.112 198.066C168.375 199.562 168.655 201.072 168.918 202.641Z" fill="#00B8CC"/>
</g>
<g opacity="0.3">
<path d="M170.725 223.432V224.336C167.57 225.899 163.864 227.611 159.771 229.293C158.383 229.868 156.945 230.436 155.474 230.99C152.244 232.216 148.818 233.389 145.284 234.428C143.855 234.847 142.392 235.243 140.921 235.609C137.307 236.538 133.632 237.258 129.918 237.762C128.455 237.957 126.993 238.106 125.522 238.218C123.78 238.353 122.03 238.428 120.296 238.428C119.162 238.428 118.036 238.428 116.91 238.338C115.571 238.263 114.24 238.136 112.908 237.964L112.506 237.904C109.007 237.434 105.55 236.737 102.16 235.819C100.689 235.415 99.2513 234.981 97.8297 234.518C95.8192 233.85 93.8607 233.133 91.9543 232.365C90.5245 231.792 89.1331 231.194 87.78 230.571C86.0434 229.788 84.378 228.976 82.7839 228.134C82.447 226.437 82.1183 224.673 81.7978 222.901C83.8357 224.052 85.9941 225.178 88.273 226.28C89.6371 226.93 91.0504 227.566 92.4967 228.179C94.3209 228.951 96.2027 229.674 98.1419 230.347C99.5471 230.833 100.985 231.296 102.456 231.707C105.714 232.659 109.046 233.389 112.424 233.89C112.793 233.95 113.163 234.002 113.541 234.047C114.626 234.189 115.727 234.294 116.828 234.368C119.72 234.531 122.621 234.489 125.505 234.241C126.976 234.114 128.439 233.95 129.91 233.733C133.597 233.2 137.242 232.45 140.822 231.49C142.302 231.102 143.764 230.683 145.21 230.234C148.686 229.173 152.039 227.992 155.211 226.743C156.69 226.175 158.128 225.585 159.517 225.002C163.773 223.2 167.57 221.383 170.659 219.813C170.709 220.965 170.725 222.191 170.725 223.432Z" fill="#00B8CC"/>
</g>
<g opacity="0.3">
<path d="M169.789 237.605C169.69 238.353 169.575 239.101 169.452 239.848C169.328 240.596 169.164 241.538 169.008 242.39C166.789 243.347 164.078 244.483 160.98 245.702C159.624 246.24 158.186 246.786 156.699 247.339C153.412 248.557 149.845 249.806 146.106 250.987C144.685 251.435 143.247 251.876 141.792 252.295C138.078 253.372 134.265 254.343 130.461 255.128C129.006 255.442 127.552 255.711 126.106 255.951C123.428 256.407 120.726 256.742 118.012 256.952H117.855C116.771 257.035 115.686 257.064 114.634 257.064C114.232 257.064 113.813 257.064 113.435 257.064C109.511 256.969 105.622 256.36 101.889 255.255C100.357 254.805 98.8532 254.276 97.3863 253.671C94.6977 252.565 92.1212 251.247 89.6867 249.731C88.1994 248.819 86.8189 247.862 85.5781 246.92C84.0236 245.761 82.5344 244.531 81.1161 243.235L82.9074 239.101C83.8196 239.983 84.9043 240.969 86.1533 242.009C87.4023 243.048 88.7006 244.02 90.1797 245.044C92.4153 246.582 94.7936 247.94 97.2877 249.103C98.7213 249.785 100.201 250.384 101.717 250.897C105.365 252.169 109.212 252.906 113.114 253.08C114.577 253.139 116.042 253.116 117.502 253.013H117.691C120.449 252.799 123.193 252.447 125.908 251.959C127.355 251.704 128.809 251.42 130.272 251.106C134.035 250.299 137.823 249.297 141.505 248.206C142.967 247.772 144.414 247.324 145.827 246.868C149.558 245.657 153.124 244.386 156.37 243.13C157.874 242.569 159.295 242.009 160.643 241.47C164.447 239.953 167.628 238.585 169.789 237.605Z" fill="#00B8CC"/>
</g>
<path opacity="0.2" d="M142.351 183.923C136.295 187.062 121.734 193.865 110.904 193.11C102.21 192.505 98.578 187.257 97.7562 182.928C98.3807 183.067 98.9931 183.247 99.5887 183.467C99.5887 183.467 114.7 173.748 142.203 183.96L142.351 183.923Z" fill="black" fill-opacity="0.7"/>
<path opacity="0.2" d="M122.81 257.946C121.989 257.946 121.167 257.946 120.288 257.946C87.78 257.871 79.7189 246.314 79.7189 246.314L84.3781 235.526C82.3913 227.124 80.9589 218.622 80.0887 210.064C82.6278 214.841 98.4296 242.538 121.824 242.419C138.407 242.359 130.469 251.517 122.81 257.946Z" fill="black" fill-opacity="0.7"/>
<path opacity="0.2" d="M170.725 223.431C170.743 228.934 170.318 234.431 169.452 239.877C160.865 230.465 163.568 213.398 163.568 213.398C164.702 220.044 168.499 222.526 170.725 223.431Z" fill="black" fill-opacity="0.7"/>
</g>
<path d="M99.5798 183.49C99.5798 183.49 114.691 173.772 142.195 183.984L162.828 179.603C162.828 179.603 176.173 212.578 168.169 246.375C168.169 246.375 150.264 258.059 120.287 258C87.7716 257.925 79.7186 246.375 79.7186 246.375L84.3696 235.588C81.5675 223.268 77.9437 203.517 80.7047 193.291C84.9037 177.741 99.5798 183.49 99.5798 183.49Z" stroke="#263238" stroke-linecap="round" stroke-linejoin="round"/>
<path d="M109.827 188.79C119.326 189.126 130.863 189.067 139.146 184.26" stroke="#263238" stroke-linecap="round" stroke-linejoin="round"/>
<path d="M104.51 188.469C105.332 188.551 106.211 188.611 107.066 188.664" stroke="#263238" stroke-linecap="round" stroke-linejoin="round"/>
<path d="M111.84 242.226C111.891 243.618 112.109 245.002 112.489 246.352" stroke="#263238" stroke-linecap="round" stroke-linejoin="round"/>
<path d="M109.341 190.757C107.699 194.13 107.173 197.866 107.829 201.507C111.494 214.215 113.696 226.176 111.806 239.064" stroke="#263238" stroke-linecap="round" stroke-linejoin="round"/>
<path d="M114.518 233.577C119.292 234.651 124.275 234.694 129.071 233.704" stroke="#263238" stroke-linecap="round" stroke-linejoin="round"/>
<path d="M84.6981 206.717C89.8586 217.796 99.177 227.245 111.1 232.567" stroke="#263238" stroke-linecap="round" stroke-linejoin="round"/>
<path d="M82.2656 200.438C82.5452 201.335 82.8494 202.232 83.1866 203.121" stroke="#263238" stroke-linecap="round" stroke-linejoin="round"/>
<path d="M162.828 179.581C161.297 190.262 161.466 201.089 163.33 211.726C166.403 229.668 171.218 229.496 171.218 229.496C171.218 229.496 198.705 198.591 206.051 186.1C206.051 186.1 204.309 168.158 196.577 164.346L162.828 179.581Z" fill="#757575"/>
<mask id="mask2_344_8986" style="mask-type:luminance" maskUnits="userSpaceOnUse" x="161" y="164" width="46" height="66">
<path d="M162.828 179.58C161.297 190.261 161.466 201.088 163.329 211.725C166.402 229.667 171.218 229.495 171.218 229.495C171.218 229.495 198.704 198.59 206.051 186.099C206.051 186.099 204.309 168.157 196.576 164.345L162.828 179.58Z" fill="white"/>
</mask>
<g mask="url(#mask2_344_8986)">
<g opacity="0.3">
<path d="M201.119 193.343C200.01 194.838 198.819 196.431 197.553 198.06C196.904 194.51 196.148 191.228 195.326 188.193C194.932 186.698 194.516 185.275 194.077 183.924C193.149 180.934 192.154 178.258 191.152 175.828C190.604 174.457 190.034 173.172 189.443 171.971C188.829 170.67 188.224 169.466 187.627 168.36L191.62 166.551C192.13 167.485 192.639 168.472 193.157 169.541C193.74 170.745 194.324 172.023 194.907 173.398C195.893 175.701 196.857 178.25 197.8 181.046C198.243 182.399 198.687 183.812 199.098 185.292C199.832 187.794 200.506 190.478 201.119 193.343Z" fill="#00B8CC"/>
</g>
<g opacity="0.3">
<path d="M191.045 206.216C189.747 207.793 188.457 209.363 187.166 210.896C186.633 205.876 185.811 200.885 184.701 195.944C184.378 194.449 184.033 193.007 183.666 191.616C182.778 188.11 181.792 184.888 180.798 181.943C180.321 180.567 179.845 179.254 179.368 178.003C178.686 176.186 178.004 174.519 177.355 173.002L181.349 171.2C181.957 172.598 182.598 174.123 183.239 175.783C183.726 177.024 184.214 178.337 184.701 179.722C185.663 182.496 186.624 185.538 187.512 188.835C187.89 190.236 188.257 191.678 188.613 193.164C189.574 197.193 190.404 201.544 191.045 206.216Z" fill="#00B8CC"/>
</g>
<g opacity="0.3">
<path d="M180.633 218.626C179.286 220.211 178.02 221.668 176.878 222.984C175.876 216.323 174.61 209.745 173.263 203.548C172.95 202.097 172.633 200.672 172.309 199.271C171.364 195.152 170.395 191.265 169.466 187.714C169.105 186.316 168.743 184.978 168.398 183.7C167.814 181.547 167.256 179.566 166.754 177.779L170.781 175.955C171.282 177.689 171.833 179.611 172.424 181.711C172.786 182.997 173.147 184.343 173.525 185.748C174.405 189.112 175.333 192.798 176.254 196.715C176.582 198.113 176.911 199.548 177.24 201.006C178.439 206.665 179.631 212.571 180.633 218.626Z" fill="#00B8CC"/>
</g>
<g opacity="0.3">
<path d="M201.153 169.047C199.263 170.415 197.184 171.881 194.908 173.391C193.709 174.193 192.457 175.005 191.153 175.828C189.164 177.104 187.02 178.412 184.719 179.752C183.462 180.5 182.155 181.248 180.816 181.995C178.487 183.281 176.044 184.562 173.486 185.838C172.171 186.495 170.84 187.146 169.468 187.796C167.002 188.955 164.48 190.106 161.85 191.228C161.85 189.568 161.957 188.058 162.056 186.705C164.247 185.748 166.361 184.776 168.399 183.789C169.755 183.124 171.086 182.466 172.385 181.801C174.85 180.56 177.159 179.304 179.386 178.063C180.717 177.32 182.007 176.573 183.256 175.82C185.442 174.534 187.504 173.256 189.444 172.008C190.734 171.178 191.975 170.371 193.158 169.571C195.122 168.248 196.93 166.969 198.59 165.766C199.13 166.273 199.62 166.823 200.052 167.41C200.458 167.934 200.826 168.481 201.153 169.047Z" fill="#00B8CC"/>
</g>
<g opacity="0.3">
<path d="M205.154 180.5C203.247 182.04 201.226 183.647 199.098 185.299C197.87 186.256 196.613 187.225 195.326 188.207C193.165 189.844 190.93 191.511 188.629 193.178C187.347 194.105 186.04 195.04 184.717 195.959C182.252 197.679 179.746 199.391 177.199 201.058C175.892 201.917 174.585 202.762 173.262 203.592C169.869 205.722 166.426 207.763 162.999 209.64C162.769 208.144 162.588 206.694 162.432 205.274C165.719 203.412 169.006 201.401 172.293 199.293C173.599 198.456 174.906 197.611 176.196 196.744C178.735 195.062 181.233 193.335 183.666 191.601C184.964 190.674 186.254 189.747 187.511 188.82C189.771 187.175 191.957 185.523 194.085 183.909C195.35 182.929 196.599 181.972 197.807 181.023C200.01 179.281 202.097 177.599 204.044 176.007C204.496 177.577 204.866 179.109 205.154 180.5Z" fill="#00B8CC"/>
</g>
<path opacity="0.2" d="M206.05 186.07C198.696 198.561 171.209 229.465 171.209 229.465C171.209 229.465 167.1 229.622 164.068 215.546C166.312 223.134 172.392 223.911 172.392 223.911L200.397 190.219C197.414 184.447 199.978 167.837 200.052 167.396C204.859 173.772 206.05 186.07 206.05 186.07Z" fill="black" fill-opacity="0.7"/>
</g>
<path d="M162.828 179.581C161.297 190.262 161.466 201.089 163.33 211.726C166.403 229.668 171.218 229.496 171.218 229.496C171.218 229.496 198.705 198.591 206.051 186.1C206.051 186.1 204.309 168.158 196.577 164.346L162.828 179.581Z" stroke="#263238" stroke-linecap="round" stroke-linejoin="round"/>
<path d="M142.194 183.961C142.194 183.961 130.813 176.366 115.726 174.766C100.639 173.167 101.067 181.248 101.067 181.248C100.45 181.482 99.9557 181.923 99.6865 182.48C99.4173 183.036 99.3936 183.666 99.6203 184.238C100.245 186.533 120.673 188.723 142.194 183.961Z" fill="#757575"/>
<mask id="mask3_344_8986" style="mask-type:luminance" maskUnits="userSpaceOnUse" x="99" y="174" width="44" height="13">
<path d="M142.194 183.961C142.194 183.961 130.813 176.366 115.726 174.766C100.639 173.167 101.066 181.248 101.066 181.248C100.449 181.482 99.9552 181.923 99.686 182.48C99.4168 183.036 99.3931 183.666 99.6198 184.238C100.244 186.533 120.672 188.723 142.194 183.961Z" fill="white"/>
</mask>
<g mask="url(#mask3_344_8986)">
<g opacity="0.3">
<path d="M114.823 174.677C114.413 175.58 114.059 176.504 113.763 177.443C113.393 178.564 113.023 179.895 112.686 181.45C112.349 183.005 112.07 184.724 111.864 186.683C110.221 186.615 108.791 186.503 107.46 186.376C107.665 184.515 107.937 182.848 108.224 181.353C108.512 179.858 108.857 178.497 109.21 177.316C109.506 176.292 109.818 175.395 110.122 174.595C111.689 174.502 113.261 174.529 114.823 174.677Z" fill="#00B8CC"/>
</g>
<g opacity="0.3">
<path d="M126.894 177.084C126.894 177.593 126.894 178.138 126.894 178.729C126.837 179.91 126.746 181.256 126.574 182.766C126.451 183.887 126.286 185.098 126.081 186.391C124.528 186.518 123.024 186.608 121.57 186.675C121.857 185.038 122.063 183.536 122.21 182.19C122.375 180.658 122.465 179.312 122.506 178.161C122.506 177.301 122.506 176.553 122.506 175.918C124.018 176.247 125.497 176.651 126.894 177.084Z" fill="#00B8CC"/>
</g>
<g opacity="0.3">
<path d="M142.195 183.962C140.551 184.313 139.006 184.635 137.42 184.919C133.599 183.984 129.951 183.282 126.541 182.766C125.037 182.534 123.591 182.34 122.177 182.175C118.701 181.764 115.521 181.555 112.686 181.428C111.043 181.368 109.572 181.353 108.2 181.36C105.524 181.365 102.849 181.495 100.188 181.749C100.425 181.533 100.703 181.358 101.01 181.233C101.037 179.859 101.593 178.537 102.579 177.496C104.362 177.376 106.581 177.294 109.153 177.301C110.566 177.301 112.095 177.301 113.73 177.398C116.368 177.518 119.285 177.735 122.44 178.101C123.854 178.256 125.316 178.45 126.828 178.684C129.515 179.088 132.358 179.596 135.308 180.247C137.704 181.324 140.007 182.566 142.195 183.962Z" fill="#00B8CC"/>
</g>
</g>
<path d="M142.194 183.961C142.194 183.961 130.813 176.366 115.726 174.766C100.639 173.167 101.067 181.248 101.067 181.248C100.45 181.482 99.9557 181.923 99.6865 182.48C99.4173 183.036 99.3936 183.666 99.6203 184.238C100.245 186.533 120.673 188.723 142.194 183.961Z" stroke="#263238" stroke-linecap="round" stroke-linejoin="round"/>
<path d="M117.502 180.38C118.962 180.571 120.404 180.863 121.816 181.255" stroke="#263238" stroke-linecap="round" stroke-linejoin="round"/>
<path d="M101.067 181.247C105.472 180.245 110.018 179.857 114.551 180.096" stroke="#263238" stroke-linecap="round" stroke-linejoin="round"/>
<path d="M74.9349 180.32C74.9349 181.636 75.0589 182.952 75.2159 184.26" stroke="#263238" stroke-linecap="round" stroke-linejoin="round"/>
<path d="M81.5424 164.315C76.9736 167.037 75.3548 172.935 74.9686 177.54" stroke="#263238" stroke-linecap="round" stroke-linejoin="round"/>
<path d="M189.962 199.077C188.801 200.214 187.405 201.131 185.853 201.776" stroke="#263238" stroke-linecap="round" stroke-linejoin="round"/>
<path d="M202.96 172.897C200.208 180.822 197.274 189.501 192.023 196.819" stroke="#263238" stroke-linecap="round" stroke-linejoin="round"/>
<path d="M171.218 229.464C171.218 229.464 166.978 231.341 161.358 220.763" stroke="#263238" stroke-linecap="round" stroke-linejoin="round"/>
<path d="M164.177 239.602C160.068 246.098 154.25 252.138 146.427 254.889" stroke="#263238" stroke-linecap="round" stroke-linejoin="round"/>
<path d="M167.339 233.577C166.912 234.631 166.41 235.655 165.876 236.665" stroke="#263238" stroke-linecap="round" stroke-linejoin="round"/>
</svg>
