<svg width="325" height="250" viewBox="0 0 325 250" fill="none" xmlns="http://www.w3.org/2000/svg">
<path d="M275.314 27.2127C275.314 27.2127 255.714 0.542489 220.382 0.0090858C185.049 -0.524318 163.633 22.5551 139.532 35.7861C126.909 42.7009 111.308 42.1935 97.4897 46.3696C53.259 59.6722 43.5047 114.847 66.6 143.189C86.6116 167.706 117.318 178.315 161.647 176.787C205.976 175.258 237.277 175.668 273.027 145.778C308.778 115.888 298.775 62.5539 275.314 27.2127Z" fill="#00B8CC"/>
<path opacity="0.7" d="M275.314 27.2127C275.314 27.2127 255.714 0.542489 220.382 0.0090858C185.049 -0.524318 163.633 22.5551 139.532 35.7861C126.909 42.7009 111.308 42.1935 97.4897 46.3696C53.259 59.6722 43.5047 114.847 66.6 143.189C86.6116 167.706 117.318 178.315 161.647 176.787C205.976 175.258 237.277 175.668 273.027 145.778C308.778 115.888 298.775 62.5539 275.314 27.2127Z" fill="white"/>
<path d="M325 216.473C325 212.277 287.146 208.875 240.452 208.875C198.809 208.875 164.228 211.581 157.224 215.139H152.481C72.1665 215.139 7.06177 222.945 7.06177 232.572C7.06177 242.2 72.1665 249.999 152.481 249.999C232.795 249.999 297.9 242.18 297.9 232.585C297.9 229.209 289.883 226.081 276.02 223.387C304.956 222.178 325 219.524 325 216.473Z" fill="#00B8CC"/>
<path opacity="0.4" d="M325 216.473C325 212.277 287.146 208.875 240.452 208.875C198.809 208.875 164.228 211.581 157.224 215.139H152.481C72.1665 215.139 7.06177 222.945 7.06177 232.572C7.06177 242.2 72.1665 249.999 152.481 249.999C232.795 249.999 297.9 242.18 297.9 232.585C297.9 229.209 289.883 226.081 276.02 223.387C304.956 222.178 325 219.524 325 216.473Z" fill="white"/>
<path d="M195.568 163.374L64.7837 139.566C62.9153 139.221 61.2602 138.154 60.1803 136.597C59.1004 135.04 58.6837 133.121 59.0213 131.259L72.6433 57.1031C72.9896 55.2429 74.0618 53.595 75.6253 52.5198C77.1888 51.4446 79.1164 51.0297 80.9864 51.3658L211.771 75.1868C213.639 75.5317 215.294 76.5992 216.374 78.1559C217.454 79.7126 217.871 81.6318 217.533 83.4936L203.911 157.65C203.562 159.507 202.488 161.152 200.925 162.225C199.362 163.297 197.436 163.71 195.568 163.374Z" fill="#263238" stroke="#263238" stroke-width="1.35048" stroke-linecap="round" stroke-linejoin="round"/>
<path d="M193.497 71.8691C184.167 77.008 173.244 81.2753 161.823 81.9843C130.496 83.9358 117.188 69.8591 82.3061 74.3475C77.794 74.9274 73.3336 75.8539 68.965 77.1186L63.1242 108.902C72.6032 101.803 83.5314 96.8624 95.1376 94.4282C125.936 88.0013 138.852 99.3784 166.678 95.417C183.181 93.0687 197.94 82.5372 207.217 74.3605L193.497 71.8691Z" fill="#00B8CC" stroke="#263238" stroke-width="1.35048" stroke-linecap="round" stroke-linejoin="round"/>
<path d="M70.533 68.6167C71.7612 68.3045 73.0091 67.9663 74.2896 67.7321C105.094 61.2987 118.011 72.6758 145.83 68.7208C150.064 68.1015 154.214 67.0105 158.204 65.4684L81.7638 51.5479C79.681 51.1684 77.5321 51.6282 75.7899 52.8261C74.0476 54.024 72.8546 55.862 72.4734 57.9357L70.533 68.6167Z" fill="#00B8CC" stroke="#263238" stroke-width="1.35048" stroke-linecap="round" stroke-linejoin="round"/>
<path d="M95.9126 76.3141L85.7328 74.4594C84.2634 74.1916 82.8542 75.1606 82.5853 76.6237L80.8178 86.2409C80.5489 87.7039 81.5221 89.1069 82.9915 89.3747L93.1713 91.2294C94.6407 91.4971 96.0499 90.5281 96.3188 89.0651L98.0863 79.4479C98.3552 77.9849 97.382 76.5818 95.9126 76.3141Z" fill="white" stroke="#263238" stroke-width="1.35048" stroke-linecap="round" stroke-linejoin="round"/>
<path d="M90.9684 80.7456L88.7705 80.3451C88.05 80.2138 87.3591 80.689 87.2272 81.4064L86.8544 83.4347C86.7226 84.1521 87.1998 84.8401 87.9203 84.9714L90.1182 85.3718C90.8387 85.5031 91.5297 85.0279 91.6615 84.3106L92.0343 82.2822C92.1662 81.5648 91.689 80.8768 90.9684 80.7456Z" fill="white" stroke="#263238" stroke-width="1.35048" stroke-linecap="round" stroke-linejoin="round"/>
<path d="M82.7634 75.6426L87.3367 76.4752C87.5473 76.5128 87.7484 76.5915 87.9283 76.7069C88.1082 76.8222 88.2634 76.9719 88.3849 77.1473C88.5064 77.3227 88.5918 77.5203 88.6361 77.7287C88.6805 77.9371 88.683 78.1523 88.6434 78.3616L88.3036 80.2416" stroke="#263238" stroke-width="1.35048" stroke-linecap="round" stroke-linejoin="round"/>
<path d="M98.2671 78.4649L93.7786 77.6518C93.5684 77.6132 93.3527 77.6163 93.1437 77.6609C92.9346 77.7054 92.7365 77.7905 92.5605 77.9113C92.3846 78.0322 92.2343 78.1863 92.1182 78.365C92.0021 78.5437 91.9225 78.7434 91.884 78.9528L91.5377 80.8327" stroke="#263238" stroke-width="1.35048" stroke-linecap="round" stroke-linejoin="round"/>
<path d="M80.614 87.3444L85.1546 88.177C85.579 88.253 86.0163 88.1589 86.3712 87.9152C86.7261 87.6715 86.9699 87.2979 87.0493 86.876L87.3956 84.9961" stroke="#263238" stroke-width="1.35048" stroke-linecap="round" stroke-linejoin="round"/>
<path d="M96.111 90.1732L91.6291 89.3536C91.2054 89.2745 90.8302 89.0318 90.5854 88.6784C90.3406 88.3251 90.2461 87.8896 90.3225 87.4672L90.6622 85.5742" stroke="#263238" stroke-width="1.35048" stroke-linecap="round" stroke-linejoin="round"/>
<path d="M81.6658 81.7949L86.9839 82.7642" stroke="#263238" stroke-width="1.35048" stroke-linecap="round" stroke-linejoin="round"/>
<path d="M91.6553 83.6172L96.9734 84.5864" stroke="#263238" stroke-width="1.35048" stroke-linecap="round" stroke-linejoin="round"/>
<path d="M183.749 153.616C185.673 153.966 187.657 153.541 189.266 152.435C190.874 151.328 191.976 149.631 192.327 147.716C192.679 145.801 192.253 143.825 191.141 142.223C190.03 140.622 188.325 139.525 186.402 139.175L176.556 137.38C174.633 137.029 172.648 137.454 171.04 138.561C169.431 139.667 168.329 141.365 167.978 143.279C167.626 145.194 168.053 147.17 169.164 148.772C170.275 150.374 171.98 151.47 173.903 151.82L183.749 153.616Z" fill="white"/>
<path d="M181.554 64.8836C181.554 64.8836 207.844 60.5904 211.326 60.792C214.809 60.9937 244.157 68.4744 244.157 68.4744C244.637 70.2189 244.847 72.0266 244.777 73.8344C244.614 76.6055 241.563 81.0679 241.563 81.0679L211.398 67.5116L183.69 68.8126L181.554 64.8836Z" fill="white" stroke="#263238" stroke-width="1.35048" stroke-linecap="round" stroke-linejoin="round"/>
<g style="mix-blend-mode:multiply" opacity="0.5">
<path d="M232.331 65.513L240.335 74.2751L235.31 72.2716L238.93 76.0769L235.108 74.4767L233.298 75.8753L222.237 68.6613L225.053 71.6666C225.053 71.6666 211.575 64.6543 210.974 64.6543C210.373 64.6543 184.625 68.4597 184.625 68.4597L186.892 68.6418L211.398 67.5035L241.582 81.0662C241.582 81.0662 244.634 76.6038 244.797 73.8327C244.866 72.025 244.657 70.2173 244.176 68.4727C244.176 68.4727 238.767 67.0936 232.331 65.513Z" fill="#00B8CC"/>
</g>
<path d="M183.691 68.7994C183.691 68.7994 177.19 71.0371 176.177 70.946C175.432 70.8745 171.872 70.7053 170.042 70.6208C169.422 70.6208 168.808 70.6208 168.781 69.9703C168.766 69.6781 168.858 69.3904 169.041 69.1615C169.224 68.9326 169.485 68.7783 169.775 68.7279L172.159 68.318C172.159 68.318 163.888 67.1341 163.261 66.1584C162.634 65.1827 166.58 65.625 167.586 65.4559C169.147 65.1892 176.981 65.2867 176.981 65.2867L181.554 64.8574L183.691 68.7994Z" fill="white" stroke="#263238" stroke-width="1.35048" stroke-linecap="round" stroke-linejoin="round"/>
<path d="M221.499 46.2202L220.95 55.5677L223.962 56.0426C223.962 56.0426 226.7 66.483 227.575 67.14C228.45 67.797 235.356 63.9591 235.356 63.9591L239.616 69.0459L245.313 65.143L242.236 60.4204C242.236 60.4204 244.196 42.6815 243.542 38.7395C242.889 34.7975 240.491 33.7242 235.049 33.412C231.709 33.2435 228.371 33.7731 225.249 34.9667C225.249 34.9667 226.954 31.7142 221.166 32.0069C215.377 32.2996 213.195 38.5118 214.227 41.5887C215.26 44.6655 221.499 46.2202 221.499 46.2202Z" fill="white" stroke="#263238" stroke-width="1.35048" stroke-linecap="round" stroke-linejoin="round"/>
<g style="mix-blend-mode:multiply" opacity="0.5">
<path d="M242.236 60.4194C242.236 60.4194 244.196 42.6805 243.542 38.7385C242.889 34.7966 240.491 33.7232 235.049 33.411C231.709 33.2426 228.371 33.7721 225.249 34.9657C225.42 34.6338 225.492 34.2601 225.456 33.8889C225.42 33.5177 225.278 33.1645 225.047 32.8711C223.703 33.0989 222.38 33.4295 221.087 33.8598C219.219 34.5103 216.965 35.2454 215.083 35.8438C214.171 37.4167 213.823 39.2519 214.097 41.0478L216.057 43.7668C217.749 44.8844 219.614 45.7173 221.577 46.2322L221.466 48.0341C222.608 48.2653 223.765 48.4067 224.929 48.4569C226.941 48.4569 229.953 46.8567 229.953 46.8567C229.953 46.8567 228.143 49.6603 230.358 51.2605C231.578 52.1922 233.045 52.7484 234.579 52.8607C234.579 52.8607 235.99 57.6678 235.99 59.2681C235.99 60.5235 230.228 65.1875 227.706 67.1715C228.738 67.6854 235.435 63.9711 235.435 63.9711L239.694 69.058L245.391 65.155L242.236 60.4194Z" fill="#00B8CC"/>
</g>
<path d="M243.542 38.7395C242.856 34.7715 240.491 33.7242 235.049 33.412C231.709 33.2435 228.371 33.7731 225.249 34.9667C225.249 34.9667 226.954 31.7142 221.166 32.0069C215.377 32.2996 213.195 38.5118 214.227 41.5887C215.26 44.6655 221.558 46.2527 221.558 46.2527C221.558 46.2527 229.163 46.0836 232.952 43.5792C232.952 43.5792 230.339 47.0593 230.802 49.1994C230.86 49.4817 230.975 49.7495 231.138 49.987C231.302 50.2245 231.512 50.4268 231.756 50.5821C231.999 50.7374 232.272 50.8424 232.557 50.891C232.842 50.9395 233.134 50.9306 233.416 50.8647L234.148 53.935C234.148 53.935 235.912 54.9433 236.271 54.0586C236.63 53.1739 236.565 48.9327 238.884 50.5785C241.204 52.2242 241.347 55.2555 240.08 56.0946C238.812 56.9338 237.943 56.2703 238.773 58.1372C239.603 60.0041 242.288 60.4529 242.288 60.4529C242.288 60.4529 244.196 42.6815 243.542 38.7395Z" fill="#263238" stroke="#263238" stroke-width="1.35048" stroke-linecap="round" stroke-linejoin="round"/>
<path d="M226.556 37.803C226.556 37.803 223.884 35.1425 222.433 38.525C220.983 41.9076 223.884 43.8461 230.443 42.8768C237.003 41.9076 241.36 39.9756 242.092 39.9756" stroke="white" stroke-width="0.67524" stroke-linecap="round" stroke-linejoin="round"/>
<path d="M231.129 45.5376C231.129 45.5376 236.225 46.5003 243.268 44.5684" stroke="white" stroke-width="0.67524" stroke-linecap="round" stroke-linejoin="round"/>
<path d="M226.203 50.9619C226.288 51.5539 226.138 52.0678 225.857 52.1133C225.576 52.1588 225.282 51.7035 225.203 51.1115C225.125 50.5196 225.262 50.0057 225.543 49.9602C225.824 49.9146 226.111 50.37 226.203 50.9619Z" fill="#263238"/>
<path d="M227.385 60.8559C227.385 60.8559 229.862 60.8559 230.848 59.0215" stroke="#263238" stroke-width="1.35048" stroke-linecap="round" stroke-linejoin="round"/>
<path d="M224.243 47.1952C224.638 47.0021 225.081 46.927 225.518 46.9789C225.955 47.0308 226.368 47.2076 226.706 47.4879" stroke="#263238" stroke-width="1.35048" stroke-linecap="round" stroke-linejoin="round"/>
<path d="M256.184 121.951L257.393 125.496C257.393 125.496 236.486 139.397 231.005 144.932C225.523 150.468 220.362 155.672 220.891 158.43C221.421 161.188 227.758 200.803 227.758 200.803L235.742 200.231C235.742 200.231 236.251 161.722 237.342 160.752C238.433 159.783 270.055 138.915 270.055 138.915C270.055 138.915 272.851 138.388 274.19 139.156C275.53 139.924 282.912 167.524 284.898 169.014C286.885 170.503 312.09 200.972 312.09 200.972L318.754 199.288C318.754 199.288 296.541 159.36 296.541 158.307C296.58 157.721 291.785 136.19 286.885 122.315C283.206 111.907 279.045 108.102 279.045 108.102L256.184 121.951Z" fill="#263238" stroke="#263238" stroke-width="1.35048" stroke-linecap="round" stroke-linejoin="round"/>
<path d="M278.091 112.031C278.091 112.031 282.252 119.46 284.069 122.179C285.885 124.898 286.153 131.448 286.153 131.448C286.153 131.448 295.182 156.818 295.914 161.085C296.645 165.352 317.323 199.236 317.323 199.236" stroke="white" stroke-width="0.67524" stroke-linecap="round" stroke-linejoin="round"/>
<path d="M258.458 133.77L270.061 138.921L261.829 137.887" stroke="white" stroke-width="0.67524" stroke-linecap="round" stroke-linejoin="round"/>
<path d="M242.641 151.809L234.265 160.473C234.265 160.473 227.078 160.389 229.28 161.494C230.961 162.409 232.547 163.485 234.017 164.708V199.008" stroke="white" stroke-width="0.67524" stroke-linecap="round" stroke-linejoin="round"/>
<path d="M258.732 123.303C258.732 123.303 270.95 122.048 279.188 110.111" stroke="white" stroke-width="0.67524" stroke-linecap="round" stroke-linejoin="round"/>
<path d="M265.213 119.135L266.37 121.815" stroke="white" stroke-width="0.67524" stroke-linecap="round" stroke-linejoin="round"/>
<path d="M272.381 114.314L273.883 116.689" stroke="white" stroke-width="0.67524" stroke-linecap="round" stroke-linejoin="round"/>
<path d="M238.446 70.353C238.446 70.353 237.401 76.4871 239.577 86.6153C241.752 96.7434 256.184 121.976 256.184 121.976L258.491 121.495C264.992 120.121 270.918 116.806 275.477 111.991L279.103 108.16C279.103 108.16 266.037 83.662 261.019 74.4316C256.001 65.2011 247.756 64.7197 245.339 64.5831C242.922 64.4465 238.179 68.9609 238.446 70.353Z" fill="white" stroke="#263238" stroke-width="1.35048" stroke-linecap="round" stroke-linejoin="round"/>
<g style="mix-blend-mode:multiply" opacity="0.5">
<path d="M261.019 74.4061C257.445 67.7971 252.206 65.683 248.606 64.9609C250.18 65.735 255.035 68.4151 257.21 73.0726C259.824 78.6798 256.407 87.0907 256.407 87.0907C256.407 87.0907 256.407 86.6093 256.367 85.8873C254.59 92.3141 251.637 102.013 249.527 108.251L252.18 101.506L253.388 97.1017L262.254 100.536L257.628 95.9309C257.628 95.9309 267.285 101.74 269.898 104.147C272.511 106.553 273.315 109.552 271.91 112.954C271.151 114.516 270.175 115.964 269.009 117.254C271.381 115.783 273.554 114.016 275.477 111.998L279.103 108.167C279.103 108.167 266.011 83.6236 261.019 74.4061Z" fill="#00B8CC"/>
</g>
<path d="M254.107 90.7795C254.107 90.7795 259.523 85.6731 262.221 83.2793" stroke="#263238" stroke-width="0.67524" stroke-linecap="round" stroke-linejoin="round"/>
<path d="M262.489 90.2463C263.031 90.1183 263.566 89.9598 264.09 89.7715" stroke="#263238" stroke-width="0.67524" stroke-linecap="round" stroke-linejoin="round"/>
<path d="M252.493 91.0121C255.134 91.1334 257.78 91.0136 260.398 90.6543" stroke="#263238" stroke-width="0.67524" stroke-linecap="round" stroke-linejoin="round"/>
<path d="M245.855 61.832L235.408 69.1436L238.309 72.7538L248.103 64.7137L245.855 61.832Z" fill="white" stroke="#263238" stroke-width="1.35048" stroke-linecap="round" stroke-linejoin="round"/>
<path d="M257.916 79.6741C257.55 83.1868 248.384 113.357 247.201 114.248C246.019 115.139 208.262 125.111 208.262 125.111L206.211 122.086L238.642 106.052L245.633 74.6328" fill="white"/>
<path d="M257.916 79.6741C257.55 83.1868 248.384 113.357 247.201 114.248C246.019 115.139 208.262 125.111 208.262 125.111L206.211 122.086L238.642 106.052L245.633 74.6328" stroke="#263238" stroke-width="1.35048" stroke-linecap="round" stroke-linejoin="round"/>
<g style="mix-blend-mode:multiply" opacity="0.5">
<path d="M256.387 85.8862C256.295 83.5249 256.034 78.5617 255.42 79.4789C254.616 80.6823 253.003 90.2901 250.389 97.3024C247.776 104.315 242.745 107.313 243.752 107.515C244.758 107.717 245.561 110.917 245.561 110.917L209.086 124.89C211.124 124.35 216.69 122.873 222.969 121.182L247.182 114.248L249.547 108.25C251.657 102.012 254.61 92.3131 256.387 85.8862Z" fill="#00B8CC"/>
</g>
<path d="M208.419 125.319L206.191 122.067L195.366 119.946C195.192 119.899 195.007 119.922 194.851 120.01C194.695 120.099 194.58 120.245 194.533 120.418C194.485 120.59 194.508 120.774 194.597 120.93C194.686 121.086 194.833 121.2 195.006 121.247L198.978 122.893L196.117 125.254C195.3 125.905 191.766 127.999 191.498 128.812C190.982 130.393 193.112 129.092 193.634 128.903C194.791 128.487 195.522 127.967 197.463 127.212C197.842 127.726 193.451 130.172 192.948 130.569C192.733 130.731 192.393 130.939 192.373 131.252C192.308 132.468 194.333 131.219 194.823 131.017C196.195 130.445 197.541 129.814 198.907 129.242C197.953 129.951 196.352 130.757 195.392 131.466C194.949 131.716 194.525 131.999 194.124 132.312C193.634 132.819 194.046 133.372 194.778 133.151C195.562 132.828 196.318 132.44 197.038 131.993C198.136 131.401 198.743 130.861 199.841 130.269C199.044 130.887 198.658 131.343 197.881 131.954C197.574 132.195 196.868 132.605 196.718 132.982C196.215 134.283 199.109 132.481 199.436 132.247C200.573 131.434 201.905 130.77 202.97 129.905C203.121 129.781 204.708 128.201 204.721 128.214L208.419 125.319Z" fill="white" stroke="#263238" stroke-width="0.67524" stroke-linecap="round" stroke-linejoin="round"/>
<path d="M238.126 79.3488L232.24 70.7363" stroke="#263238" stroke-width="0.67524" stroke-linecap="round" stroke-linejoin="round"/>
<path d="M237.512 79.0702L230.953 73.5801" stroke="#263238" stroke-width="0.67524" stroke-linecap="round" stroke-linejoin="round"/>
<path d="M227.758 200.83L227.17 201.48L223.015 205.897C223.015 205.897 213.666 209.26 213.587 210.561C213.509 211.862 223.583 211.133 226.654 210.88C229.724 210.626 233.37 207.79 233.37 207.79C233.37 207.79 237.257 208.44 237.865 205.448C238.473 202.456 235.748 200.283 235.748 200.283L227.758 200.83Z" fill="white" stroke="#263238" stroke-width="1.35048" stroke-linecap="round" stroke-linejoin="round"/>
<path d="M312.09 200.978C310.908 203.484 309.87 206.056 308.98 208.68C307.909 212.095 304.361 213.187 305.995 215.022C307.628 216.856 311.62 215.776 314.913 211.626C318.206 207.476 321.348 205.921 321.446 204.191C321.544 202.461 318.754 199.293 318.754 199.293L312.09 200.978Z" fill="white" stroke="#263238" stroke-width="1.35048" stroke-linecap="round" stroke-linejoin="round"/>
<path d="M305.995 215.023C308.31 214.957 310.544 214.157 312.371 212.74C315.148 210.431 317.467 205.819 319.087 204.668L320.714 203.51" stroke="#263238" stroke-width="0.67524" stroke-linecap="round" stroke-linejoin="round"/>
<path d="M214.574 210.202C214.574 210.202 223.609 209.278 227.32 208.817C231.031 208.355 232.187 205.818 233.344 205.564C234.5 205.31 237.055 204.406 237.055 204.406" stroke="#263238" stroke-width="0.67524" stroke-linecap="round" stroke-linejoin="round"/>
<path d="M8.40115 161.683C8.40115 161.683 -0.477653 171.838 1.21448 185.901C2.90662 199.965 17.8941 207.322 17.8941 207.322L36.2397 171.577C36.2397 171.577 26.9885 162.47 33.4957 150.924C33.5022 150.892 18.1424 152.798 8.40115 161.683Z" fill="white" stroke="#263238" stroke-width="1.35048" stroke-linecap="round" stroke-linejoin="round"/>
<g style="mix-blend-mode:multiply" opacity="0.5">
<path d="M8.40115 161.683C8.40115 161.683 -0.477653 171.838 1.21448 185.901C2.90662 199.965 17.8941 207.322 17.8941 207.322L36.2397 171.577C36.2397 171.577 26.9885 162.47 33.4957 150.924C33.5022 150.892 18.1424 152.798 8.40115 161.683Z" fill="#00B8CC"/>
</g>
<path d="M87.5982 135.254C87.5982 135.254 76.0603 135.606 72.1861 137.473C68.3118 139.339 43.2565 157.098 28.9158 177.803C24.0485 184.828 22.2779 188.718 21.6311 190.605C21.2057 191.848 20.715 193.068 20.1611 194.26C18.567 197.708 15.921 204.805 16.8945 212.182C18.2665 222.505 24.3229 232.574 47.6011 236.855C70.8794 241.135 79.719 223.845 80.3005 216.468C80.3005 216.468 136.905 220.534 172.055 224.495C207.204 228.457 218.886 226.258 230.652 230.883C242.419 235.508 245.3 238.52 250.252 238.598C255.204 238.676 269.532 222.746 269.891 218.127C270.251 213.509 265.475 206.945 263.953 206.516C262.43 206.086 244.019 178.961 244.019 178.961C244.019 178.961 243.19 173.633 235.127 169.295C227.065 164.956 186.957 152.87 165.031 146.84C143.105 140.81 98.8029 135.196 87.5982 135.254Z" fill="white" stroke="#263238" stroke-width="1.35048" stroke-linecap="round" stroke-linejoin="round"/>
<g style="mix-blend-mode:multiply" opacity="0.5">
<path d="M267.716 210.763C262.799 208.284 257.627 206.343 252.291 204.973L185.931 186.87L98.4631 171.707C98.4631 171.707 62.1051 165.853 45.8894 173.659C34.3515 179.227 22.5719 197.415 16.7311 207.452C16.6418 209.023 16.6987 210.6 16.901 212.161C18.273 222.485 24.3294 232.554 47.6077 236.834C70.8859 241.115 79.7255 223.825 80.307 216.448C80.307 216.448 136.912 220.514 172.061 224.475C207.211 228.437 218.892 226.238 230.659 230.863C242.425 235.488 245.306 238.5 250.259 238.578C255.211 238.656 269.539 222.725 269.898 218.107C270.12 215.811 269.022 213.026 267.716 210.763Z" fill="#00B8CC"/>
</g>
<path d="M22.0624 198.013C22.0624 198.013 38.742 171.44 55.3824 169.619C72.0228 167.797 124.897 175.616 124.897 175.616" stroke="#263238" stroke-width="1.35048" stroke-linecap="round" stroke-linejoin="round"/>
<path d="M130.405 176.645C130.405 176.645 163.013 181.335 205.721 192.074C248.429 202.814 265.691 208.792 268.023 210.828" stroke="#263238" stroke-width="1.35048" stroke-linecap="round" stroke-linejoin="round"/>
<path d="M162.222 153.592C162.222 153.592 231.998 171.61 236.408 173.406C238.998 174.433 241.275 176.115 243.013 178.284" fill="white"/>
<path d="M162.222 153.592C162.222 153.592 231.998 171.61 236.408 173.406C238.998 174.433 241.275 176.115 243.013 178.284" stroke="#263238" stroke-width="1.35048" stroke-linecap="round" stroke-linejoin="round"/>
<path d="M74.8713 138.916L56.9896 164.786C56.9896 164.786 82.2278 164.259 148.887 174.992L150.429 151.275C150.429 151.275 118.227 141.355 104.931 140.328C91.6358 139.3 74.8713 138.916 74.8713 138.916Z" fill="#263238" stroke="#263238" stroke-width="1.35048" stroke-linecap="round" stroke-linejoin="round"/>
<path d="M57.2966 164.786C58.6621 164.786 64.6336 164.786 76.4001 165.742L63.9868 154.684L63.1701 155.861L57.2966 164.786Z" fill="white" stroke="#263238" stroke-width="1.35048" stroke-linecap="round" stroke-linejoin="round"/>
<path d="M74.8713 138.916L71.4675 143.84L101.037 168.221C108.57 169.112 117.181 170.231 126.949 171.642C130.411 172.033 134.011 172.453 137.748 172.904L96.9279 139.788C85.7493 139.157 74.8713 138.916 74.8713 138.916Z" fill="white" stroke="#263238" stroke-width="1.35048" stroke-linecap="round" stroke-linejoin="round"/>
<path d="M151.618 156.252L151.383 170.264C154.859 170.081 160.288 170.199 164.202 172.215C164.568 167.42 163.835 162.604 162.059 158.132L151.618 156.252Z" fill="white" stroke="#263238" stroke-width="1.35048" stroke-miterlimit="10"/>
<path d="M161.405 156.636C160.66 155.085 159.772 153.606 158.753 152.219L151.71 150.742L151.638 155.14L161.405 156.636Z" fill="white" stroke="#263238" stroke-width="1.35048" stroke-miterlimit="10"/>
<path d="M151.351 172.203L151.285 176.105L163.274 177.946C163.654 176.546 163.918 175.116 164.064 173.673C161.876 172.742 157.812 171.617 151.351 172.203Z" fill="white" stroke="#263238" stroke-width="1.35048" stroke-miterlimit="10"/>
<path d="M178.66 157.449C178.66 157.449 171.963 155.804 170.82 155.875C169.677 155.947 169.363 157.866 169.363 157.866L171.761 162.582C171.761 162.582 171.375 163.362 174.864 164.442C178.353 165.522 181.397 165.743 181.789 165.301C182.181 164.859 182.083 163.545 182.338 162.432C182.593 161.32 180.274 157.58 178.66 157.449Z" fill="white" stroke="#263238" stroke-width="1.35048" stroke-linecap="round" stroke-linejoin="round"/>
<path d="M183.057 165.724C183.057 165.724 176.393 163.59 175.249 163.662C174.106 163.733 172.95 166.075 172.95 166.075C172.95 166.075 173.792 171.962 174.55 172.671C175.308 173.38 182.652 175.072 183.782 175.163C184.912 175.254 185.35 173.829 185.461 172.379C185.572 170.928 184.324 166.14 183.057 165.724Z" fill="white" stroke="#263238" stroke-width="1.35048" stroke-linecap="round" stroke-linejoin="round"/>
<path d="M185.585 174.979C185.585 174.979 177.144 172.709 176.341 172.644C175.537 172.579 174.381 174.758 174.511 175.246C174.642 175.734 174.459 180.099 174.459 180.099L187.578 182.701L186.585 176.645C186.585 176.645 186.611 176.352 185.585 174.979Z" fill="white" stroke="#263238" stroke-width="1.35048" stroke-linecap="round" stroke-linejoin="round"/>
<path d="M185.023 159.237L184.089 160.942L186.931 166.178C186.931 166.178 187.016 167.16 189.727 167.85C192.439 168.539 197.391 169.58 197.391 169.58C197.391 169.58 198.809 168.071 198.534 167.401C198.26 166.731 195.268 161.807 193.994 161.065C192.72 160.324 185.396 158.431 185.023 159.237Z" fill="white" stroke="#263238" stroke-width="1.35048" stroke-linecap="round" stroke-linejoin="round"/>
<path d="M189.714 167.851C189.284 168.532 188.952 169.27 188.728 170.043C188.682 170.693 189.571 175.936 190.936 177.198C192.301 178.46 200.194 179.371 201.324 179.455C202.454 179.54 202.755 177.79 202.853 176.502C202.951 175.214 201.193 170.706 199.952 169.965C198.711 169.223 191.531 167.538 191.531 167.538C191.531 167.538 190.276 166.927 189.714 167.851Z" fill="white" stroke="#263238" stroke-width="1.35048" stroke-linecap="round" stroke-linejoin="round"/>
<path d="M203.487 179.545C203.247 179.345 202.972 179.191 202.676 179.09C200.867 178.472 194.085 176.227 192.916 176.839C191.557 177.541 191.099 179.285 191.145 180.742C191.199 181.785 191.335 182.822 191.55 183.845L205.558 187.702L204.342 181.041C204.238 180.457 203.93 179.927 203.474 179.545H203.487Z" fill="white" stroke="#263238" stroke-width="1.35048" stroke-linecap="round" stroke-linejoin="round"/>
<path d="M199.521 162.945L199.148 165.67C199.148 165.67 200.625 169.664 202.199 170.276C203.774 170.887 211.124 172.585 211.607 172.617C212.091 172.65 213.195 170.965 213.11 169.983C213.025 169.001 210.268 164.779 208.694 164.129C207.119 163.478 200.703 162.379 200.703 162.379C200.703 162.379 199.259 162.119 199.521 162.945Z" fill="white" stroke="#263238" stroke-width="1.35048" stroke-linecap="round" stroke-linejoin="round"/>
<path d="M205.577 170.699L204.173 174.146C204.173 174.146 206.008 179.793 206.27 180.619C206.531 181.445 216.769 183.539 217.278 183.253C217.788 182.967 218.958 182.57 218.807 180.294C218.657 178.017 215.508 172.598 214.234 172.338C212.96 172.078 207.537 170.686 207.047 170.647C206.557 170.608 205.793 170.068 205.577 170.699Z" fill="white" stroke="#263238" stroke-width="1.35048" stroke-linecap="round" stroke-linejoin="round"/>
<path d="M209.465 181.354C209.465 181.354 207.733 184.782 208.093 186.428C208.343 187.51 208.695 188.566 209.144 189.583L223.008 193.082C223.008 193.082 221.362 187.13 221.048 185.159C220.735 183.188 217.213 182.277 214.351 181.406C211.49 180.534 209.216 180.365 209.465 181.354Z" fill="white" stroke="#263238" stroke-width="1.35048" stroke-linecap="round" stroke-linejoin="round"/>
<path d="M214.071 166.015L213.855 168.747C213.855 168.747 217.233 173.379 218.141 174.257C219.049 175.135 226.412 176.514 227.072 176.404C227.732 176.293 228.019 174.699 227.771 173.711C227.523 172.722 223.949 168.559 222.544 167.967C221.14 167.375 215.253 165.619 215.253 165.619C215.253 165.619 213.659 165.014 214.071 166.015Z" fill="white" stroke="#263238" stroke-width="1.35048" stroke-linecap="round" stroke-linejoin="round"/>
<path d="M220.388 174.595C220.388 174.595 219.454 178.245 219.911 178.602C220.369 178.96 222.394 184.294 223.492 184.867C224.589 185.439 232.573 187.189 233.566 186.942C234.559 186.694 234.709 184.763 234.187 183.104C233.664 181.445 230.43 177.152 228.542 176.358C227.19 175.792 221.858 174.543 221.858 174.543C221.858 174.543 220.774 173.815 220.388 174.595Z" fill="white" stroke="#263238" stroke-width="1.35048" stroke-linecap="round" stroke-linejoin="round"/>
<path d="M232.475 186.402C232.475 186.402 227.575 184.568 226.745 184.828C225.916 185.088 224.89 187.755 224.851 188.243C224.811 188.731 226.641 194.527 226.641 194.527L239.668 198.287C239.668 198.287 239.668 197.961 239.668 195.86C239.668 193.759 236.532 188.178 235.925 187.645C235.317 187.111 232.475 186.402 232.475 186.402Z" fill="white" stroke="#263238" stroke-width="1.35048" stroke-linecap="round" stroke-linejoin="round"/>
<path d="M229.169 170.419C228.929 171.254 228.752 172.107 228.64 172.969C228.568 173.931 231.41 177.067 232.802 177.984C234.193 178.901 241.04 180.723 241.524 180.762C242.007 180.801 243.262 179.279 242.406 177.75C241.034 175.747 239.294 174.021 237.277 172.663C235.702 171.733 230.796 170.38 229.169 170.419Z" fill="#00B8CC" stroke="#263238" stroke-width="1.35048" stroke-linecap="round" stroke-linejoin="round"/>
<path d="M236.134 179.046C235.844 179.706 235.625 180.395 235.48 181.101C235.435 181.752 238.61 186.845 239.355 187.71C240.099 188.575 247.136 190.091 247.939 190.156C248.743 190.221 250.553 190.032 249.899 187.723C249.246 185.414 247.286 181.693 245.378 181.062C243.471 180.431 239.988 179.351 238.401 178.902C236.813 178.454 236.134 179.046 236.134 179.046Z" fill="#00B8CC" stroke="#263238" stroke-width="1.35048" stroke-linecap="round" stroke-linejoin="round"/>
<path d="M243.007 188.802C242.275 189.948 241.788 191.233 241.576 192.574C241.439 194.344 242.883 198.663 244.268 199.73C245.653 200.797 255.041 203.314 255.041 203.314C255.041 203.314 255.91 200.465 256.211 198.709C256.511 196.952 251.742 191.404 251.311 190.727C250.879 190.051 244.15 188.73 243.007 188.802Z" fill="#00B8CC" stroke="#263238" stroke-width="1.35048" stroke-linecap="round" stroke-linejoin="round"/>
<path d="M260.921 226.081C257.57 225.203 252.336 224.488 250.389 221.528C248.442 218.568 246.254 214.704 226.464 213.176C206.675 211.647 73.14 192.978 59.5115 192.256C45.8829 191.534 35.2859 207.725 35.2859 207.725C35.2859 207.725 26.9624 206.768 21.8076 205.123C20.1687 204.596 18.6596 203.731 17.378 202.586C16.678 205.732 16.5167 208.974 16.9011 212.174C18.2731 222.497 24.3295 232.567 47.6077 236.847C70.886 241.127 79.7256 223.837 80.3071 216.461C80.3071 216.461 136.912 220.526 172.061 224.488C207.211 228.449 218.892 226.251 230.659 230.876C242.425 235.501 245.306 238.512 250.259 238.59C253.264 238.636 259.686 232.821 264.377 227.2C263.09 226.732 261.836 226.322 260.921 226.081Z" fill="#263238" stroke="#263238" stroke-width="1.35048" stroke-linecap="round" stroke-linejoin="round"/>
<path d="M33.1233 211.562C33.1233 211.562 29.0008 220.539 27.3805 225.366" stroke="white" stroke-width="1.01286" stroke-linecap="round" stroke-linejoin="round"/>
<path d="M38.644 208.584C38.644 208.584 62.4711 214.146 77.2625 215.909" stroke="white" stroke-width="1.01286" stroke-linecap="round" stroke-linejoin="round"/>
<path d="M56.9895 164.786C56.9895 164.786 42.2046 154.97 30.1441 154.04C18.0835 153.11 8.40112 161.683 8.40112 161.683C8.40112 161.683 38.1017 135.794 46.2618 134.877C54.4219 133.96 65.0778 132.925 74.8713 138.949L56.9895 164.786Z" fill="white" stroke="#263238" stroke-width="1.35048" stroke-linecap="round" stroke-linejoin="round"/>
</svg>
