<svg width="18" height="18" viewBox="0 0 18 18" fill="none" xmlns="http://www.w3.org/2000/svg">
<path d="M5.14278 1.83361C6.09003 2.52436 6.80703 3.49486 7.41753 4.38661L7.89603 5.09011C8.04463 5.30728 8.11262 5.56957 8.08824 5.83158C8.06386 6.09359 7.94864 6.33883 7.76253 6.52486L6.74553 7.54186L6.85278 7.76986C7.11528 8.30161 7.56828 9.06736 8.25003 9.74986C8.72079 10.2135 9.2515 10.6121 9.82803 10.9349L10.1033 11.0826L10.3485 11.2041L10.458 11.2544L11.4743 10.2374C11.661 10.0508 11.9074 9.93583 12.1703 9.91239C12.4332 9.88895 12.696 9.95857 12.9128 10.1091L13.6733 10.6364C14.5373 11.2439 15.4395 11.9361 16.1408 12.8346C16.262 12.9905 16.3391 13.1762 16.364 13.3721C16.389 13.568 16.3608 13.767 16.2825 13.9484C15.6548 15.4131 14.0663 16.6604 12.414 16.5989L12.189 16.5869L12.0143 16.5719L11.8208 16.5494L11.61 16.5209L11.3813 16.4826L11.1368 16.4346L10.8773 16.3769L10.6028 16.3064L10.314 16.2239L10.0125 16.1264C8.62803 15.6569 6.87078 14.7344 5.06778 12.9314C3.26553 11.1291 2.34303 9.37186 1.87353 7.98736L1.77603 7.68586L1.69353 7.39711L1.62303 7.12261L1.56453 6.86311C1.54764 6.78183 1.53189 6.70032 1.51728 6.61861L1.47978 6.38986L1.44978 6.17911L1.42803 5.98561L1.41303 5.81086L1.40103 5.58586C1.34028 3.93886 2.60103 2.33911 4.05903 1.71436C4.23452 1.63858 4.42668 1.60973 4.61668 1.63064C4.80668 1.65154 4.98798 1.72149 5.14278 1.83361ZM4.44753 3.18961C3.64353 3.60961 2.86503 4.56961 2.90028 5.53036L2.91528 5.77636L2.93178 5.93011L2.95353 6.10261L2.98353 6.29236L3.02178 6.50011L3.07053 6.72361L3.13053 6.96361L3.20253 7.21786L3.28803 7.48636C3.31953 7.57786 3.35253 7.67161 3.38853 7.76761L3.50403 8.06161L3.63603 8.36686C4.10703 9.40336 4.87503 10.6169 6.12978 11.8709C7.38378 13.1249 8.59728 13.8936 9.63378 14.3646L9.93903 14.4966L10.233 14.6121C10.329 14.6481 10.4228 14.6811 10.5143 14.7126L10.7828 14.7981L11.0378 14.8701L11.277 14.9301L11.5005 14.9789L11.7083 15.0171L11.8988 15.0471L12.0713 15.0696L12.2243 15.0846L12.4703 15.0996C13.4183 15.1349 14.3858 14.3609 14.8043 13.5674C14.2703 12.9411 13.6073 12.4274 12.876 11.9099L12.315 11.5191L12.1725 11.6684L11.868 12.0006L11.7068 12.1701C11.2673 12.6179 10.7543 12.9981 10.1393 12.7499L9.96978 12.6786L9.76278 12.5856L9.64728 12.5309L9.39378 12.4041L9.11553 12.2541C8.41138 11.8622 7.76371 11.3766 7.19028 10.8104C6.62409 10.2369 6.13841 9.58926 5.74653 8.88511L5.59653 8.60761L5.46903 8.35336L5.32203 8.03086L5.25003 7.85986C5.01678 7.28311 5.33778 6.79636 5.74803 6.37486L5.91603 6.20986L6.33378 5.82511L6.48378 5.68261L6.12903 5.16286C5.60178 4.39786 5.08653 3.70786 4.44678 3.18886L4.44753 3.18961ZM11.2448 4.52986L11.3318 4.53961C11.8777 4.6359 12.3791 4.90256 12.7642 5.30136C13.1493 5.70017 13.3982 6.21064 13.4753 6.75961C13.5028 6.94949 13.4564 7.14269 13.3458 7.29946C13.2352 7.45623 13.0687 7.56464 12.8806 7.6024C12.6925 7.64016 12.4971 7.60438 12.3345 7.50244C12.172 7.4005 12.0547 7.24014 12.0068 7.05436L11.9895 6.96811C11.9594 6.75293 11.8675 6.5511 11.7251 6.38699C11.5827 6.22289 11.3958 6.10354 11.187 6.04336L11.0708 6.01711C10.8825 5.98373 10.714 5.87966 10.5999 5.72618C10.4857 5.57271 10.4345 5.38143 10.4568 5.19146C10.479 5.0015 10.5729 4.8272 10.7194 4.70422C10.8659 4.58124 11.0538 4.51886 11.2448 4.52986ZM11.25 2.24986C12.4435 2.24986 13.5881 2.72396 14.432 3.56788C15.2759 4.41179 15.75 5.55638 15.75 6.74986C15.7498 6.94102 15.6766 7.12488 15.5454 7.26388C15.4142 7.40288 15.2348 7.48653 15.044 7.49774C14.8532 7.50894 14.6652 7.44685 14.5187 7.32416C14.3721 7.20147 14.2779 7.02743 14.2553 6.83761L14.25 6.74986C14.2503 5.98817 13.9607 5.25493 13.44 4.699C12.9193 4.14308 12.2066 3.80614 11.4465 3.75661L11.25 3.74986C11.0511 3.74986 10.8604 3.67084 10.7197 3.53019C10.5791 3.38953 10.5 3.19877 10.5 2.99986C10.5 2.80094 10.5791 2.61018 10.7197 2.46953C10.8604 2.32887 11.0511 2.24986 11.25 2.24986Z" fill="white"/>
</svg>
