<svg width="20" height="20" viewBox="0 0 20 20" fill="none" xmlns="http://www.w3.org/2000/svg">
<g clip-path="url(#clip0_282_3614)">
<path fill-rule="evenodd" clip-rule="evenodd" d="M8.74996 3.33354C7.31337 3.33354 5.93562 3.90423 4.9198 4.92005C3.90398 5.93587 3.33329 7.31362 3.33329 8.75021C3.33329 10.1868 3.90398 11.5646 4.9198 12.5804C5.93562 13.5962 7.31337 14.1669 8.74996 14.1669C10.1865 14.1669 11.5643 13.5962 12.5801 12.5804C13.5959 11.5646 14.1666 10.1868 14.1666 8.75021C14.1666 7.31362 13.5959 5.93587 12.5801 4.92005C11.5643 3.90423 10.1865 3.33354 8.74996 3.33354ZM1.66663 8.75021C1.66672 7.6207 1.93693 6.5076 2.4547 5.50376C2.97248 4.49992 3.72281 3.63446 4.64309 2.97957C5.56337 2.32469 6.62691 1.89939 7.745 1.73913C8.86308 1.57888 10.0033 1.68834 11.0704 2.05836C12.1376 2.42838 13.1008 3.04825 13.8797 3.86624C14.6586 4.68423 15.2306 5.67663 15.548 6.76064C15.8653 7.84465 15.9188 8.98883 15.7041 10.0977C15.4893 11.2066 15.0124 12.2481 14.3133 13.1352L17.3566 16.1785C17.5084 16.3357 17.5924 16.5462 17.5905 16.7647C17.5886 16.9832 17.501 17.1922 17.3465 17.3467C17.192 17.5012 16.983 17.5889 16.7645 17.5908C16.546 17.5927 16.3355 17.5087 16.1783 17.3569L13.135 14.3135C12.0905 15.1369 10.8353 15.6495 9.51306 15.7928C8.19083 15.9361 6.85498 15.7042 5.65837 15.1237C4.46176 14.5433 3.45276 13.6376 2.74682 12.5105C2.04088 11.3833 1.66654 10.0802 1.66663 8.75021ZM7.91663 5.83354C7.91663 5.61253 8.00442 5.40057 8.1607 5.24429C8.31698 5.08801 8.52895 5.00021 8.74996 5.00021C9.74452 5.00021 10.6983 5.3953 11.4016 6.09856C12.1049 6.80182 12.5 7.75565 12.5 8.75021C12.5 8.97122 12.4122 9.18319 12.2559 9.33947C12.0996 9.49575 11.8876 9.58354 11.6666 9.58354C11.4456 9.58354 11.2337 9.49575 11.0774 9.33947C10.9211 9.18319 10.8333 8.97122 10.8333 8.75021C10.8333 8.19768 10.6138 7.66777 10.2231 7.27707C9.8324 6.88637 9.30249 6.66688 8.74996 6.66688C8.52895 6.66688 8.31698 6.57908 8.1607 6.4228C8.00442 6.26652 7.91663 6.05456 7.91663 5.83354Z" fill="white"/>
</g>
<defs>
<clipPath id="clip0_282_3614">
<rect width="20" height="20" fill="white"/>
</clipPath>
</defs>
</svg>
