<svg width="168" height="30" viewBox="0 0 168 30" fill="none" xmlns="http://www.w3.org/2000/svg">
<g clip-path="url(#clip0_336_8985)">
<path d="M100.108 26.1222C102.168 26.1222 103.627 25.7542 104.714 24.9618V21.3674C103.598 22.1316 102.253 22.6127 100.365 22.6127C97.1894 22.6127 95.8733 20.1788 95.8733 16.3297C95.8733 12.2825 97.4755 10.2165 100.394 10.2165C102.11 10.2165 103.798 10.8108 104.685 11.3769V7.64103C103.741 7.1316 102.11 6.76367 99.8788 6.76367C94.1853 6.76367 91.2384 10.8108 91.2384 16.4712C91.267 22.6693 94.1567 26.1222 100.108 26.1222ZM72.2698 24.4807V20.8863C70.8965 21.8203 68.5504 22.641 66.4046 22.641C63.1431 22.641 61.9128 21.1127 61.7125 17.9995H72.47V15.6788C72.47 9.19763 69.5804 6.76367 65.1458 6.76367C59.7098 6.76367 57.1349 10.8674 57.1349 16.4995C57.1349 22.9807 60.3679 26.1222 66.0327 26.1222C68.8651 26.1222 70.9537 25.358 72.2698 24.4807ZM31.4428 7.10329V14.4618H25.4918V7.10329H21.0286V25.7542H25.4918V17.9712H31.4428V25.7542H35.906V7.10329H31.4428ZM56.0191 22.2448H54.045V7.10329H41.0559V8.6882C41.0559 13.2448 40.7698 19.1316 39.1962 22.2448H37.7657V29.9995H41.8856V25.7542H51.8706V29.9995H55.9905V22.2448H56.0191ZM86.4891 25.7542H91.5531L84.4006 15.7071L90.6948 7.10329H86.203L79.9087 15.7071V7.10329H75.4455V25.7542H79.9087V16.5844L86.4891 25.7542ZM65.0314 10.2165C67.2343 10.2165 67.921 12.0278 67.921 14.3769V14.7448H61.7125C61.827 11.7731 62.9142 10.2165 65.0314 10.2165ZM49.5818 22.2448H43.2875C44.5177 19.4429 44.8611 14.3486 44.8611 11.1222V10.5561H49.5818V22.2448Z" fill="black"/>
<path d="M17.3093 25.7547H12.7602V3.48113H10.7289C7.00954 3.48113 5.06403 5.32076 5.06403 8.06604C5.06403 11.1792 6.40872 12.6226 9.18392 14.4623L11.4728 15.9906L4.89237 25.7547H0L5.92234 17.0377C2.51771 14.6321 0.600817 12.283 0.600817 8.32076C0.600817 3.36792 4.09128 0 10.7003 0H17.2807L17.3093 25.7547Z" fill="#FC3F1D"/>
</g>
<path d="M125 5L127.245 11.9098H134.511L128.633 16.1803L130.878 23.0902L125 18.8197L119.122 23.0902L121.367 16.1803L115.489 11.9098H122.755L125 5Z" fill="#FECA2E"/>
<path d="M146.28 22V19.14H139.94V17.6L146.64 7.9H148.34V17.4H150.4V19.14H148.34V22H146.28ZM146.28 17.4V11.14L142 17.4H146.28ZM153.192 24.46L152.312 23.78C152.619 23.4467 152.846 23.14 152.992 22.86C153.139 22.58 153.232 22.2933 153.272 22H152.172V19.62H154.552V21.24C154.552 21.8533 154.452 22.4133 154.252 22.92C154.052 23.44 153.699 23.9533 153.192 24.46ZM162.238 22.18C160.532 22.18 159.212 21.5733 158.278 20.36C157.358 19.1467 156.898 17.4467 156.898 15.26C156.898 12.8467 157.418 10.9867 158.458 9.68C159.498 8.37333 160.938 7.72 162.778 7.72C163.498 7.72 164.225 7.86667 164.958 8.16C165.692 8.44 166.305 8.84 166.798 9.36L166.078 10.92C165.598 10.44 165.065 10.08 164.478 9.84C163.905 9.6 163.325 9.48 162.738 9.48C161.498 9.48 160.545 9.93333 159.878 10.84C159.225 11.7333 158.898 13.0733 158.898 14.86V15.66C159.165 14.8467 159.625 14.2133 160.278 13.76C160.945 13.2933 161.712 13.06 162.578 13.06C163.405 13.06 164.132 13.2533 164.758 13.64C165.398 14.0267 165.898 14.56 166.258 15.24C166.618 15.9067 166.798 16.6733 166.798 17.54C166.798 18.4467 166.605 19.2533 166.218 19.96C165.832 20.6533 165.292 21.2 164.598 21.6C163.918 21.9867 163.132 22.18 162.238 22.18ZM162.118 20.5C162.932 20.5 163.592 20.2333 164.098 19.7C164.605 19.1667 164.858 18.4733 164.858 17.62C164.858 16.7667 164.605 16.0733 164.098 15.54C163.592 15.0067 162.932 14.74 162.118 14.74C161.305 14.74 160.645 15.0067 160.138 15.54C159.632 16.0733 159.378 16.7667 159.378 17.62C159.378 18.4733 159.632 19.1667 160.138 19.7C160.645 20.2333 161.305 20.5 162.118 20.5Z" fill="#263238"/>
<defs>
<clipPath id="clip0_336_8985">
<rect width="105" height="30" fill="white"/>
</clipPath>
</defs>
</svg>
