<svg width="80" height="40" viewBox="0 0 80 40" fill="none" xmlns="http://www.w3.org/2000/svg">
<rect width="80" height="40" rx="20" fill="#00B8CC"/>
<path fill-rule="evenodd" clip-rule="evenodd" d="M48.9336 15.1562C49.0727 14.7156 48.9336 14.3953 48.3184 14.3953H46.2727C45.7566 14.3953 45.5184 14.6758 45.3793 14.9758C45.3793 14.9758 44.327 17.5383 42.8574 19.1996C42.3809 19.6801 42.1625 19.8402 41.9043 19.8402C41.7652 19.8402 41.5863 19.6801 41.5863 19.2398V15.1355C41.5863 14.6152 41.4277 14.375 40.9906 14.375H37.7734C37.4555 14.375 37.257 14.6152 37.257 14.8555C37.257 15.3559 37.9918 15.4762 38.0711 16.8773V19.9219C38.0711 20.5824 37.9539 20.7031 37.6938 20.7031C36.9988 20.7031 35.3109 18.1207 34.2984 15.1781C34.1016 14.5953 33.9016 14.375 33.3852 14.375H31.3199C30.7242 14.375 30.625 14.6551 30.625 14.9555C30.625 15.4961 31.3199 18.2184 33.8617 21.8215C35.5496 24.2824 37.9523 25.6051 40.1168 25.6051C41.4277 25.6051 41.5863 25.3047 41.5863 24.8043V22.9426C41.5863 22.3422 41.7055 22.2422 42.1227 22.2422C42.4203 22.2422 42.9566 22.402 44.168 23.5832C45.5578 24.9844 45.7961 25.625 46.5707 25.625H48.616C49.2117 25.625 49.4898 25.3246 49.3309 24.7441C49.1523 24.1637 48.477 23.323 47.6031 22.3223C47.1266 21.7621 46.4117 21.1414 46.1934 20.841C45.8957 20.4406 45.975 20.2805 46.1934 19.9203C46.1734 19.9203 48.6758 16.357 48.9336 15.1547" fill="white"/>
</svg>
