<svg width="80" height="40" viewBox="0 0 80 40" fill="none" xmlns="http://www.w3.org/2000/svg">
<rect width="80" height="40" rx="20" fill="#00B8CC"/>
<path d="M44.8583 20.617C44.625 20.142 43.9667 19.742 43.0917 20.417C41.9 21.367 40 21.367 40 21.367C40 21.367 38.1 21.367 36.9083 20.417C36.0333 19.742 35.375 20.142 35.1417 20.617C34.725 21.4503 35.1917 21.8587 36.25 22.5337C37.1583 23.117 38.4 23.3337 39.2 23.417L38.5333 24.0837C37.5833 25.0253 36.6667 25.9337 36.0417 26.567C35.6667 26.9503 35.6667 27.5587 36.0417 27.917L36.1583 28.0503C36.5333 28.4253 37.15 28.4253 37.525 28.0503L40 25.567C40.9583 26.5087 41.8667 27.417 42.5 28.0503C42.875 28.4253 43.4833 28.4253 43.8667 28.0503L43.975 27.917C44.3583 27.5587 44.3583 26.9503 43.975 26.567L41.4917 24.0837L40.8333 23.4087C41.625 23.3337 42.85 23.1087 43.75 22.5337C44.8083 21.8587 45.275 21.4503 44.8583 20.617ZM40 13.8087C41.15 13.8087 42.0833 14.742 42.0833 15.8837C42.0833 17.0337 41.15 17.9587 40 17.9587C38.85 17.9587 37.9167 17.0337 37.9167 15.8837C37.9167 14.742 38.85 13.8087 40 13.8087ZM40 20.1003C42.3333 20.1003 44.2167 18.217 44.2167 15.8837C44.2167 14.7653 43.7724 13.6928 42.9816 12.902C42.1909 12.1112 41.1183 11.667 40 11.667C38.8817 11.667 37.8092 12.1112 37.0184 12.902C36.2276 13.6928 35.7833 14.7653 35.7833 15.8837C35.7833 18.217 37.6667 20.1003 40 20.1003Z" fill="white"/>
</svg>
