<svg width="80" height="40" viewBox="0 0 80 40" fill="none" xmlns="http://www.w3.org/2000/svg">
<rect width="80" height="40" rx="20" fill="#00B8CC"/>
<g clip-path="url(#clip0_178_2213)">
<path fill-rule="evenodd" clip-rule="evenodd" d="M46.4808 13.6916C46.6868 13.605 46.9122 13.5751 47.1336 13.6051C47.355 13.6351 47.5643 13.7239 47.7397 13.8622C47.9152 14.0006 48.0503 14.1834 48.1311 14.3917C48.2119 14.6 48.2354 14.8262 48.1992 15.0466L46.3092 26.5108C46.1258 27.6166 44.9125 28.2508 43.8983 27.7C43.05 27.2391 41.79 26.5291 40.6567 25.7883C40.09 25.4175 38.3542 24.23 38.5675 23.385C38.7508 22.6625 41.6675 19.9475 43.3342 18.3333C43.9883 17.6991 43.69 17.3333 42.9175 17.9166C40.9983 19.365 37.9192 21.5675 36.9008 22.1875C36.0025 22.7341 35.5342 22.8275 34.9742 22.7341C33.9525 22.5641 33.005 22.3008 32.2317 21.98C31.1867 21.5466 31.2375 20.11 32.2308 19.6916L46.4808 13.6916Z" fill="white"/>
</g>
<defs>
<clipPath id="clip0_178_2213">
<rect width="20" height="20" fill="white" transform="translate(30 10)"/>
</clipPath>
</defs>
</svg>
